<svg xmlns="http://www.w3.org/2000/svg" xml:space="preserve" id="Layer_1" width="1728" height="1728" x="0" y="0" style="enable-background:new 0 0 1728 1728" version="1.1">
  <style>
    .st0{fill:#7595ac}.st8{fill:#a6bfcf}.st9{fill:#a4bccc}.st11{fill:#bbcdd9}.st14{fill:#7395ad}
  </style>
  <path d="m1530 485 17 40c22 53 37 108 53 164l9 38-2 4c-22 14-31 38-43 59-17 28-29 58-40 88-6 14-6 29-7 45-7 17-13 33-14 51 0 15 2 28 12 42-1-26 8-44 30-55 7-1 10 3 14 7-1 8 1 15 4 22a237 237 0 0 1 1 38c0 15 6 28 14 40 3 5 6 9 7 16-2 21-11 39-18 58a750 750 0 0 1-117 212 718 718 0 0 1-188 173 738 738 0 0 1-412 118 706 706 0 0 1-358-102 796 796 0 0 1-189-159 762 762 0 0 1-138-231 776 776 0 0 1-52-249l-2-34a794 794 0 0 1 310-641 786 786 0 0 1 180-101c53-21 109-35 165-42 20-3 39-7 59-5 13 1 27-3 41-2a716 716 0 0 1 461 166 780 780 0 0 1 190 229c3 6 8 8 13 11z" style="fill:#010101"/>
  <path d="m1531 485-10-1-20-36-23-36c-15-21-31-42-48-62a680 680 0 0 0-162-146c-28-19-57-35-87-50l-59-25a711 711 0 0 0-506-4 718 718 0 0 0-267 168 779 779 0 0 0-234 521 801 801 0 0 0 318 688 762 762 0 0 0 266 123 669 669 0 0 0 225 16c31-3 63-6 93-14 24-6 49-11 72-19 26-9 52-17 76-30l39-19a690 690 0 0 0 196-149 980 980 0 0 0 112-153c16-28 30-56 42-86 10-24 18-50 27-75l3-10c2-2 4-2 6 0 6 7 14 14 18 24-1 10-5 17-7 26a817 817 0 0 1-322 416 762 762 0 0 1-558 111c-19-3-36-9-54-13a666 666 0 0 1-214-95 801 801 0 0 1-352-513c-9-41-14-82-17-123 0-9-2-18-1-27 0-31-1-62 1-92 3-35 6-70 14-104 6-23 10-46 17-69a853 853 0 0 1 132-266 819 819 0 0 1 217-198c50-31 102-56 158-75l76-22c16-4 32-5 48-8 33-6 66-7 99-10a990 990 0 0 1 169 15 718 718 0 0 1 319 148 794 794 0 0 1 190 214c9 15 19 29 25 46l-17 14z" style="fill:#ddddde"/>
  <path d="M1516 924c-4-24 5-44 13-65a595 595 0 0 1 58-113c6-8 13-14 22-18 12 0 21 5 29 14 13 17 22 37 33 55a421 421 0 0 1 42 106c1 6-1 12-2 18 0 14-7 24-16 32l-14 10-10 5c-28 20-57 29-88 15-8-4-17-7-24-13l-12-8c-5-1-10-4-11-10 3-4 3-8 2-12-6-20-5-40 2-59 10-30 17-62 33-91l25-43c-8 9-14 19-20 29-14 23-28 46-36 72-6 18-14 36-17 55-1 10 0 19 3 28 1 4 4 8 2 13-5 3-7-1-9-4-3-4-5-9-5-16z" style="fill:#e5d6e4"/>
  <path d="M84 891c2 21 3 43 6 64l5 42 4 26a1668 1668 0 0 0 20 80l12 38c4 13 9 25 15 37l25 57 25 45a580 580 0 0 0 40 63l30 41 2 2 33 38 14 16 8 7 7 5c16 19 35 34 54 49l41 32c5 5 12 8 18 12 20 12 39 25 59 36 21 12 44 22 67 32 17 8 36 13 54 21s38 11 56 16l33 9 31 5 44 5 21 2c27 1 55 3 82 2 19 0 38-4 56-5 16 0 31-4 46-5 18-2 36-7 54-12 13-5 28-7 41-10l24-9 36-14a1594 1594 0 0 0 114-57 1055 1055 0 0 0 116-88l35-34c15-16 31-32 45-49l25-34 29-41c9-13 17-28 25-42l14-25 27-57 7-16 17-48c2-5 4-10 5-17 4-1 6 1 9 4-4 3-6 6-8 11a753 753 0 0 1-45 112 801 801 0 0 1-154 214c-18 19-38 36-58 53-22 19-47 36-71 53-18 12-38 22-57 32l-35 19-46 19c-23 10-48 16-71 24-16 5-32 9-48 11l-56 11-29 2-123 2c-22 0-45-2-67-7-10-2-21-2-31-5-17-3-34-6-51-11a841 841 0 0 1-199-87l-47-30c-13-9-25-19-36-29-18-14-35-29-51-45-18-17-34-36-52-54-21-22-38-47-55-72a883 883 0 0 1-107-216l-14-53a741 741 0 0 1-20-177z" style="fill:#c6c6c7"/>
  <path d="m85 890-3 1c-1-34-2-68-1-102 1-18 4-35 7-53l12-68 11-38 10-35 7-19a678 678 0 0 1 86-173l41-58 39-45 29-30c11-12 23-22 35-33a782 782 0 0 1 142-100l66-31a394 394 0 0 1 78-28l36-11 66-13 51-7h125l29 3c11 1 22 2 33 5l49 10 22 4 42 13 18 6c16 4 32 11 47 18l35 16c17 8 34 17 50 27l46 28a746 746 0 0 1 190 181l32 48 30 49 5 10c1 2 0 4-1 7l-19-31c-14-23-27-46-43-66l-27-35a894 894 0 0 0-59-66l-34-32-57-45c-21-15-43-30-66-42-18-9-35-20-52-30l-35-15a1241 1241 0 0 0-98-34c-19-5-39-10-59-12l-32-5c-11-2-22-4-33-4l-52-6c-18-2-36-1-53 2l-22 3-34 2-5 1-37 6-33 5-16 5-54 15a2279 2279 0 0 0-87 35l-20 10c-24 12-47 25-69 40-21 13-42 29-62 44l-34 28-56 56-29 34c-16 18-30 39-45 59-12 17-22 35-33 53l-24 45-14 29-16 40-13 37-12 36-9 40-10 45c-2 8-3 15-3 23l-7 74c-2 25 0 49-1 74z" style="fill:#c6c7c7"/>
  <path d="m1616 1114-9-4-22-25-12-19a85 85 0 0 1-11-60c7-2 11 2 14 7 1 27 11 50 28 70 8 8 11 9 19 0 16-19 27-41 27-68 3-7 8-9 14-9 8 33-6 59-26 83l-22 25z" style="fill:#e67666"/>
  <path d="m1576 1014-13-8c-3-5-5-9-2-15 3-7 9-6 14-5l27 10c12 2 22 1 33-3l18-7c6-2 11-1 14 6l-2 13-13 8c-8 8-18 7-27 9-17 2-33 0-49-8z" class="st0"/>
  <path d="M1681 964c1-2 2-6 4-7 14-8 21-20 26-35 11 18 16 38 16 60 0 11-3 22-10 31l-10 9c5-27-1-46-26-58z" style="fill:#a8c0d1"/>
  <path d="M1667 992c-5-4-10-6-17-2l-27 9c-12 3-23-1-33-5l-17-6c-4-2-7-1-11 2-4-5-7-12-4-20l9 3 16 7c20 10 41 10 61 0l26-12c3 8-1 16-3 24z" class="st8"/>
  <path d="m1536 952 10 10-4 4a44 44 0 0 0-22 50v5l-9-8c-9-11-10-24-10-37 1-18 5-36 14-52l6 10 7 11c4 1 6 3 8 7z" class="st9"/>
  <path d="m1537 952-8-7-2-9c-6-13-7-27-3-40 2-10 6-20 9-29l6-19 17-39 9-15 14-24 15-24c2-2 4-6 10-4l-4 8-28 47c-6 12-11 24-14 37-4 17-11 33-17 49l-3 17v7c-3 12-1 23 3 34 1 5 3 9-4 11z" style="fill:#ede1ec"/>
  <path d="M1660 839c-3 13-10 24-21 31-27 18-60 3-69-25-7-25 0-42 18-56 15-13 38-12 54 1 13 10 18 23 19 39 1 3-1 6-1 10zm-48 76c-3 4-5 1-6-1v-13c1-2 4-5 7-6 2 0 6 2 7 4 2 5 2 11 0 17h-4c-3-2-2-5-3-8 0 3 1 5-1 7zm-6-163v-7c2-5 5-6 9-6 4 1 5 4 6 7v7c0 5-2 8-6 9-5 1-7-2-8-6l-1-4z" class="st11"/>
  <path d="M1617 940v11l-4 3-3-3c0-4-1-9 1-13 1-4 4-2 6 2z" style="fill:#83a1b7"/>
  <path d="M1612 916v-16c5 4 3 9 3 15l-3 1z" class="st0"/>
  <path d="m1575 1015 33 4c15 2 28-2 43-5 2 14-1 27-7 40-6 12-12 24-22 33-7 8-10 8-17 0-12-12-19-26-25-41-4-9-6-20-5-31z" style="fill:#efd493"/>
  <path d="m1569 995 2 9c-6-1-7-5-7-9 0-3 3-3 5 0z" class="st9"/>
  <path d="M1588 803c4-10 24-16 33-13 10 3 19 8 25 17 7 11 8 23 4 35-5 18-27 34-48 26s-33-34-22-53c3 1 4 3 5 0s5-6 4-10l-1-2z" class="st14"/>
  <path d="M1584 809c-1-2 0-3 2-4 2 2 1 4-2 4zm-3 5 1-5 1-1c1 2 1 4-1 6h-1zm5-10 2-2 1 1-2 2-1-1z" class="st14"/>
  <path d="M1613 744c3 4 3 9 1 15-3-6-3-10-1-15z" class="st0"/>
  <path d="m1587 805 1-2 7 1-11 17c-4 1-3-3-3-6l2-6 4-4z" class="st11"/>
  <path d="M1586 834c-1 3-2 4-4 2v-3l4 1z" class="st8"/>
</svg>
