<?xml version="1.0" encoding="utf-8"?>
<!-- Generator: Adobe Adobe Illustrator 24.2.0, SVG Export Plug-In . SVG Version: 6.00 Build 0)  -->
<svg version="1.1" id="Layer_1" xmlns="http://www.w3.org/2000/svg" xmlns:xlink="http://www.w3.org/1999/xlink" x="0px" y="0px"
	 width="1728px" height="1728px" viewBox="0 0 1728 1728" style="enable-background:new 0 0 1728 1728;" xml:space="preserve">
<style type="text/css">
	.st0{fill:#FFFFFF;}
</style>
<path d="M682.88,150.68c13.71-5.15,24.54-13.7,36.58-20.09c27.22-14.44,53.48-30.67,80.16-46.13
	c19.07-11.05,38.15-22.09,57.29-33.01c6.34-3.62,11.97-3.56,19.02,0.53c38.11,22.1,75.61,45.26,114.53,66.01
	c25.47,13.59,49.83,29.25,74.75,43.86c23.1,13.55,46.27,26.97,69.44,40.4c17.71,10.27,35.5,20.41,53.2,30.7
	c22.13,12.86,43.76,26.67,66.45,38.44c16.79,8.71,32.21,19.52,48.8,28.5c28.48,15.42,56.44,31.82,84.42,48.15
	c47.06,27.46,93.65,55.75,141.17,82.39c12.52,7.02,24.1,15.82,37.67,21.14c5.81,2.28,9.3,7.28,9.35,14.27
	c0.06,8.45,1.07,16.89,1.07,25.33c0.04,245.34,0.01,490.68-0.02,736.02c0,11.66,0.09,23.34-0.37,34.99
	c-0.31,7.95-2.39,14.05-12.04,16.85c-11.46,3.33-20.65,11.98-31.24,17.73c-26.09,14.17-51.18,30.17-76.75,45.31
	c-23.76,14.07-47.58,28.04-71.43,41.96c-25.23,14.72-50.48,29.41-75.8,43.97c-26.09,14.99-52.42,29.57-78.4,44.75
	c-25.96,15.17-51.51,31.05-77.43,46.3c-22.46,13.21-45.19,25.94-67.76,38.96c-17.4,10.03-34.74,20.16-52.08,30.29
	c-22.1,12.92-44.15,25.92-66.25,38.85c-19.04,11.14-38.1,22.25-57.2,33.29c-11.41,6.59-22.8,13.23-34.4,19.46
	c-6.65,3.57-13.02,1.78-19.35-2.01c-39.18-23.49-78.68-46.42-118.69-68.49c-27.04-14.92-53.01-31.75-79.73-47.25
	c-22.49-13.05-45.48-25.24-68.05-38.15c-17.79-10.17-35.16-21.06-52.92-31.27c-22.53-12.95-45.08-25.89-67.99-38.14
	c-12.4-6.62-23.82-14.73-36.25-21.4c-33.16-17.79-65.35-37.37-97.95-56.22c-39.21-22.67-78.68-44.9-117.53-68.16
	c-16.48-9.87-33.72-18.37-49.75-29.11c-6.72-4.5-9.21-8.79-9.22-16.36c-0.18-107.96-0.7-215.93-0.84-323.89
	c-0.18-143.82-0.11-287.64-0.15-431.46c0-8.06,0.01-16.11-0.04-24.17c-0.2-31.65,4.6-38.16,33.86-51.19
	c12.77-5.68,24.67-13.37,36.82-20.4c36.75-21.26,73.29-42.88,110.16-63.93c45.57-26.02,91.51-51.41,137.07-77.44
	c35.14-20.08,69.8-40.99,104.94-61.07C614.08,190.31,648.79,171.93,682.88,150.68z M740.85,1599.72c23.85,14,47.65,28.1,71.57,41.98
	c16.3,9.46,32.77,18.64,49.16,27.93c3.95,2.24,7.29,3.42,12.14,0.48c19.82-12.04,39.89-23.69,60.18-34.92
	c25.9-14.33,51.16-29.79,77.03-44.2c18.11-10.08,35.94-21.08,53.68-32.02c26.24-16.17,53.25-31.12,79.95-46.54
	c29.13-16.83,58.34-33.52,87.41-50.45c15.55-9.05,30.79-18.63,46.35-27.67c23.54-13.67,47.26-27.03,70.87-40.58
	c17.39-9.98,34.7-20.1,52.09-30.07c22.25-12.75,45.27-24.32,66.64-38.39c25.53-16.8,52.37-31.41,79.01-45.98
	c15.37-8.4,19.91-16.69,19.9-33.07c-0.2-250.98-0.01-501.96,0.79-752.93c0.07-20.89-0.26-38.65-25.07-44.14
	c-1.42-0.31-2.47-2.04-3.84-2.85c-15.89-9.36-31.75-18.77-47.74-27.97c-24.99-14.37-50.17-28.4-75.08-42.92
	c-25.67-14.96-50.93-30.61-76.67-45.44c-36.48-21.01-73.27-41.47-109.85-62.31c-26.07-14.85-51.99-29.95-77.99-44.92
	c-22.54-12.99-45.19-25.8-67.62-38.99c-26.3-15.46-52.06-31.87-78.68-46.74c-39.92-22.29-79.8-44.62-118.63-68.78
	c-11.76-7.32-23.43-12.55-36.79-2.13c-7.85,6.13-17.13,10.45-25.83,15.46c-24.64,14.19-49.34,28.27-73.95,42.49
	c-26.07,15.06-51.97,30.42-78.14,45.32c-25.01,14.25-50.85,27.13-75.25,42.34c-25.52,15.9-51.95,30.25-78.06,44.96
	c-34.56,19.46-68.58,39.9-103.37,58.98c-29.89,16.39-59.19,33.85-88.85,50.66c-21.26,12.04-43.44,22.63-63.84,35.96
	c-25.58,16.72-52.55,31.05-79.07,45.9c-13.32,7.46-15.92,14.79-15.89,27.81c0.46,178.46,0.57,356.93,0.79,535.39
	c0.1,82.18,0.28,164.36,0.35,246.55c0.01,7.08-0.23,14.67,7.87,17.15c7.99,2.44,14.02,7.75,20.97,11.67
	c36.66,20.67,73.37,41.28,109.81,62.34c27.12,15.68,53.64,32.38,80.8,47.97c44.13,25.33,88.86,49.61,132.79,75.28
	c40.46,23.64,80.8,47.44,121.78,70.19C675.2,1560.62,707.09,1580.02,740.85,1599.72z"/>
<path class="st0" d="M740.07,1599.28c-32.99-19.26-64.87-38.66-97.48-56.76c-40.98-22.75-81.32-46.56-121.78-70.19
	c-43.93-25.66-88.66-49.95-132.79-75.28c-27.16-15.59-53.68-32.3-80.8-47.97c-36.44-21.06-73.14-41.67-109.81-62.34
	c-6.95-3.92-12.98-9.23-20.97-11.67c-8.1-2.48-7.86-10.06-7.87-17.15c-0.07-82.18-0.25-164.36-0.35-246.55
	c-0.22-178.46-0.34-356.93-0.79-535.39c-0.03-13.02,2.57-20.35,15.89-27.81c26.52-14.85,53.49-29.19,79.07-45.9
	c20.4-13.33,42.58-23.92,63.84-35.96c29.66-16.81,58.96-34.27,88.85-50.66c34.79-19.08,68.8-39.51,103.37-58.98
	c26.12-14.71,52.54-29.05,78.06-44.96c24.4-15.21,50.24-28.09,75.25-42.34c26.16-14.9,52.07-30.25,78.14-45.32
	c24.62-14.22,49.32-28.3,73.95-42.49c8.7-5.01,17.98-9.33,25.83-15.46c13.36-10.42,25.03-5.19,36.79,2.13
	c38.83,24.16,78.71,46.49,118.63,68.78c26.63,14.86,52.39,31.28,78.68,46.74c22.43,13.19,45.07,26,67.62,38.99
	c25.99,14.98,51.92,30.07,77.99,44.92c36.58,20.84,73.37,41.3,109.85,62.31c25.74,14.83,51,30.48,76.67,45.44
	c24.9,14.51,50.09,28.55,75.08,42.92c15.99,9.19,31.85,18.61,47.74,27.97c1.37,0.81,2.42,2.54,3.84,2.85
	c24.81,5.49,25.14,23.25,25.07,44.14c-0.8,250.98-0.98,501.95-0.79,752.93c0.01,16.38-4.53,24.67-19.9,33.07
	c-26.64,14.56-53.48,29.18-79.01,45.98c-21.38,14.07-44.39,25.64-66.64,38.39c-17.4,9.97-34.7,20.09-52.09,30.07
	c-23.61,13.55-47.33,26.92-70.87,40.58c-15.56,9.03-30.8,18.62-46.35,27.67c-29.07,16.92-58.28,33.62-87.41,50.45
	c-26.7,15.43-53.71,30.37-79.95,46.54c-17.75,10.94-35.57,21.93-53.68,32.02c-25.87,14.41-51.13,29.86-77.03,44.2
	c-20.29,11.23-40.36,22.88-60.18,34.92c-4.85,2.95-8.19,1.76-12.14-0.48c-16.39-9.3-32.86-18.47-49.16-27.93
	C788.51,1627.81,764.7,1613.72,740.07,1599.28z M1039.27,203.64c-25.13-14.09-50.33-28.03-75.36-42.29
	c-30.62-17.45-61.09-35.17-91.64-52.76c-4.16-2.39-8.5-2.53-12.69-0.24c-8.38,4.57-16.68,9.28-24.99,13.96
	c-16.77,9.45-33.58,18.84-50.29,28.4c-23.97,13.71-47.87,27.55-71.8,41.32c-18.1,10.42-36.21,20.81-54.31,31.23
	c-23.55,13.56-47.08,27.15-70.65,40.69c-17.05,9.79-34.13,19.54-51.21,29.27c-22.6,12.88-45.31,25.59-67.81,38.63
	c-17.01,9.86-33.62,20.43-50.71,30.16c-23.26,13.24-47.27,25.21-70.13,39.09c-39.02,23.69-78.56,46.43-118.79,67.94
	c-15.62,8.35-22.94,18.89-22.78,37.89c0.72,88.2-0.36,176.4-0.45,264.61c-0.16,150.23,0.24,300.46-0.51,450.69
	c-0.08,15.69,3.54,25.66,17.43,33.03c20.79,11.03,40.72,23.7,61.47,34.82c12.43,6.66,24.24,14.27,36.43,21.26
	c24.97,14.32,50.2,28.16,75.2,42.43c17.77,10.14,35.26,20.77,53,30.95c22.9,13.13,46.01,25.91,68.89,39.07
	c17.73,10.2,35.21,20.83,52.87,31.14c24.89,14.54,49.8,29.05,74.81,43.4c24.35,13.97,48.58,28.18,72.98,42
	c28.61,16.21,57,32.77,85.54,49.1c19.06,10.91,38.18,21.73,57.27,32.59c3.8,2.16,7.5,2.28,11.38-0.09
	c17.08-10.41,34.62-20.02,51.96-29.97c40.28-23.14,80.55-46.31,120.68-69.68c40.81-23.77,82.24-46.47,122.69-70.78
	c44.99-27.04,91.2-51.93,136.02-79.24c29.38-17.9,59.71-34.24,89.58-51.35c20.15-11.54,40.22-23.25,60.37-34.79
	c14.87-8.52,29.34-17.95,44.87-25.08c23.03-10.58,26.11-13.94,26.11-39.21c0.02-80.96,0.04-161.91,0.06-242.87
	c0.04-160.3,0-320.6,0.29-480.9c0.02-10.49-2.91-17.46-12.53-22.32c-11.38-5.76-22.14-12.76-33.23-19.12
	c-29.86-17.12-59.8-34.11-89.63-51.3c-23.24-13.4-45.93-27.83-69.64-40.32c-25.53-13.45-49.83-28.97-75.27-42.6
	c-29.98-16.06-59.38-33.36-88.56-50.85C1118.01,248.66,1078.08,228.82,1039.27,203.64z"/>
<path d="M1040.12,203.9c37.96,24.91,77.89,44.76,116.05,67.63c29.18,17.48,58.58,34.79,88.56,50.85
	c25.44,13.62,49.74,29.14,75.27,42.6c23.71,12.5,46.4,26.92,69.64,40.32c29.82,17.19,59.77,34.18,89.63,51.3
	c11.09,6.36,21.84,13.36,33.23,19.12c9.61,4.87,12.55,11.83,12.53,22.32c-0.29,160.3-0.26,320.6-0.29,480.9
	c-0.02,80.96-0.04,161.91-0.06,242.87c-0.01,25.27-3.08,28.63-26.11,39.21c-15.52,7.13-29.99,16.56-44.87,25.08
	c-20.16,11.54-40.22,23.25-60.37,34.79c-29.87,17.11-60.19,33.45-89.58,51.35c-44.82,27.31-91.03,52.2-136.02,79.24
	c-40.45,24.31-81.88,47.02-122.69,70.78c-40.14,23.37-80.4,46.55-120.68,69.68c-17.33,9.96-34.88,19.56-51.96,29.97
	c-3.88,2.37-7.58,2.25-11.38,0.09c-19.09-10.86-38.21-21.68-57.27-32.59c-28.53-16.33-56.93-32.89-85.54-49.1
	c-24.41-13.83-48.64-28.03-72.98-42c-25-14.35-49.91-28.86-74.81-43.4c-17.66-10.31-35.14-20.94-52.87-31.14
	c-22.88-13.16-45.99-25.94-68.89-39.07c-17.75-10.18-35.23-20.81-53-30.95c-25-14.26-50.24-28.11-75.2-42.43
	c-12.19-6.99-24-14.6-36.43-21.26c-20.75-11.12-40.68-23.78-61.47-34.82c-13.89-7.37-17.51-17.34-17.43-33.03
	c0.75-150.23,0.36-300.46,0.51-450.69c0.09-88.2,1.17-176.41,0.45-264.61c-0.16-19,7.16-29.53,22.78-37.89
	c40.24-21.51,79.78-44.25,118.79-67.94c22.86-13.88,46.87-25.85,70.13-39.09c17.09-9.73,33.7-20.29,50.71-30.16
	c22.51-13.05,45.21-25.76,67.81-38.63c17.08-9.73,34.16-19.48,51.21-29.27c23.56-13.54,47.09-27.13,70.65-40.69
	c18.1-10.42,36.21-20.81,54.31-31.23c23.93-13.77,47.83-27.61,71.8-41.32c16.71-9.56,33.52-18.95,50.29-28.4
	c8.31-4.68,16.61-9.39,24.99-13.96c4.2-2.29,8.53-2.15,12.69,0.24c30.55,17.59,61.02,35.31,91.64,52.76
	C988.94,175.61,1014.14,189.55,1040.12,203.9z M1030,208.44c-37.22-21.15-74.48-42.24-111.66-63.49
	c-13.9-7.94-27.63-16.17-41.35-24.41c-6.23-3.74-12.76-5.78-19.23-1.63c-11.13,7.13-23.14,12.85-34.15,19.87
	c-16.62,10.59-34.01,19.79-50.87,29.9c-34.6,20.73-70.89,38.66-105.25,59.76c-33.84,20.77-69.04,39.08-103.03,59.54
	c-29.49,17.76-59.62,34.44-89.55,51.47c-25.43,14.47-51.07,28.57-76.43,43.17c-25.66,14.77-51.06,29.98-76.61,44.94
	c-13.17,7.71-26.2,15.7-39.65,22.88c-20.84,11.13-41.6,22.31-61.15,35.67c-3.89,2.66-4.97,5.23-4.94,9.78
	c0.23,27.79,0.06,55.58,0.03,83.38c-0.09,116.42,0.73,232.84-0.55,349.24c-1.08,98.68-0.03,197.36-1.23,296.03
	c-0.13,10.25,2.8,16.47,11.44,21.24c10.13,5.59,20.46,11.16,29.97,17.45c24.83,16.41,51.66,29.21,76.89,44.9
	c34.58,21.51,70.79,40.4,106.17,60.63c27.12,15.5,53.99,31.42,81.06,47c24.58,14.15,49.36,27.93,73.89,42.16
	c24.99,14.5,49.64,29.58,74.7,43.96c25.66,14.72,51.81,28.6,77.42,43.39c35.36,20.41,70.53,41.15,105.54,62.16
	c10.46,6.28,19.54,6.24,29.94-0.36c29.72-18.89,60.87-35.36,91.3-53.06c40.5-23.56,81.17-46.83,121.75-70.24
	c30.49-17.59,61.17-34.85,91.51-52.68c40.33-23.71,80.78-47.15,121.58-70.03c33.89-19.01,67.01-39.36,100.6-58.91
	c29.42-17.11,58.84-34.22,88.6-50.74c13.26-7.36,19.83-15.78,19.78-32.74c-0.52-171.2,0.09-342.4,0.4-513.59
	c0.01-4.83,0.37-9.66,0.39-14.49c0.29-64.44,0.54-128.89,0.86-193.33c0.02-4.85-1.53-7.67-6.25-10.3
	c-15.37-8.55-30.16-18.14-45.28-27.15c-13.81-8.23-27.66-16.38-41.65-24.3c-25.75-14.57-51.97-28.37-77.33-43.57
	c-25.41-15.23-51.36-29.5-76.64-44.99c-33.77-20.7-69.03-38.95-103.54-58.46c-16.73-9.45-33.16-19.43-49.78-29.07
	C1088.96,242.77,1060.16,226.18,1030,208.44z"/>
<path class="st0" d="M1030.69,209c29.47,17.18,58.28,33.77,87.03,50.44c16.62,9.64,33.06,19.61,49.78,29.07
	c34.51,19.51,69.77,37.76,103.54,58.46c25.28,15.49,51.23,29.76,76.64,44.99c25.37,15.21,51.58,29,77.33,43.57
	c13.99,7.92,27.84,16.07,41.65,24.3c15.12,9.01,29.91,18.6,45.28,27.15c4.72,2.63,6.28,5.45,6.25,10.3
	c-0.32,64.44-0.56,128.89-0.86,193.33c-0.02,4.83-0.38,9.66-0.39,14.49c-0.31,171.2-0.93,342.4-0.4,513.59
	c0.05,16.95-6.52,25.38-19.78,32.74c-29.75,16.52-59.18,33.62-88.6,50.74c-33.59,19.54-66.72,39.9-100.6,58.91
	c-40.8,22.89-81.26,46.33-121.58,70.03c-30.33,17.83-61.02,35.09-91.51,52.68c-40.59,23.41-81.25,46.68-121.75,70.24
	c-30.42,17.69-61.58,34.17-91.3,53.06c-10.39,6.6-19.47,6.64-29.94,0.36c-35.01-21.01-70.18-41.75-105.54-62.16
	c-25.62-14.79-51.76-28.67-77.42-43.39c-25.06-14.38-49.71-29.46-74.7-43.96c-24.53-14.23-49.31-28.01-73.89-42.16
	c-27.07-15.58-53.95-31.5-81.06-47c-35.39-20.23-71.6-39.11-106.17-60.63c-25.23-15.7-52.05-28.5-76.89-44.9
	c-9.51-6.28-19.85-11.86-29.97-17.45c-8.64-4.77-11.57-10.99-11.44-21.24c1.2-98.67,0.15-197.35,1.23-296.03
	c1.28-116.4,0.46-232.83,0.55-349.24c0.02-27.79,0.2-55.59-0.03-83.38c-0.04-4.55,1.04-7.12,4.94-9.78
	c19.55-13.35,40.31-24.54,61.15-35.67c13.45-7.18,26.48-15.17,39.65-22.88c25.54-14.96,50.95-30.17,76.61-44.94
	c25.36-14.6,51-28.7,76.43-43.17c29.92-17.03,60.06-33.71,89.55-51.47c33.99-20.47,69.18-38.77,103.03-59.54
	c34.36-21.09,70.66-39.02,105.25-59.76c16.85-10.1,34.24-19.3,50.87-29.9c11.01-7.01,23.03-12.73,34.15-19.87
	c6.47-4.15,13-2.1,19.23,1.63c13.73,8.23,27.46,16.47,41.35,24.41C955.52,166.2,992.78,187.29,1030.69,209z M1264.83,1256.69
	c23.79-14.01,47.23-28.66,71.51-41.77c14.81-8,28.77-17.4,43.65-25.33c9.73-5.18,23.73-8.61,24.26-24.1
	c0.33-9.65,0.96-19.31,0.97-28.96c0.07-65.66,0.3-131.33-0.08-196.99c-0.71-124.46,1.9-248.94-1.31-373.4
	c-0.22-8.57-2.41-14.13-10.49-18.19c-11.76-5.91-22.82-13.21-34.26-19.8c-14.6-8.41-29.29-16.64-43.89-25.03
	c-24.91-14.32-49.81-28.66-74.66-43.1c-14.94-8.68-29.67-17.72-44.66-26.3c-25.33-14.5-50.91-28.53-76.15-43.18
	c-25.68-14.9-50.87-30.66-76.64-45.39c-32.65-18.67-65.8-36.44-98.48-55.06c-24.66-14.05-48.9-28.83-73.36-43.23
	c-5.41-3.19-10.72-2.75-15.86,0.88c-3.61,2.55-7.18,5.2-11.02,7.35c-25.07,14.03-50.38,27.63-75.28,41.95
	c-37.13,21.36-73.85,43.42-110.99,64.76c-35.37,20.33-71.08,40.07-106.56,60.2c-15.71,8.91-31.17,18.25-46.86,27.17
	c-24.3,13.82-48.84,27.22-73.04,41.21c-28.05,16.21-55.67,33.15-84.66,47.73c-13.11,6.59-20.92,15.42-20.85,32.83
	c0.69,182.08,0.32,364.17,0.25,546.26c-0.01,16.48-0.03,33.09-1.23,49.37c-0.64,8.67,0.99,12.46,7.22,16.26
	c13.01,7.92,26.54,14.9,39.59,22.8c23.6,14.3,48.31,26.76,72.25,40.53c36.09,20.76,71.8,42.19,107.88,62.96
	c34.69,19.97,69.93,39,104.41,59.32c30.03,17.69,60.22,35.07,90.48,52.37c33.05,18.89,66.44,37.32,98.6,57.66
	c14.31,9.05,24.29,9.14,38.76,0.1c35.66-22.3,72.9-42.04,109.23-63.28c44.25-25.88,88.07-52.48,132.32-78.35
	C1171.54,1310.22,1217.49,1284.04,1264.83,1256.69z"/>
<path d="M1264.08,1257.16c-46.58,26.88-92.54,53.06-138.2,79.75c-44.25,25.87-88.08,52.47-132.32,78.35
	c-36.33,21.25-73.57,40.99-109.23,63.28c-14.46,9.05-24.45,8.96-38.76-0.1c-32.15-20.34-65.55-38.78-98.6-57.66
	c-30.26-17.29-60.45-34.68-90.48-52.37c-34.49-20.31-69.72-39.35-104.41-59.32c-36.08-20.77-71.79-42.2-107.88-62.96
	c-23.94-13.77-48.65-26.22-72.25-40.53c-13.05-7.91-26.58-14.88-39.59-22.8c-6.23-3.8-7.86-7.59-7.22-16.26
	c1.2-16.28,1.22-32.89,1.23-49.37c0.07-182.09,0.45-364.18-0.25-546.26c-0.07-17.41,7.74-26.23,20.85-32.83
	c28.99-14.58,56.61-31.52,84.66-47.73c24.2-13.98,48.74-27.39,73.04-41.21c15.7-8.92,31.16-18.26,46.86-27.17
	c35.49-20.13,71.2-39.87,106.56-60.2c37.13-21.35,73.86-43.41,110.99-64.76c24.9-14.32,50.21-27.92,75.28-41.95
	c3.84-2.15,7.41-4.81,11.02-7.35c5.14-3.62,10.45-4.06,15.86-0.88c24.46,14.4,48.7,29.18,73.36,43.23
	c32.68,18.61,65.83,36.39,98.48,55.06c25.77,14.74,50.96,30.49,76.64,45.39c25.24,14.64,50.83,28.68,76.15,43.18
	c14.99,8.58,29.72,17.62,44.66,26.3c24.85,14.44,49.75,28.77,74.66,43.1c14.6,8.4,29.3,16.63,43.89,25.03
	c11.43,6.58,22.49,13.88,34.26,19.8c8.07,4.06,10.27,9.62,10.49,18.19c3.21,124.46,0.6,248.93,1.31,373.4
	c0.38,65.66,0.15,131.33,0.08,196.99c-0.01,9.65-0.64,19.31-0.97,28.96c-0.53,15.49-14.53,18.92-24.26,24.1
	c-14.88,7.92-28.84,17.32-43.65,25.33C1312.07,1228.03,1288.62,1242.68,1264.08,1257.16z M415.28,1219.63
	c28.52,16.36,57.04,32.7,85.55,49.09c24.28,13.96,48.54,27.94,72.79,41.95c24.24,14,48.44,28.06,72.66,42.08
	c17.37,10.05,34.71,20.15,52.14,30.1c22.23,12.69,44.63,25.07,66.78,37.89c31.21,18.05,62.29,36.33,93.35,54.65
	c4.98,2.94,8.68,1.13,13.38-1.01c12.14-5.53,22.61-13.71,34.13-20.21c24.76-13.97,49.32-28.28,73.95-42.47
	c17.02-9.8,34.07-19.55,51.02-29.47c22.45-13.15,45.12-25.97,67.44-39.29c18.57-11.08,37.54-21.48,56.03-32.7
	c23.22-14.1,46.83-27.58,70.24-41.37c24.91-14.68,49.53-29.89,74.74-44.03c28.67-16.08,57.34-32.11,85.47-49.14
	c8.99-5.44,11.18-11.77,11.17-21.57c-0.28-189.69-0.54-379.38,0.21-569.06c0.07-18.1-5.23-28.32-20.83-36.9
	c-42.44-23.35-84.06-48.19-126.03-72.39c-29.14-16.79-58.31-33.52-87.5-50.23c-17.03-9.75-34.19-19.29-51.19-29.09
	c-22.19-12.78-44.31-25.69-66.41-38.62c-16.59-9.71-33.03-19.67-49.68-29.27c-23.9-13.78-48.01-27.2-71.89-41.02
	c-15.6-9.03-31.05-18.34-46.39-27.81c-7.68-4.74-14.98-4.73-22.67-0.27c-23.5,13.64-47.07,27.16-70.59,40.76
	c-15.62,9.03-31.15,18.22-46.83,27.15c-25.33,14.42-50.77,28.66-76.14,43.02c-17.1,9.68-34.17,19.4-51.23,29.14
	c-22.93,13.09-45.52,26.73-68.82,39.23c-27.2,14.6-53.16,31.48-79.98,46.81C423.28,506.66,386.12,527.2,349.1,548
	c-9.4,5.28-13.77,12.24-13.78,24.13c-0.22,195.71,0.3,391.44-2.96,587.13c-0.12,7.05,1.55,11.93,7.82,16.14
	C363.87,1191.28,389.58,1203.69,415.28,1219.63z"/>
<path class="st0" d="M414.52,1219.17c-24.94-15.48-50.65-27.88-74.35-43.77c-6.27-4.2-7.93-9.09-7.82-16.14
	c3.26-195.7,2.74-391.42,2.96-587.13c0.01-11.9,4.39-18.85,13.78-24.13c37.02-20.8,74.18-41.34,111.04-62.42
	c26.82-15.34,52.78-32.22,79.98-46.81c23.3-12.5,45.89-26.14,68.82-39.23c17.06-9.74,34.13-19.47,51.23-29.14
	c25.37-14.36,50.8-28.6,76.14-43.02c15.68-8.93,31.21-18.12,46.83-27.15c23.52-13.6,47.09-27.12,70.59-40.76
	c7.69-4.46,14.98-4.47,22.67,0.27c15.34,9.47,30.78,18.78,46.39,27.81c23.88,13.82,47.99,27.24,71.89,41.02
	c16.65,9.6,33.09,19.57,49.68,29.27c22.1,12.93,44.22,25.84,66.41,38.62c17,9.8,34.16,19.34,51.19,29.09
	c29.19,16.7,58.37,33.43,87.5,50.23c41.98,24.19,83.6,49.03,126.03,72.39c15.6,8.58,20.9,18.81,20.83,36.9
	c-0.75,189.68-0.49,379.37-0.21,569.06c0.01,9.8-2.18,16.13-11.17,21.57c-28.13,17.03-56.8,33.07-85.47,49.14
	c-25.21,14.14-49.83,29.35-74.74,44.03c-23.41,13.8-47.01,27.27-70.24,41.37c-18.49,11.23-37.46,21.62-56.03,32.7
	c-22.32,13.32-44.98,26.14-67.44,39.29c-16.95,9.92-34,19.67-51.02,29.47c-24.63,14.19-49.19,28.51-73.95,42.47
	c-11.51,6.49-21.99,14.67-34.13,20.21c-4.7,2.14-8.4,3.95-13.38,1.01c-31.05-18.32-62.14-36.59-93.35-54.65
	c-22.15-12.81-44.55-25.2-66.78-37.89c-17.43-9.95-34.77-20.05-52.14-30.1c-24.23-14.02-48.43-28.08-72.66-42.08
	c-24.25-14.01-48.51-27.99-72.79-41.95C472.32,1252.33,443.79,1235.99,414.52,1219.17z M981.33,1018.77
	c10.76,8.74,22.7,16.9,36.51,16.92c30.65,0.03,60.94,4.77,91.47,5.26c35.83,0.59,71.67,0.38,107.51,0.33
	c8.35-0.01,16.65,1.69,25.09-1.34c25.13-9.03,40.38-27.21,40.18-56.25c-0.25-38.25,0.69-76.5,0.88-114.75
	c0.03-6.79,1.67-11.73,6.86-16.9c7.34-7.32,12.08-16.47,11.86-27.93c-0.37-19.31-1.52-38.93,1.21-57.9
	c3.96-27.53-15.54-40.12-32.52-51.51c-25.82-17.32-55.67-27.5-84.95-38.6c-38.4-14.56-77.68-22.66-118.27-26.23
	c-43.39-3.82-86.95-0.07-130.36-3.28c-16.03-1.19-32.46-2.65-48.21-0.43c-15.65,2.2-30.46,2.86-45.43-2.11
	c-0.36-0.12-0.8,0.02-1.2,0.01c-70.12-0.97-139.83,1.95-209.04,15.29c-49.27,9.5-98.79,17.02-145.5,36.65
	c-21.88,9.2-37.93,25.01-51.62,43.26c-5.2,6.93-9.37,15.46-8.78,25.59c1.17,20.08,1.2,40.22,1.55,60.34
	c0.1,5.71-0.1,11.56,4.13,15.94c11.35,11.74,11.84,26.12,12.42,41.41c1.52,40.07-5.07,80.39,4.33,120.27
	c3.88,16.48,21.38,34.15,39.05,35.67c16,1.38,32.08,2.62,48.13,2.63c42.64,0.02,85.27,1.48,127.92-1.8
	c27.36-2.11,53.22-4.45,77.26-21.23c18.79-13.12,31.6-29.68,41.33-48.84c17.78-34.99,34.06-70.73,56.83-102.96
	c12.54-17.74,33.31-20.63,47.36-6.34c17.56,17.86,27.08,40.44,36.1,63.05C937.27,957.64,948.02,993.92,981.33,1018.77z"/>
<path d="M980.66,1018.22c-32.63-24.3-43.39-60.58-57.22-95.24c-9.02-22.61-18.55-45.19-36.1-63.05
	c-14.05-14.29-34.82-11.41-47.36,6.34c-22.78,32.23-39.06,67.96-56.83,102.96c-9.73,19.16-22.54,35.72-41.33,48.84
	c-24.05,16.79-49.91,19.13-77.26,21.23c-42.65,3.28-85.28,1.82-127.92,1.8c-16.05-0.01-32.12-1.25-48.13-2.63
	c-17.67-1.52-35.16-19.18-39.05-35.67c-9.4-39.88-2.81-80.2-4.33-120.27c-0.58-15.28-1.06-29.66-12.42-41.41
	c-4.24-4.38-4.03-10.22-4.13-15.94c-0.35-20.12-0.38-40.27-1.55-60.34c-0.59-10.13,3.59-18.66,8.78-25.59
	c13.69-18.25,29.73-34.06,51.62-43.26c46.71-19.63,96.23-27.15,145.5-36.65c69.21-13.34,138.92-16.26,209.04-15.29
	c0.4,0.01,0.84-0.13,1.2-0.01c14.97,4.97,29.78,4.32,45.43,2.11c15.75-2.22,32.18-0.76,48.21,0.43
	c43.41,3.21,86.97-0.54,130.36,3.28c40.59,3.57,79.87,11.67,118.27,26.23c29.28,11.1,59.13,21.28,84.95,38.6
	c16.98,11.39,36.48,23.98,32.52,51.51c-2.73,18.98-1.58,38.59-1.21,57.9c0.22,11.46-4.52,20.62-11.86,27.93
	c-5.19,5.17-6.82,10.11-6.86,16.9c-0.19,38.25-1.14,76.5-0.88,114.75c0.19,29.04-15.06,47.22-40.18,56.25
	c-8.44,3.03-16.74,1.33-25.09,1.34c-35.84,0.05-71.68,0.25-107.51-0.33c-30.53-0.5-60.83-5.23-91.47-5.26
	C1004.03,1035.67,992.09,1027.51,980.66,1018.22z M1160.31,681.07c-3.85,0.3-6.85-1.91-10.17-3.32
	c-17.86-7.57-36.42-14.57-55.57-15.46c-41.75-1.95-83.43-5.91-125.29-5.35c-13.28,0.18-26.59-1.14-39.84-0.67
	c-20.19,0.71-40.93-4.81-60.46,5.03c-2.16,1.09-6.54,0.97-8.12-0.5c-9.95-9.29-21.99-5.56-33.32-6.08
	c-54.82-2.53-109.68,0.39-163.68,8.14c-48.3,6.94-96.51,16.3-143.57,30.9c-32.4,10.05-59.04,25.82-78.25,53.97
	c-4.1,6-6.07,11.91-6.05,19.03c0.05,19.72,2.22,39.42,0.44,59.16c-0.37,4.16,0.53,8,4.42,10.55c8.74,5.72,10.41,14.37,10.85,24.12
	c1.97,43.64-4.21,87.47,3.91,131.03c3.25,17.43,18.65,37.54,33.3,38.19c24.92,1.12,49.87,1.5,74.8,2.34
	c38.24,1.29,76.4-1.83,114.59-1.86c28.68-0.02,51.12-12.81,71.03-30.79c25.78-23.26,35.02-57.2,51.53-86.33
	c11.07-19.55,21.39-39.37,35.46-56.9c11.24-14.01,25.71-19.46,37.92-14.51c13.34,5.41,24.82,14.15,32.45,26.18
	c15.34,24.15,26.7,50.61,36.2,77.34c8.42,23.72,20.01,44.87,38.29,61.19c10.31,9.2,21.49,20.05,36.9,21.21
	c16.44,1.24,32.96,2.23,49.44,2.15c54.72-0.26,109.38,4.83,164.16,0.7c21.31-1.61,42.6-21.12,41.56-42.72
	c-1.97-40.71,2.01-81.29,1.75-121.94c-0.07-10.23,2.63-18.78,11.25-25.12c4.21-3.1,7.34-6.94,7.26-13.07
	c-0.3-22.14-0.12-44.3-0.1-66.44c0-4.14-0.79-7.4-4.54-10.39c-17.44-13.9-33.17-29.71-53.09-40.73
	C1212.42,697.17,1187.91,687.96,1160.31,681.07z"/>
<path class="st0" d="M1161.31,681.1c26.61,6.86,51.12,16.08,74.49,29c19.92,11.02,35.65,26.83,53.09,40.73
	c3.75,2.99,4.54,6.25,4.54,10.39c-0.02,22.15-0.2,44.3,0.1,66.44c0.08,6.13-3.04,9.97-7.26,13.07
	c-8.62,6.34-11.32,14.89-11.25,25.12c0.26,40.65-3.72,81.23-1.75,121.94c1.05,21.61-20.25,41.12-41.56,42.72
	c-54.78,4.13-109.44-0.95-164.16-0.7c-16.48,0.08-33-0.91-49.44-2.15c-15.41-1.16-26.59-12.01-36.9-21.21
	c-18.28-16.32-29.87-37.48-38.29-61.19c-9.5-26.74-20.86-53.19-36.2-77.34c-7.64-12.03-19.12-20.77-32.45-26.18
	c-12.21-4.96-26.68,0.5-37.92,14.51c-14.07,17.53-24.39,37.36-35.46,56.9c-16.5,29.13-25.75,63.07-51.53,86.33
	c-19.92,17.97-42.35,30.76-71.03,30.79c-38.19,0.03-76.35,3.16-114.59,1.86c-24.93-0.84-49.88-1.22-74.8-2.34
	c-14.65-0.66-30.05-20.76-33.3-38.19c-8.12-43.56-1.95-87.38-3.91-131.03c-0.44-9.75-2.12-18.39-10.85-24.12
	c-3.89-2.55-4.8-6.39-4.42-10.55c1.78-19.74-0.39-39.44-0.44-59.16c-0.02-7.12,1.95-13.02,6.05-19.03
	c19.22-28.15,45.86-43.92,78.25-53.97c47.06-14.61,95.27-23.97,143.57-30.9c54-7.76,108.86-10.67,163.68-8.14
	c11.32,0.52,23.37-3.21,33.32,6.08c1.57,1.47,5.96,1.59,8.12,0.5c19.53-9.84,40.27-4.33,60.46-5.03
	c13.26-0.46,26.57,0.85,39.84,0.67c41.86-0.56,83.55,3.4,125.29,5.35c19.14,0.9,37.71,7.9,55.57,15.46
	C1153.45,679.16,1156.45,681.37,1161.31,681.1z M698.12,679.53c-32.1-1.1-63,5.72-94.04,12.95c-39.47,9.19-76.47,23.34-109.7,46.84
	c-18.92,13.38-31.32,29.45-31.47,54.44c-0.14,24.98,0.35,49.88,1.51,74.81c1.71,36.96,3.23,73.93,4.97,110.89
	c0.38,8.09,2.08,16.03,5.92,23.24c4.87,9.15,11.86,14.21,23.15,14.17c38.22-0.13,76.47-0.17,114.67,1.13
	c23.44,0.79,46.49-3.66,69.82-3.12c39.93,0.93,66.74-18.45,83-53.86c7.67-16.71,13.99-34.1,22.57-50.31
	c9.72-18.38,21.56-35.62,31.98-53.64c18.72-32.37,49.99-36.89,77.22-11.17c20.02,18.9,32.01,43.26,44,67.1
	c10.74,21.35,18.43,44.03,32.36,64.03c20.6,29.58,49.59,43.06,83.86,43.91c53.52,1.33,107.1-0.1,160.65,0.24
	c13.78,0.09,24.52-5.83,35.24-12.98c5.58-3.72,7.58-8.77,7.46-15.42c-1.29-69.27,1.12-138.51,2.86-207.74
	c0.29-11.58-3.07-20.34-10.87-27.87c-9.8-9.45-18.89-19.99-31.15-26.33c-15.94-8.24-32.25-15.53-49.09-22.12
	c-24.92-9.74-50.5-16.69-76.32-21.46c-70.66-13.03-142.41-13.05-213.97-12.85C821.96,674.57,761.15,675.6,698.12,679.53z"/>
<path d="M699.28,679.53c61.87-3.93,122.68-4.96,183.47-5.13c71.56-0.2,143.31-0.18,213.97,12.85c25.82,4.76,51.39,11.71,76.32,21.46
	c16.85,6.59,33.15,13.87,49.09,22.12c12.26,6.34,21.35,16.88,31.15,26.33c7.81,7.52,11.17,16.29,10.87,27.87
	c-1.75,69.23-4.16,138.47-2.86,207.74c0.12,6.64-1.88,11.7-7.46,15.42c-10.72,7.15-21.46,13.07-35.24,12.98
	c-53.55-0.34-107.13,1.09-160.65-0.24c-34.27-0.85-63.26-14.33-83.86-43.91c-13.92-20-21.62-42.68-32.36-64.03
	c-11.99-23.83-23.98-48.19-44-67.1c-27.24-25.71-58.5-21.2-77.22,11.17c-10.42,18.02-22.26,35.26-31.98,53.64
	c-8.58,16.21-14.9,33.6-22.57,50.31c-16.26,35.42-43.08,54.79-83,53.86c-23.33-0.54-46.38,3.91-69.82,3.12
	c-38.19-1.29-76.44-1.26-114.67-1.13c-11.28,0.04-18.28-5.02-23.15-14.17c-3.83-7.2-5.54-15.15-5.92-23.24
	c-1.75-36.96-3.26-73.93-4.97-110.89c-1.16-24.93-1.65-49.83-1.51-74.81c0.14-24.99,12.55-41.06,31.47-54.44
	c33.24-23.5,70.24-37.65,109.7-46.84C635.12,685.25,666.02,678.42,699.28,679.53z M1109.34,1013.11
	c37.04-0.14,74.09-0.22,111.13-0.45c19.19-0.12,31.97-13.09,31.85-32.03c-0.06-9.26-0.11-18.51-0.27-27.77
	c-0.9-52.37,3.04-104.57,5.36-156.83c0.41-9.28-1.33-17.47-7.26-24.79c-10.15-12.54-21.83-23.48-35.84-31.35
	c-35.76-20.09-73.2-35.27-114-42.8c-45.64-8.41-91.54-13.17-137.76-14.31c-71.66-1.76-143.33,0.18-214.94,2.61
	c-35.73,1.21-71.63,2.01-106.98,8.23c-45.31,7.97-88.82,21.22-128.54,45.4c-25.52,15.53-42.62,35.03-41.91,67.4
	c1.32,59.6,5.36,119,10.54,178.35c1.55,17.72,8.86,24.2,26.51,24.31c34.2,0.22,68.41,0.11,102.61,0.24
	c9.64,0.04,19.5,1.88,28.89,0.45c26.86-4.09,54.48-2.3,80.63-12.85c13.49-5.44,23.79-13.11,29.9-25.35
	c7.3-14.62,13.91-29.72,20.94-44.41c14.15-29.56,30.51-58.15,49.23-85.29c14.63-21.22,44.9-29,67.13-15.97
	c28.29,16.6,43.34,44.08,57.71,71.77c12.84,24.74,21.55,51.63,37.4,74.77c5.79,8.46,13.35,16.73,21.98,22.04
	c22.54,13.86,46.91,22.29,74.29,18.84C1087.47,1012.11,1097.26,1013.11,1109.34,1013.11z"/>
<path class="st0" d="M1108.13,1013.11c-10.87,0-20.66-1-30.18,0.2c-27.37,3.45-51.74-4.98-74.29-18.84
	c-8.63-5.3-16.18-13.58-21.98-22.04c-15.84-23.13-24.55-50.03-37.4-74.77c-14.37-27.69-29.42-55.18-57.71-71.77
	c-22.22-13.04-52.49-5.26-67.13,15.97c-18.72,27.14-35.08,55.73-49.23,85.29c-7.03,14.69-13.64,29.8-20.94,44.41
	c-6.11,12.24-16.41,19.91-29.9,25.35c-26.15,10.55-53.77,8.76-80.63,12.85c-9.39,1.43-19.25-0.41-28.89-0.45
	c-34.2-0.14-68.41-0.03-102.61-0.24c-17.65-0.11-24.97-6.59-26.51-24.31c-5.18-59.35-9.22-118.74-10.54-178.35
	c-0.71-32.37,16.39-51.87,41.91-67.4c39.72-24.18,83.22-37.42,128.54-45.4c35.35-6.22,71.25-7.02,106.98-8.23
	c71.62-2.42,143.29-4.36,214.94-2.61c46.22,1.13,92.12,5.89,137.76,14.31c40.8,7.52,78.24,22.71,114,42.8
	c14.01,7.87,25.69,18.81,35.84,31.35c5.93,7.32,7.67,15.51,7.26,24.79c-2.32,52.26-6.27,104.46-5.36,156.83
	c0.16,9.25,0.21,18.51,0.27,27.77c0.11,18.95-12.66,31.91-31.85,32.03C1183.43,1012.89,1146.39,1012.97,1108.13,1013.11z"/>
</svg>
