<svg xmlns="http://www.w3.org/2000/svg" xml:space="preserve" id="Layer_1" width="792" height="612" x="0" y="0" style="enable-background:new 0 0 792 612" version="1.1">
  <style>
    .st0{fill:#622414}.st1{fill:#8f2e14}.st3{fill:#632718}.st4{fill:#825041}.st5{fill:#1c1a18}.st6{fill:#bc533a}.st7{fill:#6e7989}.st8{fill:#272421}.st9{fill:#8f2f15}.st10{fill:#632818}.st12{fill:#4b7e8c}.st13{fill:#45190e}.st14{fill:#783421}.st15{fill:#24404d}.st16{fill:#367c96}.st17{fill:#307287}.st18{fill:#2e6a78}.st19{fill:#5e1f0f}.st20{fill:#bb5239}.st22{fill:#ba533b}.st23{fill:#814f40}.st24{fill:#814531}.st25{fill:#824733}.st26{fill:#824632}.st27{fill:#b6c2d1}.st28{fill:#d6e4ed}.st29{fill:#91a1b6}.st30{fill:#b4c0ce}.st31{fill:#444b50}.st32{fill:#4e555e}.st33{fill:#8f3117}.st34{fill:#12252e}
  </style>
  <path d="M792.3 307.5c.2 65.5.2 130.8.2 196.3-2 1.4-4.2 1.6-6.4 2.2-8.2 2.2-16.6 4.1-24.8 6.5-15.4 4.5-31 8-46.3 12.4-14.6 4.2-29.3 7.6-43.8 11.7-16 4.5-32.2 8.5-48.2 12.8l-15.3 4.1c-2.5.7-4.9.7-7.4 0-14-4.1-28.4-7.6-42.5-11.7-13-3.8-26.3-7-39.3-10.8-12-3.7-24.3-6.5-36.3-10-12-3.7-24.1-6.4-36-10-11.7-3.5-23.6-6.2-35.2-9.7-5.7-1.8-11.2-1.3-16.8-.8l-24.8 2.3-24.6 2.2-24.1 2-24.9 2.3-24.3 2.1c-10.6 1-21.3 1.5-32 3.1-6 .9-12 1.1-18 1.7-5 .4-10 .6-14.9 1.3-4 .6-7.6-.8-11.1-2.2-6.8-2.6-13.8-4.7-20.7-7l-29.6-10.4c-11.8-4-23.6-8.2-35.3-12.4-15.4-5.4-30.8-10.7-46.2-16.3-.5-.2-1-.3-1.5-1a21 21 0 0 1 2.2-9.5c3.1-1 6.2-.5 9.4-.5l3.6-.1h124.4l14.1.1c12.6-.3 25 0 37.6-.2 1.3-.8 2.4-.3 3.5 0 3.7.6 7.4.2 10.9.1 5.2-7.3 12.3-12.2 19-17.5 10.7-8.8 21.9-17 33.3-25 4.5-3.1 9.2-6 13.9-9 1-.7 2-1.3 3-2.2 3.2-1.7 6-3.7 9-5.4.9-.4 1.6-1 2.8-1 1.2.5 1.5 1.5 1.9 2.3 3 7.2 5.9 14.5 9 21.7.3 1 .8 1.9.4 3.1-1.2 1.4-2.8.9-4 1.3-2.3 2.8-.7 7.3 3 7.6 6 .7 11.9-.2 16.8-4.3.6-.5 1.2-1.1 1.4-2-.8-2.7-3.7-4.5-6.4-3.8-.8.2-1.6.6-2.7.1-2.1-6.3-5-12.2-7.2-18.3-1.5-4-3.7-7.8-4.5-12.3.2-.8.6-1.3 1.2-1.7 6-3.4 11.6-7.3 17.7-10.6l.9-.2c2.8 1 5.3 2.4 8.2 3a24 24 0 0 0 16.5-3.6l2-2 .7-.5c7-6.7 14-12.7 20.5-19.3.6-.7 1.4-1.1 2-1.7 1.7-2 3.4-2.3 6-1 2.7 1.4 5.9 1 8.7-.3 2.3-1 2.5-3.1 2.4-5.5.3-.6 1-.4 1.3-1-.3-.6-1-.4-1.5-.8-.3-.2-.4-.4-.4-.8 0-.3.1-.4.3-.5.8 0 1.5 0 2.3-.3 1.4 0 2.4.4 3.5 1.8.2.2-.3 1 .3 1.8.7.6 1.4 1.6 2.6 2 .5-.3.4-.8.7-1.2 1.5-1 2.6.2 4 .5-1.4-2-1.8-2.1-3.8-.7-1.3.7-2-.1-2.7-.6-.6-.8.4-1 .4-1.7-.3-1-1.4-1.2-1.8-2.3 0-.8.6-1.1 1.2-1.4 1-.4 2.1.3 2.8-1 3.8-1.8 7.3-3.7 11.6-4.1.8 1.2.7 2.4.8 3.6.7 5.2 2.8 9.8 5.5 14.2 3.5 5.5 5 11.7 6.6 17.9a10 10 0 0 1 0 5c-1.6 1.3-2.9 0-4.1-.4-3.1-1-5.4-1-8 .5-.7 3.6.8 5.6 4.3 5.7 1.2 0 2.3 0 3.4.3 2.7.4 2.7.4 5.6 2.7a230 230 0 0 0 14-12.9c-.5-1.1-1.3-2-1.7-3.2-1.4-.7-2.3 0-3.3.6a30.5 30.5 0 0 0-5 3.9c-.8.7-1.5 1.6-2.9 1.1-.7-3-.8-6-1.5-8.8a53.5 53.5 0 0 0-6.2-15.7 30 30 0 0 1-4.2-11.9c-.2-1.5-.4-3 .6-4.6 5-2 9.7-4 14.9-5.1 1.2 0 2 .6 2.7 1.2A80 80 0 0 0 507 345a14 14 0 0 1 7.9 5.9 5 5 0 0 0 2.3 2c.3-1.1-.3-1.8-.7-2.5a60.8 60.8 0 0 1-5.7-12 32.8 32.8 0 0 0-5.5-9.6c-.6-.8-1.4-1.5-1-3 1-.9 2-1 3-1.4a609 609 0 0 1 93.1-19.2 655.1 655.1 0 0 1 68-4.5c4.6 0 9-.5 13.5-.4 11 .4 22 0 33 .8 3 .2 5.8 0 8.7 0 9.8.1 19.6 1.4 29.4 1.8 8.6.3 17.1 1.6 25.7 2.2 4.5.3 9.1.6 13.6 2.4z" class="st0"/>
  <path d="m450.8 344.7-2 1.4c-.4.3-.7.4-1.1.3-.4 0-.5 0-.9-.2-.4 0-.6-.1-1-.3-.2-.2-.3-.3-.5-.3l.3.2c.2.3.2.6.1 1-.7.3-1.3.4-2 .5-.4-1-1.4-1-2-1.4-.6-.6-.6-1.3-1.1-1.9l-.3-.5-.5-1c-.4-.6-.8-.8-1.3-1.2-.8-1.5-1.7-1.4-2.9-.8a15 15 0 0 0-6.6 7.2c-.3.7-.3 1.6-1 1.9-3.5 1.9-6.7 4.4-10.9 5.3-2.9-1.4-5.8-2.3-8.8-3.6-.9-2-.2-4.2-.8-6.4-3-3-7-3.7-11-4.4a38 38 0 0 0-14 .2c-.7.2-1.4.2-2.2-.2-1-1.2-.5-2.2 0-3.3 2-5.5 2.5-11.3 2.6-17.2.2-8.7-.6-17.2-2.8-25.6a41 41 0 0 0-6-13c-.8-1-1.1-2-1.8-3-1.1-1.4-1.5-2.9-2.4-4.3-1.3-3.3-3.9-5-6.8-6.4l-4.5-2c-4.8-5-10.2-9-16-12.2a12 12 0 0 0-3-1.2 9.2 9.2 0 0 0-3.8-1.8l-1.2-.5-1.5-.4-.7-.1c-1.4-.4-2.6-.8-4-.7-1.6-.1-2.9-.7-4.4-.9h-11.6c-.6 0-1 0-1.4.2-1.8.7-3.5 1.2-5.4 1.5-1.4.2-2.6 0-3.8 1-.2.3-.4.5-.8.7a42.9 42.9 0 0 0-11.6 5.6l-2 1c-.4.2-.7.4-1 .9l-.9.7-.6.7c-1.5 1.3-3.1 2.2-4.4 3.8a57.9 57.9 0 0 0-16.4 36.6c-.1 1.3-.2 2.7-1.2 4-1.6.4-3 0-4.2-.4-11.7-3.2-23.5-6-35.3-8.8a1288 1288 0 0 0-57.3-11.9 800.1 800.1 0 0 0-31-5c-6.8-1-13.7-2.1-20.6-3-10-1.2-20-2.7-30-3.2-6.2-.3-12.4-1.1-18.6-1.6l-2-.2c-12.6 0-25.2-1.1-37.8-.4-7.6.4-15.2-.1-22.7 1.2-.8 0-1.6 0-2.5-.5-.3-5.1-.2-10-.2-15.2 0-.8.3-1.2.8-1.4 3-1.2 5.9-3 9.5-2.9 10.8.6 21.3.7 31.9.4 8.1-.2 16.3-.7 24.2-3.1 5.2-1.6 9.9-4.4 14.5-7.4a76.7 76.7 0 0 1 39.3-13.7c10-1 20-2 30-1.6 9.3.4 18.6.6 28 1.3a63 63 0 0 0 16.9-.9c5-1 10.1-1.7 15-3.1.5-.2 1.2 0 1.6-.9a18 18 0 0 0-5-1.5c-11-2.4-22.2-3.6-33.5-4.2-11.6-.5-23.1-.1-34.7-.4-2 0-3.9.4-6 .1-1-1.8.4-1.7 1.3-2 3.1-.8 6.4-1.2 9.7-2.2 6.1-.9 12-2.4 17.8-3.5 10-2 20.1-3.6 30.4-5.5 23.1-3.6 46.1-7.2 69.4-9.8l40.5-4.2c8.3-.4 16.4-1.2 24.5-1.7 2.4-.1 4.7-.6 7.3-.4 5.4-.7 10.7-.7 16-1.2a326 326 0 0 0 15.7-1c4.7-.1 9.1-.1 13.5-.4l4.7-.2c4-.2 7.7-.1 11.6-.1 3.3.2 6.2-.6 9.4-.5h58.6c7 .5 13.7.6 20.4.5 1.4 0 2.7.3 4.3.5h1.7c6.6-.3 12.9.6 19.4.6 4.5.6 8.8.4 13.1.7l23 1.5c4 .1 7.7.7 11.8.7 1.5.4 3 .3 4.6.5 4.5.5 8.8.7 13.4 1.3A1125.4 1125.4 0 0 1 702 208.3c11.2 2.5 22.4 4.6 33.5 7.6 10.2 2.3 20 5 29.8 7.8l6.2 1.8c6.2 1.9 12.2 3.6 18.3 5.7.9.3 1.6.4 2.4 1l.1 48.8c-2.7 1.4-7 .4-8.8-2-2-2.6-4.2-5-5.9-8-1-1.8-2.8-2.7-4.7-3.4-4.6-1.7-9.5-2.3-14.3-3-4.8-.9-9.7-2-14.6-2.6a24 24 0 0 0-21.4 7c-4.1 4.2-7.6 8.9-11.2 13.5-.9 1.1-1.8 2.2-3 3.1a8.2 8.2 0 0 1-7.4 2.2 62.4 62.4 0 0 1-13.4-4.6c-5.6-2.7-11-6.1-17-8a59 59 0 0 0-22.2-2.1c-8.6.7-17.2 1.5-25.8 2.5-7.2.9-14.5 1.9-21.9 2-5 .2-9.8-.6-14.5-1.8a136 136 0 0 0-22.5-3c-3.8-.3-7.5-.3-11.3-.5a87.6 87.6 0 0 0-28.6 4c-5 1.5-9.6 4.3-14.2 6.8-.5.3-1 .7-1.2 1.3 0 1.1 1 1.5 1.8 2 7.4 3.5 14.8 7.2 22.8 9.5 2.1.6 4.3 1 6.6 1 16 .3 32-1.1 48.1-1.1 7.5 0 14.9-2.3 22.2-4 11-2.5 22.2-4.8 33.4-6.7a109 109 0 0 1 14-1.5c6-.2 11.8.7 17.4 2.6 7.2 2.4 13.8 6.2 21.2 7.7 9.3 1.7 13.8.7 19-5.7 1.6-2 3.2-4.3 4.7-6.5 3.1-4.8 7-8.7 11.4-12.3a16 16 0 0 1 11.7-3.5c9.6.7 19.2 2 28.8 3.3 4.4.6 5.5 1.8 6.3 6.1.3 1.9.6 3.8 1.3 5.6 1.8 4.8 5.6 7 10.4 7.7.8.2 1.8 0 2.7.7.2 6 .2 12 .2 18.1-2.7-.2-5.4-.6-8-.9l-6.7-.8-7.8-.8-4.7-.6-7.4-.5-12.3-1-7.4-.4-20.8-.5-25.7-.5c-3.1 0-6.4-.7-9.5-.4-7.5.6-15 0-22.5.5-5 .4-10 .1-15 .4l-9.6.9-5.4.5c-3.2.2-6.4.2-9.6.5l-10.6 1.2-5.4.7-10.2 1-9.7 1.4-6.6 1.1-14 2.3c-1.3.2-2.5.6-3.8.9l-14.4 3.1-17 4-13.5 3.6-8.5 2.3-1.9.9c-.6.4-1 .3-1.4 0-3.6-3.5-8.3-4.3-12.9-5.4a54 54 0 0 0-9.4-1.6c-.6 0-1.3-.1-1.8-.5-.6-.7-.6-1.5-.4-2.3 1.1-9.1-1-17.6-4.4-26a43.1 43.1 0 0 0-11-16.3c-2.1-2-4.6-3-7-4.5a7.9 7.9 0 0 0-2.2 4 40.6 40.6 0 0 0 0 20.6c1 3.4 2.8 6.3 4.9 9 2.6 3.3 5.1 6.8 8.3 9.6a35 35 0 0 1 4.8 5.9c1 1.3 1.1 2.7 0 4-4 4.7-6.4 10-7.4 16.1l-.4.8-9 3.4-2.5 1c-.7.5-1.5-.4-2 .6z" class="st1"/>
  <path d="m62.3 467.9 10.1 3.8L116 487l47.8 16.6 28.2 9.7 8.1 2.8c2.4 1 4.8 1 7.3.5 2-.5 4-.5 6.1-.7l8.4-.5c2.7-.2 5.3-.6 8-.9l6.2-.5 8.8-.7a167.9 167.9 0 0 1 13.7-1.4l8.1-.6 7.8-.9 6.2-.5 8.3-.5 7.8-1 5.5-.5 7.8-.5 8.3-.9 6.1-.5 8.4-.6 7.8-.9 5.4-.5 7.9-.5 8-.9 6-.6 8-.5 7.8-.9 6-.5 8-.6c1.8 0 3.5-.4 5.3-.4 1.6 0 3.3.2 5 .6L442 509l36.5 10.1 18.6 5.2 38 10.5 21.4 6 24.3 6.5 20 5.6c2.4.7 4.7.5 7-.1l38.4-10.1 41.4-11.2 28-7.5 40-10.6 32.9-8.8a19 19 0 0 1 3.7-.6c.2 15.9.2 31.7.2 47.8-.7 1-1.6 1.2-2.5 1.5-9.8 3-19.7 5.6-29.4 8.7l-14 4.3c-10.5 3.5-21 6.7-31.6 9.6-.9.2-1.7.7-2.8 1-.4.2-.7.2-1.1.2-13.2 4-26.2 7.6-39.2 12h-.8c-4.8 1.2-9.2 2.7-13.7 4-9.4 3-18.8 5.7-28.2 8.5-7 2-13.9 4.4-20.8 6.5-2.1.7-4.1.7-6.1 0-11.7-3.5-23.6-6.1-35.3-9.4-23.5-6.7-47.1-12.7-70.6-19l-28.6-7.6c-12-3.1-24-6.8-36.1-9.6a291 291 0 0 1-22.2-6c-5-1.6-10-1.2-15-.8l-22 1.8c-7 .5-14 1-21.2 1.7l-7.4.6c-5.4.4-10.9 1.4-16.4 1.7l-21.5 1.7c-7 .7-14.1 1.2-21.2 1.8l-20.3 1.6-21.5 1.7-21 1.7-19.8 1.6c-2 .2-3.7 0-5.4-.6-20.2-7.6-40.6-14.7-60.9-22.2-14.5-5.4-29-10.3-43.5-15.7l-28.3-10-53.7-19.4a40.6 40.6 0 0 1-9.8-4.8l-.1-52.3c0-.3.2-.3.5-.5 4.3.8 8.2 2.5 12 4 8.3 3.1 16.7 6 25.3 8.8 6.8 2.5 13.4 5 20.1 7.2 1.3.4 2.6.8 3.9 1.8z" style="fill:#d3b190"/>
  <path d="M792.5 289.2c-3.2.6-6-.5-8.8-1.7-2.3-1-3.5-3-4.5-5l-1-2-1.6-8.7a12 12 0 0 0-6.1-2l-9.4-1.3-5.7-.6-7.3-.9c-4.9-.5-9.7-1-14.2 1.4a26 26 0 0 0-4.6 3.4 61.8 61.8 0 0 0-10.1 11.8c-1.9 2.9-4 5.5-6.5 8a12.3 12.3 0 0 1-8.7 3.7 41 41 0 0 1-17-3.6c-4.6-1.9-9.3-3.9-14.1-5.5-2.6-.9-5.3-1.1-8-1.5a32 32 0 0 0-6.1-.5c-3.6.2-7.1.7-10.7 1.1-2.1.3-4.3.4-6.4.8l-15.4 3.1-12.8 2.6c-4.8 1-9.6 2.2-14.4 3.1-5 1-9.9 2-15 1.8h-8.3c-6.2 0-12.3 0-18.4.5-5.9.6-11.7.2-17.5.4-2.7.1-5.2-.4-7.7-1.2-3-1.1-6.1-2-9-3.2-4.8-2.1-9.5-4.5-14.3-6.8-.9-.4-1.5-1.1-1.5-2.4l1.2-1c3.9-2 7.7-4.2 11.7-6a77.3 77.3 0 0 1 25.8-5.3h3.8c5.8.2 11.7 0 17.5.6 5.6.4 11.3 1.4 17 2.3 3.8.7 7.7 1.9 11.6 2.2 3.5.4 7.2 0 10.7-.2l4.8-.5c2.4-.3 4.9-.3 7.3-.6l9-1.1 6.4-.8 9-.9h.5c4.6-.2 9.2-.7 13.8-.4 7 .4 14 1.7 20.4 5.2 4.7 2.5 9.6 4.9 14.5 7 3.4 1.4 7 2.2 10 3 4-.4 6.3-2.4 8.2-4.8 2-2.6 3.8-5.3 5.9-7.8 3.8-4.5 7.8-8.9 13-11.8a16 16 0 0 1 6.7-1.9c2.6-.2 5.4 0 8 .3 4.6.5 9.2 1.3 13.7 2l6.8 1.5c2.9.7 5.9 1.2 8.8 2a8 8 0 0 1 5.3 4.4c.8 1.8 2.3 3.2 3.5 4.8.9 1 1.7 2.2 2.5 3.3 2.2 1 4.6 2.1 7.5 1.8.2 2.6.2 5.1.2 8z" class="st3"/>
  <path d="m772 226-8.5-2.1-23-6.2-4.5-1.1c-4.4-3.5-9-6.5-12.5-10.9-1-1.2-3-1.2-3.3-3.3.6-.5 1.2-.7 1.6-1.2 1.8-2.2 4.2-3.7 6.6-5.2 1-.5 1.7-1.3 2.5-1.9 0-3 .2-5.6 2.4-7.8.8.8.3 1.6 0 2.4-.7 1.2-1.1 2.5-.4 4 2.5 1 5.2.3 7.7-.2 4.2-.9 8.5-1.2 12.7-2 10.2-1.7 20.3-4.3 30.4-6.4 2.8-.6 5.5-1.6 8.6-.8.2 16.2.2 32.4.2 48.8-.7.1-1.4 0-2.3-.2-2.5-2.9-5.6-5.2-7.2-8.7-.4-1-1.2-1.7-1.9-2.5-2-2.2-4-2.2-6 0-1.3 1.6-1.8 3.6-3.2 5.3z" class="st4"/>
  <path d="m581.6 603-11.2-2.7a243.3 243.3 0 0 1-8.1-2.3l-8.7-2.1a674.8 674.8 0 0 1-12.3-3.5l-9.4-2.2A59397.8 59397.8 0 0 1 412.7 559c-3.1-.8-6.2-1.9-9.4-2.6-1.4-.3-2.9-.1-4.3 0l-10.2.8c-4.8.4-9.6 1-14.3 1.3l-6.7.6-20.5 1.6-20 1.8c-5 .5-9.8.7-14.6 1.1l-14.3 1.4-14.4 1-14.4 1.3-7.6.7-16.7 1.4-14.6 1.1-14.5 1.4-16.5 1.2c-1.1 0-2.3-.4-3.4-.8l-48-17.2-129.2-46.5a507 507 0 0 0-18.6-6.3l-.1-3.5c2.7 1 5.6 2 8.2 3.5 2.8 1.5 6 2.2 9 3.2l31 11.3 23.4 8.3 22.6 8.2 24.7 8.9 12.4 4.2 36.7 13.4 25.9 9.6c.3 0 .6.2.8.3 2.4 1 4.6 1.9 7.4 1.3 2.8-.7 5.8-.4 8.8-.7l8.5-.9h1.2l9-.6 11.9-1 12-1 12-1 12-1 11.9-1 12-.9 12-1 12-1 11.9-1 12-1 12-1 12.3-1 12.3-1 12.8-1c1 0 1.8-.5 3.1-.8l42.5 11.2 40.9 10.8 31 8.2 39.4 10.4 35.7 9.6 12.6 3.4c.7.2 1.6 0 2.3-.1l25.2-7.8 38-11.4h1.2c.3.2.5.5.7 1l-66 20-23-6-1.1-.5z" class="st5"/>
  <path d="M792.5 183.1c-2.8.7-5.5 1-8.2 1.5l-10 2.2c-1.8.3-3.4 1-5.1 1.4-4.3.9-8.7 1.8-13 2.5l-12 1.8c-.7 0-1.3.2-2 .4-.2 0-.5.3-.8.3l-8.8.8-1-2 .5-2.7c.5-1 1-1.9 1.3-2.9v-.2c.5-.4.5-1 1-1.6l.1-.2a7 7 0 0 1 4-3c6.6-1.8 12.5-5.5 19-7.8 3.9-1.4 7.5-3.4 11.2-5.1 1.6-.8 2.7-2 3.8-3.3a191 191 0 0 0 7.8-10c1.6-2 2-4.4 3-6.8 0-.2 0-.3.2-.5 0-.3.1-.5.3-.8l.1-.2c.8-1.4 2-2.6 2.7-4.2l3-3.9.9-1c.6-.7 1.2-1.2 1.8-1.6.2 15.7.2 31.2.2 47z" class="st6"/>
  <path d="M1.1 446c-.2.3-.3.3-.5.4l-.1-307c.1-.2.3-.3.6-.2.8 1.4.6 2.7.6 4v34c0 1.1-.2 2.3.8 3.8 4-1.4 8.1-3 12.6-4 1.7.3.7 1.7 1.3 2.4.4 1.1 1.9 1.3 2 2.8-.1.7-.4 1.3-.8 1.6-3.6 2.2-6 5.7-9.6 7.8-1.8 1-3.3 2.5-4.9 4-1.5 1.2-1.4 3-1.4 4.8v51.3c0 1 0 1.9-.5 3C1 260 1 265 1 270.5c.9 1.2.7 2.5.7 3.7v67.3a99 99 0 0 1 0 9v91.1c0 1.5.2 3-.6 4.5z" class="st4"/>
  <path d="M1.1 139c-.1.2-.4.2-.5.2l-.1-14.7a71 71 0 0 0 17.2-1 45.6 45.6 0 0 0 26-14.8c4.7-5.2 8.9-10.6 12.7-16.4 2-3.1 3.5-6.6 5.3-9.9l1.3-2.3c1.4-2.7 3.8-3.6 6.6-3.6 2.2 0 4.5.3 6.8.7 3.6-.3 6.8-1.9 10-3.7l1.8-.9c.6.8.1 1.3-.3 1.7-3.6 4-8 5.4-13.2 4A19 19 0 0 0 68 78c-1.6.1-2.7 1.3-3.6 2.6-1.1 2-2.3 3.8-3.3 5.8a66.2 66.2 0 0 1-9.9 15.3 17.3 17.3 0 0 0-2.8 4.1 26 26 0 0 1-11.6 11.4 77 77 0 0 1-14.9 7c-.4 0-.6-.4-.8-.4-.2.1-.1.2.1.3-.3.8-.8 1-1.6 1-4 0-7.6.4-11.3 1-2 .3-4-.4-6 0-1 1-.5 2.2-.4 3.5-.4 3-.1 5.7-.4 8.6l-.4.8z" class="st7"/>
  <path d="M792.5 553.3a5897.7 5897.7 0 0 0-32.7 9.7l-12.7 3.9c-.4-.2-.7-.3-.7-.8l8.7-3 12.3-3.6 24.9-7.5c.2.4.2.7.2 1.3z" class="st8"/>
  <path d="M337.3 404.5a17 17 0 0 1-3 2.6c-4.5 3-9.2 5.8-13.6 8.9-6.3 4.4-12.4 9-18.5 13.5-4.2 3.1-8.3 6.4-12.4 9.6l-7.4 5.8c-4 3.4-7.8 7-11.7 10.5-.8.8-1.3 2-2 3a37 37 0 0 1-14-.5c-3.7-.6-6.8-2.2-10-3.5-10.4-4.3-21-7.7-31.7-11.5-7.1-2.6-14.3-5.2-21-8.6-1.2-.6-2.3-1.2-3.3-2-1.8-1.6-2.8-3.3-2.2-6 .4-1.8 0-3.9 0-5.9 0-1.3-.5-2.3-1.3-3.2a61.7 61.7 0 0 0-16-13.5 41.7 41.7 0 0 1-9.5-7.8c0-1.4 1-1.7 1.9-2.2l5.8-3.2a17 17 0 0 0 6.3-6.1c.6-.9 1-1.9 2.3-2.4 1.5-.3 2.9.1 4.2.3 16.1 2.3 32.3 3.7 48.5 5.6 12.1 1.4 24.3 2.5 36.4 3.8 6.4.7 12.6 2 19 2.2.7 0 1.4.3 2.3.6 1.4.8.7 1.7.4 2.5-2.3 5.5-4.9 10.8-7.2 16.2-1.3 3-3 5.8-4 9.1-1.1.8-2 .2-3-.2-1.8-.7-3.6-1.6-5.6-1.6-2.8 2.4-2.8 6.1.2 8 5.7 3.5 12 5 18.6 2.7a5.3 5.3 0 0 0 3.2-2.4c-.7-3-3.7-3.3-5.5-5.3-.4-1 0-1.9.2-2.7 3.4-7.7 6.7-15.5 10.2-23.2.2-.6.5-1.1 1.3-1.5a3 3 0 0 1 1.6-.2c5.2 1 10.5 1.5 15.8 3a5 5 0 0 1 2.6 3.1c1 3.4 3.2 4.4 6.6 3.9 3.4.4 6.4.2 9-2.2.4-.3 1-.4 1.7-.5 1.8.2 3.2.6 4.8 1.3z" class="st9"/>
  <path d="M216.5 458.7c-47.4.2-94.8.2-142.4.2-.7-3 2-2 3.2-3 2.9-4 6.6-8 1.2-14-1.4-.8-5.1 2.2-7-1.4-.8-1.7-3-2.5-2.7-4.4.5-1.4 2.1-1.2 2-2.6-.6-1-1.6 0-2.4-.4-2-2.7-1.5-4 2.7-7.6.3-1.5-1.5-2.8-.5-4.5.3-.6.6-1.1 1.3-1.2 1.2 0 1.4 1.3 2.3 1.6 1 0 1.4-.5 1.8-1.5-1.4-2.2-3.4-4-5.2-6-.2-2 1.2-2.6 2.7-3 3.1-.7 6-1.7 8.2-4.2.8-.9 1.7-1.6 2.2-2.7.4-.8.8-1.7 1.5-2.2 2.4-1.8 4.2-3.8 3-7 1.5-2 4-1 5.7-2.5 1.5-.2 2.7.1 4 .4 1.5.3 2.7 1.2 3 3 .1.7.4 1.5.7 2.2 2.4 5.8 5 7.2 11.2 6.5 5-.6 10-.6 15 0h4.1c1.2.1 2.4.2 3.4 1a6.9 6.9 0 0 0 5.2 1.5c3.6-.3 7.1.4 10.7.5 1 0 2 .3 2.6 1 3.4 3.9 7.5 6.7 11.6 9.7 2.2 1.5 4 3.4 6 5.2 1 1 1.2 2 1 3.5-.7 6.6 2.8 11.6 7.1 15.8 5.1 5 11.8 7.1 18.4 9.3 5.2 1.8 10.3 3.6 15.5 5.1 1 .3 2.2.5 3 1.7z" class="st1"/>
  <path d="m216.6 459-2.7-1.2c-6.9-2.2-13.8-4.4-20.6-6.8a45 45 0 0 1-15-8.6c-1-.8-1.6-2-2.3-3l-2.2-4c-2-3.1-2.5-6.4-1.5-10.3-1.7-1.8-3.5-3.8-5.5-5.4-3.3-2.7-7-5-10.3-7.7-1.4-1-2.4-2.5-3.9-4l-15.5-.7-3.2-2.2c-6-.2-12.1-.4-18.3-.4-3 0-6 .4-8.8.6a16.8 16.8 0 0 1-6.7-11c-1.6-1.5-3.8-1-5.8-1.7-3.8-.3-7.2-1.5-10.6-2.7a33.7 33.7 0 0 0-11.2-2.4 78.8 78.8 0 0 1-35.7-9.1c-8.3-6.7-16.1-13.8-24.6-20-4.2-3-7.5-7-11-10.8C1 345.7 1 344 1 342c1-1.1 2-.4 3 0 2.4 1 4.7 2.2 6.8 4a75 75 0 0 0 7.7 5.4 98 98 0 0 1 14.7 9.4 42.5 42.5 0 0 0 17.2 8c8.2 2 16.3 1.6 24.5 1.5 4.7 0 9.1 1 13.4 2.4 6 2 12 3.4 17.9 5.5 3.3 1.2 6.5 2.7 9.4 4.7 2.6 1.7 4.3 3.8 4 7 0 .6.1 1.2.7 1.9 2.6.4 5.5 0 8.3.7 3.7.8 7 0 10.2-2.2 6-4 13-6.6 19.5-10.1 3.2-2 6.2-3.8 9-6a8 8 0 0 1 7.6-1.4c2 .6 3 2 2.8 4.1-.1 2-.7 3.8-2 5.5l-1.9 3a17.4 17.4 0 0 1-7 6.2c-2.3 1.1-4.5 2.4-6.9 3.8 2.2 2.2 4.3 4.4 7 6l10 7c3.5 2.5 6.7 5.5 9.3 9 .6.9 1 2 1 3l-.3 9c2.2 3.4 6 5 9.8 6.5 3.5 1.4 7 3 10.6 4.2l12.8 4.6 15 5.3 17 6.6 2.2 1.2c-.2.4-.5 1-.8 1-.6.2-1.3.1-2 .1H221c-1.4 0-2.8.2-4.4.1z" class="st10"/>
  <path d="M36.4 377.9c3.6 1.3 7.1 2.8 10.6 4.2 4.5 1.7 9.2 3 14 3.8 4.2.8 8.5.9 12.8 1 3.6.2 7.1 1.1 10.5 2.7 1.7.7 3.6 1 5.5 1.5l4.2 1.4c-.6 1.3-1.7 1.5-3 1.6-.7 0-1.4.3-2.3.5l1 3.7c-1 1-2.4 2.1-3.5 3.5l-3 4.3-4 3.8-5.7 1.6c-1.1.3-2.2.7-2.5 2.2l1.6.8-.2.2 4.3 4.6c-.2 2.3-.9 2.9-3.3 3l-1.1-2.3c-1.5.5-1.2 1.7-1.5 2.2l1.3 3.5c-1.8 1.5-3.1 2.8-4.4 4l.7 3.2 2-.9.4-.4L72 433c-.2 2.3-1.6 2.4-3 2.8.3.6.4 1.5.8 1.7 2.1 1.2 2.2 4.8 5.7 4.5l1.6-.8 3.5.8-.2 2.4 1.5 1.3c.8 2.6-.2 4.9-1.5 7l-2.7 4.3c-.6 0-1.4 0-2.6.2l-1.1 1.6c-3.1.2-6.2.2-9.4.2-1.5 1-3 .7-4.6.4-1.2-2.1-1.3-4.4-1.5-6.7-.2-1 0-2.2-.2-3.3-.3-1.3 0-2.4 1-3.2 1.3-1 1.7-2.4 1.4-4 0-.5-.2-1 0-1.6.6-2 .2-3.7-1-5.3-1-1.1-1.2-2.4-1-3.9.1-3-.9-4.4-3.8-5.6a6.4 6.4 0 0 1-4-7.3c.8-3-.5-5.8 0-8.6-1-1.7-3.2-1.6-3.9-3.3-.1-.4-.2-.8 0-1.3 2.8-2 6 .6 8.7-.6 1.5-2-.4-2.8-.7-3.8-.2-1.3.5-2.1.4-3.2-.7-1-1.8-1-3-1.1a11 11 0 0 1-6-3 22 22 0 0 0-7.2-5c-1.8-.6-2.6-1.6-2.1-3.5.3-1.6 0-3-.6-4.5-.3-.8-.7-1.6-.1-2.6z" class="st9"/>
  <path d="M464.1 340c.5-7.2 3.6-13.1 8.5-18.6-.4-.7-.6-1.7-1.1-2.4a83.1 83.1 0 0 0-4.5-5.3c-4-4.4-8-8.8-11.2-14-2.3-3.7-3-7.8-3.5-12-.5-4.4 0-8.9.9-13.3.4-1.8 1.4-4 2.8-5.7.7.4 1.3 1 2 1.3 6.3 3.1 10.8 8 13.8 14.2 2 3.9 3.7 8 5.1 12a41.4 41.4 0 0 1 2.2 21v1.3c2 .2 3.8.3 5.7.7 4.5 1 9 1.8 13.4 3.3 2.2.7 4 2.5 6.1 3.9.8 1 1.3 2 2 2.8 3 3.4 4.5 7.5 6 11.6a45 45 0 0 0 4.5 9c.7 1 1.2 2.2 1.7 3.4-.9.7-1.6.8-2.3.1-.7-.8-1.6-1.6-2.1-2.5a11 11 0 0 0-6.2-4.8 90.3 90.3 0 0 1-19-9.2c-1.8-1.2-3.4-2.5-5.3-3.7a35.4 35.4 0 0 1-8-8.7 51.4 51.4 0 0 0-7 13.4c-1 1.6-.6 3.2-.4 4.7.6 4.4 2.2 8.4 4.5 12.2a50.7 50.7 0 0 1 6.9 23.8c.8 2.8-.1 6-2.1 7.2-2-1.1-1.7-2.9-1-4.9.7-4.6-1-8.7-2-12.8a42 42 0 0 0-4.7-10.5 33.4 33.4 0 0 1-5.7-17.5z" style="fill:#053109"/>
  <path d="m332.7 403.6-5.4 3h-5c-1.3-2.1-1.2-4.3.4-5.8 3.1-3 6-6.3 10.3-8.2 3.7-1.8 7-4 10-6.2.5-1 .1-1.9.2-2.8 1.4-3.2 3.7-5.1 7-6.2 1.1.5 1 1.7 1.8 2.5 1.7-.3 3-1.5 4.4-2.5 2.8-1.9 5.5-4 8.9-5.3 1.4-.2 2.5.4 3.8.7.7.3 1.3.4 2.1.5 2.2.6 2.3 2.1 2.2 4-.4 1-1.3 1.4-2.1 2-4.4 3-9 5.8-13.4 8.7-.6.4-1.4.7-1.7 1.6-.3 1.2.7 2.2.8 3.5l2.6 7.3 8.6 21.3c.2.6 0 1.2 0 2 0 2.5-1.9 3.3-3.6 3.9-2 .5-3.4-.5-4.5-2.2-.6-1.9-1-3.6-1.8-5.3l-8.2-19.8a16 16 0 0 0-.9-1.8c-1.3-.8-1-2.5-2.4-3.3-4.8 2.4-9 6-14.1 8.4z" class="st12"/>
  <path d="M532.4 417.6c-2 .3-3.7.5-5.3 1-2.6.9-5.2 1.6-7 4-.2.5-.6.9-1 1.4-3-.8-5.2-3-8.1-3.4-2.9-.3-5.7-1-8.9-1.5-2.3-1.8-2.6-3.1-.8-5.6 3.3-.2 10.5 1.3 14.6 3a40.8 40.8 0 0 1 21.6-5.5c1.4 1 1.4 1 1.4 2.7-1.1 3-3.6 3.6-6.5 4z" class="st13"/>
  <path d="m379.8 340.5 5.6-.8c6.5-1 12.9-.1 19 2.3 1.5.6 2.8 1.8 4 2.6v6.5c1 1.5 0 2.9.2 4.2.1 1-.2 1.9.3 3 3-.5 5.1-2.8 8-3.6l3.9-1.6 7-3.8a16 16 0 0 1 8.6-10c1 0 2 .1 2.4 1.6 0 .4-.1.6-.5.7-.6 0-1.1-.3-1.7.2 0 1.9.4 3.7 1.8 5.5l.4 1c.2 1 .8 1.8.5 2.9-1.3.8-1.6-.3-2-1-1-1.7-1.8-3.4-2.3-5.3-.2-.7 0-1.7-1.2-1.8a7.8 7.8 0 0 0-2.8 3.4c-.4 1-.9 1.7-1 2.5-.7 2.6.4 5.1 3 5.7 2.5.6 5.1 1 7.7-.8.7-.6 1.3-1 1.2-2v-1c.1-.6.2-1 .5-1.4.5-.3.8-.3 1.2.2 1 2.5 0 4.4-1.4 6.1-4.4 1.8-8.7 2.2-12.9-.8l-4.7 4-13.5 13-6.8 6.2c-1.3-1.1-1.5-2.7-2-4.3-.3-3.4-.6-6.6.6-9.7.4-1 .9-2 1.7-2.8a5 5 0 0 0 1.4-3c.5-3.4.5-6.8.8-10-1.3-.6-2 0-3 .2a36.6 36.6 0 0 1-23.2-1c-1-.4-2.3-.7-2.6-2.2 1.1-1 2.1-.4 3.1 0a36.2 36.2 0 0 0 22.3 1c.9-.2 1.8-.3 2.5-1.1-.5-1.2-1.6-1.6-2.7-2-6.3-2-12.6-3-19.1-1.6-1.4.3-2.8.7-4.4.1-.3-.5-.3-.9 0-1.3z" class="st5"/>
  <path d="M476.4 380.6c.2 1 .1 2 .2 2.9l.6 2c1.2-1 1.7-2.4 2.4-6.6l2.2-1.8 6.2-4.5c1-.7 2-1 3.2-.1l.5 2 1.2.8v2.5c-2.5 1.8-5.2 3.5-7.7 5.7-2.4 2-4.5 4.5-7 7l-1.9-2.2a13 13 0 0 0-6.3-1.4c-4 0-5-.8-6-4.9 0-.5-.2-.9-.3-1.4 1.2-1.6 3-1.6 4.7-1.9 2-.3 4 .4 5.8 1.2l2.2.7zm62.1-5.7c-2.8-.4-3.6-1.6-3-4.5.5 0 1-.2 1.6-.4l1.4-.4c4 1.3 8.3 2 12.3 4.4l1.8-.4c2.9-1.2 5.6-2.5 8.5-3.4a18 18 0 0 1 8.6-1.5c.7 0 1.5.3 2 .4.8 1.3.3 2.2-.3 3.1-.8 1.3-1.8 2.3-3.3 2.6-3.1.7-6.2 2-9.5 2.1-1.5.1-3 1-4.6 1.6l-1.3 1.6h-3.6l-3-1.4-1.1-.5c-1.8-1.7-4-2.6-6.5-3.3zm-178.6 50.4c2.8 2.3 5 3.1 8.2-1.3l2.4-.6c3.3-1.3 7.3 1.2 7.7 5.1-1 1-2.2 2-3.5 3a16 16 0 0 1-8.6 3c-2.2 0-4.3.2-6.4.4-1.2 0-2.1-.3-2.8-1.4-.5-.8-1.4-1.4-2.3-2.2-.8-1.5-.3-3.3.4-5 1.3-1.5 3.2-.2 4.9-1z" class="st13"/>
  <path d="M59.3 458.7c1.7.2 3.1.2 4.8.2-.4 3-1 5.8-1.7 8.9-3.2-.8-6.3-1.8-9.5-2.9l-14.5-5.3c0-1.3 1-1.4 1.7-1.4 6-.1 12.1-.2 18.2 0 .3 0 .6.2 1 .5z" class="st10"/>
  <path d="M357 393.1c-.7-1-1.3-2.3-2.1-3.8l17.8-11.6c1.5-.2 1.3 1.6 2.6 1.9l.5.3c.3.3.5.6.5 1.1-2 1.4-4.2 2.7-6.3 4l-13 8.1z" class="st14"/>
  <path d="M468.7 338c.4-2.1.8-4.3 1.7-6.1 1.4-2.9 3.2-5.5 5-8.3l8 9.3c-1.8.7-3.7 1.2-5.6 1.8l-9.1 3.2z" class="st9"/>
  <path d="M402.5 374a33.6 33.6 0 0 1 1.6 4.2 3 3 0 0 1-.4.4l-1.8 1.5c-8.7 5.3-18 5.7-26 .2v-.1c-2.5-1.7-3.7-5.3-2.3-7.3 1 .3.8 1.2 1.1 2 1 3.1 3.4 4.2 5.9 5.2 1.3.4 2.5 1 4 1 1.7-1 3.4-1.3 5.4-.3 1.4.8 3 0 4.4-.4l2.7-.8c.5-.4.2-1.3 1-1.5.7-.5 1.7-.1 2.7-.5.4-1.2.3-2.8 1.7-3.7z" class="st15"/>
  <path d="M332.7 403.6c1-.8 2-1.7 3.3-2.5l11.4-7.2 1.7 4.3-8 4.5-3.5 2-5-1z" class="st14"/>
  <path d="M439.4 351.5c-.5-1-.8-1.9-1.1-2.9.1-.4.6-.5.1-1-.2-.1-.4 0-.5-.2-1.4-1.2-2.3-5-1.4-7l1.2.7c.6.9 1.5.5 2.3 1 .3.3.4.6.6 1-.3.4-.9.4-1 1 .5 0 .4-.5 1-.6l1.2 1.9c0 .4-.2.6-.3.8.4.5 1 .3 1.5.8v1c.1.7-.6.7-.7 1.1l.3.4v1.3c-.6.4-1.2.2-1.9.6l-.5.2h-.8z" class="st15"/>
  <path d="m375.8 380.3 1 .1c2.6 2 5.9 2.5 9 3.1 5 1 9.4-1 13.9-2.5.6-.3 1.1-.6 1.9-.8-.1.3-.3.8-.7 1-3.6 2-7.5 3.5-11.7 3.7-4.5 0-8.8-1-12.8-3.7l-.6-.9z" class="st5"/>
  <path d="M445.4 345.8c.4-.2.7-.2 1.2-.2l.6.2 1.3.4c1.2.8 2.6 1.2 3 2.8l-1.6.7c.9.5 1.6.9 2.6 1.2.2.6.3 1.3.3 2-1.7 0-1.7 0-5-3.2l1-1.2-3-1.6-.4-1.1zm14.4 10.1a13 13 0 0 1 5 7.5l-.5.5c-.5-.3-1.1-.4-1.4-.7a95.2 95.2 0 0 1-3.3-5.8c-.2-.3 0-1 .2-1.5z" class="st16"/>
  <path d="m463.8 356-2.1-3.5c2.7 1 3.7 2.4 4.7 6.4-1.4-.5-2-1.5-2.6-2.8zm-11.2-5.1-.1-1.2 2.6-.6c.8 1 2.7 1.5 2.1 3.6-1.5-.6-2.8-1.3-4.4-1.8h-.2zm12.3 23 1.3 4.6c-2.1-1.3-2-3.2-2.8-4.6.5-.8.9-1 1.5 0z" class="st17"/>
  <path d="m442.7 349.6-1.8-.3c.2-1.2 1.3-.6 2-1 .8-.2 1.5-.2 2.4-.2l1 1.7-2.5.1c-.4 0-.7-.2-1-.3z" class="st16"/>
  <path d="M466.7 369c-.4-1-1.7-1.6-1.4-3 1.7.6 2.3 1.9 2.9 3.5l-1.5-.4z" class="st17"/>
  <path d="m457.2 347.3 1.1 1.4c-2 .1-2.1 0-3.3-2.1 1-.5 1.5 0 2.2.6zm1.6 15.7c-.2.5-.4.7-.8 1.2l-2-3.1c1.5 0 2 1 2.8 2z" class="st16"/>
  <path d="M460.9 371.4c-.6-1.2-1.9-2-1.4-3.7 1.5 1.2 2 2.6 2.2 4.3-.4-.2-.6-.3-.8-.6zm-10-26.5-1-1.2c1-.6 1.7 0 2.5.5l.7 1.4-2.2-.7zm2.4 15.4c-1.4 0-2.2-.5-2.5-2 1.4.1 2.3.6 2.5 2z" class="st17"/>
  <path d="m443.2 347.2-3-.6 1.5-1c1 .2 2 0 1.9 1.4-.1.2-.3.1-.4.2z" class="st16"/>
  <path d="m451 354.4.1 1.5-2.9-2.1.3-.6 2.5 1.2zm19.1 19.2-1.2-2.8c1.8.6 1.9 1.7 2.4 3-.5 0-.8 0-1.2-.2z" class="st17"/>
  <path d="M470.7 366.4v1.8c-1.2-1-1.4-2-1.2-3.1 1-.1.9.7 1.2 1.3zM445.8 352l1.4 1.6c-1.6-.1-2.4-.4-2.7-2l1.3.4zm14.7-.8-1.7-1.7c1.4-.2 2 .5 2.5 1.5a2 2 0 0 1-.8.2z" class="st18"/>
  <path d="M471.5 377v-1.7h.2l1 2-.4.3a5 5 0 0 1-.8-.6z" class="st17"/>
  <path d="m454.3 356 .3-1.5 1.8 2.1c-1.3.7-1.6 0-2.1-.6z" class="st18"/>
  <path d="m403.7 378.6.3-.3s0 .2-.3.3z" class="st5"/>
  <path d="M334.7 187.5c-4.2.5-8.4.8-12.5 1.1l-7.1.5-12.4.5a11.4 11.4 0 0 1-2.5-4.2c-1.8-4-4-7.8-7.2-10.9-2.1-2-2.1-3-.3-5 .9-1.1 1.7-2.2 2.2-3.5 2.6-5.8 4.7-11.9 6.2-18 1-4.4-1-8.1-3.5-11.6-3.4-4.8-8.3-8.3-12-12.8a39.8 39.8 0 0 1-6.2-10c2.7-7.4 1.9-10.6-2.8-12-1.7.5-2.2 2.1-2.6 3.5-1 3.3-3.6 5.5-6 7.6a52 52 0 0 1-20.7 11.5 68.5 68.5 0 0 0-15 6.5 19 19 0 0 0-4 3c-.6.7-1.3 1.3-2.2 1.7-7 3.2-13 7.5-17.8 13.5a26.3 26.3 0 0 1-13.9 8c-2 .7-4 1.8-6.3 1.1-.9-1.8.1-2.8 1.7-3.8 2.3.8 4.1-.5 5.9-2 2-1.7 4-3.6 5.7-5.7 3.3-4 7.7-6.7 11.9-9.7 5.5-4 11-7.8 16.3-12.1l8.3-6.9a61.8 61.8 0 0 0 21.4-30c.5-1.9 1.3-3.7 2.4-5.4 3.6-6.2 5-12.7 3.6-19.8-1-4.4-4-8-7.7-8.5-1.7-.2-2.8.3-3 2a4 4 0 0 1-2 3c-1.6 1-2.1 2.6-3.5 3.8-.6.4-1 .4-1.6.5a6 6 0 0 0-.9.2c-.2 0-.3 0-.5.2-.3 0-.5.2-.8.3-.4.3-.8.4-1.3.6-.2 0-.3 0-.5.2-.5.1-.8.3-1.2.6l-1.5.9-.5.6c-.5.5-.7 1-1 1.7-.8.7-1.4 1.2-2 2-.8.5-1.6.6-2.3 1.4l-1.5 1.2c-1.5.7-2.4 2-3.7 3a5 5 0 0 1-1 .7c-.7.3-1.1.5-1.6 1-.7.5-1.2 1.1-2 1.6-.5.2-.9.3-1.3.6l-.5.3a5 5 0 0 0-1.3.8l-.8.5c-.5.3-1 .5-1.5 1l-1 1-1.2.8-1.4.8a5 5 0 0 0-2.8 2 2 2 0 0 1-.6.3c-1.1.3-2 .8-2.7 1.6l-1.8 1.2-1.2.9-1 .7c-1.2.4-2.1 1-2.9 2l-2.3 1.7-.7.4-.6.4c-.2 0-.3.1-.5.3l-.8.3-1.3.6a3 3 0 0 0-.9.7c-.4.5-.7.8-1.3 1.1l-1 .5-.7.4-1 .6-.6.3c-1.7.8-3.2 1.6-4.5 2.9l-.4.4a5 5 0 0 1-.7.6l-1 .6c-.6.2-1 .4-1.3.8-.5.7-1 1.2-1.8 1.6a5 5 0 0 0-1.3 1c-6.1 4.5-12.2 9-17.8 14-4.3 3.8-9 7-13.3 10.9-4 3.5-8.3 6.7-12.4 10-.7.6-1.4.9-2.2.3-.5-1.2.2-2.1.8-2.9 4.4-5 8.3-10.4 13.5-14.5 4.8-3.7 9-8 13.4-12 5.2-4.5 10-9.3 15.7-13.3 3-2.2 5.6-5.2 8.4-7.8 7.4-6.9 15-13.6 22.5-20.1 7.3-6.3 14.2-13 21.7-19 5.5-4.3 10.4-9.4 15.6-14 3.2-2.9 6-6.2 8.6-9.7 1-1.5 1.8-2.9.4-4.5-1-1.3-3.4-1.8-5-1-2.6 1.2-4.6 3-6.4 5-3.6 4-8.4 6.5-12.4 10-.6.4-1.3.8-2.2.9-1.1-.2-2-.9-2.6-2 .2-2.5 2-3.8 3.2-5.4 3.7-4.5 7.6-9 11.5-13.3 3.8-4.2 7.4-8.6 10.5-13.3l1.9-3c1-1.6 2.5-2.4 4.1-3.2l9.7 2.4 1 .5c6.2 3.5 12.5 6.8 18 11.3 6.2 5.1 12.5 10.2 18 16a130 130 0 0 1 20 25c3 5.2 5.7 10.5 8.5 15.8 3.6 6.7 7.1 13.4 11.6 19.5 3 4 6 8.1 10.2 11 1.7 1.2 3.6 2 5.4 3.1 8 4.5 16.5 7.6 25.5 9.2 2 .3 4 .6 6 1.1 1 .3 2 1.1 3 1.8 1 .4 1 1 1.1 2a6 6 0 0 1-1.4 2.9l-.6.8c-3 2.5-5.4 5.4-8 8.1-3.8 4.3-8.3 8.1-11.3 13.2-1 1.7-2.7 2.1-4.6 1.8a41 41 0 0 1-22.8-11.1c-5-4.9-8.5-11-13.3-15.9-5-5.2-9.3-11.5-16-15-1.4-.9-2.8-2.1-5-1.7a9 9 0 0 0 1.3 7.8c1.5 2.4 3.5 4.6 5.5 6.7a185 185 0 0 1 15.3 17.7c3 4 6.6 7.7 10.2 11.4 2 2 4.4 3.4 6.2 5.8.3.7.6 1.2 1.4 1.5a16 16 0 0 1 4.2 4c.3.4.5.6 1 .8l.5.2.5.4.5.6.3.5.5 1 2.5 2.1c.3.4.5.8 1 1.1l.7.6.5.8c.6 1.5 2.2 2.1 2.2 3.9 0 .7.4 1.2.7 1.8.4 1.2.2 2.3.4 3.5l.4.9c.3.6.5 1 1 1.4l.6.7c.3.2.4.4.6.8 0 3.3-2 4.8-4.6 6-3.5.4-6.8.8-10 1-1.9.2-3.7 0-5.8 0a8 8 0 0 1-.9-6.2c1.3-4.6-.3-8.8-2.1-12.9-.6-1.4-2-2.3-3.8-1.6-.9 1.8-1 3.5-.4 5.3 1 3 1 6.2.9 9.3 0 .7-.1 1.4-.8 2-1 .5-1.9 0-2.5-.8-3.6-4.7-8.1-8.7-11.4-13.8a36.5 36.5 0 0 1-5.2-15.8c-.7-5.5-1.6-6.5-7-8.2-1.8-.6-3.4-1.6-5.4-1.6-.5 0-1 0-1.5.5.4 2 .8 4 2.6 5.6 2.3 1.8 3.4 4.4 4.7 7 3.1 6.5 4.2 14 9.1 19.7 3 3.3 4.5 7.7 7.3 11.2.4.4.7.8.5 1.6z" class="st19"/>
  <path d="M221.2 81.7c.1-.3.2-.4.4-.5l1.5-.9.4-.1 1-.9 2.3-1.5c.5-.4 1-.5 1.6-1l.8-.5c1.7-.6 2.7-2 4-3.2l1.3-1.1 2.5-1.4c.6-.7 1-1.3 1.8-2 .7-.4.7-1.1 1.1-1.8l.4-.5 1.5-.9 1.4-1h.6a7 7 0 0 1 1.2-.6c.3 0 .5-.1.7-.4h.3l.7-.4h1.7c1.5.8 1.2 2 .7 3.1a33.6 33.6 0 0 1-10.4 13.5c-4.6 3.5-9 7.2-13.7 10.5-2.5 1.9-3.6 5-5.2 7.7-3.7 6.2-7.9 12-10.7 18.7-1.8 4.5-3.6 9-6 13.3-3.3 5.9-7.5 11-12.1 15.7-3.8 4-7.7 8-11.9 11.6-3.5 3-6.3 6.7-9.2 10.4-.8 1-1.4 2-1.3 3.2 11.2-4.4 21.8-9.8 32.5-14.9l6.5-3.1c2.3-1.1 4.6-2.3 7.2-2.2 1.3 0 2.3-.8 3.3-1.4 1.3-.8 2.6-1.1 4.2 0 .8 2-.7 2.8-1.8 3.8-2 1.6-4.6 2.6-6.7 4.4-.6.2-1 .3-1.4.7-.4.3-.7.3-1.1.5l-.8.5c-2.7 2.8-6.1 4.5-9.2 6.7-5.7 4.1-11 8.6-16.6 13l-11.3 8.8c-2.7 2.2-5.6 4.3-8.2 6.6-5.6 5-11.7 9.6-16.9 15.2-1 1.2-2.4 2.1-3.8 3.2-3.5 1-7 1.7-10.3 2.5-.4.1-.8.4-1.3.7-.4.7-1 .8-1.5 1-10.8 1.8-21.4 4.7-32.1 7.3-1.1.3-2.3.8-3.7.3-.3-2.3 1.8-3 3-4.2.6-.6 1.6-.9 2.5-1.5l.9-.6a85 85 0 0 0 12.4-8.9c7.2-6.4 15.2-12 22-19.1l.8-.9c7.3-4.7 12-11.9 17.5-18.3a73.8 73.8 0 0 0 13.3-25.3c.1-.3.3-.6 0-1-6.5 7-14 12.8-21.1 19.1a133 133 0 0 1-33.2 22l-15.6 7c-4.8 2-8.6 5.3-12.4 8.8-1.5 1.5-3.2 2.8-4.9 4.2-.8.7-1.7 1.4-3 1-.9-1-.6-2-.3-3 1-4.4 3.5-8 6-11.6a77.5 77.5 0 0 1 17-16.5c4-3 9-4.5 13.6-6.6 6.3-2.8 12.2-6.5 18.4-9.7 1.9-.9 3.2-2.6 4.6-4.8-3.2.7-5.9-.6-8.7.4-1 .3-2.2-.6-3.5-.6-3-.2-5.8.7-8.6 1.5-2.3.6-4.1.1-5.9-1.8 1.2-5.6 5.8-9.6 7.7-15-6.1 6.9-13.5 12.2-20.2 18.4-3.6 3.4-8.2 5.6-12.4 8.2-4 2.4-7.5 5.4-11 8.5-7.6 6.6-15.8 12-24.7 16.8-5 2.8-10.3 5.5-14.9 9.1-7 5.4-14.4 10.3-20.9 16.4a51.8 51.8 0 0 1-8.2 6.5c-.8.5-1.5 1-2.7.3-.6-2.9 1-5.4 2-8 2.3-5.1 6-9 10.5-12.2a38 38 0 0 0 8-8c4.4-6.2 9-12.4 13.1-18.8.8-1.2 1.4-2.5 1.9-3.8-.5-.3-.8-.1-1.2 0l-.6.1-.6.2-1 .5-1.2.6-.6.4a7 7 0 0 0-.6.4c-.5.5-1 .8-1.6 1.1a4 4 0 0 0-.8.4 4 4 0 0 1-1.6 1l-1 .5-.4.4-.9.7c-1.2 1-2.4 1.8-3.9 2.4l-.9.3-.9.1c-.6.1-1 .3-1.6.7h-.8l-3.1-2.3.4-2.6c-.6-1.3.2-1.8.8-2.4a85.3 85.3 0 0 1 18.6-13.9c2-1 3.8-2.3 5.8-3.3.6-.3 1.3-.5 1.5-1.2 1.1-3.4 4.2-5.2 6.7-7.3 3.8-3 8.3-2.9 12.8-1.7l3.2 1c3.1 1 5.3 3 6.2 6.2.3 1.2.4 2.6 2 3.5 2.5-.6 5-1.5 7.5-3 6.5-4.1 12-9.3 17.6-14.6 4.9-4.7 9.7-9.3 14.7-13.8 2.1-1.8 4.7-2.9 7.3-3.6a88.1 88.1 0 0 0 23.2-11c.7-.2 1.2-.3 1.7-.6l.4-.4.5-.5.4-.6.8-.5c2-.3 3-1.6 4-3 3.1-3.2 6.8-5.6 9.7-8.7 1.3-1.3 3.3-1.7 4.4-3.5 1.7-1.2 3.4-2 4.8-3.3l15-14a32 32 0 0 1 2.8-2.3c3.2-2.4 5.7-5.4 8.5-8.1 5.2-5 10.7-9.8 16.2-14.6a67 67 0 0 0 8.2-9.2l2.7-3.3 2.9-.2 2.8 2c.9-.5 2-1 2.8-1.7 2.2-2.1 4.8-3.6 7.2-5.4 1.6-1 2.8-2.6 4.2-4 2.2-2 4.4-4.3 7.4-5.5l.6-.1 3.4.6 1.7 1.9v3.2l-6.5 7.2-12.7 12.7c-1.8 1.7-4 3-6 4.7l-7.2 6.6c-3.8 3.4-7.5 7-11.5 10-3.1 2.4-5.9 5.2-8.8 7.8-2.8 2.7-5.9 5.1-8.8 7.7l-5.9 5.3c-2.4 2.2-4.9 4.3-7.2 6.7a55 55 0 0 1-10 8l-8.7 8.2-9.2 8.7c-.7.7-1.5 1.2-2.3 1.8a32.4 32.4 0 0 0-6.8 6.3c-2.3 2.8-4.9 5.3-7.4 7.9a10.3 10.3 0 0 0-2.7 4.3c1 .5 1.4-.1 2-.6 3-2.6 6-5.4 9.3-7.8 2-1.4 3.7-3.2 5.6-4.7 2-1.7 4.2-3.2 6.3-4.8l4.7-4c1.7-1.4 3.2-2.9 4.9-4.2l8.6-6.4 3.8-2.8c.5-.2.8-.5 1.2-.8l1.7-1.5c.5-.4 1-.5 1.6-1l.8-.5c.3 0 .4-.2.6-.4 0 0 .1-.1 0-.1a82.8 82.8 0 0 0 5.7-3.9c.4 0 .7-.1 1-.4l.5-.5 1-.4 1.3-1c.5-.2.7-.5 1.1-.8l1.3-.7c.3 0 .4-.2.7-.3l.3-.2c.3 0 .4-.1.6-.3V96l.5-.4 2.7-1.6 3-2.2.9-.6 1-.8 1.8-1.2c1.2-.4 2-1.1 3-1.7l.4-.2 3-2.2 1.3-.7c.5-.2.7-.4 1.1-.8l1-1c.5-.5 1.3-.4 1.9-1z" class="st20"/>
  <path d="M147.4 109.8a1 1 0 0 0-.5.4l-.4.5-.1.2-.4.3-.1.1c-.3.5-.7.8-1.3 1-1.8 1-3.5 1.8-5 2.9-4.4 3.2-9.3 5-14.3 6.8l-5.8 2c-4 1.2-7 4-9.9 6.6-5.1 4.8-10.3 9.5-15.3 14.5-3.9 4-8.3 7.1-12.8 10.3-2 1.3-6.4 3.2-8.6 3.4a3.7 3.7 0 0 1-1.9-2.9c-.8-4-3.1-6.2-7.2-7.2-2.7-.7-5.2-1.5-8-1.4a11 11 0 0 0-7.4 3.2c-.8.9-1.8 1.6-2.7 2.4-1.4 1.1-2.5 2.4-2.6 4.2l-12.6 7.2c-1.6 1-3.3 2-4.7 3.2l-9.4 8.2c-.3.2-.4.6-.6 1.1-.6.7-1.1 1.1-1.9 1.7-4.4-.8-7.9 3.1-12.6 3.4l-.3-3v-40c.4-.7 1-.8 1.7-1 1.2-.3 2.3-.2 3.5-.4l.6-.2c.6 0 1-.1 1.6-.3l.7-.2 1 .1c.9.5 1.3 1.5 2.5 1.5h.8c1-.3 1.8-.4 2.6-1l.8-.5c7.7-4 16-6.2 23.5-10a66.3 66.3 0 0 0 15.4-10.4c2-1.8 4.4-3.2 6.2-5.2 1.3-1.4 2.5-2.7 3.4-4.4 1.2-2.5 4-3.5 6.1-5.2l12-9.5c2.2-1.8 4.9-3.2 6.4-5.6 2.5-4 5.8-7.1 10-9.2 2-1 3.3-2.9 4.7-4.7l.6-.7 1.2-1.4c.4-.5.8-.7 1.1-1.3l.2-.5.4-.7.3-.5.6-.8.2-.5.4-.7c0-.2.1-.3.3-.5l.7-1.1.3-.5a6 6 0 0 0 1-2.5l.6-1.2c1.3-1.7 1-3.9 2.5-5.3 1.8 0 2.6 1.5 3.5 2.6 3.6 4.3 7.8 8 12.4 11.1A243.4 243.4 0 0 0 151 81.4c.7.3 1.4.4 1.9.8l5.5 5.1c.7.6 1.3 1.3 2 1.7 2.3 1 3.7 2.9 5 5 0 .9-.2 1.6-.4 2.3-2.2 0-3.2 1.5-4.4 2.7-1 1-2 2.2-3.4 2.8-.8.4-1.4 1.3-2.1 2l-3.4 2.7c-1.5 1-2.7 2.4-4.4 3.3z" class="st19"/>
  <path d="m394 123 1.5-2.3c.8-1.7 1.8-3 2.8-4.5 0-.1 0-.4.2-.4.6-1 1-2 1.7-3l.2-.4a22 22 0 0 1 5.1-6.6l.2-.1c.4-.6 1.1-.6 1.7-1 .1 0 .2-.2.3-.1 5.7-3 10.8-2 13.9 2.8l3.6 3.5 1.2.9.2.2c1 1.1 1.9 2.2 2.6 3.6l2.2 2 1 .8 1.5 1.4c1.3 1.6 2.8 2.8 4 4.4l4 4 1 .8 1.5 1.2c.4.3.8.4 1.2.8l.7.6c3.6 3.7 7.3 7 11.2 10.2l1.6 1.6 4.5 4.6c3 2.8 6.2 5.3 9 8.4l2 2c.4.4.8.5 1.3.9l1.1 1.1c1 .5 1.6 1.3 2.7 1.4 2 .7 2.8 2.4 4 3.8.9 2 2.5 2.8 4.1 3.8 3.6 2.1 6.8 4.4 9.9 7 3 2.6 6.9 4.3 10 7 .8.6 1.7 1 2.1 2.2-6.4 0-12.9-.2-19.5-.4a4 4 0 0 0-1.4-.5l-.5-.3a4 4 0 0 0-1.6-1l-.5-.3-1.3-.8-.5-.4c-1.2-1-2-2-3.5-2.4-.8-.3-1.3-.8-1.8-1.5-.3-.8-.7-1.3-1.7-1.5a5 5 0 0 1-2.6-2.4c-.6-2-2-3.2-3.7-4.2-1.5-1.3-3-2.3-4-4-.3-.8-.4-1.5-1-1.9-4.5-4-8.6-8.5-13.5-12l-.8-.4c-1.2-.5-2-1.1-2.8-2a15 15 0 0 0-5.1-4.6c-1.4-.3-2.1-1.2-3-2.1-2-2.9-4.8-4.5-7.5-6.5l-.6-.3a12.5 12.5 0 0 0-5.2-3.9l-1.3-.8a3 3 0 0 1-.5-.4 5.5 5.5 0 0 0-3-1.9c1 1.6 1.5 3 2.7 4.3.2.2.3.2.4.5.4.8.6 1.5 1.3 2.1l.3.6c.2 1 .4 1.7 1.2 2.4l.3.9c.3 1 .5 2 1.3 2.9l.4.5.7 1a188 188 0 0 0 11.9 15.9c2.4 3 5.2 5.6 7.6 8.5 3.9 4.6 8.5 8.5 12.2 13.1.6.7 1.4 1.2 1 2.4h-18.5c-5.3-3.9-9.2-9-13.7-13.5-3-2.8-4.8-6.6-8.2-9-1.4-1-2.7-1.3-4.4-.2-.2 3.1.6 6.3 2 9 2.3 4 2.5 8.8 4.7 12.8 0 .2 0 .5-.2.8-6.9.2-13.6.2-20.5.2a14.2 14.2 0 0 1-4.9-7.7c-.5-2-1.1-3.8-2.1-5.5-1.7-2.8-2.3-6-3.2-9-.5-1.5-1-3-2-4.3.1 2.8.7 5.5 1 8.2.7 6.1 2.1 12.2 1.9 18.6-4 .2-7.8.2-11.9.2-1.4-.6-1.3-1.7-1.2-2.7.3-5-1-9.6-1.7-14.5 0-.4-.2-.9-1-1.2-1.6 1.5-3 3.2-2.6 5.7.2 1.5.3 3 .2 4.5 0 1.8-.7 3.4-2.4 4.1-1.8.8-3.5 0-4.8-1.6l-.5-.5-.6-.4c-.4-.5-.7-.8-1-1.4l-.4-.6c-.3-1.3-.4-2.6-.6-4.1l-.7-1.7-1-2.2-1.2-1.9a1 1 0 0 0-.3-.7c-.3 0-.4-.2-.5-.4l-1-1-2.8-2.4c-.3-.3-.3-.6-.5-1l-.2-.3c0-.3 0-.4-.3-.6h-.1c0-.2-.2-.3-.4-.4l-.4-.1c-.3-.3-.6-.3-1-.5l-4.2-4.3-1.6-1.4-3.1-2.7c-.2-.1-.5-.2-.6-.4l-5.6-5.8c-1.6-1.7-3-3.6-4.6-5.2-2.5-2.4-4.3-5.3-6.3-8l-.7-1-11.6-12.5c-1.9-2.1-3.7-4.3-5.5-6.6-1.4-1.8-1.8-6.3-.8-8.7a6 6 0 0 1 2.3.3c5 2 9.1 5.1 12.5 9.3 1.4 1.7 3.2 3.2 4.6 4.9 2 2.2 3.8 4.5 5.6 6.8 2.4 3 4.3 6.4 7 9 4.4 3.8 8.3 8.3 14 10.5a41 41 0 0 0 14 3.3c1.1-1.3 2.5-2.5 3.3-4 2-3 4.4-5.7 7.4-8a3 3 0 0 0 1-1.2c1.4-2.3 1.4-2.3 2.6-3l6.6-6.7.5-.6z" style="fill:#bc5239"/>
  <path d="m720.1 202 2.2 2 2 1.7 3.6 3.7c2.6 2.3 5.3 4.5 8 7l-9-2-24.5-5.4c-1.2-1-1.6-2.5-3.2-3.1-1.5-1-2.9-2-3.6-4-.8-2.4-2.3-4.2-4-6.2 0-.2-.2-.3-.3-.5-.5-1.2-1.1-2-2.2-2.7-.6-.4-1-.8-1.2-1.5-.2-.6-.2-1.1-.8-1.5-.7-.5-1-1.1-1.5-1.9-.2-.6-.3-1-.9-1.4l-1-1c-.2-.6-.3-1.1-.8-1.6l-.3-.5c-.4-1-.8-1.6-1.6-2.2l-.7-.7c-.3-.8-.3-1.5-1.1-2l-1.2-1-.4-1.2-.3-.5a3 3 0 0 0-1.1-1.6l-.5-.4-.8-.9-.3-.4c-.3-.8-.4-1.5-1.4-1.8-1.2-.7-2-1.7-2.5-3-.2-1-.6-2-1.7-2.4l-.7-.6c-1-2.7-2.6-4.7-4.2-6.9l-.5-.5c-.4-.7-.5-1.5-1.3-2-.4-.2-.6-.5-.8-.9l-.3-.8-.3-.6a7 7 0 0 0-2-2.6c-.5-.4-.8-.8-1.1-1.4-.3-.6-.4-1.1-1-1.5a2 2 0 0 1-1-1.2c-.2-.5-.2-1-.4-1.3-4-5.7-6-12.5-9.6-18.5l-.8-1.1a3 3 0 0 1-.4-1c-.7-3.7-2.7-6.6-5-9.5l-.4-.5-1-1.2a5 5 0 0 1-.6-1c-.2-.6-.3-1.2-.8-1.6l-2-2.1a13 13 0 0 0-4.2-4l-.5-.4c-.6-.5-1-.9-1.9-.7a7 7 0 0 0-2.7.8c-.4.3-.6.5-.7 1 0 .4-.2.6-.5 1-1.1.7-1.5 1.3-.2 2.1l.8.7a4.4 4.4 0 0 1 1 3.7l-.3 1.4-.3 1.1c-2.1 3.2-3 3.3-5.7 1.1-1-.7-2-1.3-3-1.3-3.5.2-7.1-.2-10.5 1-3 1.1-5 3-5 6.5 0 2.7-.1 5.3.8 7.9.8 2.3 1.2 4.8 1.3 7.2.3 4.1 1.5 8 2.4 12 1.2 6 1 12 .4 18.1 0 1-.2 1.9.1 3.2 1-1.1 1.6-2.2 2.1-3.3 1.8-3.6 4.8-6.4 7-9.7 1.3-2 3.5-1.5 5.5-2.3 1.2-.4 2.1-.3 3.2.3l.8.7 1 .8.5 1.1v1.2c0 .5-.2.9-.3 1.4l-.2.5-.3.8c0 .3-.1.4-.3.8a4 4 0 0 0-.6 1.8 7 7 0 0 1-1.7 3.3l-.6.7-.6 1a2 2 0 0 0-.5 1l-.1.5-.3.8a3 3 0 0 1-.5 1.4l-.4.7-.4 1-.7 1.2-.2.5c-.4.8-.7 1.4-.7 2.3 0 .4 0 .6-.2 1-.2 1.4-.5 2.7.4 4.1.3.9.3 1.6.2 2.5-.1.7-.3 1.2 0 2 0 .8 0 1.3-.3 2-.8 1.4-.4 2.9-1.5 4-3.6-.2-7-.6-10.5-1-1.7-.2-3.3-.5-5-.6l-16.5-1.6c-.9-.8-.5-1.7-.4-2.5.2-4.1-.2-8.1-2-12.2-2.5 2.6-3.3 5.5-4.3 8.5-.5 1.7-.7 3.6-2.1 5.1-2.9-.1-5.6-.4-8.3-.7l-5.1-.4c-.2-.2-.3-.3-.3-.6 1-2 .6-4 .3-6.4-1.3 1-1.8 2-2.4 3.3l-.3.6c-.3.4-.6.7-.8 1.2-.3.5-.4.8-.9 1.2-4 0-7.8-.2-11.9-.4-1.1-3.2 1-5.2 3-6.4 3-1.7 4.7-4 5.7-7 .1-.3.4-.5.7-.9.6-.6 1-1.1.7-2v-1c.9-1.1.6-2-.1-3.2a6.2 6.2 0 0 1 0-3.3c1.3-3.4 2.5-6.6 3.2-10.2l.1-.5c.8-2.5 2-4.5 4.2-6l.2-.3c2.6-1.7 5.5-2.7 8.4-4l.4-.3c1.3-1.1 2.8-2 4-3.4l2.5-2.8 1.3-2 1.1-1.8.8-1.2v-.3c.5-.5.6-1.1 1-1.7l2.1-2.6c.6-1 1-2 1.7-3l.2-.4.3-.5.2-.4c.4-1.3 1-2.3 1.7-3.5.1 0 0-.3.2-.4.4-.4.4-1 .8-1.5l.2-.4 1.2-2 .2-.4.8-1c0-.2 0-.3.2-.4.3-.5.4-.8.8-1.2l.8-.8c3.4-4 8.2-4.1 12.7-4.8 1.5-.2 3-.3 4.4-.9 2.3-1 4.6.1 6.8 1 1.3-1.8 0-4.3 2-5.8l.3-.5c.6-.9 1.3-1.5 2.2-2.2l.4-.3c3.7-1.5 7.4-2.4 11 .4l.6.3c.4.2.7.3 1 .6l1.4 1.2 1 .8 1.5 1.3c.1.3.3.5.6.6l2 1.3c.8.7 1.4 1.5 2.2 2.4 1.7 2.1 3.7 3.7 5.4 5.9l1.2 1.4 1.8 2 .7.8c1.4 2 2.9 4 4 6.3l.3.4c.6 1.3 1.5 2.1 2 3.5l1 1c0 .6.4 1 .6 1.4l.7.8c.6.7.8 1.4 1.3 2l.1.2c.4.3.5.8.8 1.3l.7.9c.5.6.8 1.2 1.2 2l.3.3c1.9 2.8 3.1 5.9 5 8.8l.6.8c.7.6.9 1.4 1.3 2l.8.9 1.6 2.5c0 .2.3.3.3.4.5 1.2 1.5 2 2.1 3.4l.7 1 1.3 2 1.2 1.3c.4 1 1 1.7 1.6 2.5l.3.4c.8 1.6 2.3 2.6 3 4.4l.8.9c.7.7 1.2 1.5 1.7 2.4l1.7 2c.3.4.7.8 1 1.4l1.8 2.3c.6.7.8 1.3 1.3 2l1.6 1.6 1.2.9 1.6 1.5c.6.5 1.1 1 1.8 1.4 2.3 2 4.8 3.5 6.5 6.1 1 1.2 2.1 2.2 3.1 3.5 0 0 .2 0 .2.2l1 .7 4.3 4 1.6 1.3 2.4 2.4z" class="st6"/>
  <path d="M13 139c-1.2 0-2.3-.2-2.8-1.6-.3-.3-.6-.4-1-.2l-.4.1c-.5.3-1 .2-1.5.4l-.4.1c-1.3.4-2.5 0-3.9.4l-1.8.6c-.3-2.9-.7-5.9.1-9 .5-.7 1.1-1 1.8-1a67.2 67.2 0 0 0 18-4.8l5.4-2.2c3.9-2 7.8-3.8 11.5-6 2.4-1.5 4.6-3.4 6.7-5.4 1.1-1.1 1.7-2.8 2.7-4.2 1.7-2.3 3.5-4.5 5-6.9a99 99 0 0 0 6.3-9.6c1.7-2.7 3-5.6 4.6-8.4a7 7 0 0 1 4.2-4c2.4.2 5.4-.7 8.2.7.3.2.8.2 1.2.2 2-.3 4-.3 5.8-1 2.3-.6 4-2.5 5.6-4.4l.3-.3c2.5-1.7 4.7-3.7 7.3-5.5l1.8-1.7c3-2.6 5.2-5.8 7.7-8.6l2.4-2.7c2.1-2.1 3-2.2 5.8-.6.3.2.3.3.5.6.5 2.1-.9 3.7-1.1 5.7l-.7 1.3c-.6.9-.6 1.9-1.2 2.7l-.2.3-.8 1.1c0 .3 0 .4-.2.7l-.3.3-.2.6-.7.9-.2.6-.4.3-.1.6-1.2 1.4-1.1 1.5-.4.3c-.2.4-.2.8-.4 1-2.3 2.6-4.7 5-7.8 6.6-1.3.6-2.5 1.4-3.4 2-2 4-4.6 7-8.1 9.3l-.6.3-7 5.9-6.2 4.7-4.6 3.4c-.6.4-1.1 1-1.4 1.6a23.8 23.8 0 0 1-7.9 8.4l-1.5 1.2a69.5 69.5 0 0 1-24.2 14.4 71 71 0 0 0-12 5.1c-1 .5-2 .8-3.1 1.2-.4 0-.5.1-.7.4A18.4 18.4 0 0 1 13 139z" class="st22"/>
  <path d="M559 154.2c0 3.4-1 6.7-2.5 10-.5-.3-.7-.6-.7-1 1-5.3-2.5-7.9-6-10.5a8.4 8.4 0 0 0-6-1.8c-7.4.7-14-.8-20-5.6-2.1-1.7-4.7-3-7-4.4-3.5-2.2-7-1.8-10.3-.2-6.8 3.1-12.5 7.8-18.6 11.8a44.5 44.5 0 0 0-6.4 5.4 5.4 5.4 0 0 0-1.9 4.2c-1.2.3-2-.3-2.5-1.4.3-.3.9-.4 1-.6.2-1.6 1.5-2.4 2.5-3.4 3.2-3.2 7-5.6 10.8-8.2 3.5-2.5 7-5.1 10.7-7.2 3-1.7 6-3.6 9.8-3.4 1 0 2.3.1 3.2.6l12.7 7.6c3.1 2 6.3 3.4 10 3.3h7.8c2 0 3.5.8 5 2 2.2 1.9 4.6 3.6 6 6.4l1.1.6 1.4-4.2zm224.2-5.9c0 .9-.1 1.8-.4 2.7-.2 1-.5 2-1 3a82.4 82.4 0 0 1-10.6 13.4 9 9 0 0 1-2.7 1.8c-6 2.7-12.2 5-18.1 8-3.7 2-7.8 2.8-11.5 4.6-1.4.7-2.7 1.6-4.2 2.5.3-1.6 1.7-2.3 3-2.8l8.2-2.9a5 5 0 0 0 1.9-1c2.1-2.3 5.2-3 8-4 2-.8 4-1.3 6-2a9.3 9.3 0 0 0 3-2c1.5-1.2 3.3-2.3 4.1-4 1.5-3 4.2-4.7 6.4-7l.3-.3c2.6-1.4 4.1-3.9 6-5.8a54 54 0 0 1 1.6-4.2z" class="st4"/>
  <path d="m113 59.8.3-2.5.5-3.2.2-.5v-.2l-.3.3c-1.2-.5-2.4-1.4-4.5-.6l-5.1 6-6 6.1 6.1-7.7 3.1-3.6a6.2 6.2 0 0 1 6.8-2.2l6.2 6.8c3.8 4.2 8.1 7.7 12.8 10.7L149 79.4c.7.5 1.4 1.2 2.2 2-1.4-.7-3-1.4-4.5-2.3-4.5-3-8.8-6-13.4-8.8-5-3-9.3-6.8-13.4-10.9l-3.4-3.7c-.3-.4-.8-.7-1.5-1.3l-2 5.4z" class="st7"/>
  <path d="m620.5 100.8-1.7 6.6-4.6-1.8-3.6 1-9.4 1.4a9 9 0 0 0-5 2.5c-.3.4-.8.6-1.4.8 1.4-2.6 4-3.3 6.6-4 2.5-.5 5-.7 7.6-1 .4 0 1-.1 1.4-.3a7.2 7.2 0 0 1 7 .2l.7.1c1-.4.7-1.3.8-2 0-1.3.2-2.6 1.6-3.5zm-161.3 42.6a123.5 123.5 0 0 1-11.6-9.6c-.5-.4-.8-1.1-1.2-1.8a38 38 0 0 1 3.4 2.6l8.8 8c.2.1.4.4.6.8zm-37.5-36-3.4-2.8a6.4 6.4 0 0 0-6.2-1.1l-4.1 1c4.5-3 10.8-2.6 13.7 2.9zm50.9 49a47.8 47.8 0 0 1-9-8.1c.4 0 .8 0 1 .2a199 199 0 0 1 8 7.9zm161.9-58.1c-.5 0-1.1 0-1.5-.4-1.3-1-2.8-1.1-4.3-1l-5 1c1-1.5 3-1 4.6-1.5 2.3-.7 4.4.2 6.2 1.9z" class="st4"/>
  <path d="M95.9 66.9a24 24 0 0 1-7 5.5c2.1-1.8 4.5-3.7 7-5.5z" class="st7"/>
  <path d="M671.8 145.8c-.4-.2-.9-.6-1.1-1-1.4-2.4-2.6-4.9-4-7.5.7.8 1.5 1.7 2 2.7 1.1 1.8 2.1 3.7 3 5.8zm-99.8-2.6c-.1.4-.4.8-.8 1l-7.3 3.2c.7-.5 1.6-1.2 2.6-1.7a83 83 0 0 1 5.5-2.5zm78.2-30.5zm-244.7-6.9a160 160 0 0 1-4.9 6.4c.7-2.7 2.6-4.7 5-6.4zm252.4 17.4a95.5 95.5 0 0 1-4.1-6 16 16 0 0 1 4 6zm-94.5 24.4c0 .4-.2.8-.6 1.1-1.5 1.3-2.4 3-3.3 4.9.1-2.6 1.6-4.6 4-6zm-165.1-31.4-2.6 4.3c-.3-.7-.4-1.3-.6-2.2.5-.3 1.1-.3 1.8-.4l1.4-1.8zm39.7 8zm248.6 43.2c-1.2-1.1-2.6-2.2-3-4.1l3 4zm-110.3-27.7c-.2 1.9-2 2.4-3.5 3.3l3.5-3.3zm210.3 2.9c0 1.8-1.3 3-2.5 4.3.7-1.4 1.5-2.8 2.5-4.3zm-75.9 50.7zm-281.4-77.8c-.9-.9-1.7-2-2.6-3.2 1.4.5 2 1.8 2.6 3.3zM660.2 127c-.9-.7-2-1.4-2.1-3 .7.8 1.4 1.8 2.1 3zm-70.9-7.5a18 18 0 0 1-1.4 3.3c.3-1 .8-2.1 1.4-3.3zm89.2 36.3a24 24 0 0 1-2.2-3.1c.8.8 1.5 1.9 2.2 3.1zM623 98.1a15 15 0 0 1-2 2.2 15 15 0 0 1 2-2.2zm-36 26.2a20 20 0 0 1-1.5 2.9c.3-1 .8-1.9 1.4-2.9zm-186.8-11.5c-.4.9-.8 1.8-1.5 2.9.4-1 .8-2 1.5-3zm283.1 49.8c-1-.2-1.7-.8-1.7-2.1.6.5 1.1 1.2 1.7 2.1zm-7.2-10.6c-1.1 0-1.4-1-1.7-2.2a14 14 0 0 1 1.7 2.2zm12.9 18.8-1.6-2.2 1.7 2.2zM653.1 116c-.5-.3-1.1-.9-1.7-1.5.5.3 1.1.9 1.7 1.6zm20.6 32.7a7 7 0 0 1-1.2-1.8c.4.5.8 1 1.2 1.8zm6.8 10.1-1.3-1.7 1.3 1.7zm14.4 19.6-1.3-1.7 1.3 1.8zm-103.2-63.2a7 7 0 0 1-1 1.9 7 7 0 0 1 1-1.9zm126.1 84.4a6 6 0 0 1-1.6-1c.5.2 1 .5 1.6 1zM701 183.8a7 7 0 0 1-1.7-1c.6.1 1.1.5 1.7 1zm-34.5-47.1-1.2-1.7 1.2 1.7zm-86.3-1.9c-.2.6-.5 1.3-1 2 .2-.6.5-1.3 1-2zm83.5-2.4-1.3-1.7 1.3 1.7zm28.1 41.7c-.4-.2-.7-.6-1-1.2l1 1.2zm-284.4-69.5c-.3.4-.8.7-1.5 1l1.5-1zm326.9 79.9c0 .5-.3 1-.7 1.7 0-.5.3-1 .7-1.7zm-144-66.9c0 .4-.2.9-.5 1.4 0-.4.2-.9.5-1.4zm-7.2 12.3c0 .5-.3 1-.7 1.5l.7-1.5zm10.6-17.8c0 .4-.2.8-.5 1.2 0-.4.2-.8.5-1.2zm-167.3-.3c-.3 0-.7-.3-1.1-.6.3 0 .7.3 1.1.6zm49.6 47.5c-.4 0-.8-.3-1.3-.6.4 0 .8.3 1.2.6zM445.6 131c-.3 0-.7-.2-1-.5.3 0 .6.2 1 .5zm219 2.8c-.3-.2-.5-.6-.8-1 .3.2.5.5.8 1zm33.1 47.1c-.4 0-.8-.3-1.2-.6.4 0 .8.3 1.2.6zm14.2 13.4c-.3 0-.6-.2-1-.6.3 0 .6.3 1 .6zM636 99.2l-1-.3c.4 0 .7 0 1 .3zm2.4 1.9c-.3 0-.6-.1-1-.4.3 0 .7.2 1 .4zm152 36.6c0 .3-.2.6-.5 1 0-.3.2-.6.5-1zM582 131.9c0 .2 0 .6-.4 1 0-.3.2-.6.5-1zm79.8-2.4c-.3-.2-.5-.5-.8-1l.8 1zM443 129a2 2 0 0 1-.9-.5c.3 0 .6.2 1 .5zm-10.5-10.6c-.3 0-.6-.2-1-.4.3 0 .6.1 1 .4zm160.2-4.7c0 .3-.2.6-.5 1 0-.3.2-.6.5-1zM783.8 147c0 .2 0 .4-.2.7 0-.1 0-.4.2-.6zm-143.3-44c-.1.1-.3 0-.6-.2.1 0 .3 0 .6.3zm-53.1 20.3-.1.4c-.1 0-.1-.2.1-.4z" class="st4"/>
  <path d="M175.9 382.6c0-.8.1-1.6.4-2.3.8-2 1-3.8.6-5.9L174 373c-2.8 0-5.5.6-7.7 2.8-1.2 1.1-2.7 2-4 2.9l-3.3 1.9c-4 0-7.9-.8-11.7-1.5a702.9 702.9 0 0 1-38-7.5c-8-1.9-16.1-4-24.4-5.8-9.6-3-19.2-5.4-28.7-8.5a573.7 573.7 0 0 1-30.5-10.6c-7.7-3-15.1-6.5-22.8-9.4-.6-.2-1.2-.5-1.7-1.1-.2-.6-.2-1-.2-1.4V271a84.9 84.9 0 0 1 11.2-1.1c3 0 6.1.2 9.1 0 8.5-1 17-.4 25.4-.5 6 0 12.1.2 18.2.5 4.6.3 9.1 1 13.7 1.4l8 .5 8.4.9 9.9 1c3.4.4 6.8 1 10.1 1.3l9.5 1.1 5.6 1 10.4 1.4 6 1.1 14.7 2.3 5.1 1 13.5 2.7 20.8 4.4 14.4 3a859 859 0 0 1 16.7 3.8c3.5.8 7 1.8 10.4 2.7l11.1 2.5 9.7 2.5c1.1 1.3.8 2.8.8 4.2a77 77 0 0 0 2 21c.8 2.8.6 5.2-1.4 7.6-.8 1.1-1.5 2-2.2 3.3-1.3 2.4-3 4.5-2.5 7.4.3 1.9 1 3.3 2.3 4.6 4.5 4.7 10 7.5 16.3 9.4 6.7 1.9 13.3 3.4 20 4.3l2.4.6c.7.6.4 1.1.1 1.6-4.5 7.5-7.9 15.6-11.5 23.6-.5 1-.8 2.2-2 3l-14.1-1.7-6.4-.6-9.5-1.2a321.3 321.3 0 0 0-15.4-1.6l-11.8-1-5.7-.6-14.4-1.8-14.7-1.5-17.7-2.4H176z" class="st14"/>
  <path d="M20.6 181h.8l.7-.4 4.2-2.4c.3-.3.6-.3 1-.5v-.1l1-.8 1.8-1 .6-.5 1.8-1 .5-.4.1-.1c.1-.1.2-.3.5-.4l1.3-.5c.3-.3.6-.3 1-.5h.1l.4-.4 3.3-1c-.4 2.1-1.5 3.8-2.5 5.4a173 173 0 0 1-6.6 10c-1.5 2.2-3.5 4-5 6.4a41 41 0 0 1-12.4 13 24.5 24.5 0 0 0-6.5 7.8 37.3 37.3 0 0 0-3.2 7.9v1.2l.4.6c1.5-1 3.2-1.9 4.6-3 3.8-3.4 7.4-6.8 11.3-10 3.6-2.8 7.3-5.3 11-8 1.8-1.4 3.6-2.9 5.5-4.1a164 164 0 0 1 8-5l9-5c3-1.8 6-3.4 8.7-5.2 2-1.2 3.8-2.8 5.7-4.3l8.2-6.5c1.6-1.3 3-2.8 4.7-4l9.8-6.4 4.4-2.9c2.9-1.7 4.8-4.5 7.4-6.3 5.4-3.9 9.7-8.8 14.6-13 .8-.7 1.5-1.6 2.3-2.2-.3 2.8-1.9 4.9-3.1 7.1-1.7 3-4.3 5.6-5 9.3 1.5 1.5 3.1 2 5.4 1.3 2.6-.8 5.3-1.7 8.1-1.5l4.1.6c1-.6 2.5-.6 4.2-.2 1.6.3 3.4 0 5.3 0a15.8 15.8 0 0 1-5.9 6.2c-3.4 1.8-7 3.3-10.3 5.4-3.2 2-6.7 3.4-10 5-3.2 1.5-6.5 2.9-9.5 4.6-2.1 1.1-4 2.6-5.8 4a58 58 0 0 0-6.5 6.1c-2.8 3.2-5.4 6.7-8 10.1-2 2.6-3.4 5.5-4.1 8.8-.2.6-.2 1.3-.2 2 1.5.4 2.3-.6 3-1.3 3.4-2.9 6.5-6 10-8.7 2.3-1.8 5.1-3.2 7.8-4.5 2.4-1 5-1.8 7.3-2.8 1.6-.7 3-1.7 4.6-2.5 2.1-1 4.3-2 6.4-3.2a2083.3 2083.3 0 0 0 17.7-10c3-3 6.3-5.7 9.8-8.3 2.7-2 5-4.4 7.6-6.6l10.3-8.9c1.7-1.5 3.3-3.3 5-4.9l1.6-1.4c.2 0 .3.2.5.3-1 2.8-1.7 5.6-2.9 8.3a236 236 0 0 1-6.4 13c-.8 1.7-2 3-3.2 4.5l-9.9 12c-1.7 2-3.6 3.7-5.6 5.5-2 1.9-4.4 3.6-6.5 5.6-3.4 3.2-6.8 6.4-10.6 9.3-3 2.3-5.8 5-8.8 7.6-2.3 1.9-4.8 3.7-7.2 5.4-1.9 1.4-3.8 2.5-5.9 3.8l-.5.3c-2.3 1.5-4.3 3-6.3 4.9-1.2 1.7-2.9 2.1-4.6 2.5-.8.2-1.7.3-2.6.8a15 15 0 0 1-1.7.7c-5.2 1-10 2.6-15 4a621 621 0 0 0-46.4 15c-4.8 1.6-9.4 3.4-14.1 5.3-2.7-.2-4.7 1.1-7 1.9l-3 1a10 10 0 0 1-.2-2.3v-53c0-2.5 1-4 2.8-5.6 3.3-2.7 7.1-4.8 10-8 1.2-1.5 2.8-2.5 4.4-3.8.3-.2.5-.2.8-.2l1.6-.8z" class="st19"/>
  <path d="m222.4 149.3-2.3-.6c-.6.3-1.2.5-1.7.9a7.6 7.6 0 0 1-5.1 1.6c-.9 0-1.8.2-2.6.6L192 161c-5 2.4-10 4.4-15 6.7-2.7 1.3-5.7 2-8 4.1l-1 .5c-.2-2.3.5-4.2 1.8-5.7 3-3.4 6-6.9 9.2-10.1 3.8-4 7.9-7.5 11.7-11.4a73 73 0 0 0 15.4-22.6c1.2-3.2 3-6.3 4.3-9.5 1.7-4.3 4.3-8 7-11.9 1.2-1.8 2.2-3.8 3.2-5.8a22 22 0 0 1 7.8-8.4c3-2 5.8-4.5 8.6-6.8l4.7-3.7c3-2.9 5.1-6.4 7-10.2.4-.9.8-2 0-3.1l2.2-3.4 3-2.3.3-2.8 1.5-1.2c4.3-.2 7.6 1.7 9 5.7a24 24 0 0 1 1 15.9 48.8 48.8 0 0 1-4.3 9.3c-.4.5-.6 1.1-.8 1.7a79.3 79.3 0 0 1-6.3 15c-.7 1.3-1.7 2.6-2.7 3.9l-5.5 6c-1 1.2-2 2.6-3.3 3.7l-4.7 4c-1.4 1.2-2.8 2.5-4.3 3.5-2.7 2-5 4.6-8 6.3-1.3.8-2.5 1.9-3.8 2.8l-9.9 7.4c-1.7 1.2-3.5 2.2-5 3.5-2 1.7-4 3.5-5.7 5.5a30 30 0 0 1-9.6 7.9l-1.6-.8c-1.2.3-1.8 1.5-1.6 3.1 3.1-.4 6.2-1.2 9-2.5 3-1.2 5.7-2.8 8-4 4-4.4 7-8.8 11.8-11.6l8.4-4.8a4 4 0 0 0 1.3-.7c3.6-4 8.4-6 13.2-8l14.2-5.2c2.7-1 5.1-2.5 7.4-4.3 2.1-1.6 4.3-3.1 6.3-5 1.1-1 2.3-2.1 3.3-3.3.5-.5 1-1 1.3-1.7.6-1.3 1.3-2.7 1.8-4.1.5-1.5 1.5-2 3-1.8 5.3 2.7 5.3 8.3 2.2 13a78 78 0 0 1 4 6c2 3.5 5.2 6 7.8 9.2.8 1 2 1.5 2.9 2.5 3 3.6 6.3 7.1 7.3 12a14 14 0 0 1-.4 6.9c-1.2 4-2.7 8.1-4.1 12.1a19.3 19.3 0 0 1-5.2 8.5c-.4 1.4.3 2 1 2.7 2.7 2.4 4.7 5.2 6.3 8.3 1.2 2.4 2.1 4.8 3.1 7.4-2 .5-4 .9-6 1.1l-8.4 1-6 .5-13 1.4-6.8.5c-1.2-1.6-.2-3 .4-4.3a96.2 96.2 0 0 1 10-15.6c4-5.1 7.5-10.7 10.4-16.6.6-1.2.5-2.6.5-4.1 0-.6 0-1-.5-1.4-.5-.5-.7-1-.8-1.7-.1-.5-.3-.8-.7-1.2a45 45 0 0 0-5.9-5c-2.1-.4-3.8-1.8-5.9-2.5-.6-.6-1.2-.8-2.1-.7-1.4 0-2.7 0-4.1-.2-.7 0-1.2-.3-1.9-.3-.8 0-1.5 0-2.2-.3a5.4 5.4 0 0 0-2.2-1.4c-4.6-.8-9.2-1.1-13.9.5-7.3 2.7-14 6.5-20.9 10.2z" class="st23"/>
  <path d="M688.2 190.5c.3.6.6 1 1 1.4.8 1 1.4 2 2.3 3l.1.3c1.6 2 2.7 4.2 4.3 6.3l3.3 3.9c1 1 2 1.7 2.1 3.2a1230.4 1230.4 0 0 0-43.8-7.8l-11-1.6-11.8-1.8-8.2-1-9.1-1.4c-.8-1.4-.1-2.7-.2-4.2.3-.7.4-1.3.5-2v-4.2a8.9 8.9 0 0 1-.5-4.4l.2-.9c.4-.8.5-1.6.8-2.5l.2-.4c0-.5.4-.7.7-1.2l.2-1.2c0-.3.1-.4.3-.6.3-.4.4-.8.6-1.3 0-.3.2-.5.4-.7v-.4c.4-.4.2-1 .5-1.4l.5-1 .4-.5c.8-1 1.4-2 2-3.2.5-.7.5-1.4.9-2l.2-1c0-.2 0-.3.2-.5l.2-.1c.3-.4.1-.8.3-1.3.2-.5.2-.9.2-1.4l-.5-1c-.3-.3-.5-.5-.8-.6l-.6-.4-2.7-1c-2.7.1-5.3-2-5.2-4.5.2-4.2 1-8.3 3.6-11.9 2.5-3.4 5-7 5.2-11.3.2-3.6 1-7.1.1-10.7a18.9 18.9 0 0 1 0-3.2l.6-1.4c-.1-1.3.4-2.7-1.1-3.6l-.5-.5c-.7-.8-.8-1.6-.2-2.7l.5-1c0-.4.2-.7.5-1 1-.9 1.9-1.3 3.2-1.1.9 0 1.4.4 2 .9h.1c1.9 1 3 2.8 4.8 4.3l2 1.8c.5.7.4 1.4.8 2l.6 1 .8 1v.1c2 3.3 4 6.5 5.7 10l.2.8c2.4 4 4.4 8.1 6 12.3 1 2.5 2.5 4.6 3.9 6.8l1 2c.4.5.6.8 1 1 .5.5.7 1 1 1.6l1 1.3c.7 1 1.3 2 2.3 3v.4l.5.6.4.9c.8.6 1 1.5 1.5 2.3l.1.2a52.5 52.5 0 0 1 5.2 7.6 46.2 46.2 0 0 0 4.3 5.2c.9.6 1 1.5 1.5 2.4l.4.2c.3.1.4.4.5.8.1.1.1 0 .1 0 .7.7 1.3 1.4 1.8 2.4l.1.1c.3.2.3.5.5.9l.8 1c.8.6 1 1.5 1.6 2.3.1.3.2.4.4.5.8.7 1.1 1.7 2 2.4v.4l1 1.5.8 1c.6.4.7.9 1 1.4l1.4 2c.5.3.7.8 1 1.4z" class="st19"/>
  <path d="M418.5 220.3c-5-1-9.7-2-14.4-2.8l-16.4-2.9c-2.2-.3-4.5-.3-6.7-.5a48.9 48.9 0 0 1-17.8-3.9c-3.9-1.9-8-3.3-12.4-2.8-2.8.3-5.7.4-8.5 1-6.1 1.5-12.2 3.2-18.2 5a149 149 0 0 1-20 4.4c-2.7.4-5.4 0-8.2 0l-1.6-2.1v-2.4c.4-.3 1-.9 1.6-1 2.3-1 4.7-1.7 7-2.5 4.7-1.5 9.3-3.3 13.8-5.3a239.8 239.8 0 0 1 24.7-9.9A51.7 51.7 0 0 1 361 192c1 .1 2.2.4 3.2.7a45 45 0 0 0 11.5 2.2l8 .5c7.8.3 15.6.4 23.3 2.2 2.6.7 5.3.7 8 1.2l15 2.7c3 .5 6 .6 9 1.1 6 1.1 12.2.9 18.3 1 4.2 0 8.5.2 12.7.4a248.6 248.6 0 0 0 16.4 1.4l10.2.5 12 .5 13.5 1c1.2 0 2.4.4 3.7.6l.4 2-5.5 1.7-10.5 3.2-9 2.5-4.6 1.2c-3.7 1-7.3 2.2-11 3-4.3.9-8.5 1.4-12.7 2.1-3.2.5-6.3 1.2-9.5 1.3-4.3.2-8.7-.1-13.1-.3h-2l-8.7-1-6.4-.5-2.8-.5-11.9-2.4z" class="st3"/>
  <path d="M222.2 149.5c.2-.5.3-1 .6-1.1 2.5-1.5 5.1-2.9 7.7-4.2 1.5-.8 3.1-1.3 4.5-2.3 2.3-1.7 5.2-1.8 7.7-3 3-1.6 6-1.8 9.3-1.6 2 .2 4.2.6 6.3 1 .3 0 .6.6 1 1-.2.6-.4 1-.8 1.2-4.8 3-7 8.5-11 12.3-3.7 3.5-4.8 8.6-6.7 13.2a149 149 0 0 1-6 12.8 9.9 9.9 0 0 1-3 3.4 115 115 0 0 1-34.8 17.4c-2.3.4-3.4 1.8-4.4 3.8-2 .6-3.9 1.2-5.8 1.5-4.3.8-8.5 1.3-12.7 2.1l-19.2 3.7-8.2 1.7c-.6.2-1.2.2-2 .2a3 3 0 0 1 .7-1.5l5.3-4.9c3.2-3 6.5-6 10-8.8l9.3-7.8c4.2-3.4 8.3-6.9 12.6-10 2.5-1.8 4.8-4 7.2-5.9l7.2-5.4 7.6-5.6 4.2-3c.5-.2.9-.6 1.4-1.2l.4-.4c.5-.2.8-.2 1.3-.2.5-.2.8-.5 1.1-.8l6.8-4.5c1-.7 2.2-1.4 2.4-3.1z" class="st24"/>
  <path d="m479.7 162.3-.8-2.5c2.6-2.3 4.5-5.1 7.6-6.9 3-1.8 5.8-4.2 8.7-6.1l9.5-5.8c1.6-1 3.3-1.5 5-2 2.6-.6 4.9-.1 7 1.1l12 7.7c2.5 1.5 5.2 2.4 8.1 2.4 2.6 0 5.1.2 7.7 0 2.5-.1 4.3 1.2 6.3 2.4 2.5 1.6 4.2 4 6 7l-.5 4.4v3.8c.6 1 .6 1.9.1 3v.9c-.1.7 0 1.3-.5 2l-2.7 5.3c-.7 1.5-1.8 2.6-3.5 2.6-2 1.8-3.6 3.6-4 6.4-3.5-.1-7-.4-10.6-.7h-.5a3843.1 3843.1 0 0 0-24.7-1.3l-9.2-6.6-9.7-7.3-3.2-2.2c-1.3-1.4-3-2.3-4.3-3.7l-3.8-4z" class="st25"/>
  <path d="M192.7 203.5c0-1 .2-2 .5-3.3l3.9-1.2 7.3-2.6 6.3-2.4a70 70 0 0 0 10-5.5c1.6-1 3-2.5 4.8-2.3 2.3-1.7 4.5-3.1 6.5-4.8 1-.8 2-2 2.5-3.1 2.1-4.4 4-9 6-13.5 1.2-2.7 2.4-5.5 3.8-8.2a28 28 0 0 1 3.2-5l5.7-6.1c.3-2 1.3-3.3 3.2-4 1-.4 1.7-1.2 2.7-1.9l2.2.1c.6.3 1 .5 1.6.4h4.7c.7.6 1.4.5 2 .9 2.1 1 4 1.7 6.2 2.6.4.2.7.4 1 .8l4.9 4.3 1 1 .5 1.8.8 1c.5 2.8-.3 5-1.5 7.4-1.5 2.9-3.4 5.4-5 8.1-2.4 4.1-5.6 7.6-8.2 11.4-2.5 3.6-4.4 7.5-6.5 11.4-.5.8-.5 1.8-.7 3a1803.7 1803.7 0 0 1-17.7 2.5l-12.7 1.5-7 1-12 1.8-17.2 2.8-2.8.1z" class="st19"/>
  <path d="M86.8 227.1h.4l.6-.5c.8-.4 1.4-.9 2.2-1 2 0 3.5-1 5.3-2 .8.1 1.4.3 2 .2l23-5.6c4-.9 8.1-1.5 12.4-2.3 11.3-.1 22.4-.4 33.5-.3 4.9 0 9.8.5 14.7.9h1.4c3.1.3 6.2.7 9.3.8 5.1.2 10 1.8 15 2.6 2.2.3 4.3 1 6.5 1.6l.9.6c0 1.1-.5 1.4-1.3 1.6l-15.9 3.2c-6 1.1-12 1.3-18 1-3.2 0-6.3-.2-9.4-.4-4.2-.2-8.4 0-12.6-.5-5.6-.7-11.2-.4-16.7-.4-3.1 0-6.2.6-9.3.9-2.4.2-4.8.2-7.1.5l-12.5 1.6a60 60 0 0 0-20.4 6.9c-6.1 3.4-12 7.2-18 10.5a20.5 20.5 0 0 1-7.6 2.7c-2.2.3-4.4 1-6.7 1.6l-1.4.2c-12.2 1.3-24.5 1-36.8 1-3 0-5.9-.3-9-.5 0-.4.2-1 .5-1 4.3-1.7 8.5-3.2 13-4.7 3.5-1 7-1 10.3-1.2 9.6-.2 19-1.4 28.1-4.3 6.2-2 11.2-6 16.5-9.7a34 34 0 0 1 7-4z" class="st10"/>
  <path d="m427.3 137-.1-.6c-.6-.7-.9-1.5-1.3-2.3l-.2-.2a17 17 0 0 1-1.1-2c0-1 .6-1.2 1.5-1l.2.1c.3.4.8.5 1.2.9l.2.1c1.9 1 3.5 2.2 5.1 3.7l.5.1c2.4 2.5 5.3 4.1 7.7 6.6l2.8 2c1.7 1.8 3.7 3 5.4 4.7l2.4 2a202 202 0 0 1 10.9 9.6c1.6 1.5 3.8 2.5 5 4.7l3.7 4c1.3 1.5 3 2.5 3.9 4.2a63 63 0 0 0 2.4 2.5c.7.5 1.3.7 1.9 1.4l1.5 1.5c1.5.7 2.2 2.1 3.8 2.8l.1.1c.4.4.8.5 1.3.8.2.2.3.2.5.2.6.6 1.2 1 2 1.3v.1c.2.2.3.4.2.8a753 753 0 0 1-24.5-.6l-3.6-4.8-1.5-1.6c-5.2-5.4-10.4-10.8-15.4-16.3-2-2.2-3.6-4.7-5.4-7l-3.5-4.5-3.8-5.7c-.3-.3-.3-.6-.4-1h-.2c-.6-1-1-2.2-1.7-3.3l-.2-1c-.5-.8-.7-1.6-1.3-2.4z" class="st26"/>
  <path d="m280.2 263.8 4.4-4 .4-.4 1-.7c1.5.1 1.5 1.4 2 2.4a20.8 20.8 0 0 0 2 3.2l.9 1.2.3.5c.3.6.5 1 1 1.4l.4.5c.3.6.5 1.2 1.1 1.6l.5.4.5.4.6.6.4.5.3.4.4.6a6 6 0 0 0 1.3 1.2 6.3 6.3 0 0 1 1 .7l.4.5.4.4.7.7c.1.2.2.2.4.3l.7.4.5.4c.3.5.7.8 1.3 1l.5.4c.3.5.5 1 .3 1.6-4 3.2-8.4 6-12.4 9a197 197 0 0 0-14 12.2c-1 .9-2.3.7-3.6 1.1-2.8 1.4-3.8 3.8-4.7 6.4-.4 1-.4 2.2-1.5 3-1.5-.1-1.4-1.3-1.5-2.2a69 69 0 0 1 9.8-40.2c1.2-2 2.8-3.5 4.2-5.5z" class="st27"/>
  <path d="M334.8 187.7a50.9 50.9 0 0 1-4.9-8 60 60 0 0 1-8.3-13c-.8-1.8-1.3-3.8-2-5.7-.1-.7 0-1.6-.5-2-1.4-1.8-2-4-2.7-6-1-2.6-3-4.1-5.2-5.8-.1-1.9-1.8-3.5-1.5-5.9h5.2l2.4 1.7h2.3l4.6 3.4c.8 4.5 1.3 8.8 2.3 13 .5 2.2 1.5 4.3 2.7 6.2a58 58 0 0 0 8.5 10.7c1 1 1.8 2.2 2.7 3.3.7 1 1.4 2 2.6 2.4 1.2-2.3.8-7.5-.6-12.6l.1-3.9 1.8-1.3c2.7.4 4 2 4.7 4.3.8 3 2 5.8 1.9 8.9v1.2c-1.4 2.3-.5 4.8-.5 7.4-.3.4-.7.7-1 .7l-10.2.5-4.4.5z" class="st24"/>
  <path d="M288.8 257c1.5-1.1 2.8-2.2 4.4-3 2.4-1.2 4.9-2.1 7.5-3.1 6 .4 11.3 2.4 16 6 .3.4.7.6 1.3 1 1 .8 1.7 1.8 2.8 2.7 1.2 2 2.7 3.7 3.7 5.6.6 1 1.4 2 1.1 3.5-1.7 1.5-4 1.8-6 2.6-4.1 1.7-7.8 4.2-12.2 5.6-1.1-.2-1.6-1-2.6-1.4-.2 0-.3-.1-.5-.3a12 12 0 0 1-.6-.5l-.4-.4-.6-.4-.7-.5-.4-.4-.7-.7-.4-.3-.5-.5-.5-.5-.6-.5-.5-.5-.5-.6-.5-.5-.4-.4c-.4-.6-.8-1-1.4-1.5l-.5-.4-.5-.7-.4-.5-1.2-1.7a5 5 0 0 1-.4-.4l-.7-.9-.3-.4-.6-1-.4-.4-.6-1.2-.3-.5-.4-.4a5 5 0 0 1-.3-.6c-.2-.7-.4-1.2-.3-2z" class="st27"/>
  <path d="m380 340.2-.5.8a3.4 3.4 0 0 1-.7 2c-.7.9-1.2 1.7-2.2 2.1-3 .7-5.6 2-8.4 2.5-1 .2-2.3.7-2-1.4 1-1.3 2.2-2 3.5-2.7 2.3-1.1 3-2.9 3-5.4v-53c0-1.2-.1-2.5.4-4 .2-.2.3-.3.7-.4a9 9 0 0 1 1.7 1.8 49.8 49.8 0 0 1 6.6 18c1.6 8 1.8 16.1 1.3 24.2-.2 3.4-1.1 6.9-1.9 10.3-.3 1.7-1 3.3-1.5 5.2z" class="st28"/>
  <path d="M280.2 263.7c-.4 1-.8 2-1.5 3a58.4 58.4 0 0 0-11.4 31.6c0 3.7-.3 7.3-.4 11 0 .7.4 1.4.7 2.2 1 .7.6 1.4.6 2.2-.3 4-.4 7.8.4 11.7 1 4.5 2.9 8.4 6.6 11.6 0 3.3-.2 6.4 1 9.4 1 2.4 2 4.6 3.9 6.5.7.6 1.4 1.3 1.4 2.5-.5.7-1.1.6-1.6.4a37 37 0 0 1-15-9.2c-2-2.5-3.3-5.3-1.6-8.8l2.6-4.3c-.7-3.6-1.4-6.8-1.9-10a74.4 74.4 0 0 1-1-15.6c.2-1 .2-2.1.2-3.4.6-3.8.5-7.6 1.3-11.2a64.8 64.8 0 0 1 7.1-18.7c2.3-4 5-7.8 8.6-11z" class="st29"/>
  <path d="M305.2 249.3a49.9 49.9 0 0 1 8.5-2 306.4 306.4 0 0 1 10.1 0l4.3 1c1.5.5 2.7 1.3 4 2.1l.6.3 1 .7.5.3.7.4.4.4.7.8a10.7 10.7 0 0 0 1.5 1 6.3 6.3 0 0 1 1 .8l.5.5.4.5.5.4.4.5c.2.1.2.2.3.4a21.9 21.9 0 0 0 .7 1c.2.4.4.6.7.8l.4.5.9 1.2.3.5c.4 1.5 1.7 2.6 1 4.3-2.2 1.5-4.5.7-6.7 1.2-2.7.7-5.5 1.5-8.5 1.8-2.2-1.3-2.3-3.9-4-5.6-.3-.4-.5-.8-1-1.2a6 6 0 0 1-.6-1 4 4 0 0 0-.7-.8l-.6-.5-.5-.6-.6-.5-.6-.6-.5-.7a3 3 0 0 0-1.5-1l-.8-.6a24.8 24.8 0 0 0-10.9-5c-.7-.1-1.5-.3-1.9-1.3z" class="st27"/>
  <path d="M426 184.3c-.8-1.4-1.4-2.9-2-4.4l-.2-.6c-.4-4.7-3.6-8.5-4.4-13l-.8-4.4.3-1.3 3.4-.7c2.1 2 5 3 6.1 6l.6.8 7 7.5 4.7 5.1 2.5 2.2 2.3 2.6c-6.4.2-12.9.2-19.5.2zm-55.4-5.1c1.5.2 2.7 1.9 5 1l1.8-2.1-.5-6.2c0-.4-.2-1 0-1.4.8-2 1.7-4 3.8-5.4 1.8 1.6 1.5 3.7 1.8 5.6.5 3.2 1 6.4 1.3 9.3l.1 4.7c-3.9.3-7.8.4-11.8.6-1.9 0-3.7.2-5.7.1.8-1 1.8-2 2.8-2.8a4 4 0 0 0 1.4-3.4zm25.6 5.6c-.9-5.6-1.4-11.2-2.2-16.8-.4-3.2-1.2-6.4-1.8-9.9l.8-2.1c1.6 1.5 2 3.4 2.5 5.1 1 3 1.7 6 3 8.7a42 42 0 0 1 3 8c.3 1.3 1.2 2.4 2 3.6l1.6 2.8c-2.9.3-5.8.4-8.9.6z" class="st25"/>
  <path d="M772 226.2c.4-2.5 1.7-4.6 3.5-6.9l3.8-1.1c2.3 1.8 4 3.7 5 6 .4.8 1 1.5 1.5 2.2l4.3 5.3-15.5-4.6-2.7-.9z" class="st20"/>
  <path d="M575.7 190.6c.8-3.3 1.6-6.6 2.9-9.7a12 12 0 0 1 3.6-5.5 26.8 26.8 0 0 1 2 16c-.4 0-.7-.3-1.1-.3l-7.4-.5z" class="st25"/>
  <path d="M339.1 252c2-.2 3.4 1 4.8 1.8 5.2 3 10 6.7 14.3 10.7.2.2.3.4.2 1l-.7.5h-8c-1.2-.4-1.5-1.5-2.2-2.4l-.3-.5-1-1.9-.4-.5-.6-1-.3-.3a5.7 5.7 0 0 0-.8-1l-.5-.7-.3-.4-.3-.4a15.7 15.7 0 0 0-3.2-3.3l-.6-.4-.4-.7c0-.4.1-.4.3-.6z" class="st30"/>
  <path d="M358.5 265.5c4 1.3 7.9 2.8 10.6 6.3l1.2 1.9c0 .5 0 .7-.4 1-3.2-.3-6-2-9-2.2-1.8-.2-3.7.2-5.5-.9-1-1.9-2.5-3.4-2.7-5.6 1.5-.2 3 0 4.5 0 .5-.1.8-.1 1.2-.5h.1z" class="st30"/>
  <path d="m369.5 274.7.7-.7c.8 1.1 1.4 2.4 2 3.7-.8.7-1.5 0-2.1-.3-6.7-4-14-4-21.5-3.4-1.4.1-2.8.2-4.4.7a104 104 0 0 0-20.9 6.5 82 82 0 0 0-8.2 3.6l-1.3.5-1.2.6c-1.2.3-2 1-3.2.8-.4-.4-.3-.8 0-1.2l1.2-.9c11.4-6 23.3-10.2 35.8-12.4a41.4 41.4 0 0 1 23 2.8v-.3z" class="st29"/>
  <path d="M417.1 354.6c-2.5 1.5-5 3-7.5 4.3-.3.3-.8.4-1.4.6a24 24 0 0 1 .3-8c1.2.1 2.3.3 3.4.6l3.2 1.2c.6.3 1.3.7 2 1.3z" class="st14"/>
  <path d="m347.4 262.5.2.3c.2.7.5 1.3.3 2.3-.4.7-1 .8-1.7.8-1.6-1.2-2-3-3-4.6v-.2c-.4-.3-.6-.8-.9-1.3v-.1l-1.4-1.4h-.1l-.4-1c-.1 0 0 0 0 0l-.5-.4v-.1l-.5-.4-.4-.5h-.1l-.4-.5h-.1l-.4-.4c-.1-.1 0-.1 0-.1l-.5-.4v-.1l-1-.4c-.4-.5-.8-1-1.4-1.4v-.1c-.2-.2-.5-.3-1-.4-.3-.5-.8-.7-1.4-1-.5-.6-1.4-.8-1.6-1.7.2-.6.7-.5 1.3-.4l.7.1c.4.3.7.3 1.2.4l1.2.5 3.3 2.4.5.5 3.8 3.8c.1 0 0 .1 0 0l.5.5c.3.3.3.6.5 1l1 .9s0 .1 0 0c.3.5.4 1 .9 1.4v.1c.5.6.6 1.5 1.4 2z" class="st29"/>
  <path d="M343.7 274.4a38.4 38.4 0 0 1 21.4.1c2.4.8 4.6 2.2 7 3.3l1.9 2.7-.2.5c-1.3.3-1.8-.8-2.7-1.4a6 6 0 0 1-.5-.5l-.7-.7-.4-.2-.7-.4-.4-.2a9 9 0 0 0-1.3-.4l-1-.4c-.2 0-.3 0-.4-.2l-.8-.8a28.5 28.5 0 0 0-13-1.3c-2.6 0-5 .8-7.7.5-.3-.2-.4-.3-.5-.6z" class="st31"/>
  <path d="M318.1 258.6c-2-1.3-3.9-2.7-5.9-3.9-3.4-2-7.2-2.8-11.2-3.7 0-.3 0-.4.2-.4l.9-.4c.6-.1 1.1-.2 1.7-.1a34.4 34.4 0 0 1 11.4 4.7c1.3.8 2.6 1.5 3.2 3.2 0 .3 0 .4-.3.6z" class="st32"/>
  <path d="M557.9 188.8c0-.5.1-.9.3-1.4l.9-1 .1-.2c.8-1.2 1.1-2.8 3-3.5a10.8 10.8 0 0 1-.1 6.3c-1.4 0-2.7 0-4.2-.2z" class="st25"/>
  <path d="m302.6 250.4-1 .2c.5-1.5 2-1.4 3.4-1.5l2 1c3.6.4 6.8 1.9 9.9 4 0 .2 0 .3-.3.5-2.7-.1-4.4-2-6.7-2.6-1.8-.5-3.5-1.1-5.4-1.3l-.2-.1c-.5-.5-1-.2-1.7-.2z" class="st7"/>
  <path d="m445 341.8-2.5-.9c1.4-1 2.4-.5 3-.3l2.7 3.1c-.9.8-1.6.1-2.3-.1l-.9-1.8z" class="st17"/>
  <path d="M290 264.4c-1.6-.4-1.7-2-2.4-3l-1.4-2.7c.1-.4.3-.7.8-.9 1.4 2.1 3 4 3 6.6zm42.4-15.5c-.2.2-.5.3-1 .4.5.5.8 1 1.2 1.6l-4.3-2.4c1.3 0 2.7.1 4.1.4zm6.6 3.5c-1.7.3-2.4-1-3.3-2.1 1.1.3 2.4.8 3.6 1.5l-.4.6z" class="st7"/>
  <path d="M701.4 208.8c-.8-1-1.4-2-2-3.2 1.7 0 2 1.7 2.8 3-.2.2-.4.2-.8.2z" class="st4"/>
  <path d="m440.7 343.4-.4 1.6h-1.1v-1.7h1.3l.2.1z" class="st17"/>
  <path d="M617.2 190.7v4c-.2.2-.4.2-.8.2.1-1.4.4-2.7.8-4.2z" class="st26"/>
  <path d="M288.7 256.8c.4.7.6 1.4.8 2.2-1.1.5-1.4-.6-2.3-1 0-.2-.1-.2-.2-.3l1.7-.9z" class="st7"/>
  <path d="M440.1 342c-.8 0-1.7.7-2.3-.6.2-.2.4-.2.8-.3a3 3 0 0 1 1.5.8z" class="st16"/>
  <path d="M488.9 185.2c-.2-.2-.2-.4-.2-.7.4 0 .9.2 1.3.5-.3.2-.6.2-1.1.2z" class="st22"/>
  <path d="M311.9 247.4c-.2.2-.4.4-.7.4.1-.2.3-.3.7-.4z" class="st29"/>
  <path d="m334.4 249.4-1.1-.1 1 .1z" class="st7"/>
  <path d="M323.8 247.3h-.7.7zm-10.1 0-.6.1.6-.2z" class="st29"/>
  <path d="M445.4 345.6z" class="st16"/>
  <path d="m447.3 345.8-.2.1s-.2 0-.2-.2l.4.1z" class="st0"/>
  <path d="M285 259.3c0 .1 0 .2-.2.3-.2-.1 0-.3.2-.3z" class="st29"/>
  <path d="M59.5 458.7c-6 .2-12.2.2-18.3.2-.9 0-1.7.1-2.7.4-.7 0-1.3 0-1.8-.3l-33-11.6-2.6-1v-98.7c.6.2 1.3.6 1.9 1.1 1.6 1.6 3.3 3.2 4.9 5 2.3 2.4 5 4.4 7.5 6.5 4.2 3.3 8.7 6.2 12.5 10 2.4 2.4 5.3 4.3 8 6.4l.6.9c.1.8.1 1.6.4 2.2.8 1.8 1.4 3.5.7 5.5-.2.6 0 1.4 0 2.2l1.7.4c.8.3 1.9.5 2.3 1.1 1.5 1.9 3.7 2.4 5.7 3.7l.5 1.8L52 396l1.4-.3 3.2 1.1-1.3 3.8 1.7 1.3c.3 1.5.4 2.8-1.4 3.7l-8.3-.5c-.1 1.8 1 2.1 2 2.6 1 .4 2 .5 2.1 1.7.2 1.7.4 3.4.4 5.1 0 2-.3 4-.5 6.6 1 2.5 2.6 3.9 5.7 4.4l2 2.5.7 2.7-.6 2.2 2.7 4.4-.4 8-2.5 2.3.3 5.3c0 1 .1 2 .5 2.8.5 1 .4 2 0 3.1z" class="st33"/>
  <path d="m711 577.5-20.8 6.6-16.9 5c-.7.2-1.4.8-2.1-.3 3-1.2 5.8-2.3 8.7-3.2l17.2-5.1 13.6-4c.4.3.4.5.3 1zm35.2-11.5c.3.2.5.4.6.8a1131.2 1131.2 0 0 1-33.7 10.2c-.6.2-1 .2-1.4-.5a533.4 533.4 0 0 1 33.2-10.3l1.3-.2z" class="st5"/>
  <path d="m711.6 576.3 1.2.7a6 6 0 0 1-1.6.7c-.3-.3-.3-.5-.3-1 .2-.2.3-.3.7-.4zm-130 26.7c.2 0 .6 0 1 .3a2 2 0 0 1-1-.2zm-19.4-5c.2 0 .5 0 .8.2l-.8-.2zm-21-5.5c.3 0 .6 0 1.1.2-.3 0-.6 0-1-.2z" class="st8"/>
  <path d="M1 336.2c5 1.8 10 3.9 14.9 5.8a2012.3 2012.3 0 0 0 26 9.9l9 3 7.8 2.5 10.4 3.3 12 3.2 3.3 1.2c-.3 1.5-1.3 1-2 .8-4.8-1-9.6-2.4-14.4-3.8-7.3-2.3-14.7-4.2-21.9-7-6.9-2.6-14-4.2-20.9-7-1-.4-2.2-.9-3.5-.5-1.4 1.1-.8 3.7-3.3 4.2-3-1.9-5.9-3.7-8.5-5.8a23 23 0 0 0-8.6-4.2c-.3-1.8-.3-3.6-.3-5.6z" class="st33"/>
  <path d="M19.8 124.5c-3 2-6.4 3-10 3.8-2.6.6-5.3.6-8.2 1.3l-1-4.2c1.4 0 2.3-.3 3.2 0 2.5.6 4.9-.2 7.3-.3 2.7-.2 5.4-.7 8-1.1.2 0 .4.2.6.5zm1.3-.6a1 1 0 0 1-.3-.2h.4v.2z" class="st10"/>
  <path d="M287 395.2a865.4 865.4 0 0 1 12-25.4c.4-.8 1.2-1.5 1.8-2.4 1-1 1.8-.5 2.9-.2 2.8 2.6 3.9 6 5.6 9 1.9 3.4 3.4 7 5.8 10.7a65 65 0 0 0 0-8.7c-1.2-1-2.3-.7-3.3-.8-1.4-.2-2.3-1-2.2-2.3.2-2.2 0-4.5 1-6.7 3.6-1 6.9.2 10.2.1 1.9 0 3.8.3 5.9.6 1.4.6 1 1.6.7 2.5-.4 1.1-1 2.2-1.6 3.2-3.3 4.6-2.4 9.8-2.7 15.4 2.9-1.7 4.4-3.9 6.5-5.6l2-1.7.5-.5.7-.5.5-.3c4.3-4 8.8-7.7 12.7-12.3l.4-.5 1-.6c4 .1 7.8-.9 11.7-1.8.9.4 1.1 1 1.2 1.8-1 2.3-3.1 3.2-4.7 4.7l-5.2 4.8c-1.7-.2-2.4 1.3-3.4 2-1.3 1-2.2 2.4-3.4 3.7-3 3.5-6.4 6.4-9.9 9.5-3 .8-4.6 3.1-6.8 4.8L324 400c-1.2 1-2 2.2-2 3.9v2.3c-1.6.2-3.4.2-5.1.2l-3.9-7c-2-2.6-3.1-5.5-4.4-8.3-1.6-3.6-3.5-7.2-5.2-10.6-1.1.1-1.2.9-1.4 1.4-1.7 4.2-3.6 8.3-5.5 12.4-.3.7-.5 1.4-1.3 2-4 8.8-7.8 17.7-11.7 26.7-1 2.2-2.6 2.8-5 2-1.3-.4-2.6-.9-3-2.5 0-.9-.1-1.6.2-2.2l9.6-21.4 1.7-3.8z" class="st18"/>
  <path d="M275.2 422.4a6.4 6.4 0 0 0 5.4 2.4c1.1 0 2-.4 2.8-1.4a41 41 0 0 1 5 3c.8.6 1.5 1.6 1.4 2.9-3.5 3.5-7.9 4-12.5 3.5-2.3-.3-4.5-1-6.7-1.7-2.4-.8-4.4-2.2-6-4.2v-4.6l2-2.9c2 .8 4.2 1.4 6.3 2.1l2.3.9z" class="st19"/>
  <path d="M295.3 396.4a499 499 0 0 1 7.4-17.3 113 113 0 0 1 10.3 20c-5.1-.7-10.2-1.6-15.3-2.5l-2.4-.2z" class="st14"/>
  <path d="M18.3 352c2-1.2 1.7-3.6 2.7-5.3 1.9-.3 3.6.5 5.3 1 2 .7 3.8 1.6 5.8 2.2 4 1 8 2.3 11.7 3.9 2.6 1 5.3 1.6 8 2.4l7 2.3 11.6 3.6 13.2 3.4.8-.1c1 0 1.9-.2 2.7 0l14.8 3.7c4.3 1.1 8.7 2.3 13.1 3.2l15.9 3 16.8 3.2c2.6.5 5.3.8 8 1.2 1 .1 2 .4 3 .8l-10 5-11 6.1c-2.3 1.3-4.4 2.3-7.2 1.6-3-.6-6.2-.4-9.3-.6-.6 0-1.2 0-2-.2v-4.2c-1.2-3.4-3.5-4.8-5.7-6a130 130 0 0 0-17.4-6.6l-15.8-4.4c-.6-.2-1.4-.1-2.1-.1l-17.3-.1c-2.2 0-4.4-.4-6.5-.9-3.5-.8-7-1.3-10.5-2.3-3.5-1-6.3-3-9.2-5l-11.8-8c-1.4-1-3-1.8-4.6-2.8z" class="st9"/>
  <path d="M78 398.7c.9-1.6 2-2 3.5-1.5.7 1.7.5 2.5-.8 3l-4.1 1.5-.8-1 2.3-2z" class="st33"/>
  <path d="M350.4 377.9c1-1.4 2-2.8 3.3-4l6.2-5.3c2.3.5 3.7 2.1 5.4 3.5l-13.6 9-1.3-3.2z" class="st14"/>
  <path d="M371.2 373.8a7 7 0 0 1-2-.4c-1.6-1-3.4-1.3-4.9-2.3-1.6-1.2-3.3-2.3-4-4.5.4-1.8 1.8-1.9 3.4-2 1.9 2 4 3.4 6.5 4l1.4.5c1 .5 1.7 1.1 1.8 2.3 0 1.4-1 1.9-2.2 2.4z" class="st31"/>
  <path d="M371.2 374c.4-.7 1-1.3 1.7-2 .3-1.3-.6-2-1.8-2.4-1.8-.8-3.7-1.5-5.4-2.5-.8-.4-1.3-1.3-1.9-2.2.1-.2.2-.3.5-.3 2.3.9 4 2.9 6.7 2.8 1.2-3.1.5-6.5 1.3-10 0-.8 0-1.4.5-2.2 2-.3 1.7 1.1 1.7 2.1.3 3.5-.5 7-.5 10.4l.1 3.8c.2-.9-.3-1.6.3-2.2 2 1.2 2.1 3.2.2 6-.5-.6-.7-1.2-1-2-.6 2.7.5 4.7 2.2 6.7-1.7.3-2.1-1-2.8-2.2l-.7-3.4c0-.2-.6-.3-1-.5z" class="st5"/>
  <path d="M333.8 393c.6-.8 1.2-1.8 2-2.6l6.5-6.1c.3-.3.7-.5 1.2-.7.3.8.4 1.6.6 2.5-3 2.7-6.7 4.6-10.3 6.9z" class="st24"/>
  <path d="M360 366.4c2.3 2.9 5 4.8 8.3 6 .3.2.5.4.7.8l-3.6-.9-5.2-3.7c-.3-.6-.5-1-.7-1.8.1-.3.3-.4.6-.4z" class="st5"/>
  <path d="M374.4 375.6c.8-2.1 1.6-4 .2-6.6l-.3 3-1.1-3.1c0 .2 0 0 0 0l.7-13-.5-.6-1 .1c-.6-.2-.8-.5-1-1-.1-1.7.9-2.1 2.2-2.3.8 1.1 1.9 1.5 3.1 1.7-1-.8-.8-2-1.4-3-.4-.7-.9-1-1.7-1-1.6-.2-2.7 1.3-4.3.7-.4-.8 0-1.2.6-1.4 2.5-1 4.4-2.8 6.7-4.4l2-2 1.6 1.4.6.2 1.3.2a46.3 46.3 0 0 0 20.3 1.4l.7-.3c.4-.2.7-.2.9-.7-2.2-1.9-5-2.2-8-2.5-3.7-.6-7.3-.6-11 0-2.2.2-4 1-6 .5 0-.7 0-1.1.4-1.7.5.5 1 .4 1.8.3 3-.4 6-1 9-1 4.5 0 9 .7 13.3 2.2a11 11 0 0 1 4.2 2.9 38.8 38.8 0 0 1-29.3-.2c4.3 3 9.2 3.6 14.2 4 5 .3 9.8-1 15-2.6l-1 13.6c-3.1 2.2-3.9 5.4-4 9l.1 4.3-1.2 2.7.7 1-1.4 1-3.5-.1 1.4 1.5-8.4 2.2c-1-1.2-2.4-1.6-4-1.2l-1 1h-.8c-2.3-.8-4.7-1.5-6.9-2.5-1.5-.7-2.8-1.8-3.2-3.7z" class="st31"/>
  <path d="m416.7 365-10.5 10-1.6 1c-1.3-3-1-5.7-.8-8.4 0-.7.2-1.5.4-2.1.6-1.7 1.3-3 3-3.9l19.8-10.5.8-.2.8 2.8-11.9 11.2zm16.7-22.1 1.3-1.3c1.1 3.5 1.6 7.1 4.3 9.8h.2c.6.5.9 1.4 1.8 2.1 0 1.3-.6 1.7-1.4 1.7-2.1.2-4.3.6-6.4.2-3.3-.5-5-3.9-3.7-7.1l1-2c2.2 0 2.6-1.6 2.9-3.4z" class="st31"/>
  <path d="m433.3 342.8 1.1.8-2.9 4-.8-1.4c.7-1.2 1.6-2.3 2.6-3.4z" class="st8"/>
  <path d="M442.4 351.7c.1 1 .5 2-1.1 2h-.2c-.5-.5-1.3-1-1.1-2l.1-.3c.8-.5 1.5-.3 2.3.3z" class="st15"/>
  <path d="m442.6 351.7-2.3-.3c.3-1 1-1 2-.6.2.3.3.5.3.9zm-4.3-4h1.7v.4l-1.6.4-.1-.8z" class="st17"/>
  <path d="m440 351.4 1.1 2.2c-1.2 0-1.8-.7-2-2 .3-.2.5-.2.8-.2z" class="st5"/>
  <path d="M305.1 137c.5 1.2 1.4 2 1 3.5h-3.2l-1-2c1.5-2.2 1.5-2.2 3.2-1.5z" class="st24"/>
  <path d="M191.4 100.8v.7c-1.6 1-2.9 2.6-5 3 1-1.9 3-2.5 5-3.7zM233.2 73c-.6 1.6-1.6 3-3.7 3.3 1-1.1 2.3-2.2 3.7-3.3zm-27.4 18.7a18 18 0 0 1-2.7 2.3c.2-1.3 1.3-2 2.7-2.3zm10.1-6.7a18 18 0 0 1-2.7 2.3c.2-1.3 1.3-2 2.7-2.3zm-3.4 2.3c-.3 1.2-1.2 1.9-2.7 2 .7-.7 1.6-1.3 2.7-2zm24.4-16.8c-.1 1-1 1.2-2.1 1.4.1-1 1-1.2 2-1.4zm-15.8 11.1c.1 1-.6 1-1.5 1 .3-.3.8-.7 1.5-1z" class="st23"/>
  <path d="m351.4 153.3 1.4 1a3 3 0 0 1-1.4-1z" class="st25"/>
  <path d="M184.6 105.6c.2.7-.3 1-1.1 1 .2-.4.6-.7 1.1-1zm43.7-28.8c.2.7-.3 1-1.2 1 .2-.4.6-.7 1.2-1zm11.6-10c-.1.5-.4 1-.8 1.7 0-.5.3-1 .8-1.7z" class="st23"/>
  <path d="M366.8 170.5c.3.2.6.6.8 1.2-.3-.2-.5-.6-.8-1.2z" class="st25"/>
  <path d="M223.1 80.2c-.2.3-.6.6-1.2 1 .2-.4.6-.7 1.2-1zm18.7-14.9c-.2.3-.6.6-1.2 1a4 4 0 0 1 1.2-1z" class="st23"/>
  <path d="M362.9 164.3c.3 0 .6.3 1 .7-.4 0-.7-.3-1-.7z" class="st25"/>
  <path d="M224.5 79.3c0 .2-.3.5-.7.8 0-.3.3-.5.7-.8zm-6.2 4.2a2 2 0 0 1-.8 1c0-.4.4-.7.8-1zm-10.6 6.8a2 2 0 0 1-.8.9c.1-.3.4-.6.8-1zm-11 7.2c-.1.3-.4.6-.8.9.1-.3.4-.6.8-.9zM181.3 108a2 2 0 0 1-.8.9c.1-.3.4-.6.8-.9z" class="st23"/>
  <path d="M359.5 161c.2 0 .3.2.5.6l-.5-.7zm-2.3-2c.2 0 .5 0 .8.3l-.8-.3z" class="st25"/>
  <path d="m192.8 100.3-.7.5c0-.2.3-.4.7-.5zm1.5-1c-.1.2-.4.3-.8.5.1-.2.3-.3.8-.5zm-8.3 5.4c.1 0 0 .2-.2.3 0 0 0-.2.3-.3z" class="st23"/>
  <path d="m394 122.9-.3.4s0-.2.3-.4z" class="st4"/>
  <path d="M368.1 176.3c.1 0 .3 0 .4.3-.1 0-.2 0-.4-.3z" class="st25"/>
  <path d="m246.6 63-.3.3c0-.1 0-.2.3-.4zm-.9.4s-.1.2-.4.3c0 0 .1-.2.4-.3zm-2 .9-.3.1.3-.1z" class="st23"/>
  <path d="m369.6 178.3.4.2s-.2 0-.4-.3z" class="st25"/>
  <path d="M200 95.5c0 .1 0 .3-.2.4 0 0 0-.2.3-.4zm-.5.5c0 .1 0 .2-.3.4l.3-.4zm-.9.5c0 .1 0 .2-.3.4 0-.1 0-.2.3-.4z" class="st23"/>
  <path d="m358.5 159.6.4.2-.4-.2zm.5.4c.2 0 .3 0 .4.3-.1 0-.2 0-.3-.3zm5.3 5.8.4.2c-.1.1-.3 0-.4-.3z" class="st25"/>
  <path d="M147.5 109.9c1-1.3 2-2.8 4-3.3-.6 1.8-1.6 3.3-4 3.3z" class="st22"/>
  <path d="m20.6 181-1.3.9c.2-.3.7-.6 1.3-1z" class="st4"/>
  <path d="M213 157c-.1.3-.3.6-.7.9 0-.3.3-.6.7-.9z" class="st23"/>
  <path d="M28.3 176.7c-.1.3-.4.6-.8.9.1-.3.4-.6.8-.9z" class="st4"/>
  <path d="M144.7 112.3a3 3 0 0 1 1-.9c.2.7-.2 1-1 1z" class="st22"/>
  <path d="M27.2 177.6c0 .2-.3.3-.7.5.1-.2.3-.3.7-.5zm8.7-5.3c-.1.2-.3.4-.7.5l.7-.5z" class="st4"/>
  <path d="M146 111.3c0-.1 0-.2.3-.4 0 .1 0 .3-.3.4zm.5-.5.2-.4c.1.1 0 .3-.2.4z" class="st22"/>
  <path d="M101.9 218.7s0-.2.2-.3c.1.2 0 .3-.2.3z" class="st10"/>
  <path d="M22 180.5c0 .1 0 .3-.3.4 0 0 0-.2.3-.4zm14.5-8.5-.4.3.4-.4zm-2.9 1.4-.3.3s0-.2.3-.3zm-2.9 1.9s-.1.2-.4.3c0 0 .1-.2.4-.3z" class="st4"/>
  <path d="m210.6 158-.2.4c-.1-.1 0-.3.2-.4z" class="st23"/>
  <path d="M33 173.8c0 .1 0 .3-.3.4l.3-.4z" class="st4"/>
  <path d="M111.1 63.8c.2-.8.6-1.7 1-2.6-.2.8-.5 1.6-1 2.6z" class="st7"/>
  <path d="M3.1 138.3c.8-1 2.1-.3 3.5-.5l-3.5.5z" class="st4"/>
  <path d="m106.8 70.5 1-1.3a5 5 0 0 1-1 1.3zm3.4-5.3c0-.4.2-.8.6-1.2l-.6 1.2zm-1.5 2.4c0-.2.2-.5.5-.7 0 .2-.2.4-.5.7z" class="st7"/>
  <path d="M7.3 137.8c.3-.2.7-.4 1.3-.5l-1.3.5zm2-.5s.4-.2.7-.1l-.7.1z" class="st4"/>
  <path d="m109.6 66.1.2-.2-.2.2zm-1.4 2.5.1-.3-.1.3zm-2.9 3.8s0-.2.2-.3c0 0 0 .2-.2.3z" class="st7"/>
  <path d="M16.5 137.8c0-.1 0-.3.3-.4l-.3.4zm-3.5 1.3s.1-.2.4-.3c0 0-.1.2-.4.3z" class="st4"/>
  <path d="M467.5 165.4c-5.2-4.5-10.4-9.2-15.7-14 .6 0 1.5 0 1.9.4.8 1 1.8 1.5 2.7 2.2 2 1.5 3.7 3.5 5.6 5.3l2.8 2.5c1 1 2.5 1.7 2.7 3.6zm-41.3-34.6a3 3 0 0 1-1.3.5l.8 2.4c-.3 0-.8-.2-1-.6-1-1.4-1.9-3-3-4.9 2.2.4 3.6 1 4.5 2.6zm14.9 11.5c-1-.5-2.1-1-3-1.8a64 64 0 0 1-4.6-4.5c1 .5 2 1.1 3 1.9 1.6 1.3 3 2.8 4.6 4.4zm8.2 6.7a14 14 0 0 1-5.3-4.3c2 1 4 2.1 5.3 4.4zM433 135.6c-1.7-1-3.5-2.1-5.2-3.4 2.3 0 3.7 1.6 5.1 3.4z" class="st22"/>
  <path d="M483.4 166.2c1.7.7 3.3 1.6 4.3 3.5a7.8 7.8 0 0 1-4.3-3.5z" class="st4"/>
  <path d="M475.2 173.6a45 45 0 0 1-3.8-4c1.8.6 3.2 1.8 3.8 4zm9.6 8.1c-2 .3-2.6-1.4-3.7-2.5 1.8-.2 2.5 1.4 3.7 2.5zm-56.1-41.4c1.3.4 1.5 1.7 1.8 3-1.3-.4-1.4-1.7-1.8-3zm-1.5-3.3c1.2 0 1.3 1 1.4 2-1.2 0-1.3-1-1.4-2zm61.4 47.1c-.8.2-1.6.1-1.9-1 .7.2 1.3.5 2 1zm-62.8-50c.4.5.9 1.2 1.3 2-1 0-1.2-.9-1.3-2zm53.7 43.3c-.6-.2-1.2-.6-1.8-1 .8-.3 1.5-.2 1.8 1zm-51.9-45.6c-.4 0-.8-.3-1.3-.6.4 0 .9.2 1.3.6zm58.6 50.9a3 3 0 0 1-1.3-.6c.4 0 .8.2 1.3.6zm-55.6-39 .4.6-.4-.6z" class="st22"/>
  <path d="M624.9 114.8c1 2.5 1.6 5 1.2 8-.4 2.8-.3 5.7-1.2 8.5-.3 1.2-.7 2.4-1.4 3.5L619 142c-.4.7-.7 1.4-.9 2.2-.3 2.5-1.7 4.8-1.3 7.4l.1 1.3 4 2.7c-.8 1.6-2.4.5-4 1.1a87 87 0 0 0-10.9 15.6l-.7-.2v-4.4l.5-8.4c.2-4.6-.6-9.1-1.7-13.6a55 55 0 0 1-1.8-10.7c0-1.8-.5-3.7-1.2-5.3-1.1-3-.6-6-.5-9 0-.8.3-1.6.5-2.5 2.5-2.5 5.5-4 9.2-4a25 25 0 0 0 5.5-.5l3.9 1.3 1.5 1.9c2 .7 2.6-.9 3.7-2.1z" class="st26"/>
  <path d="M656.2 145.7c-1.4-1.8-3-3.6-4.1-5.7-2.5-5-4.7-10-7-15 1.7.6 2 2.5 2.9 4 2.4 4.3 3.9 9 6.5 13.2.6 1 2 1.9 1.7 3.5zM645 123.8a6 6 0 0 1-1.4-1.6l-4-6.6c-.2-.4-.2-1-.3-1.6 2.3 1 3 3.5 4.2 5.4.8 1.3 1 2.8 1.5 4.4z" class="st4"/>
  <path d="M562.3 188.6c-.2-1.7-.2-3.5-.2-5.3l-.4-.1-2.3 3c0-2 1.2-3.4 2.7-5 .4.7.9 1 .9 1.4-.2 2 .7 4-.7 6z" class="st22"/>
  <path d="M668.6 164c-1.6-2-3.2-4.4-4.8-6.9h.7c1.6 2.1 3.4 4.1 4.1 7zm27.5 37.5c-2.1-1.4-3.2-3.7-4.4-6 .5.3 1.1.6 1.5 1.2 1 1.5 2.4 3 2.9 4.8zM635 107.8c-.5-.2-1.3-.5-1.8-1-1-.9-2-1.9-2.9-3 .5 0 1.2 0 1.6.4l3.2 3.6zm-11.2-2.2c.2.8.2 1.6.2 2.7-1.8-.7-1.9-1.2-.2-2.7zm37.6 47c-1.4-.3-2-1.3-2.3-2.7.7.7 1.5 1.6 2.3 2.7zm30.2 42.2c-1.4-.2-1.9-1.3-2.3-2.6 1.3.2 1.8 1.3 2.3 2.6z" class="st4"/>
  <path d="m617.2 180.1.5 4.1c-.3-.2-.8-.6-.8-1-.1-1 0-2 .3-3z" class="st26"/>
  <path d="M556.5 170.9c-.2-.8-.2-1.7-.2-2.7 1.2.7 1.3 1.1.2 2.7zm121.2 4.6-1.9-2c1.3 0 1.9.6 2 2zm5.3 7.3c-1.2 0-1.5-1-1.9-2.2 1.2 0 1.5 1.1 1.9 2.2zM624.5 109l1.5.7v2.9c-.1.3-.2.3-.4.3 0-1.4 0-2.6-1.1-3.8zm46.5 58c-.6-.6-1.3-1.3-1.9-2.2 1.2 0 1.9.7 1.9 2.1zm9.6 12.8-1.5-2c1.3 0 1.4 1 1.5 2zm-5.6-7.7c-.6-.5-1-1.2-1.6-2 1.3-.1 1.5.8 1.5 2zm-11.1-15.3-1.5-2c1.2-.1 1.3.9 1.5 2z" class="st4"/>
  <path d="M618.1 176.8a8 8 0 0 1-.5 2.3c0-.7.2-1.5.5-2.3z" class="st26"/>
  <path d="M556 173.8c0-.6 0-1.2.2-1.9.8.6.9 1.3-.2 1.8zm74.2-70.3c-.6 0-1.1-.3-1.8-.7.9-.8 1.3 0 1.8.7z" class="st4"/>
  <path d="M624.8 162.8a5 5 0 0 1-.5 1.9c0-.6.2-1.2.5-1.9z" class="st26"/>
  <path d="m637.9 111.7-1-1.7c1.1 0 1 .8 1 1.7z" class="st4"/>
  <path d="M617.6 187.3c.2.3.3.7.3 1.3-.2-.4-.3-.8-.3-1.3z" class="st26"/>
  <path d="M658 148.2a3 3 0 0 1-.9-1.2c.8 0 1 .4 1 1.2zm30.3 42.3-1-1.2c.8-.2 1 .3 1 1.2zm-2.4-3.4c-.3-.2-.6-.6-1-1.2.8-.1 1 .3 1 1.2zm-1.9-2.4-1-1.2c.4.2.7.6 1 1.2z" class="st4"/>
  <path d="M619 175.2c0 .3-.2.6-.5 1 0-.3.2-.6.5-1z" class="st26"/>
  <path d="M559 186.3c0 .3-.2.6-.6.9 0-.3.3-.6.6-1z" class="st22"/>
  <path d="m624.9 103.7-.3.9c-.6-.4-.5-.7.3-1zm14.4 10c-.3-.1-.6-.4-.9-.8.3.1.6.4.9.8z" class="st4"/>
  <path d="M625.3 112.9h.5c0 .2-.3.5-.6 1l.1-1zm-4.3 56.7c.1.3 0 .7-.2 1.2 0-.3 0-.7.3-1.2zm4.8-9.6c0 .3 0 .7-.2 1.2 0-.3 0-.8.2-1.3zm-.3-2.4.5.7c-.2-.1-.4-.4-.5-.7z" class="st26"/>
  <path d="m678.2 176.5-.5-.6c.2 0 .4.3.5.6zm-2.4-3.4c-.1 0-.3-.2-.5-.6l.5.6z" class="st4"/>
  <path d="m619.6 173.4-.2.4c0-.1 0-.3.2-.4zm5.8-12-.2.4c-.2-.1-.1-.3.1-.4zM622 168c0 .2 0 .3-.2.5l.2-.4zm-1.5 3.4-.2.4.2-.4z" class="st26"/>
  <path d="m661.8 153.6-.4-.4c.1 0 .3.1.4.4z" class="st4"/>
  <path d="M624 156.6c.1 0 .3 0 .5.2-.1 0-.3 0-.5-.2z" class="st26"/>
  <path d="M113.8 52.7c.8.2 1.4.5.2 1.1h-.3v-1.1z" class="st19"/>
  <path d="M113.7 52.9c-.2 0-.2-.2-.3-.3h.4l-.1.3z" class="st19"/>
  <path d="M371.8 355.3h1.2a6 6 0 0 1-.3 2 12 12 0 0 1-8.8 7.4l-3.5 1.5-.8.4c-1.7.6-3.3 1.3-5 1.5-2.3.4-4.7.5-7.3.7-.3 0-.5 0-.7.2v.1c-2.2 1.5-4.5 1.2-7 1.2H336c-3 0-5.7.5-8.6-.6l-14.7-1h-2.2a11 11 0 0 1-6.7-1l-2.8-.4-20.5-4.1-2.4-.9c-2.3-2-2.5-4-.5-6.7 2-.3 3.6.6 5.2 1.2 8.3 2.8 16.7 4.8 25.3 6.3 1 .2 2 0 3.3.3 5.4 1.4 10.8 1.3 16.3 1.7h14.1c.8 0 1.3 0 2-.2 6.5-.3 12.5-1.5 18.5-3.8l.6-.3c1-.4 2-.4 2.9-1l.4-.4.5-.3.4-.3 1-.5c0-.2.1-.2.3-.3a13 13 0 0 1 1-.7l.5-.3.3-.4.4-.4.5-.5.6-.4z" class="st29"/>
  <path d="M277.9 355.6c-1.4 2.2-1.2 4.2 0 6.5a30.8 30.8 0 0 1-15-7.8c-1.3-1.2-2.4-2.7-3.5-3.8l-.7-4c.5-2.1 1.5-4.1 2.8-6.1.6-.2.9 0 1 .5.9 6 5.4 8.8 10 11.5 1.8 1 3.8 1.6 5.4 3.2z" class="st7"/>
  <path d="M278.1 355.7c-3-1.6-6.1-3-9-4.8a14.5 14.5 0 0 1-7.4-10.5c.4-1 1-1.8 1.5-2.7.1.3.3.7.2 1-1 3.3.3 6 2.5 8 1.7 1.8 3.7 3.4 5.8 4.6 3 1.6 6.1 2.9 9.4 4.3 1.1-.3 2 .1 2.7.4 8.3 3 16.9 4.8 25.6 6.2.7.1 1.4.2 2 .9.2.2.3.4.2.7a84.8 84.8 0 0 1-18.8-3.4c-4.9-1.4-9.7-3.1-14.7-4.7z" class="st31"/>
  <path d="M86.7 227a9 9 0 0 1-1.8 1.7l-11.5 7.6c-6.2 4-13 6.7-20.3 7.6-2.4.2-4.9.7-7.3 1-2.4.4-4.9.7-7.3.8-4.4.3-8.7.4-13.3.5l1.6-1c11-3.6 21.9-7.3 32.9-10.7 8.1-2.6 16.4-4.8 24.7-7.2.7-.2 1.4-.2 2.3-.3zm1-.4-.2.4c-.1-.1 0-.2.2-.4z" class="st1"/>
  <path d="M293.4 150.2c-1.3.6-1.2-.5-1.6-1.3l1.5-1.6c.6 1 .5 1.9.1 2.8z" class="st7"/>
  <path d="m269.7 141-1.8-.6c.5 0 1.2.2 1.8.5z" class="st14"/>
  <path d="M263 140c-.5.8-1 .8-1.4-.1.4-.1.8 0 1.3.1zm14 4.3c-.4 0-.7-.3-1-.6.3 0 .6.2 1 .6zm5.7 5.3c-.3 0-.6-.3-1-.7.4.1.7.3 1 .7zm1.4 2.9c-.2 0-.5-.3-.8-.7.3.1.6.3.8.7z" class="st24"/>
  <path d="m328.7 268.2 10-1.9c1.8-.4 3.7-.5 5.7-.8.4-.1.5-.2.8 0 .2.3.2.6 0 1-2.2 1-4.5 1-6.7 1.4-5.2 1-10.2 2.4-15.3 4.2-1.5.4-2.6 1-4 1.5a134.8 134.8 0 0 0-29.8 18.5c-3.2 2.7-6.4 5.1-9.2 8-.5.7-1.1 1.2-2.2 1.2-.3 0-.4-.1-.6-.3a129 129 0 0 1 26.3-21l.5-.8c.5-.5 1-.7 1.5-1l.9-.8c.7-.1 1.4 0 2-.3 5.2-2.9 10.7-5.3 16.3-7.4l.4-.4c-1-3-3-5.5-5-8.2l.1-.6c2.7.7 3.5 3 4.7 5 .6.9.8 2.3 2.3 2.6l1.3.1z" class="st32"/>
  <path d="m306.3 278.3-1.8.9c-.5-.1-.7-.4-1-.7l-.1-.1c-.6-.4-1.3-.7-1.9-1.3v-.2c-.3-.2-.5-.2-1-.3v-.1L299 275l-.5-.5-.4-.5h-.1c-.2-.3-.6-.3-1-.5a5 5 0 0 1-.9-.7l-.4-1.1-.1-.1-.4-.4c-.1-.1 0-.1 0-.1l-.5-.4s0-.1 0 0l-.5-.5c-.7-.8-1.4-1.4-1.9-2.4-.6-.6-1-1.1-1.4-1.9-.1 0-.1-.1-.1 0-.4-.4-.6-.9-.9-1.4v-.1L287 258c1.2-.6 1.4.6 2.2 1.1h.2c0 .2.2.3.4.5.4.5.5 1.2 1 1.9.4.4.5.9.9 1.4v.1l1 .9c.5.8.8 1.8 1.8 2.4h.1l.4 1h.1l2.3 2.3.1.1.4.4c.1.1 0 .1 0 .1l.5.4.5.5.5.5.4.5h.1l.4.4c.1.1 0 .1 0 .1l1.4 1.3.1.1c.2.3.5.3.9.4.1.1 0 .1 0 .1l.5.4v.1l1 .9c.8.8 2 .9 2 2.4z" class="st29"/>
  <path d="M277.1 300.9h.8c1.7 1 3.8 1.6 3.5 4.2-1.1.4-1.5-.3-2-.9a32 32 0 0 1 2 28.9c-.5.1.1.5 0 .2l.1-.1c.3-.2.6-.3 1-.2.5.4.6.7.7 1.2 0 .5 0 .7-.2 1-1 1.2-2.5 1.6-3.5 2.8a2 2 0 0 1-.6.3 6 6 0 0 1-2.8-.6c-.3-.3-.4-.5-.4-1 1.3-1.6 3.1-2.7 3.8-4.8 3.2-8.6 3-16.9-1-25a8 8 0 0 0-4.8-4.3c-.2-.2-.3-.3-.2-.6.5-.4 1-.5 1.5-.6l2.1-.5z" class="st15"/>
  <path d="M276 336.4v.8c-.1.4-.4.4-.7.2-2.9-1.6-4.6-4-5.7-6.7a32.4 32.4 0 0 1-1.8-19c.7-2 1.2-4 2-5.7a8.5 8.5 0 0 1 3.6-4.1l.2.5c0 1.5-1.2 2-1.8 3.3A22 22 0 0 0 269 316v4.7c.4 6.1 2 11.6 7 15.7z" class="st32"/>
  <path d="M292.3 268c.6.5 1.3 1.2 2 2.1-1.3 0-1.8-.9-2-2zm-1.5-1.9c.5.4 1 .9 1.5 1.6-1 .2-1.3-.6-1.5-1.6zm10.6 11a6 6 0 0 1 1.9 1.2c-.9.3-1.5-.2-1.9-1.2zm-2.4-1.9c.5.2 1 .6 1.5 1.1-.5-.2-1-.6-1.5-1zm-9.1-10.5 1 1a3 3 0 0 1-1-1zm13.4 13.9c.3 0 .7.1 1 .5 0 .3-.1.4-.3.7-.3-.3-.5-.7-.7-1.2zm-7.7-6.7c.2 0 .4.3.6.8-.2-.1-.4-.4-.6-.8zm1.4 1.8c.2 0 .6 0 1 .3-.2 0-.5 0-1-.3zm3.5 2.9c.2 0 .5 0 .9.2-.3.1-.5 0-.9-.2zm-1.9-1.9.4.2c-.1 0-.3 0-.4-.2zm-.6-.5c.2 0 .3 0 .5.3-.1 0-.3 0-.4-.3zm-2.8-2.8c.1-.1.3 0 .4.2 0 0-.2 0-.4-.3zm-.5-.5c.1 0 .3 0 .5.2-.2 0-.3 0-.5-.2zm-.5-.5c.2 0 .3 0 .5.2-.1 0-.3 0-.5-.2zm3.4-.8c-1.3 0-1.9-1-2.4-2 .8.4 1.6 1.1 2.4 2z" class="st7"/>
  <path d="m320.4 260.8-2.4-2.1c0-.2 0-.3.3-.5 1.6-.3 2.3.7 2.5 2.1 0 .3-.2.4-.4.5z" class="st32"/>
  <path d="M306.4 278.3a8.5 8.5 0 0 1-2-2.2c.7.2 1.4.6 2.3 1.1 0 .5-.1.8-.3 1.1zm-11.7-12.1c-1.2 0-1.8-.7-2-2 .7.5 1.3 1.2 2 2zm7.3 7.7c-.5-.2-1-.6-1.5-1.1.5.2 1 .6 1.4 1.1zm-11-12.5a5 5 0 0 1-1-1.6l1 1.6zm.9 1.5c-.4-.2-.7-.6-1-1.2.3.3.7.6 1 1.2zm.9.9c-.3 0-.6-.2-1-.6.4 0 .7.3 1 .6zm11.5 12c-.3 0-.6-.2-1-.6.4 0 .7.3 1 .6zm-9.1-8.6-.5-.7c.2.1.4.3.5.7zm7.6 7.2c-.2 0-.5 0-.8-.2.2 0 .5 0 .8.2zm-2.3-1.9c-.1 0-.3 0-.5-.2.1 0 .3 0 .5.2zm-.5-.5c-.1 0-.3 0-.4-.2l.4.2zm-.5-.4c-.1 0-.3 0-.4-.3 0 0 .2 0 .4.3zm-.5-.6-.4-.2c.1 0 .3 0 .4.3zm4.3 4-.4-.3c.1 0 .3 0 .4.2zm-4.7-4.4c-.2 0-.3 0-.5-.3.1 0 .3 0 .4.3zm-.6-.5-.4-.2c.1 0 .3 0 .5.2zm-8-10.6c-.2 0-.3 0-.5-.2l.4.2z" class="st7"/>
  <path d="m371 278.9 2.5 2V342l-7.1 4.5c-1.5 2-3.8 2.8-5.7 4.1-1.4 1-2.8 1.8-4.4 2.7-2.2.7-4.1.7-6.1.7-6.1 0-12.2.2-18.3-.7-1-.1-2-.3-3-1.1-.6-.7-.6-1.2-.4-2 1-1.2 2.3-.8 3.5-1 1.5-.1 3-.5 4.5-1 4.2-2.2 7.3-5 8-9.7-1.2-1.2-2.4-.8-3.5-.9-2.7-.2-5.5 0-8.2-1.4-.8-5.2-.3-10.3-.4-15.3 0-1.7-.3-3.5.5-5.3 1.4-.8 2 .1 2.4 1a15 15 0 0 1 2 4c1.4 4.2 4.1 6.8 8.7 7.7 6 1 12 .9 17.9.7 2.8 0 4.3-2 4.5-5.2l.4-8.2c.2-1.8 1-3.3 1.4-5 1.1-5-1.5-9.2-7.3-11.3a58 58 0 0 0-19.7-3.4c-3.3 0-6.6.2-9.8-1.2-1-5-.6-9.8-.3-14.8.4-1 1-1.3 1.8-1.5a52.8 52.8 0 0 1 28.7-3l.8.2 1.3.8c0 .2.2.2.3.2l1 .3c.2.1.2 0 .2 0 .3.4.8.3 1.3.5h.1c.2.3.5.3.9.5l1 .4v.1l.5.5z" class="st12"/>
  <path d="M356.8 353a40 40 0 0 1 4-3.2l5.3-3.2c.2.2.3.4.4.9l6.9-2c1-.4 2-.6 3.1-.9-.9 2-2.7 3-4.6 4l-2.9 1.7c-2 1.3-4.2 1.7-6.5 2.2-2 0-3.7 1-5.7.4z" class="st27"/>
  <path d="M275 337.4h.9c1 .1 1.7.3 2.6.6 2 1 3.2 2.6 4.8 3.8a83 83 0 0 0 39.8 17.6 105.2 105.2 0 0 0 36.1-.4 39 39 0 0 0 6.6-2.2l.6-.3.8-.4.5-.2.7-.3.5-.2.5-.4.5-.4.4-.2 1-.2.6.9c0 .1 0 .1 0 0 0 .2-.1.3-.3.5-.1 0 0 0 0 0l-.5.5-.5.4v.1l-1 .9c-.2.3-.5.3-.9.5-.4.5-.9.6-1.4 1h-.1l-.4.4a11.7 11.7 0 0 1-3.3 1.4l-.1.1a56 56 0 0 1-20.7 4.4c-5 .3-9.7.4-14.7 0-5.5-.4-10.9-.5-16.3-1.8-3.6-.8-7-1.4-10.5-2-6.6-1.4-13.3-3-19.8-5.8l-2.2-2.9a17.4 17.4 0 0 1-4.2-15.4z" class="st30"/>
  <path d="M328.8 268.1c-.2.3-.5.5-.8.6a19.4 19.4 0 0 1-3-5.5l.4-.6a60 60 0 0 1 3.4 5.5zm16.5-2.6h-.5c-.7-1.4-1.2-2.7-1.7-4.2.9 1.1 1.7 2.4 2.5 3.8 0 .3 0 .4-.3.4zm-26.6-9.7c.8.3 1.4.6 2 1.2 0 .2 0 .3-.2.5-1 0-1.5-.4-1.9-1.2l.1-.6zm16.3-3.1c.5.2 1 .5 1.5 1a4 4 0 0 1-1.5-1zm5.8 5.7c.5.2 1 .6 1.4 1.1l-1.4-1zm1.4 1.5 1 1c-.3-.1-.7-.5-1-1zm-25.3-5.6c.5.2 1 .4 1.4.8 0 .2 0 .3-.2.5-.8 0-1.2-.2-1.4-1 0-.2.2-.3.2-.3zm15.8-3.1c.4 0 .9.3 1.4.7-.5-.1-1-.3-1.4-.7zm-8.2 10.3c.4.2.7.4 1 .8v.2c-.6.4-1 .2-1.2-.4 0-.3 0-.4.2-.6zm-1.5-1.9c.4.2.7.4 1 1-.6.4-1 .2-1.2-.4 0-.3 0-.4.2-.6zm17.3-2.2c.2.1.3.3.5.7-.2 0-.4-.3-.5-.7z" class="st7"/>
  <path d="m324 260.6.6.7-.1.3c-.5 0-.7-.2-.6-.8l.2-.2zm10.1-8.4c.2-.1.5 0 .9.2-.2 0-.5 0-.9-.3zm2.4 1.8c.2 0 .5 0 .9.3-.2 0-.5 0-.9-.2zm-15.8 3.2c.2 0 .3.1.4.4-.2.2-.3.1-.5 0l.1-.4zm19.1-.2c.2-.1.3 0 .5.2-.2 0-.3 0-.5-.3zm-.4-.5.4.2c-.1 0-.3 0-.4-.2zm-.5-.5.4.2c-.1 0-.3 0-.4-.2zm-.5-.5c.1 0 .3 0 .4.2l-.4-.2zm-20.1-.2c.2 0 .3 0 .5.3v.2c-.3.1-.5 0-.6-.3l.1-.2zm19.1-.8c.2 0 .3 0 .5.3-.1 0-.3 0-.5-.3zm.6.5s.2 0 .4.3c-.2 0-.3 0-.5-.3zm-15.4 4.1c.2 0 .4.1.5.3v.3h-.5v-.6z" class="st7"/>
  <path d="M322.1 258.6c.3 0 .4.1.5.4.1 0 0 .1 0 .2h-.5v-.6z" class="st7"/>
  <path d="M321.6 258.2c.3 0 .4 0 .6.3l-.1.2h-.5v-.5z" class="st7"/>
  <path d="M321.2 257.7c.2 0 .3 0 .5.3v.2c-.3.1-.5 0-.6-.3l.1-.2z" class="st7"/>
  <path d="M345.1 265.6c.1-.2.2-.2.4-.3h1.8c.5-.2 1-.3 1.6-.1l9 .3c.4.1.4.3.3.6H353c-2.7.6-5.1 1.4-7.8.4a2 2 0 0 1-.2-.9z" class="st31"/>
  <path d="M343.2 256.6c-1.8-.4-2.8-1.9-3.8-3.5 1.7.5 2.8 2 3.8 3.5zm5.8 8.5a3 3 0 0 1-1.3.3 8 8 0 0 1-.2-2.4c.5.5 1 1.3 1.5 2.1zm-1.5-2.6c-1 0-1.4-.5-1.4-1.7.4.4 1 1 1.4 1.7zm-1.4-2c-.7.1-1-.3-1-1.1.3.2.7.5 1 1zm-1-1.5c-.3 0-.6-.2-1-.6.4 0 .7.3 1 .6zm-.9-1c-.2 0-.4-.2-.5-.6.2 0 .4.3.5.7z" class="st7"/>
  <path d="m358.2 266.2-.1-.6c0-.1.1-.2.3-.2.1.3 0 .6-.2.8z" class="st32"/>
  <path d="m339.3 252.8-.4-.2c.1 0 .3 0 .4.2zm4.4 4.3c-.1 0-.3 0-.5-.2.2 0 .3 0 .5.3z" class="st7"/>
  <path d="m345 266.4 7.7-.2c1 1.6 1.7 3.1 2.5 4.9-2.8 1.2-5.8.8-8.7 1.3a130.3 130.3 0 0 0-21.1 5.4c-1.8-1.6-2.3-3.7-3-5.9a63.7 63.7 0 0 1 15.7-4.5l6.8-1z" class="st29"/>
  <path d="m325 277.6 8-2.5a89 89 0 0 1 22-3.8l6.5.7a25 25 0 0 1 7.9 2.5c.1 0 .2.3 0 .5-2.4-.5-4.8-1.4-7.3-2a39 39 0 0 0-15.6-.1c-12.5 2-24.3 6.3-35.7 12.3-.2 0-.3 0-.5-.3.2-1.3 1.2-1.6 2-2 2.9-1.6 5.9-2.9 9-4.3 1.3-.4 2.3-.9 3.6-1z" class="st32"/>
  <path d="M343.5 274.2c.2 0 .2.2.2.4-.2 1-1 1-1.7 1.2-8.6 2.1-16.9 5.3-25 8.9-.5.3-1.1.5-2 .3-.3 0-.4-.1-.6-.3a118.4 118.4 0 0 1 29.1-10.5zm-33.8 11.4c-.1.4-.3.5-.6 1-.4.5-.7.7-1.1 1-.3.2-.3.4-.2.7a10 10 0 0 1-5.4 3.8c-.4-.2-.6-.4-.4-.9.3-.1.3-.3.3-.4.2-.2-.4 0 0 0s0 .5-.2.3c-.5.3-1 .6-1.6.2-.3-.3-.3-.5-.2-.9 2.8-2 5.3-4.4 8.9-5.2l.5.4z" class="st32"/>
  <path d="m309.1 286.6 3-1.1c.3 0 .4 0 .5.3-.8 1.5-2 2-3.7 2-.4-.5-.3-.8.1-1.1l.1-.1z" class="st32"/>
  <path d="m312.4 285.5.8-.5c.2 0 .3 0 .4.2-.1.5-.3.6-.8.7a1 1 0 0 1-.4-.4zm-1.8-.3-.7.6c-.2 0-.2-.2-.4-.3 0-.4.2-.6.7-.7l.4.4z" class="st32"/>
  <path d="M313.4 285c.1-.2.4-.3.8-.5l.3.3c0 .4-.3.5-.7.6-.2 0-.3-.1-.4-.3zm56.2-10 .3.4h-.4l.1-.3z" class="st32"/>
  <path d="m313.5 285.5 1-.5 11-4.5c5.8-2.3 11.8-4.2 18-5.7l8.2-.9c.3.1.3.2.3.5-3.4 1.2-7 1.3-10.3 2.2a157.6 157.6 0 0 0-31.7 12.7l-.5.4c-1.5.6-2.7 1.4-4 2.4l-.4.4a9 9 0 0 0-.7.5l-.4.4-.7.4-.4.4-.5.4-.5.4a29 29 0 0 0-9.8 21.2c0 5.7 1.3 11.3 4.4 16.4l.3.6.8 1.3.4.5c.4.7.7 1.1 1.2 1.6a8 8 0 0 1 .8.9l.3.5c0 .3 0 .5-.2.8a1.3 1.3 0 0 1-1.5.3 3 3 0 0 1-.5-.3l-.4-.5-.6-.6-.3-.5c-1-1.6-1.9-3-3.1-4.3l-.4-.6c-2.3-5-3.9-10-4-15.3a28.8 28.8 0 0 1 5.2-17.6l.3-.6c.3-.5.8-.8 1.2-1.2l.3-.5a7.5 7.5 0 0 0 .7-1c0-.2.1-.3.4-.5l.5-.5.5-.5a28.8 28.8 0 0 1 1.3-1.2c.7-.4 1.3-.7 2-1.4 2.6-.7 4.2-2.4 6.1-4 .2-.3.2-.3.6-.4 1.5-.6 2.8-1 4.2-1.7l1-.4z" class="st29"/>
  <path d="M352 274.6c-.2-.2-.2-.3-.1-.6 3.3-.8 6.6-.3 9.9.3a4 4 0 0 1 1.8.7c-1.6.8-3.2 0-4.7 0-2.3-.2-4.6 0-7-.4z" class="st7"/>
  <path d="m365.8 276.4-1-.1c-.1-.3-.2-.4-.1-.7.2-.2.3-.2.5-.2l.6 1zm2.7.9c-.3.1-.7 0-1.2-.2.3 0 .7 0 1.2.2z" class="st15"/>
  <path d="M365.3 275.4c0 .2-.1.2-.3.2l-.6.1c-.4 0-.5-.1-.6-.4v-.3l1.5.4z" class="st7"/>
  <path d="M367.1 276.9c-.2 0-.5 0-1-.3.3 0 .6 0 1 .3zm2.4.9c-.2 0-.5 0-.8-.2.2 0 .5 0 .8.2zm1 .5c-.2 0-.5 0-.9-.2.3 0 .5 0 .9.2zm.5.6-.4-.3s.2 0 .4.3z" class="st15"/>
  <path d="M321 257.7c.1.3.2.4.5.5l.4.5.5.5.5.5 1 1 .4.8 1 1 1 2.2 1.5 3.9-1.1.3-5.8-8.3-2.4-2.4a27 27 0 0 0-11.5-6.7l-2.6-.8c3-.4 5.6.8 8.4 2 1.2.4 2.4 1.1 3.8 1.7l1.5 1c.1.1.2.3.5.4l1.8 1.5.6.4zm-18.4-7.2c.3-.7 1-.5 1.6 0h-1.6z" class="st29"/>
  <path d="m339.3 369.7 7-.6c0 .6-.3 1.2-.7 1.7l-11.4 10.9c-.2.2-.6.2-1 .3-1-1.6.9-2.6.6-4-.7-.8-1.5-.5-2.4-.1-1.2 2 .1 4.4-1 6.5-2.4 2.6-4.4 5-7.5 6.9l-.3-1.8c.1-3.5.2-7 .5-10.6.1-1.2 1-2.3 1.5-3.4l2.8-5.7c2.7-.2 5.5-.2 8.5-.1 2 1.8.7 3.6.4 5.2.8-1.5 1.5-3.5 3-5.2z" class="st12"/>
  <path d="M303.8 367.8c2 .1 4.2.4 6.5.8l.1 8 5 .4c.6 2 .6 9 0 11.4-.6-.7-1-1.2-1.3-1.8l-5-9.5-5.3-9.3zm26.6 16.7c-.2-2.3-.2-4.7-.2-7.3h5l-2.2 4.6v.2c0 .2-.1.3-.3.5l-.5.5-1.8 1.5z" class="st14"/>
  <path d="m346.7 369 .3-.2c0 .1 0 .2-.3.3z" class="st7"/>
  <path d="M332.2 383c0-.1 0-.3.3-.4 0 0 0 .2-.3.4zm.5-.5c0-.1 0-.3.3-.4 0 0 0 .2-.3.4z" class="st12"/>
  <path d="M364.4 364.8c3-2 6-4 8.1-7.3 0 2.2 0 4.5-.2 6.8 0 1.3-.3 2.6-.5 4.1a12 12 0 0 1-7.4-3.6z" class="st14"/>
  <path d="m403.8 346-.5.1c-4.8 1-9.4.6-14.3.6l-7.2-1.6-1-.4h-.2c-.7-1.3 0-1.8 1-2 .8-.3 1.7-.2 2.8-.4 3.9-.3 7.6-.5 11.5 0 2.4 0 4.5.4 6.4 1.4 1 .4 1.9.8 1.5 2.2z" class="st16"/>
  <path d="m373.3 349.5 1.8-.3c0 .3 0 .6.2 1 .4 1.3-.4 1.6-1.3 2-1 .6-1.8 1.2-2.6 1.9l.1.1c-.3.4-.8.2-1.3.4l-.1.1-.4.4c-.1.1 0 .1 0 .1l-.5.4c0 .1 0 0 0 0-.4.4-.9.3-1.4.5h-.1c-.2.3-.5.3-.9.5-.1 0 0 0 0 0-.7.5-1.4.6-2.3.7-.6-.3-.6-.8-.7-1.4 0-.5.1-.8.3-1.3l.4-.4.7-.5.5-.2.7-.3.5-.2.7-.3.4-.1.6-.3a5 5 0 0 0 .8-.5l.5-.3.5-.2.4-.2.4-.3.5-.4.3-.2.4-.2.4-.2.5-.3z" class="st30"/>
  <path d="M396.5 342.4h-11.7c-.3 0-.4-.2-.4-.4 4-.8 7.8-1 11.9-.2.3.1.4.3.2.6zm-22.6 10 1.3-1.9c1.8 0 .8 1.5 1.3 2.4l1.6-.6c-.1 1.7-1.3 2.1-2.5 3 0-.6 0-1-.2-1.5l-1.8.3.3-1.7z" class="st5"/>
  <path d="M396.6 342.5c-.2-.2-.1-.3-.1-.6 3 .4 6.1.7 8.7 3.2l-1.4 1c.1-1-.4-1.6-1.2-1.8l-6-1.8zm-7.6 4.2h7.4c2.1 0 4.2-.4 6.6-.6-.6.4-1.5.9-2.3.9-3.8 0-7.7 0-11.8-.3zm-4.7-4.9c.2.1.2.3.2.5-.7.3-1.5.3-2.3.5-.7.2-1.7.3-1.5 1.6-1.1.3-2 .1-2-1.5v-.2l5.6-.9z" class="st34"/>
  <path d="M374.7 363.6c0-1 .2-2 .3-2.9 1.1 0 1.4.6 1.3 1.3-.1.9-.3 1.8-1.6 1.6z" class="st8"/>
  <path d="m369 350.3 2-.4 2.4-.5-.3.5h-.1c-.2.2-.5.2-.9.4 0 .1 0 0 0 0l-.5.5c0 .1 0 0 0 0l-.5.5c-.4.4-.9.2-1.4.4-.1.2-.1.1 0 .1-.2.1-.3.2-.5.1-.3-.2-.4-.4-.4-.8 0-.3 0-.4.2-.6.1-.1 0-.2 0-.2z" class="st29"/>
  <path d="m404.6 356.2.4-1c.8.7.7 1.4.3 2.6l-.7-1.6z" class="st5"/>
  <path d="m380.7 344.7.9.3c-.2 0-.5 0-.9-.3z" class="st34"/>
  <path d="M311.5 363.6c5.3.3 10.7.8 16.2 1.4.3.3.3.3.3.6-3.5-.1-7-.2-10.3-.5-2-.2-4-.6-6-1-.2-.2-.2-.3-.2-.6z" class="st32"/>
  <path d="M344 365c5-.8 10-1.3 14.7-2.7l4.5-1.4c-.5.5-1.1 1.1-1.9 1.3-5.4 1.8-11 3.1-17 3.2-.2-.1-.2-.2-.2-.4z" class="st31"/>
  <path d="M339.2 369.6c-.7 2-1.6 4-2.6 5.9l-.6-.1.2-2.8-.1-2.7c1-.3 2-.3 3.1-.3z" class="st24"/>
  <path d="M328.1 365.7c-.2-.1-.2-.2-.2-.5l14.5-.2c.3.1.4.2.4.5-5 .2-9.7.2-14.7.2z" class="st8"/>
  <path d="M363.5 361a13 13 0 0 1 3-1.6c-.5 1.2-1.6 1.5-3 1.6z" class="st31"/>
  <path d="M342.8 365.7c-.2-.2-.2-.3-.2-.6.4-.2.8-.2 1.4-.3.2.1.2.2.2.4a3 3 0 0 1-1.4.5z" class="st32"/>
  <path d="m367.4 359 1-1c.4 1-.3 1-1 1zm2.3-1.4c0-.3.3-.7.7-1 0 .3-.3.7-.7 1zm-.9.5c0-.3.3-.5.6-.6 0 .3-.3.5-.6.6zm-1.9 1.4c-.1-.2 0-.3.1-.5.1.2 0 .4-.1.5zm3.8-2.9c0-.1 0-.3.2-.5 0 .2 0 .4-.2.5zm.5-.4c-.1-.2 0-.4.2-.5 0 .1 0 .3-.2.5zm.4-.5c0-.2 0-.4.2-.5.1.2 0 .3-.2.5z" class="st31"/>
  <path d="m310.4 284.7-.9.6-8.8 5c-2.2-.7-2.4-2.9-3.6-4.5a91.7 91.7 0 0 1 16.8-10.3l4.7-2.3c1.7 1.6 3.3 3.2 3.1 5.8l-11.3 5.7zm-28.8 20.7-1.4-2.3-2.1-2c.2-.3.5-.4.8-.6l9.9-8.7a9.4 9.4 0 0 1 3 4.8c0 1.2-.8 1.8-1.4 2.7l-.5.5c-2.8 1.4-4.3 4-6.7 6-.6.2-1 .1-1.6-.4z" class="st29"/>
  <path d="M291.5 297.4 290 294l-1-2.2c2.5-2.2 5.2-4.2 8-6.3l3.4 4.7-.1 1c-.4.6-.8.8-1.3 1.3a29 29 0 0 0-6.2 4.7c-.5.2-.8.2-1.3 0zm30.3-18.4c-1.1-1.7-2-3.6-3-5.6a24 24 0 0 1 3.5-1.6c1 1.8 1.9 3.6 2.7 5.6-1 .7-2 1.2-3.2 1.7z" class="st30"/>
  <path d="m369 350.8.1.8.1.6v.1l-1 .4c0 .1 0 .1 0 0-.4.4-.8.3-1.4.5-.1 0 0 0 0 0-.3.3-.6.3-1 .5l-.9.5c-.1 0 0 0 0 0-1.1.9-2.5 1-3.8 1.8l-.8.2a91 91 0 0 1-70.9-15.3c-2.1-2.2-4.9-3.6-6.6-6.2v-1.5c.3-1.5.8-2.5 1-3.8v-.7a31.4 31.4 0 0 0-.7-19.5 5 5 0 0 1-.4-2.2c1.9-3 4.3-5.2 7-7.4.2 0 .2-.1.2 0 .9-.9 1.6-1.8 2.8-2.4l.1-.1c1.6-1.6 3.4-2.9 5.5-4 .4 0 .6 0 .9.3v.7l-.2.1-.4.4-.4.5h-.1l-.4.5h-.1l-.4.4c-.1.1 0 .1 0 .1-.3.2-.3.5-.5.9l-1.4 1.4-.1.1c-4 5.6-6 11.9-5.7 18.8.2 5.3 1.7 10.3 4.2 15.2v.1c1.2 1.5 2.2 3 3.3 4.7l.1.1c.3.2.6.4.9.9 0 0 .1 0 0 0l.5.5c.7.7 1.4 1 2.3 1.5a5.4 5.4 0 0 1 1.4 1.3c.4.6.9 1 1.5 1.3l1.5 1 1.5.9c.4.1.6.3 1 .6.8.7 1.6 1.2 2.7 1.4l.6.1.6.2c.3 0 .4.1.6.3 1.5 1.5 3.4 1.8 5.4 2.5 2.7.8 5.3 1.7 8.2 2.2a96 96 0 0 0 31.6 1.2c1.6-.2 3-.7 4.8-1 2.5 0 4.4-1.3 6.8-1.5z" class="st30"/>
  <path d="m271.6 305.4 1.9-2.7c2-.6 3.3.5 4.3 2 1.7 2.5 3 5.2 3.6 8.4a34 34 0 0 1-.2 15.7c-.2 1.1-.7 2.1-1.2 3.3-1 .8-2.1.8-3 .4-3.2-1.5-5.8-3.5-6.4-7.4-.5-6 .2-11.7.4-17.4 0-.7.1-1.4.6-2.3z" class="st17"/>
  <path d="M360.1 359.2a98.6 98.6 0 0 1-53.8-3.5 77.5 77.5 0 0 1-24.8-14.6l-2.8-2.9c0-.2.2-.2.5-.2 2.7.5 4 2.8 6 4.3l2.6 2a91 91 0 0 0 17.7 9.4c2.1.8 4 1.7 6.3 2a95.2 95.2 0 0 0 32.1 4c5.2-.2 10.3-.9 15.7-1.4.4.2.6.4.5 1zm-77.3-26-1.1.6-1.5 1.1c4.8-11.2 4.5-22-2.2-32.5a74.1 74.1 0 0 0 3.3 2.8c2.6 3.4 3.2 7.4 3.8 11.4.6 4.2 0 8.3-.8 12.5l-.1.2c-.6 1.1-.9 2.4-1.4 3.7v.2z" class="st32"/>
  <path d="M271 325.3c1 3.8 4.7 6.7 8.6 6.9-.2 2-1.6 3.3-3.4 4.3-2.4-.7-3.7-2.5-4.8-4.4a24.7 24.7 0 0 1-3-10.9c1.3-.5 1.3.6 1.6 1.2l1 2.9zm14.3 17.4-5.8-4.7c.2-1.6 1.5-2.2 3-2.6 2 1.2 3.7 2.4 5.2 4.2a5 5 0 0 1-2.4 3.1z" class="st29"/>
  <path d="m287.6 340-4.8-4.4-.1-.9c2.1 1.6 4.3 3.3 6.5 5.2v.6c-.8.2-1.2 0-1.6-.6z" class="st32"/>
  <path d="M271.1 325.2a2 2 0 0 1-1-.9l-1.5-3.2c-.5-4.4-.2-8.7 1.2-12.9.4-1 1-2 1.7-3 0 6.6-.2 13.2-.4 20z" class="st28"/>
  <path d="M333.4 294.5c3.7.3 7.2.6 10.7.7 6.4.3 12.7 1 18.8 3.3 2.7 1 5 2.8 7 4.9.4.6 1 1.4 1 2 .2 2.8.7 5.7-1.3 8.1l-.5 9.8c-.1 1-.2 2-.5 2.8-.7 2.3-2.2 3.6-4.5 3.6-6.2 0-12.4.3-18.6-.8-4.6-.9-7-3.7-8.7-7.7-.9-2-1.9-3.8-3-5.8l-1.2-1c-1.6-1.5-2.8-1.4-4.2.4a27 27 0 0 0-3.8 6.6c-2 5.3-6.1 7.4-11.5 7.5h-4.7l-.8-.4c-.7-.7-1-1.4-.6-2.5 1-.8 2-.7 3-.7 1.6 0 3 0 4.6-.3 3.3-.3 5.4-2 6.7-5 1-2.6 2.4-5 4-7.3 2.1-2.7 4.8-4 8.4-3 2.2 1 3.2 3 4.3 4.9 1.4 2.5 2.5 5.2 3.7 7.8.9 1.9 2.3 3 4.3 3.3.9.2 1.8.5 2.6.5 4.3 0 8.5 0 12.7.5 1 0 2.1.1 3.1-.4 1-1.1 1-2.5 1.1-3.8.7-4.5.8-9 .6-13.4 0-2.7-1.2-4.3-3.6-5.4a58 58 0 0 0-23.2-5c-1.7 0-3.4.1-5.3-.1-6.8-.4-13.5-.5-20.1.4-2.2.3-4.4.4-6.9.3-1.2-1.2-.7-2.3 0-3.6 2.3-1.3 4.7-1.5 7-1.5a326 326 0 0 1 17.6-.2c.6 0 1.1.1 1.8.5z" class="st34"/>
  <path d="M308 328.6c3-.3 5.7-.4 8.5-.8a9.1 9.1 0 0 0 7.1-5.7c1.2-2.6 2.7-5 4.1-7.5a4 4 0 0 1 3-2.2c1.6.2 2.4 1.2 3 2.7-.2 1-.6 1.7-.6 2.5v18.5c-.5 1-1.2.9-2 .8-3.1-.5-6.3 0-9.5-.6a4.5 4.5 0 0 0-3.6.7c-.6.8-.2 1.7-.3 2.7-.5 1.1-1.3 1-1.8.5-3.6-3.1-7-6.4-7.9-11.6zm25.6-34.2c-3.6.3-7.2.3-10.8.4-5 0-10.1 0-15.3 1-2.5 1.4-5.4 1.9-7.1 1.2 0-1.2 1.1-1.7 1.8-2.6l.2-.2.4-.4 1-.4v-.1l.9-.9c0-.1 0 0 0 0l4.3-2.9h.1a196 196 0 0 1 22-9.6c.7-.2 1.4-.5 2.4-.5l.1 15z" class="st17"/>
  <path d="M308 328.4c1.8 5 4.8 8.9 9.2 11.9 1.2.3 1.8 1.2 2.4 2.2a14 14 0 0 0 7 5.8c.7.3 1.6.4 2.2 1.4v2c-.3.6-.8.6-1.5.6l-1-.2-1.3-.4c-2.3-.9-4.6-1.4-7-2.1a6 6 0 0 1-.5-.2l-1.2-.4-.5-.3-.9-.3-.5-.3a21 21 0 0 0-4.7-2.3l-.6-.3-1-.7-1.4-1-1.8-1.2c-.6-.6-1.2-1-2-1.5a4 4 0 0 1-.7-.6c-.6-1-1.4-1.6-2.1-2.4l-.1-.1-.4-.5h-.1c-.5-.8-1-1.6-1.8-2.3l-.1-.1c-.3-.4-.4-1-.9-1.4-.7-2-2.3-3.4-2.2-5.7l.6-.6c4.2.2 8.3 0 12.4.8l.5.2z" class="st16"/>
  <path d="M319.4 342.8c-.8-.8-1.3-1.5-2-2.4l-.7-4c1.9-1 3.6-.9 5.4-.8l6.9.4 4 .4 11.9.8c.6 1.8 0 3.3-.8 4.8a15 15 0 0 1-7 6.5c-6.6.1-12.2-2.3-17.7-5.7z" class="st34"/>
  <path d="m326.9 351.7 1.7.2 2.2.6a117 117 0 0 0 31.4-.5c.4 0 .6.2.7.5a83.7 83.7 0 0 1-37.2.1c-.6-.2-.9-.5-.8-1.2h1.3l.7.3z" class="st8"/>
  <path d="M333.8 279.4a181 181 0 0 0-21.7 9c-.8.5-1.8.7-2.8 1 .3-.4.7-.9 1.2-1.1a139.8 139.8 0 0 1 35.2-13l5.9-.8 12 .6.6.4c.2.1.3.2.3.4-1.1 0-2.1-.2-3.2-.3-4-.5-8.2-.7-12.3 0-5 1-10 2.5-15.2 3.8zm-14.6 63.5c.6 0 1.3 0 1.8.3 3.8 2.4 8.2 3.4 12.4 4.6 1 .3 2.2.3 3.4.5-2.2 1.6-4.9 1.7-7.7 1.6-1-.3-1.7-.7-2.4-1a14.6 14.6 0 0 1-7.5-6z" class="st15"/>
  <path d="M364.4 276v-.3c0-.2 0-.2.3-.1.1 0 0 .2 0 .4h-.3zm-1.4 76.7-.6-.6c2.1-.7 4.2-1.3 6.5-1.8.2.2.3.3.3.5-2 .8-4 1.3-6.2 2zm-2.8 6.7c-.2-.1-.2-.3-.2-.6 1-1.5 2.5-1.7 4.2-1.8l2.4-.4c-.2.4-.6.8-1 1-1.7.7-3.5 1.3-5.4 1.8zm7.6-3.1a2 2 0 0 1 1.2-.7 2 2 0 0 1-1.2.7zm2.4-1.5a2 2 0 0 1 1.2-.7c-.3.4-.6.6-1.2.7zm-3.3 1.9c0-.2.3-.4.6-.6 0 .3-.3.5-.6.6zm2.4-1c-.1-.2 0-.4.1-.5.2.2 0 .3-.1.5zm.5-.4c-.2-.3 0-.4.1-.6l.3.3-.4.3z" class="st31"/>
  <path d="m302.2 290.9-.3.8v.1c-.3.4-.7.6-1.3.5-.3-.3-.4-.5-.2-.8v-.2l1.8-.4zm6.8-4.3-.3.8v.1c-.2.1-.4.2-.8.1.2-.4.6-.7 1-1zm-1.3 1.4-.7-.2.6-.3.2.4-.1.1zm-5.3 2.9.1-.3v.2h-.1z" class="st29"/>
  <path d="m294.6 327.8 1.2 3.1.9 2.5c-.9-1-1.8-2.2-2.4-3.6a30 30 0 0 1 6.6-34.7c.4-.4.8-.6 1.3-.9-.3 1-.9 1.8-1.5 3l6.4-1.4-.3 3c0 .2-.2.3-.4.6-1.1.7-2.3.7-3.4.9a8.7 8.7 0 0 0-7.6 9V320c0 1.5 0 3 1.4 4.5 3 .4 6.3.5 9.7 1l.7.4.5 2.2-12.7-.3c-.2 0-.4-.1-.4 0z" class="st15"/>
  <path d="M293.8 332.5c-1.8-1.4-2.3-3.6-3-5.7a30.3 30.3 0 0 1 1.6-24.4c.7-1.3 1.6-2.5 2.6-3.8 0 .5 0 1.2-.3 1.7-6.2 9.7-6 19.7-1.6 30l.7 2.2zm3.4 4.8a38.9 38.9 0 0 1-3.5-4.5l.5-.2 3 4.7z" class="st32"/>
  <path d="M309 289.4c-.7 1.7-2.4 2.1-4 3 1.1-1 2.4-2 4-3zm-9 48.7c1.3-.1 1.8 1 2.5 2 0 .2-.1.3-.3.4-1 .1-1.5-.4-2-1.3a4 4 0 0 1-.3-1.1z" class="st15"/>
  <path d="M300.9 341.1a13 13 0 0 1-2.4-2c.4-.2.8-.2 1.3-.2h.2l1.2 1.7c0 .3-.1.4-.3.5zm-.7-48.6 1.6-.7c.2 1.3-1 1.5-2 2.1-.2 0-.3 0-.4-.2 0-.6.2-.8.8-1.2z" class="st32"/>
  <path d="M297.6 335.2c1.3-.1 1.5 1 2 2a6.3 6.3 0 0 1-2-2z" class="st15"/>
  <path d="M295.4 298.6a4 4 0 0 1 1-1.6 4 4 0 0 1-1 1.6z" class="st32"/>
  <path d="M296.6 333.8c.8-.3 1 .3 1 1a3 3 0 0 1-1-1zm8-41.5c0 .3-.3.6-.6 1 0-.4.2-.7.6-1z" class="st15"/>
  <path d="M298.1 338.2c-.3 0-.7-.2-1-.6.4 0 .7.3 1 .6zm-1.3-41.2c-.1-.2 0-.5.1-.8.2.2 0 .5-.1.9z" class="st32"/>
  <path d="M303.7 293.2c0 .2-.3.4-.7.6 0-.3.3-.5.7-.6z" class="st15"/>
  <path d="m307.8 288-.2-.4.9-.1c0 .2-.3.4-.7.6zm-10.5 8.2c-.1-.2 0-.4.1-.5.1.1 0 .3-.1.5zm.4-.5c0-.2 0-.3.2-.5.1.2 0 .3-.2.5zm.5-.5c0-.2 0-.3.2-.5 0 .2 0 .4-.2.5zm.5-.5c-.1-.1 0-.3.2-.5 0 .2 0 .4-.2.5z" class="st32"/>
  <path d="m302.7 293.8-.2.4c0-.1 0-.3.2-.4z" class="st15"/>
  <path d="m299.1 294.3-.1-.5c0-.1.1-.2.3-.2l.3.3c0 .2-.2.3-.5.4z" class="st32"/>
  <path d="M299.5 337.6c.2 0 .3 0 .5.2-.2 0-.3 0-.5-.2z" class="st15"/>
  <path d="M298.6 338.8c-.2 0-.4 0-.5-.2.1-.1.3 0 .5.1z" class="st32"/>
  <path d="M364.3 356.9c-1.3.7-2.6 1.2-4.1 1.7-8.7 1.5-17.3 2.2-25.9 1.8a88.8 88.8 0 0 1-22.7-4c-.7-1.2-.3-2.3.2-3.5 2.2-.2 4 .8 5.9 1.3a92.4 92.4 0 0 0 42.9 1.6l.1-.1c1-.4 2-.7 3.4-.7.2.6.2 1.1.2 1.9z" class="st29"/>
  <path d="m364.3 355-3.4.7c.7-1.3 2.3-1 3.7-1.5 0 .2 0 .4-.3.8zm5.4-3c.3-.3.7-.5 1.2-.7-.2.3-.6.5-1.2.7zm-2.8 1.4c.2-.3.6-.5 1.1-.7a2 2 0 0 1-1.1.7zm-1 .5c0-.3.3-.5.7-.6 0 .2-.3.4-.7.6zm2.4-1c0-.3.3-.5.7-.7 0 .3-.3.5-.7.7zm-3.3 1.4c0-.2.2-.4.6-.6 0 .3-.3.4-.7.6zm7.1-3.8c.1-.3.3-.4.7-.6 0 .3-.3.5-.7.6zm-2.8 1.9c-.2-.2-.3-.2-.3-.5h.5c0 .1 0 .3-.2.5zm1.9-1c0-.2 0-.3.2-.5 0 .2 0 .3-.2.5zm.5-.4c-.1-.2 0-.4.2-.6 0 .2 0 .4-.2.5zm1.4-1c0-.2 0-.4.2-.6.1.2 0 .4-.2.6z" class="st31"/>
  <path d="M284.4 329.2c0-2.1.3-4.4.5-6.7 0-.8.3-1.6.2-2.4-.4-3.5-.7-7-2-10.4l-1.8-4.3 1.3.3c.3 0 .4.2.6.4.1.8.1 1.6.4 2.2a34.2 34.2 0 0 1 2 16.2c-.2 1.6-.7 3.1-1.2 4.7z" class="st15"/>
  <path d="M283.3 306.2c-.3 0-.4-.1-.5-.3 2-2.4 4-5 7-6.4l-6.5 6.7zm9.3-9.2c-.6 1-1.5 1.7-2.5 2.5l1.2-2.1a2 2 0 0 1 1.3-.4zm6.1-3.8-5.7 4c0-.5.2-1 .5-1.3l5.1-3.8h.6c0 .5 0 .8-.5 1z" class="st32"/>
  <path d="m300.3 291.3.1.9v.1c-.2.3-.5.3-1 .2l-.5-.3a5 5 0 0 1 1.4-1zm60.2 64.3c-2.4.7-5 1.6-7.6 2a92 92 0 0 1-27.7-1.1c-4.4-.9-8.6-2.4-13-3.6-2.3.5-3.8-1-5.8-1.5a113 113 0 0 1-16.3-9.1c-.7-.5-1-1-1.2-1.7 0-.2 0-.3.3-.5 3.1 1.8 6.1 3.8 9.3 5.5a88.7 88.7 0 0 0 58.5 10.5l3.5-.5z" class="st32"/>
  <path d="m324.8 351.1.6 1.3a141 141 0 0 1-8-2c-.3-.5.1-.6.4-.8.3 0 .2-.3 0-.1-.2.3-.4 0-.6-.4 2.6.5 5 1.2 7.6 2z" class="st15"/>
  <path d="m317.3 349 .6.7-.5.6c-2-.7-3.8-1.4-5.7-2.3.8-1.7 1.8-.4 3-.1l.2.1.8.4h.1c.4.5.8.3 1.4.5z" class="st32"/>
  <path d="M314.8 347.8h-3.5c0-.2.1-.4 0-.4-.3-.2 0-.2-.1.2h-.5c-.6-.9-1.9-1-1.7-2.4 2 .8 3.9 1.6 5.8 2.6z" class="st15"/>
  <path d="M309.1 345c.5.8 1 1.5 1.4 2.4-1-.3-1.9-.8-3-1.4v-.5a2 2 0 0 1 1-.5h.5c.1.1.1.1.1 0z" class="st32"/>
  <path d="M283 333c-.5-1.3.2-2.4 1-3.6-.2 1.1-.5 2.4-1 3.7z" class="st15"/>
  <path d="m303.7 343.5-2-1.4c0-.2 0-.3.2-.5l.5-.2.6.2c.3 0 .4.2.7.4.2.2.3.2.4.5v.6c0 .3-.1.4-.4.4z" class="st32"/>
  <path d="m299 292.6 1.3-.4c-.1.5-.4.9-.8 1.3 0 .2-.3.2-.4.2-.1-.1-.2-.3-.5-.4 0-.3.2-.4.5-.8z" class="st29"/>
  <path d="M306.7 345.4a8 8 0 0 1-1.6-.8v-.6c1-.2 1.4 0 1.8.8 0 .3 0 .4-.2.6z" class="st32"/>
  <path d="M305 344.4a5 5 0 0 1-1.3-.8c-.1-.2 0-.3.1-.4l.5-.3c.3 0 .4 0 .6.2l.5.8-.3.5zm2.5 1.4-.9-.3.1-.4c.4-.3.7-.2 1 .3 0 .2 0 .3-.2.4zm3.7 1.9zm-9.8-6.1c-.3 0-.5-.1-.6-.4l.2-.4c.2 0 .3 0 .5.2.1.3.1.4-.1.6z" class="st32"/>
  <path d="M301.7 342c-.2 0-.3-.1-.4-.3 0-.2 0-.3.2-.5.2-.1.3-.1.4 0 .2.1.2.2.2.4l-.4.3z" class="st32"/>
  <path d="m289.9 341.7 10.4 6 5.8 2.9c.9 1.4.2 2.4-.7 3.5a71.5 71.5 0 0 1-17.8-9.3c.3-1.4 1.2-2.2 2.3-3z" class="st29"/>
  <path d="M305.4 354.4c.2-1.2.5-2.3.9-3.5a45 45 0 0 1 5.5 1.9l-.3 3.3c-2-.4-4-1-6-1.7zM290 341.5c-.7 1.1-1.5 2-2.3 3-1-.4-1.7-1-2.5-1.6a16 16 0 0 1 2.3-3c.4 0 .8.2 1.2.5l1.2 1.1z" class="st30"/>
  <path d="m334 298 7.5.1c7.7.4 15.1 2.1 22.1 5.4 2.1 1 3.2 2.5 3.2 4.9l.3 5.2c0 1.5-.3 3-.4 4.5l-1 7.6c0 .5-.4 1-.7 1.6h-5.7c-2.7 0-5.4-.3-8.1-.4h-2.9c-3.8-.3-6.6-1.7-8-5.6a28.8 28.8 0 0 0-4.8-9.3l-1.8-1.9c-.6-.5-.8-1.2-.8-1.8.2-3.4.2-6.7 1-10.2z" style="fill:#4a7d8b"/>
  <path d="M334 297.8c0 4-.2 7.9-.4 12a8 8 0 0 0-8.3 4c-1.1 2-2.5 4-3.2 6.1-1.6 4.4-5 5.7-9.2 6l-5.4.1h-.7c-1.9-2.7-2-5.8-2.2-8.8a81 81 0 0 1 .1-11c.3-1 .9-1.2 1.6-1.4a25.4 25.4 0 0 1 1.2-.2c-.5.1-1 .2-1.8-.1-.8-1.9-.2-3.5.4-5.3l.5-.2c9.1-1 18.1-2 27.3-1.2z" class="st17"/>
  <path d="M304.8 342.2a9 9 0 0 1 2 1.2c0 .2 0 .3-.2.5-.7 0-1.1-.3-1.7-.6v-.1c-.2-.1-.3-.3-.4-.6 0-.2.1-.3.3-.4z" class="st15"/>
  <path d="M302.9 340.7c.7.4 1.3.7 2 1.3l-.1.3c-.3.2-.5.2-.8 0h-.1c-.3-.3-.5-.3-.9-.5h-.1c-.2-.2-.3-.3-.3-.7 0-.2 0-.3.3-.4zm3.9 2.9c.5.1 1 .4 1.4.7 0 .3 0 .4-.2.6-.7 0-1.1-.3-1.4-1l.2-.3zm10.4 5.2c-.3 0-.8 0-1.3-.2.4 0 .8 0 1.3.2zm-1.4-.5c-.2 0-.5 0-.8-.2l.8.2z" class="st15"/>
  <path d="m309 345-.3.2c-.3 0-.5 0-.6-.3l.1-.3c.3 0 .6.1.9.4zm18 6.6c-.2.1-.3 0-.5-.1l.4.1zm-24.6-11.3c.3 0 .4 0 .5.3.1 0 0 .2 0 .2l-.4.2c-.2-.1-.2-.2-.3-.4l.3-.3z" class="st15"/>
  <path d="M306 299c0 1.7 0 3.3-.2 5-.7 1.3-1.8 1.4-2.9 1.8-.3 0-.4.2-.4.3l.2-.2c.9-.1 1.5-.7 2.5-.3v8.2c0 3.6.4 7.1 1.4 10.6l.1 1.4c-3.4 0-6.8-.3-10.2-.5-1.6-.8-1.7-2.5-1.7-4-.2-4.6 0-9.3 0-14 0-1.6.7-3 1.7-4 2-2.2 4.4-3.7 7.5-3.8.6 0 1.2-.3 2-.4zm-11.3 28.9-.4-.5.2-.2.3.4-.1.3z" class="st16"/>
  <path d="M302 340.4c.2.1.3.3.3.4.2.3.2.4-.2.5l-.4-.2-.5-.4c-.5-.5-.9-1-1.2-1.7l2 1.4z" class="st29"/>
  <path d="m308 344.7.5.4c-.1.2-.3.3-.7.4l-.9-.4-1.4-1c-.3-.2-.5-.4-.7-.8.5 0 1 .2 1.7.4l1.4 1zm-4.2-2.3h.7c.2.1.3.3.3.7h-.8l-.2-.7zm-1.8-1c0-.2.2-.3.3-.5h.4c.2.2.2.4.2.7l-.8.1-.1-.3zm1 .5c.2 0 .5 0 .8.2-.2 0-.5 0-.8-.2z" class="st7"/>
  <path d="M348.3 314.9c-.9-2.9.3-4 1.6-4.8 2.4-1.4 3.6-1.2 5.6.6.7 3.5 0 6.4-3.2 8.5-2.4-.4-3-2.4-4-4.3zm1.2-10.2-6.3.4c3-2.7 14.3-2.4 17.8.5l-11.5-.9zm-35.7 12.6c-2 1-3.5.5-4.7-.9-1.3-1.3-1.8-4.2-1-5.6 1.4-2.6 5-2.7 7.1-.5l1 1.7c.2 2.1-.7 3.8-2.4 5.3z" class="st34"/>
  <path d="m305.4 305.6-2.8.6c-.2 0-.3-.1-.3-.3l3.3-1.6a32.1 32.1 0 0 1 14.3-.3c.4 0 .7.4 1 .9-2.6.4-5-.6-7.6-.5-2.6.1-5.2.7-7.9 1.2z" class="st15"/>
  <path d="m302.3 305.8.1.3-.3-.1.2-.2z" class="st17"/>
</svg>
