<svg xmlns="http://www.w3.org/2000/svg" xml:space="preserve" id="Layer_1" width="1728" height="1728" x="0" y="0" style="enable-background:new 0 0 1728 1728" version="1.1"><style>.st0{stroke:#000;stroke-miterlimit:10}.st1{fill:#1a1b1d}.st2{fill:#212224}.st3{fill:#0f1010}.st4{fill:#282b2e}.st5{fill:#676d76}.st6{fill:#171819}.st7{fill:#0b0b0c}.st8{fill:#131314}.st9{fill:#5c626a}.st10{fill:#484c53}.st11{fill:#2e3236}.st12{fill:#6e747e}.st13{fill:#50555c}.st14{fill:#393c41}.st15{fill:#32353a}.st16{fill:#242528}.st17{fill:#3d4147}</style><path d="M234 469h5v4h-5zM891 523h944v1306H891z" class="st0"/><path d="M-17 22h1800v1848H-17z" class="st0"/><path d="M0-117h1752v1238H0z" class="st0"/><path d="m1561 730 1 8 1 4 1 2c-8 4-13 2-14-7-1-7-5-13-7-19-5-11-8-11-16-1 8 5 19 9 11 22 9 4 13 10 7 19-1 1 0 3 1 5 2 7 0 13-6 17-7 4-5 10-3 16 1 3 4 5 7 4 12-6 15 5 20 9 6 5-3 8-3 13 4 3 7-3 11-1l2 11v63l-1 7v4c-2 2-5 2-7 1-4-4-8-5-13-4-3 1-6-1-8-3-4-8-12-9-19-14 5 11 14 17 23 24-3 5-8 8-10 13-1 4-6 6-10 5-5 0-5-5-5-9-1-3-2-6-6-8-10-5-19-11-20-24-7-1-12 2-17 3-4 5 2 8-2 13-10 1-13-13-23-12 0 4 3 5 5 5 11 3 15 12 20 20 4 6 2 10-4 13-7 4-15 8-22-1 0 7 3 10 8 12 9 4 16 11 25 13 4 1 4 4 4 7l-2 13c0 3 0 6-4 6s-7-2-8-6c-3-11-5-14-17-13s-18-2-21-13c0-3-2-5-4-8v-4c-7-9-14-16-25-14-6 0-10 0-12-7v-8c-3-16-1-19 17-20-10-3-16-14-28-8-1 8 0 17-3 25-2 4 3 7 4 12 2 11 2 11-11 13l-3 2h-3c-10-1-17-5-16-16 0-3-2-5-5-4-5 13-17 20-26 29-6 5-13 6-20 4-11-4-22 1-34-1-6-1-12 0-19-2-3 7-10 12-3 21v6c-5 12-22 22-34 23s-23 3-29 15c-1 4-4 5-7 5l-16 3c5 6 10 12 9 21 6-8 8-8 14-1s12 9 19 4c2-2 5-3 7-2 10 4 18 9 28 12 4 1 2 6 0 9-8 11-8 11 2 18 3 1 5 3 4 6s-3 4-6 4h-19l-2 3c0 4 3 10-3 12s-12 0-16-5c-8-9-18-8-23 1-2 4-4 8-9 7-6 0-12-2-14-8-3-8-4-17-6-26l1-3c12-11 0-20-4-29 6 27-6 47-26 66 9-7 15-2 19 5 4 5 8 9 16 9 5 0 9 4 11 10 1 4 0 9-4 12-5 3-5 7-6 13-1 12-6 17-18 17-11 0-14 3-15 14-3 13-6 15-20 13l-35-3c-14-2-20 10-30 15-1 0-2 2-1 4 5 13-3 24-10 35 0 2-1 2-2 3-13 8-20-4-28-9l-35 19c-7 4-12 8-8 18 3 7 4 15 10 21 3 3 5 8 1 12-5 5-4 12-14 13-14 1-26-3-37-9 5 3 8 8 10 13 2 4 2 7-1 10-4 3-7 2-10-1-3-2-7-5-12-3h-8c-5 1-10 2-15 0-6-3-11 1-15 4-12 10-20 11-31 2-14-12-32-10-46-19l29 17c14 9 29 8 43 16 2 4 1 6-2 7-9 3-15 10-25 11-5 0-7 2-6 7 0 3 1 5-1 8-9 0-18 2-24 11l-8 4-17 3h-5c-7-8-16-14-26-17-8-4-20-4-19-18l2-3h6c4 2 3 8 10 8-2-6-7-4-9-8-3-4-5-8-3-12 10 0 17-5 16-10-1-6-4-12-7-17l-4-6c-4-5-6-10 5-13-9-3-13-6-11-14 2-7 6-12 15-12 9-1 18-1 25 8 1 2 4 5 8 5 3-1 2-4 2-6 1-14 15-23 27-18 9 5 18 4 27 5 3 1 4-2 6-4 7-7 11-16 19-22 2-2 3-5 2-8-3-9-1-13 7-12 13 1 20-9 30-13 4-2 5-6 5-9-1-7 2-10 8-11 6 0 9-3 12-8 5-8 14-9 22-11 4-1 6 2 5 6-1 3-4 4-5 9 5 5 10 4 15-1 5-6 3-10-1-15-4-3-12-5-9-11 4-7 11-2 16-2 5 1 11 2 15-3 8-9 15-16 28-9 1-6-2-6-5-7l-11-2c-14-6-14-9-5-19l3-4c4-5 8-6 10 0 2 4 4 7 9 8 7 1 9 7 12 13 2 5 5 9 12 8 7 0 8 4 5 10 5-7 11-7 16-3 10-7 14-15 9-26-2-5 4-9 4-14-16-8-18-13-13-25 4-9 10-6 17-2 3-11 9-13 18-9 3 1 7 2 10-2 0-3-4-4-6-6s-5-3-5-6c-1-18-12-34-5-53 1-5-1-9-4-13-2-2-5-5-3-9 3-3 7-3 10-3 4 0 7 2 10 3-4-2-4-6-6-9-4-10-7-10-17-7-13 4-28 3-34-12-3-8-3-10 7-13 6 1 9 4 12 7 6 5 8 4 14-3-6-4-14-4-20-10-6-8-16-9-24-14-4-3-9-5-7-11s-6-8-4-14c1-2 3-2 5-3 4 1 8 0 12-2 4-3 5-7 5-11v-3c1-7 8-17 12-17 8 1 10 8 13 13l4 12c4 9 7 18 17 22l2 2c3 3 3 8 6 11h2l21-4c-6-10-7-20-14-29-8-8-4-18-7-28-1-2 3-4 5-5 4-1 8 1 9 4 1 12 10 19 14 29 4 11 8 11 17 5 10-7 21-7 31-2l17 7c6 5 9 6 16 0 10-7 23-9 36-6-1-7 2-13 2-21 0-6 12-15 21-16 7 0 9 8 11 13 3 8-2 13-10 16 6 5 5 11 4 19 8-6 14-7 20-1 5-4 4-8 6-12 2-8 6-11 15-9 11 3 22 4 29-8 4-5 10-3 15-1 3-5 0-7-2-10-5-5-6-11-3-17 2-5 8-2 12-3l10-1v-3c-9-13-9-13 5-18 8-3 15-4 20-10 5-5 12-2 18 2 10 6 20 0 29 4l2-5c-5-3-9-7-4-13 4-5 9-4 14-2 12 5 13 5 19-7 3-9 9-15 14-24 1-3 5-6 10-5s6 5 5 9l1 4c8 3 7 11 8 18l4 3c-2-5-2-10 0-16 4-7-5-18-14-21-12-4-13-6-7-16 2-5 2-7-3-10l-16-12c-9-5-12-14-15-23-2-8 6-9 12-9 7 0 15 2 22-1 2-1 4-1 6-4-6-9-15-17-22-24-3-3-11-3-13 5-1 4-5 5-10 5l-5-2c-3-6-8-8-14-8-11-7-21-13-25-26-1-3-1-5-4-4-3 0-6 0-9-2-3-9 1-18-5-26-2-11 8-4 11-8-1-5-9-4-8-10 0-4 4-6 7-8-4-1-10-2-8-8 1-8 7-9 14-9-5 0-11 0-17-2-3-1-7-3-6-7 1-5 6-5 9-3 4 2 8 0 12 0 18-1 28 12 42 19 6 3 6 11 8 18 3 10 2 21 2 32 1 4-1 12 6 11 6-1 12-6 11-13-1-8 1-16 5-23l4-2 2 1c1 10 4 18 17 20 4 0 2 5-2 7-3 2-7 4-8 8-2 4-2 7 4 9l7 2 4 1 2 1c3 2 9 3 7 8s-7 1-11 1l-2 1c3 4 9 6 8 13 0 2-2 2-1 3l1-1c16 1 15 1 18 15 2 6 6 8 11 7 3 0 6-2 9 0l1 1c1 7 0 15 5 22l2 8c-1 2-2 4 1 7l1 1z" class="st1"/><path d="m1048 952-11 2 11 18 16 3 6-1 13-6c4 6 12 9 11 17l7 6c1 1-2 4-4 8-5-10-12-9-21-7l7 9c3 4 4 8 2 13-2 9-3 18 1 28 2 6 7 12 4 20-1 2 1 5 3 6l12 9c-5 6-11 8-19 6-10-4-11-3-11 8-6 3-9-1-14-5l-5 6-2 13c1 3 5 5 8 6l11 2-4 8-4 6c1 4 3 8 3 13 1 5 1 9-6 12-2 1-3 6-5 10l-4-2c-7-6-7-6-12 0-4 4-7 5-10 0l9-8h-9c-5 2-8-1-10-6l-8-14-13-4c-3-2 1-9-6-10l-3 9c-2 2-10 0-9 7 9 7 19 9 31 9l-3 13-1 1c-12-7-17-7-25 4-5 7-11 8-19 6l-14-2c-2 5 3 6 5 8 6 3 10 8 10 15l-7 8c-5 5-7 5-14 1-7-3-7-5 0-11l3-5-1-2c-3 1-7 1-10 3-2 3-4 4-8 4-6 0-6 6-5 11l-19 4-1 5c1 8 0 11-7 15l-13 8c-4 3-7 5-12 3s-9 0-13 5l7 9c-12 10-21 21-28 35-5-2-10-3-17-2-5 0-11-2-15-5-7-5-12-1-18 3-5 3-9 7-6 15 2 4-1 7-5 9l-15-14-5-3h-9c-13 0-16 3-17 18l13 5c-3 4-3 4-11 6l6 10c3 4 7 7 7 12 0 3 3 5 6 8l-13 18-8-8 2 13h-6c-4 0-6-3-10-3-2 0-5 1-5 4 4 20-9 23-23 26l-3 1-6 18c-2 4-4 6-9 7-16 3-16 3-20-18-10 1-21 0-30 8-4 3-8 0-11-2-5-4-9-5-14-1-3 3-7 2-11 2-10 1-12 4-7 13 4 7 2 10-6 11-14 1-18 13-11 24 5 7 12 15 10 26l-64-36c-10-13-10-15 6-21 4-2 6-4 5-8 0-5-4-7-8-6h-16c-14-3-28-6-34-24l-1-3 5-4-4-1-3-3c-1-13 0-14 12-11 6-11 11-24 27-24v-12l1-4c8-4 8 1 9 7 1 3-2 8 5 11 7-2 14-1 19-8 8-2 11 4 11 10 1 7 4 11 9 13 10 5 21 4 32 1-12 1-20-10-32-9-3 0-5-9 0-11 9-4 17-14 29-10 9 3 15 7 16 16 1-8-4-12-10-14-15-4-22-17-32-28-3-3-5-7 0-11 4-3 9-3 12 3 3 4 6 6 11 5 5-2 3-7 3-10v-10c0-20 13-32 32-30 3-5-1-13 7-17h-13l-10-5c-4-6-13-8-14-17l1-5c10-3 16-1 24 8 2 3 4 8 8 6 5-2 10-5 12-11v-5c-11-4-12-17-21-23 0-12 6-8 12-5 4 5 9 7 15 3l5 1 8 6c11 7 11 10 2 19l9 15c1 1 4 3 4 5-1 16 12 20 23 26 6 4 12 6 14 14 1 4 4 7 10 6-2-7-5-14-5-22 0-2-2-3-5-3l-4 1c-6 2-12 1-13-7 0-7 6-8 12-8 5 0 9 0 14-2 3-1 5-2 6-6 0-4-3-5-6-6-7-2-10-8-10-15-6 0-8 3-11 6-6 4-10 3-11-4-1-6-2-10-8-12-3-2-3-5-4-8 0-6-3-12-5-19l-1-4c3-9 9-15 9-25 0-7 8-7 16-4l2 2c2 5-3 9-3 13 2 3 5 3 7 4 6 3 9 8 7 16-2 4-5 9-1 15 17-8 26 0 35 14 7 11 14 10 20-1s10-21 10-33c0-5 0-10-4-14-2-2-5-5-3-9 3-4 7-2 11-1 1 1 3 2 5 1-8-10-4-22-5-33-1-7 3-13 12-15l2 1c5 5 0 12 6 17l1 2c2 6 5 10 10 12 8 2 9 8 6 14-4 8-6 15 1 22 4 5 1 10-3 13-3 4-5 10-11 8-5-2-8-7-8-12 0-4 1-9-1-14l-4 12c-2 6-1 11 6 13 10 3 10 12 12 20 1 7-6 4-11 5 4 2 6 1 9 1 3-1 6 0 8 3 1 4-1 6-4 8-7 5-5 11-1 16 6 7 13 13 17 20-1-5-8-8-7-14s0-12-3-18c0-1 0-3 2-5h6c2 2 2 5 5 6 2-4-1-6-2-8-6-7-10-14-3-22v-8c-4-12-3-25-6-37-1-4-2-9 2-13 5-3 8 1 12 2 9 4 17 7 27 13-2-7-3-12 0-19 5-7-4-13-16-11l-4-3c-2-6-5-12 0-16 5-5 11-5 18-3 11 3 23 1 34-1l25-5c5-1 8 1 13-2 7 0 7 4 5 8-5 11 2 17 10 24 2-5-2-8-3-12-2-7 0-12 8-10 8 1 13-2 19-6 8-5 18-6 26-10 5-3 9 0 11 5s3 10 9 11l1-6c5-4 7 0 9 3 6 10 14 11 22 4 4-3 3-8-3-11-3-2-7-1-10-1-8 0-14-2-14-13 8-1 10-5 8-13-2-5-4-10-8-14-3-3-6-6-7-11-1-4 0-7 4-9s7-1 10 2c2 3 3 7 8 8 10-8 10-8 16-30-6-3-11-7-14-14-2-4-5-8 1-11 2-2 2-4 2-7-3-12-4-23-16-31-6-4-11-13-15-21 2-4 4-7 8-9 4-1 7 2 10 2 6-6-4-11 1-16l5-1 3 3 7 13-3 8 3 2 25 11c2 0 2 2 3 4-1 5-2 8-5 11z" class="st2"/><path d="m789 1399 8-3c13 2 22-5 34-6 9-1 17 1 23 9 1 1 2 2 5 2 6-5 6-13 6-19-2-13 4-18 15-22 4-1 8-1 9 4 2 10 8 11 16 10 7 0 14-1 19 4 3 2 6 1 10-1l3-1c3 7 4 16 15 13 4-1 6 3 7 7s4 8 9 10c2-6 0-9-5-11-3-2-7-3-6-7s5-6 8-6c8 0 15-1 20-9 3-4 8-1 11 2 4 3 8 6 13 6 3 0 6 0 8-3 1-3 0-5-2-7-3-3-5-7-6-12-3-9 5-18 13-14 8 3 14 0 21-3-6-1-15 1-16-7-2-8 0-15 8-19 3-1 5-4 4-7-1-9 5-12 11-15 11-7 23-13 30-25 3-5 15-7 20-4 7 5 5 12 3 18-2 3-5 5-6 9 0 3 1 5 4 5 2 0 4-2 4-4-6-13 6-21 9-32 2-5 2-9-2-13-3-3-6-7-7-12-1-6 1-9 7-7 9 4 17 5 27-2 6-5 10 3 10 9 2 11 9 20 13 30 8 17 23 20 38 22 9 1 19-2 28-3 3 0 5-2 6-5-4-5-12-6-15-12-3-5-6-9-2-14 5-5 10-3 14 1 7 6 13 7 21 1 5-3 10-2 14 3 6 7 16 8 23 11 2 1 5 0 8-2-5-9-8-19-14-27-2-3-4-7-2-11 1-3 5-8 0-11-5-4-10-6-16-4-3 1-5 3-6 2-4 0-4-2-5-4-3-11-6-23-17-29-4-2-6-6-4-11 2-6 4-12 11-13s12 3 11 12c0 4-1 7 4 9 4 1 6-3 7-6 0-3-2-3-4-5-3-4-1-8 1-11 3-4 7-3 11-1 7 3 10 9 11 17v12c4-1 4-3 4-5 1-5 1-10 7-11 6 0 12 2 16 7 1 1 0 3 3 4 12 4 13 7 7 17 0 2-2 3-1 6 5 4 11 5 17 5 7 0 13-2 19 4 3 4 7-1 8-4l6-27c2-6-3-13-8-18-5-4-6-10-7-16-1-7 3-10 9-6 9 6 21 9 23 22 1 5 7 7 11 4 5-2 1-6-1-10l-1-1c-3-7-15-14-6-22 6-5 9-15 20-14l3-2c3-10 13-12 19-19 3-3 5-5 10-4l12-1c7-1 13 1 18 7 4 5 8 7 13 0 4-4 10-7 15-8 12-3 16 0 17 12 0 6 4 10 6 16l-8 21c-11 4-15 2-20-8s-12-12-22-5c0 3 3 4 5 6 3 1 5 2 7 5l21 19c-6 15-13 28-20 42-8 6-13 2-20 0-12-6-25-10-37-1-4 3-8 1-12 0-8-2-16-3-25 0 10 9 8 21 12 32 4 10 3 12-7 15-18 6-25 3-35-15-4 10-1 18 10 20 9 2 17 6 28 4 7-2 16 5 25 7 4 0 3 5 3 9-1 4-1 8-6 9-4 1-6-2-7-4s-2-3-4-3c5 7 10 14 8 24l-5 8-1 1-1 2-1 1-1 1-49 52-20 1c-7 0-13-10-8-14 8-8 5-19 14-26-8 5-15 1-22 0 0 6 5 7 8 11 1 3 3 7 1 10-3 4-7 2-10 1-7-3-14-8-20-12s-12-7-19-8c-6 0-10-3-6-10 3-5-1-7-7-12 1 15-3 23-17 22-6-1-12-4-12-13-9 7-14-1-19-5-5 2-5 6-6 9-6 20-19 26-37 17-4-2-7-4-11-3-10 4-17 0-25-6-9-7-14-5-16 6-1 8-4 14-13 14l-8 5c-7 7-12 7-19-1-2-2-4-4-7-3-4 2-4 5-4 8 0 21-9 30-29 31-10 1-14 7-10 15 4 9 0 18-8 21-7 4-14 9-24 6-4-1-7 2-8 6-5 10-10 12-20 8-14-5-28-8-32-24-13 0-23 6-31 14 7 2 7 3 13-3 3-4 7-8 12-4 6 5 13 10 12 19-1 5-5 8-11 7-4-1-8-2-12 0l12 3c5 2 7 5 6 10s-5 5-9 4-7-1-12 2c9 4 10 11 10 19 0 6 2 12 5 17l6 15c3 10 11 15 18 20 3 2 7-1 10-3 9-6 21-3 26 7-23 4-45 8-67 10-49 4-98 2-147-4l-5-2c-7-11 5-10 9-15 1-8-5-12-11-16-4-3-10-5-7-10 3-6 8-1 12 1 7 3 13 11 22 3-2-3-5-2-7-2-21-3-32-18-29-38 2-9-2-15-12-21-5-2-10-5-8-11 2-7 8-7 13-7l10 1c2 2 4 4 8 5 10-12 15-11 25 2 7 9 11 11 19 7 7-4 9-12 5-19-8-11-30-16-42-10-13 8-21 7-30-1-3-4-6-7-4-12 1-5 6-5 11-5h4l4 1c2 2 2 9 8 7 5-1 3-7 5-11z" class="st3"/><path d="m658 1161 1 2-6 11c-1 3-3 4-7 4-3-1-4-4-4-6 2-9-2-18-2-27 0-5-3-7-9-7 2 8 2 15-1 22-1 4 1 7 4 10 3 2 5 5 4 10l-6 1c-5 0-8 1-13-2l-8-4c-4-1-5 1-5 5-10 7-12-4-16-8-3 1-1 3-1 5l-4 5c-3 0-5-2-6-5-2-7-3-13-14-12-4 0-2-8-8-10-5 9-13 17-13 29 0 7-1 17-9 16-8 0-6-10-7-16-1-4 2-8 4-11-3-4-5-9-9-13-4 9-12 9-18 9 13 6 16 20 25 33 8 3 14 13 12 26-16-12-33-21-48-32-2-2 0-5-1-7-6 0-7 5-10 9-2 1-4 0-5 2l4 1c5 3 10 2 15 2 9 0 16 5 21 12 5 6 4 10-3 13-4 2-9 2-11 6 0 6 13 8 5 17l-3 1c-6-1-10-5-15-6-3 4 0 7 2 8 8 4 11 10 12 18l5 4c4 7 5 13-2 19l-2 1c-7 2-12-1-17-3-3-2-6-3-9 0-2 2-2 5-1 9 2 3 7 7 1 10-5 4-10 1-14-3-8-9-24-7-26 5-2 15-11 23-25 28-6 2-10 1-13-4-2-5 1-8 5-11 15-13 16-19 6-32-4 3-9 5-14 3-6-2-10 2-14 5-5 4-1 8 3 9 10 0 11 5 11 13l3 16c2 10 0 11-12 9-21-20-39-42-57-65 8-9 12-20 23-26l2-1c3-10 8-16 19-13 3 1 4-3 5-6 3-9-6-22-15-22s-13-4-18-11c-11-16-15-16-32-8-6 3-13 5-19 2-3-2-5-3-5-7 0-3 2-3 5-4 11-3 20-9 30-15l21-14c9-5 13-2 15 7 0 4 1 8 5 9 9 4 16 9 16 20 0 2 2 3 4 4 15-14 33-2 49-8-2-7-7-11-15-12-6 0-12-1-14-9-1-6-6-7-11-7-8 0-14-5-20-9-3-3-5-6-4-10s5-4 8-4c2 0 5 0 6-2 5-9 11-12 21-7 0-8-6-9-9-14-2 4-1 10-6 9-7-2-10-7-9-13 1-7 2-12-3-18-5-5 3-7 7-11-9-7-16-15-13-28l1-3c0-11 0-11-16-11 3 6 1 11 0 16-1 4 0 10-7 8-9-1-16-8-15-13 2-16 1-18-15-19-5-1-8-3-9-8-1-4 1-8 6-8-1-4-6-5-5-10l2-4c5-2 8 0 11 2s5 7 10 6c2-8-12-23 11-22-8-9 1-14 3-22-5 0-6 9-12 5l-9-10-3-4c-6-5-10-11-1-18l1-6c0-5-2-10-1-15 2-4 4-4 8-5l12-1c3-1 6 0 6 4-1 6-2 12-6 17 1 4 5 4 7 6l6 7c6 4 12 7 19 7l3 1c2 2 2 8 7 4l4-1h7c-1-7-4-14 1-22 6-2 6-8 8-13 3-4 1-6-1-9-2-4-2-8 0-14 6-1 10 2 14 6 1 3 1 5 4 5l4 1c7 5 7 9-1 12-3 2-6 2-5 6 0 3 2 5 5 5 5 1 11 2 10 9-1 5-5 9-11 9l-3 1c-1 4 2 6 3 8 4 5 3 9-1 12-4 4-7 4-11 0-1-1-3-3-5-3-4-1-10-4-13 1-2 4-2 12 3 14 12 5 13 17 17 28 1 2 1 4 3 5 3-3 0-5 1-8 0-3 3-6 5-4 5 6 14 7 19 13 4 6 4 11 1 17 1 4 7 4 7 10-8 6-18 1-27 2 1 15-3 27-14 36-5 5-1 11-2 16 3 1 5 0 6-1 6-4 9-3 11 4 3 9 12 16 5 28 7-3 7-3 10-13h18c3-1 5 1 6 4 8 16 15 20 32 18-2-6-6-9-13-6-4 2-8 1-11-3-3-2-5-5-4-9s5-5 8-5c15-3 30-7 43 4h5c-7-4-8-11-10-17-2-7-5-12-13-8-7 3-13 1-14-8 0-4-2-8-6-10-6-5-9-12-9-20-1-9-4-15-13-17-10-3-13-9-10-16 2-8 12-12 20-9 14 6 26 15 38 25 8 8-1 15-3 21-3 7-9 1-14 0 3 7 15 7 12 18 7-2 13-1 16 5 4 10 12 15 22 21-6-9-6-16 2-23 5-5 5-15 7-22 2-6 4-10 10-9 6 0 7 5 7 10 0 10 6 17 14 23 3 3 9 4 8 9 0 7-7 3-10 7 4 5 7-2 11 0 3 2 2 7 3 11 5-6 6-12 7-18 1-3 2-6 5-6 4 0 7 3 7 6 0 7 5 8 10 10 3-5 0-13 7-16-13-4-13-4-11-15-6-2-13-4-17-10-1-2-2-5 0-7 2-3 4-1 7-1 14 1 24 12 36 17 7 3 10 9 15 15 5-7 13-7 20-10 4-2 8 0 10 4 3 7 9 8 15 9 8-10 9-22 15-32 2-2 0-7-1-10-3-7-3-16-5-23-2-6 2-10 7-14l3-1c5 4 11 2 16 0 5 5 5 10 2 15-3 7-5 13-3 20 1 4-2 7-4 10 11-3 11-3 6-13-2-6 2-11 8-13 4-1 7 1 10 1 2-5 4-10 8-13-3-8-21-4-12-19 3-3 7-2 11-5 3-2 8-2 10-6-2-5-7-3-10-5-3-1-7-3-7-7s3-7 7-8c8-3 17-3 25-2 3 0 6 1 7 4 3 8 9 13 18 13l6 3c1-5 2-8-1-13-4-9-2-11 8-15-4-12 5-17 13-22 6-3 11 0 12 7l1 13c0 7 4 8 9 8 17-1 21 2 25 19 1 4 2 8 5 12 3 3 5 8 7 13 11-7 20-4 29 5 2 2 4 6 3 8-6 9-3 19-7 29-1 3-1 9-6 10s-7-4-9-8c-3-4-7-8-14-8l22 18c7 5 10 10 7 18-1 4-3 8-8 7-4 0-5-4-5-8 0-2 1-4-3-5-1 4 3 9 0 13-1 7-5 5-10 3-7-6-18-4-19-14-4-1-5 0-6 1-8 6-14 4-16-6-1-6-1-13-6-18-11 2-15 17-28 14 0 4 2 5 4 7 4 4 6 8 1 13-6 5-12 4-17-2-5-7-16-9-24-4 0 5 5 7 8 11 8 10 5 16-8 18-3 1-6 2-9 0-4-6 0-12-5-17-3-3-5-8-11-8h-4c-14-9-18 2-23 11 8 5 13 14 16 25 0 3-1 5-3 7-7 4-12-1-16-6 3 10 3 10-12 20 0 5 3 10 1 15-3 7-7 9-12 3-4-5-8-6-14-5-8 1-9-4-10-10 0-5-1-9-7-12-5-3-7-7-6-12s-1-10-8-15c5 11-1 15-6 22-5 5-14 13-6 24l2 7z" class="st4"/><path d="m335 447 27-35c5-1 9-3 9-10l50-49 23-21c6-2 7 1 7 5 0 3-3 5-3 9 7 7 11 7 19 1 3-3 7-4 11-5 7-2 13-5 14-14l3-7c4-7 8-9 14-3 1 2 3 4 5 2 0-17 8-28 18-24 1-4-1-9 4-11 4-2 7 2 10 4l11 7c1 1 3 2 5 1 2-4-1-7-3-11-2-3-5-6-1-9s7-1 10 1l7 5c-1-6-1-12-7-16s-3-9-1-15h1c3-1 6-2 8 2 2 5 7 6 11 9 7 6 12 13 22 11-1 8-6 8-9 9-5 2-8 3-8 9 0 4 3 8 8 8 3-1 2-4 2-6 0-3 0-7 5-8 4 0 9 1 10 5 1 9 10 18 4 29-8 14-16 16-26 4-5-5-9-9-17-4 10 8 6 19 5 29 9-1 16-1 23 4 3 2 6 4 7 8 7 13 8 13 24 11 3-4 0-8 1-12 1-2 2-5 6-5 3-1 4 2 5 4 1 6 5 7 11 8 8 1 14 7 20 13 2 2 0 5-1 7 6-3 11-6 16 1 2 3 5 2 8 1 7-2 13-3 13 7 8 0 10-3 8-10l-12-22c-5-1-14 6-12-7-6-2-14 0-16-9-2-10 7-15 14-21-11-1-13-9-17-17-2-5-2-9 5-11 4-1 4-5 5-8 0-9 4-11 11-6l10 10c6 7 6 12 0 20 9 1 19 3 27-5 2-3 5-3 8 0 2 2 2 4 1 7s-4 4-4 6c0 3 3 6 2 10 3-1 6-3 9 0 2 2 3 4 2 7-2 5-7 11-3 15 4 5 12 5 17 8h5c7 3 5 8 2 12-3 3-6 5-7 11 9-1 15 3 20 9 4 5 11 4 17 6 3 2 8 2 8 9-20 6-2 19-6 29 3-5 1-10 0-15-2-4-1-8 3-10 4-3 8 0 11 3l7 14c18-5 24-2 26 17 2 8 7 10 14 13 3 1 8 0 8 5 1 5-4 6-7 9-4 2-9 3-12 9 7 1 12 4 15 10 1 2 4 2 7 3 2 0 5 2 6-1 2-3 0-5-2-8-3-4-11-5-10-11 1-5 6-10 9-14s2-9 6-13c2-3-2-7-6-8-6-2-10-6-8-12 2-7 8-7 14-6 22 4 33 21 44 38 1 2 2 4 0 6-3 2-6 2-9 0-5-2-10-9-13-1-5 7-17 13-10 25 2 2 1 4 0 7-7 10-8 20-2 31 3 5 2 9-4 13h-3c-2-2-4-4-8-3l-2-1c-2-5-3-10-2-15 2-9-1-12-10-12-3 1-5 0-7-2-5-7-12-9-19-9-7-1-9-4-10-10l-1-7c-5-7-5-14 0-17-4 9-17 12-22 24l11 10c6 4 8 10 5 15-4 7-9 4-14 1-3-1-5-3-8-2-6 3-11 4-16-3-6 5-11 12-19 8-3 3-1 6-2 9 0 5-4 10-9 9h-24c-5 0-8-3-8-7 0-8 4-16 5-24 0-3 3-4 5-3 13 5 26-1 39 1 2-3 1-8 3-11-4 6-9 12-17 5-4-3-6-2-9 1-6 5-12 4-16-1-9-11-22-5-32-13-2 13-4 14-15 12-7-1-15-4-22-7-3-2-7-3-6-8 2-3 5-3 8-2 2 0 5 1 6-1-2-13-8-16-17-8-4 3-8 0-12 1s-9-1-13 1c-2 5 1 8 5 11 3-1 2-4 3-6s2-5 6-5c3 1 4 3 4 5l2 6c8 11 8 19-1 32-6-1-6-7-11-10l-4-5c-8-9-16-18-18-31-8 0-12 6-17 10-3 3-6 6-10 3-15-10-24 1-33 9l-2 3c-4 6-13-3-16 3-3 8-7 8-14 5-3-2-6-1-9 1-7 6-12 2-17-3-5-6-8-13-15-17-6-3-8-22-5-28 5-10 2-22 4-33 1-4-3-8-7-10-4 0-5 2-6 4-9 11-19 12-30 2-7-7-15-7-23-5-14 3-15 3-21-10-3 5-7 9-11 12 0 5 2 8 7 8 13-1 24 6 37 8 3 0 5 1 6 4 0 3-2 6-4 7-4 3-9 4-9 9 5 6 7 19 3 26-5 7-12 3-18 4-11 1-21-1-31-3-2-1-4 1-7 2-14 7-26 0-28-17 0-8-3-14-11-18z" class="st5"/><path d="m1437 938 11 19 25 2c7 1 10 3 8 10s1 7 6 8l2-20-14-6c-6-3-10-10-18-10l-4-6-4-11c5-2 7 2 9 4 4 4 8 5 13 1l11-5c-4-7-7-14-12-20-3-4-9-4-14-6-4-3-7-6-5-11 12-1 18 9 27 15l1-1c-1-4-3-7-6-11l26-9 2 8c1 6 3 11 9 14 4 2 8 6 13 7 1 0 3 3 3 6v10c12-2 12-2 14-14h6l-26-25 3-5 18 8 4 5 5 7 10-4 12 8 1 6v4l-1 8-1 8c-2 31-7 60-14 90l-9 34-13-12c4-5 11-10 5-18-6-6-11-7-17-2-6 6-13 4-19 3-10-2-17 0-20 10-2 7-6 7-10 2s-10-6-16-6c-7-1-8 3-6 8l6 9c1 4 2 8-2 11-3 2-6 1-10 0-5-2-5-11-14-8-6 2-8-7-14-8-5 7-3 14 1 21 3 5 9 9 1 14-15 9-14 9-21 0l-4-5c4 12 7 25 8 38 1 6-10 15-15 14-1 0-3 0-4-2-3-5-2-12-4-18-4-7 1-12 7-14-1-5-5-6-7-5-9 6-21 7-28 16-2 3-2 5-1 8 4 8 0 17 0 25 0 3-1 7-5 7s-8-3-7-7c1-9-8-18-2-28 2-3-1-6-2-9-6-7-9-16-14-25-2-3-2-6-2-10 1-3 2-5 5-6 3 0 5 2 6 5 2 6 4 11 15 9-18-17-31-35-45-50 2 9 2 9 8 16 2 3 6 6 4 10-3 4-7 2-11 1h-3c-2 4-4 8 2 10 7 2 13 5 9 13-4 7-11 4-17 2l-8-6c-4 3-8 9-14 3-8 10-15 20-20 32 4 2 11 1 10 8-1 6-6 5-11 7-3 1-7 0-9 3v3c8 14 8 14-2 26-3 4-6 7-8 12 0 4-3 6-6 6-4 0-5-2-6-5-2-4-5-8-9-11-11-9-15-9-26 1v1c-11 5-21 12-29 21-2 3-6 3-10 2-5 0-9 1-12 6 4 4 8 2 12 0 5-4 9-3 13 1 7 7 16 12 20 21 2 5 7 8 2 13-4 4-10 8-16 4-5-2-8-3-13-1-6 2-9-3-13-5l-3 1c-16 18-21 8-31-8-5-7-9-8-13-3-6 7-12 7-20 6-2-1-4-1-6 2 7 3 14 5 19 9 4 3 7 6 8 10 2 4 3 8 0 12-4 3-7 2-11 1-7-2-14-4-20-9-7-5-14-4-22 4-4 3-6 8-14 7l4-12c9-9 8-19 2-30l14-7c1-5 4-8 11-9 9-2 18-2 27 0h15l14 3c6-2 9-7 8-15s6-10 10-15l7 2c10 1 16-4 17-14v-7c0-4 0-7 5-9s6-6 5-11c-2-4-7-8-12-7-6 2-8 0-11-5l-7-9c-4-5-6-5-11 0l-5 5c-2-8-1-12 4-16 8-6 13-13 17-21 6-9 5-19 6-29 0-3-3-6-6-10 2-4 5-5 8-1l12 21c2 3 1 6-3 8-6 3-5 7-3 12l3 11c1 13 4 16 18 16 0-6 2-11 10-14 11-4 12-4 19 7 1 1 3 3 5 3l10 2-1-18c10 1 19 3 29 1-1-5-4-5-6-6l-9-5c-2-4-2-8 2-11l10-9-6-3h-12c-3-1-4-7-7-9s-7-1-12 1c-9 7-13 6-20-4l-3-3-5-3v9c-8 1-11-1-9-5 3-7-2-11-4-15l-8-9 27-2 1-6 3-5c10-2 18-12 29-9 8 2 15 0 19-8 2-4 6-7 9-10 5-4 5-6 0-10-4-3-3-5-1-9l7-13 3-1c10 5 22 3 33 4l7-1h12c3 1 8 4 10 2 6-2 11-5 15-10 9-10 9-10 17-14l-4-10h16v6c-1 10-1 10 8 14l4 2c3 1 3 4 5 3v-4l4-4 8 2-1-8c4-4 8-8 14-6 0 7 3 7 9 6 7-1 15-2 20 7 1 3 6 3 9 4 2 2 3 3-1 5-3 2-6-1-9 1 2 3 5 1 8 3z" class="st6"/><path d="M1003 1547c-4-10-14-6-21-9l-5 4c-5 5-11 6-16 0-3-4-6-8-11-11-2-1-3-7-4-11l-4-9c-3-7-6-14-6-21-1-9-2-15-12-17l-1-3c3-2 7-5 11-5 4-1 8 2 12 3 2-8 2-9-5-11-6-1-12-1-18-5 9-5 16-5 23-2 8-7 8-8 2-15l-10-10c-4 5-7 10-12 12-4 2-10 1-17 2 3-4 3-7 5-8 5-4 11-6 15-12 2-2 8-1 13-1l3-6 3 1 4 10c7 14 22 15 34 19 6 2 8 0 11-7 2-9 6-11 14-9 5 1 9 3 12-3l3-1c11 0 12-7 14-16-5-3-7-7-4-14 4-6 7-8 15-8 12 2 25-8 26-21l-1-16 11-3 9 11c11-2 11-2 17-11 13 3 14-1 15-20l12-5 16 11c4 3 9 4 13 1 3-2 6-2 9 0l21 9 7-7c6-3 9-8 10-15 1-6 3-11 10-13 10 12 10 12 19 5 2 5 2 5 1 10 11 8 12 8 24 0 2-5-5-13 6-16l11 12-7 5c0 5 4 6 8 5 6 0 10 2 15 6l25 14 5 1c1-7-2-10-7-13-6-4-5-6-1-13 4 2 9 5 14 5 4 0 8-4 12-6 3 5 1 7-2 9-5 5-8 10-5 17-3 3-8 5-9 8s2 6 2 8l23 3v1l-2 2-9 9-2 1v1l-2 1-10 10c-9 4-15 0-20-5-5-4-10-7-17-6-6 1-11-3-18-3 8 8 16 12 27 13 7 0 13 2 19 7l-31 26a690 690 0 0 1-292 125z" class="st7"/><path d="m1024 1248 9-6 13-9c6-3 13-1 16 3 4 5 8 6 14 7l3 1c3 0 7 4 11 0 2-2-1-13-4-14-7-4-11-12-21-10-3 1-6-3-5-6 1-2 5-5 7-5l16 3c1-8 7-10 13-12 5-1 8 1 8 5 0 9 9 12 12 19 1 1 7 1 10-1s5-6 8-11l7 5c7 5 8 5 14-2l5 3 5 6 15-8c-7-15-19-23-30-34-5 6-10 9-17 7-2-1-5-2-5-4s1-5 3-6c5-2 9-6 15-3 5 2 12-2 14-9 3-7 7-10 14-10 2 0 6-3 8-5 8-10 16-13 27-2 5 5 12 9 12 18 3-1 7-2 7-4 1-12 12-17 17-27-1-6-11-9-9-18l18-4c5-1 5-3 3-8l-11 2 4-12c6-6 6-16 14-21 3-2 3-7 5-12l7 10 7-12 4 4c2 6 8 7 13 9 4 1 8-1 8-5 0-2-3-6-5-7l-11-2 3-17 14 6c3-6 0-7-3-9-8-6-11-18-7-29 1 2 3 3 3 5 0 10 6 13 14 15 3 13 3 13 20 23l-2 7c11 3 12 4 12 14-13 3-15 0-20-15l-3 1c-1 4-2 9-1 11 7 7 7 18 14 25l6 9-2 5c-4 5-5 8 0 12 3 3 1 6 1 9-1 5 0 9 7 9 1-12 5-24-2-34l10-13c2-1 4-3 6-2 5 2 7-1 10-4s5-6 10-5c5 2 10 3 10 10l-1 1c-11 4-11 4-7 15l2 15c8 1 10-7 16-10-2-5-5-9-3-14 1-2-2-5-2-7-1-8-2-16-8-23l1-2 2-2 14 19 16-11c-2-3-6-6-7-10l-3-14c0-5 1-9 7-11l12 12 5-7c6 7 8 16 19 15 3-5 2-9-2-13-4-3-5-7-5-11 1-6 3-8 9-7 11 2 12 2 23 11l7-13c3-4 7-5 12-4l8 2c9 3 15-1 18-8 15 2 18 5 22 21l-10 5c4 4 12 4 10 13a4463 4463 0 0 1-22 67c-6-4-11-8-10-17 2-8-2-11-10-10-9 2-18 5-21 16-7 1-11-3-13-7-3-6-8-7-13-7l-21 2c-2 4-4 10-12 10-2 0-4 4-5 6l-3 9-8-1-5 2c-2 7-9 10-15 14l17 28c-3 5-6 7-11 5-6-2-11-2-10-9l-2-5-4-5-22-12c3 9 1 17 10 23 4 3 7 11 9 17 1 1-2 4-4 7-2 4-5 7-3 13 2 9-2 13-12 18l-3-3c-4-7-4-7-11-4l-2 1c-8-4-19-1-25-9 3-5 6-10 7-15 1-2-3-5-5-8l-8 7 1-11-17-6-2 10c-1 9-1 9-12 8 5-8 3-16 0-23-2-6-8-7-14-11l-4 13 11 2-8 13c-7 3-11-1-15-7l2-4c3-4 3-7-2-10-4-2-9-1-11 3l-5 12c13 8 21 21 24 37 3-1 6-5 9-4 6 0 11 3 17 5 4 2 5 6 2 10l-4 7 10 21 6 8c1 2 2 6 1 8 0 2-4 3-7 3-2 1-5 0-8-1l-12-5c-3-1-5-4-7-6-5-6-8-6-14-1-5 4-13 4-18 0l-5-4c-5-4-6-4-11 2 3 12 13 16 22 20-3 8-7 11-14 10l-12 2c-14 3-26-3-39-6l-7-5c-4-7-7-15-12-21-6-7-6-15-8-24-1-3-2-7-7-6-5 10-14 11-33 2-1 6 3 11 6 15l5 5c3 4 4 7 0 10l-3 5c1 8-4 12-10 15l3 11c1 4 1 8-3 9-3 1-7 1-9-1-4-2-3-7-1-10l3-4c5-4 4-9 4-14 0-2-2-4-4-4-5-3-15 1-17 6-2 3-3 6-6 8-10 6-19 15-31 19l-2 1c0 5 1 10-1 13-1 4-6 6-11 9h1c-4 16-4 16 12 16l8 1-1 3-20 8-10-5-10 5c0 7 2 14 8 19 2 2 5 5 3 9-3 3-7 7-12 5l-12-5-10-7-3 5c-4 8-4 8-13 7-5-1-10-1-13 5 5 3 11 4 13 7 3 4 1 9 1 14-8-1-14-6-16-14-1-6-1-6-9-4-3 2-8-1-9-5l-1-9c-2-4 0-6 2-7 13-1 11-11 12-19 1-4 0-8-2-12-1-6 1-9 6-12 6-3 11-2 16 2 2 2 2 5 0 7-4 6-1 11 1 16 5 2 8-1 11-2 4-1 12 0 11-7-1-6-5-12-13-13-10-2-13-10-15-18s1-12 10-12c6 0 6 0 8-6-10-2-14-6-13-15 2-10 8-14 18-12 22 3 15 6 34-19l1-1z" class="st8"/><path d="m797 181 3-1c4-2 8-1 11-1 10 3 18 3 27-1 5-3 12-2 16 5 8-11 18-8 28-8 3 5 4 10 3 15-2 3-6 3-9 6 3 10 16 18 29 16l-17-8c-4-2-8-4-6-9 2-6 6-2 9-2a106 106 0 0 0 10 2l2 1c14-12 24-3 34 6 2 3 5 5 10 5 0-6-1-14 7-17 6 2 6 6 7 11 0 7 7 9 11 8 9-2 16 3 22 8 2 2 4 3 7 3 7 1 5 8 8 11 3 4 4 8-1 12v5c4 6 1 11-3 16-6 8-14 4-20 7-1 3 2 4 2 7-5 4-6 8-4 13 3 8-2 18 5 26 4-12 12-6 20-4-4-6-7-10-13-13-6-4-13-9-10-20 5-7 15-7 19-15 8-5 14-3 21 0 3 1 6 4 5 6-5 13 9 24 1 36l16 8c3 2 6 4 5 8s-4 5-8 4c-5 0-7 2-5 8 9-4 14 0 17 8 2 5 8 7 12 10 3 2 7 4 5 8s-6 3-9 2c-4-1-7-3-11 1-4 5-8 3-13 0-5-4-1-8 3-13-11 8-13 20-22 28-1 4 2 7 4 10 4 5 3 9 0 14-2 3-6 4-8 0-3-7-9-7-16-10 2 4 8 7 4 11-5 4-10 2-14-1-2-3-4-6-8-6-3 2-2 4-1 7 1 7-2 12-9 13-6 0-8-4-10-9-6-14 1-25 6-38-7 4-14 7-21 2-1 4-1 9 2 10 8 7 7 17 10 25 2 7 4 14-1 20-3 3-2 6 2 8l3 2c1 2 2 4 4 4l5 1c3 2 5 6 2 8-6 5 4 19-10 19l-12-1c-5 0-9-2-10-7s4-8 9-10l7-1c-14 0-28 3-37-9-7-10-13-20-12-34l1-3c2-2 3-4 0-6l-7-11c-1-4-1-8 3-10 5-1 9 1 11 5 0 2 0 5 2 7 5 0 8-2 8-6 0-5-4-6-7-7-12-6-25-11-29-25-13 0-14-1-13-14l1-5c6-18-7-27-16-39-5 4-5 9-9 12-5 3-8 0-12-2 0 9 2 17 8 23 6 8 11 17 18 24 4 3 6 7 3 12-9 13-2 24 4 33-3-2-4-7-6-12-1-5 0-10 4-13 5-3 11 0 13 3 8 10 20 16 22 30-1 5-3 8-8 9-17 3-35 1-52-5-12-3-16-18-9-29 2-3 4-5 2-9h-7c-7 1-10-2-7-9 3-13 2-13-10-18-2 0-4-2-4-5s1-5 4-6 7 0 9-2c1-3-2-4-4-5l-13-8c-10-11-11-12-27-8 2 9 4 19 12 26 11 9 13 21 12 34-1 8-5 9-12 6-9-4-14-11-17-20-1-4-2-8-8-6-10-8-9-14 3-24-4-8-9-16-3-26-12-3-18-18-33-7 0-17-16-17-23-26 2 4 6 8 1 12s-8 1-12-2c-9-8-10-12-3-22 3-5 7-9 6-17-1-5 2-9 6-12 5-4 10-8 6-15 14-8 26-4 39-3 6 0 4 6 5 10 4 0 7-3 10-5-3-6-12-7-13-15 6-5 12-1 17-1 6-1 12-1 12-9 0-6 5-4 9-5z" class="st5"/><path d="M963 437c-5 1-8-1-11-6l8-10c-3-5 1-14-8-18l2-4c3-4 3-7-2-10-7-4-9-15-5-23 4 3 6 8 11 6l10-6 7 4-8 6 2 9-9 7c4 7 9 12 5 19 8 5 9 5 16-3-4-5-5-10 1-17l10 9c5 5 6 5 13 1-2-4-13-4-7-13l18 7 4 10c7-9 7-9 2-16l-7-12c8-2 11-7 14-14 2-7 8-12 14-18l4 6-8 8c1 6 6 5 11 7l3-9 18 5 1-2c-2-2-4-6-6-6-7-2-11-6-13-12-1-3-4-5-5-6l-12 3c-3-7 0-11 2-17 3 1 5 3 8 3 1 1 3-1 4-2v-3c-7-1-11-12-22-6 2-12 7-24-6-32 4-3 7-5 6-10-1-6-6-6-10-7h-12c-4-5-1-7 2-9l-5-15 9-4c-6-2-8-6-7-11l-4-5c-6-5-8-10-4-16 4-7 10-3 15 0 9-11 9-11 20-1 5-1 4-6 7-9 5-1 10 2 16 2l4 2c7 1 6 7 6 12-5 8-14 8-22 12-4 2-6-3-6-8v-2c-3 7 2 12 5 16l7 10c4 0 9-3 12 3 2 5-2 8-5 11l-2 3c-9 13-9 12 3 21 7 6 8 15 8 22 0 6 0 8 6 10 8 2 10 5 6 14-4 7-3 13 3 18 9 8 13 21 24 29 4 3 3 9 1 14l-3 6c-7 12-7 12 5 21l2 4c-1 2-1 3-3 3-12 3-14 8-5 17 7 2 9 7 13 13v6l-7 9c-6 3-9-2-12-4-3 1-4 4-5 6-1 1 0 2 1 2 8 1 11 6 10 13v2c-1 16-1 16-17 15-3-1-5-1-7 2s0 5 2 7c1 2 4 4 2 8-5 1-10 3-14 6-6 5-13 4-18 0-6-6-6-13-3-19s4-11-2-17v-1c-9-17-9-17-27-25-1 4 2 7 4 10 3 4 7 7 6 14-1 3 3 6 5 8 6 4 6 10 4 15-2 6-6 7-11 6-3-1-6 0-7 4 7 3 12 10 17 16 6 6 7 11 2 17l-5 9-5 9-2 2c-11 2-16-2-12-11 3-7 0-11-5-12-11-3-21-9-33-3-9 4-18 4-27 7-8 3-12 0-12-9v-6c2-8 0-14-8-16-2-1-2-3-2-5 12-9 16-8 22 6 8-3 17-4 22 5 4-3 0-8 5-9h9l13 3 3-1c1-1 0-2-1-2-9 2-15-5-23-5-7-1-10-4-7-11 0-2 4-1 1-3-3-3-5-5-4-9 10-5 17-1 23 5 4 0 7-3 11-4-3-4-6-8-7-12-6 6-6 6-30 4 2 1 5 2 4 6-18 8-40 12-50-1-1-2-2 1-1 0 7 5 5 11 2 18l-1 1c2 5 7 10 1 14-5 3-8-4-14-7 7 7 16 10 18 20 1 4 8 1 12 4 0 4-3 9 0 14 2 2-1 5-4 7-7 3-16 3-22 9-3 2-6 0-7-3-3-6-6-13-6-20 6-2 7-6 4-11l-5-10 1-7 2-5c-4-7 2-9 5-13l-5-10c-1-5 3-7 6-10l5-8c1-5 5-7 10-9 6 1 7 12 17 6-10-10-13-24-27-31l-20-7c-5-2-10 1-9 5 0 4 2 7 7 7l3-1 9 16-8-1c2 12-8 17-13 25l10 8c8 6 8 6 1 17-5-7-20 0-18-16l-8 3-7-8c7-7 18-8 23-16l-15-5c-5-2-8-6-8-12l-2-11c-2-6-9-9-16-6l-11 5c3-9 0-14-4-19-2-2-5-5-8-3-4 3-4 6-2 9 4 6 3 12 0 19-1 3-3 4-7 1 4-5 4-10 0-16-2-4-2-9-2-13s3-6 12-6l-4-4-17-4c-3-1-5-4-7-7-5-6-9-7-18-4l-2-5c2-4 4-8 8-11 4-2 5-5 3-10l-5-5-6-7 1-5 9-5 10 25h7l1 1c1 3 1 7 6 6 4-1 4-5 3-8-1-7 2-15-4-22l-4-6c-5-4-10-8-11-16 0-3-3-6-5-9-3-7 0-11 8-10h8c6-1 13 2 14 7 3 7 9 10 14 11 8 3 8 3 6 12l-13 1-2 6 13-1c8 16 6 13 0 26 6 5 11-1 17 0l2 12-7 4v10c1 9 5 14 13 15l34 6 4-5c9 4 9 4 16-2 2-2 3-2 4-1 2 6 1 13 4 18 4 9 7 20 18 24l10 1c8 0 15-2 22 6-7 3-18-4-20 8 5 5 9 6 26 5l-2-14 6-3-3-6-6 2-3-7c4-4 9-2 14-4l-14 3z" class="st9"/><path d="M219 679c6-30 17-58 29-86l14-30c9-3 15 1 18 10 3 11 10 16 21 16 3 0 7-1 9-4s0-6-2-9c-3-3-7-5-9-9-1-2-1-5 1-7s4-1 6 0c3 3 7 4 9 7 5 11 18 9 25 16-3-3-10-4-9-9 1-7 8-7 14-9h-15c-5 1-9 0-9-5 0-6 3-10 9-10 5 0 9 1 14 3l7 2c9-4 13 0 17 9 4-9 9-7 12-3 4 5 8 6 14 6 10 0 18 4 28 3 6 0 10 4 5 11 5 1 10 2 12 7 3 7-3 12-3 19-4 2-11-4-11 5-3 7-6 13-10 18-5 7-5 9 6 14 1-11-1-25 17-25 20-5 25 9 27 27 6-2 13 4 18-5 4-7 1-15-8-14-6 0-10-4-15-5-7-2-5-9-6-14-1-3-3-6-6-8-4-3-7-7-5-13 1-2 2-5 6-5 5 0 9 4 10 9l4 3c3 0 6-4 11-4 14 2 6 11 5 17 5 1 9-4 13 0 3 3 4 6 3 12-4 8-4 9 7 13 1 2 0 4-1 6-1 1-3 2-3 6 11 1 19 12 32 4-2-15-2-15 11-17-10-5-17-6-27-1-7 3-9 1-10-10 2-3 4-4 5-4-3-11-17-12-17-25-6 2-10-2-16-2-13-4-3-8 0-13-5-5-9-10-18-5l-2 1c-12-2-15-5-15-16 1-6-6-12-2-18 3-3 6 2 9-1l3-2c11 1 14 6 9 13-2 3-7 7-2 10s6-4 8-6l3-1c5 1 10 5 16 7 8 3 17 6 26 3 3-2 7-1 10 1s6 2 10 0c6-2 10 0 14 6-1-8 5-11 9-16 2-4 6-1 8 3 4 11 10 21 18 30 3 3 4 6 2 10-4 7 0 10 5 13 4 2 7 4 5 8s-6 3-9 3l-5-1c-11-3-18 5-16 16l2 3c3 12 2 14-11 13l-4 1c-3 7-6 13-17 11-2 0-6 3-7 6-2 10-8 18-8 30 2 2 5 2 9 4 5 2 7 6 5 10-3 4-7 7-11 5-7-2-13 0-20 1-4 0-8 1-9-6 10-7 4-15 1-23 2 7 7 14 0 21-4 2-6 0-7-2-10-16-25-15-40-12l-4 1c-14 6-27 3-42 4l-6-1c-3 1-2 4-3 5-4 8-9 9-14 2l-15-18c-2-1-3-2-3-4l1-3 3-1 2 2-3-3c-5-4-11-3-17-3-3 0-7 1-11-2-14-16-14-22 2-37l4-4c6-6 12-5 15 3 4 14 16 20 29 25l2 2 1 5c-3 4-7 2-10 5 5 0 8-3 12-3 4 2 4 6 4 10v1c2-5 6-9 4-15v-5l2-6c1-2 2-2 4-2s3-1 2-4c-5-6-10-2-15-1-18 2-29-4-36-22l-4-11c-3-6-6-9-15-9 11 8 7 17 3 27-2 4-5 6-10 6-3-1-6 0-8 3-5 8-8 5-10-2-1-4-4-6-8-5-6 0-12 0-17-4h-5c-8 9-17 5-26 1-4 2-4 5-5 10 18 0 34 5 37 27 4-7-6-14 1-19 2-2 4-1 8 1-6-4-15-4-11-12 3-7 9 0 14 2 6 3 11 7 18 8 5 1 8 6 3 10-5 6-6 13-9 20-1 1-2 2-4 1-4-2-1-6-6-8-2 4-6 8-11 10-6 1-11 0-16-4-1 5-2 8-7 7-3-1-6-4-7-7 0-6 3-9 9-11-3-1-6 0-9 1-1 6 0 12-5 18 10 6 21 4 29 10 4 2 9 3 9 8-1 5-5 6-8 8-4 1-6 3-8 7-4 8-10 15-19 19-4 1-8 4-12-1 7-16 3-31-2-46-2-6-7-8-12-9-4-1-8-1-11-4z" class="st10"/><path d="m316 1007 5 7c2 3 4 5 5 10l-7-4c-3 4-3 8 0 12 9-3 17 2 24 7l3 11-6 5c3 8 12 6 18 13-1-11 6-21-2-30 3 1 5 3 8 3l9-3c8 6 9 8 6 16l-2-1 1 1 1 20c7 3 14 7 13 17l-9-1v5l8 6c-1 5-3 10-3 16 0 3 3 6 6 9 6-5 1-10 2-15 6 6 12 10 16 16v10l-15-6-7 11c-3 2-8 2-14 3l1 6c7 5 13 11 22 10 4 0 8 2 12 4l2 11c5 0 11 5 16-1l11 13c4 3 4 7 2 12l-11-6c-6 4-12 4-19 2-12-3-15-1-21 9-9-5-11-8-9-19l-17-8c-2-1-3-4-4-6v-11c-11-1-17 4-25 17l-4-5-17 13-21 7c2 6 7 6 11 6s7-2 11-4l19-5c2-1 5 1 7 3 5 5 9 11 12 17 2 3 4 5 9 4 4-1 8 0 12 1l3 1c2 4 3 9 6 13 3 5 3 9-1 14l-2 7-17-4-1 7c0 4-1 7-5 8-7 3-10 9-15 14l-9 9a586 586 0 0 1-89-153c-2-6 1-7 5-7 10 0 20 0 27 9 1 2 2 3 5 3 1-9 5-16 3-26-1-8-1-16 2-24 4-8-4-13-6-21 0 6 7 11-1 14-6 2-11-1-12-7-1-9-6-13-15-12-6 0-8-3-8-8l-2-8c-3-7 0-12 6-14 7-3 14 1 17 7l3 12c4 1 8-1 12-2 0-8-4-13-10-17-3-2-6-3-8-6-7-10-5-17 6-23 3-1 5-1 6-4-7-13-7-13-4-22 13 1 18 10 22 20 2 6 5 12 10 17 4-1 7-8 13-5z" class="st11"/><path d="M768 346v4c-2 7 4 5 6 7l3 6-3 4-26-10 4-13c1-4 7-7 0-12l-9 8c3-8 2-14-6-18l10-7-4-7c-6 11-15 12-25 10l-5 1c-4 0-7-1-8-6l10-4c-2-12-10-21-22-24v13c-1 6-7 3-10 4-2 8 5 13 8 20l5 2 10 1-5 5c-4 3-9 6-12 10-2 2-3 6-2 9 1 2 5 4 8 4h12l-7 10 14-3c6 11 11 21 15 32-3 6-8 10-17 7l1-9c-7-1-11 3-18 5l-4-10-13 5-6-1 3-4 5-2-5-5c-3-1-6-2-7-4-5-5-10-9-16 0l-8-19c-3 4-4 6-4 10 2 11 2 10-8 10l-10 3c-5-3-8-7-10-13-4-13-16-17-28-11h-3v-12c4-11-1-17-9-23 4-1 7-2 9-4 6-2 10-1 13 4 4 7 10 11 20 10l7-17-7-21-9-4v17c-13-2-15-4-16-11-1-8 0-9 9-12l9-3v-2h-9c-6 1-6 1-8-6 0-2-3-5-4-5-8 1-11-4-12-11l-6-2c16-8 32-17 49-24a683 683 0 0 1 177-46l-3 1-2 13h-26c1 3 3 6 6 8 2 3 6 4 9 5-4 7-13 11-21 10l3-8-1-3h-14c-3 0-7 2-10-2l-5 1-10 2 4 8c-7 8-24 13-13 29-9 4-11 12-15 21l10 8c3 2 5 3 8 0 2-2 2-5-1-6l-1-1c-2-2-6-4-3-8 3-3 5 1 7 3l12 10c11 5 11 5 10 14 14-5 20-5 24 6l2 1c8-1 11 2 7 8-3 7-1 11 2 17 6 8 5 8-4 11l-4 3c1 4 1 9 3 13z" class="st12"/><path d="M1108 417c-2-7-9-6-14-11-1-4 0-7 3-12 3-6 10-12 7-18l-14-18-10-13-10-12 7-21-10-1c-6-1-9-5-6-10 3-3 1-6 0-9l-3-10-13-10c-4-4-3-8 2-12 1-1 4-3 4-5 1-3 2-4 5-6 5-2 5-6 0-9l-6 3-6-1c3-9-9-10-8-18l-3-4c-4-6-4-6 5-8l2 9 23-9c3 1 4 3 5 6 2 8 4 15 12 19 3 1 3 5 5 7 5 6 5 17 17 17 3-1 4 4 5 7 2 4 5 8 12 6-8-5-11-13-20-15-3-1-5-4-7-8-2-6 1-9 8-8l10 2c5 2 9 1 10-5 3-8 8-8 14-5 3 2 8 2 11 5 12 10 12 12 3 25 6 5 11 6 19 4 9-2 17-4 24-10 4-2 7-2 11 1 6 3 12 8 20 9 7 2 4 9 5 14 6-1 11-5 18-6l13 8c5 11-4 19-4 29l-2 2c-3 1-5 2-8 1-3-2-4-6-9-5-6 0-9-3-12-7-9-13-20-15-33-6l-8 5c-4 2-9 3-8 9s4 11 10 12c6 2 10 6 14 11 2 2 3 5 1 8-2 5-9 5-12 10-3 7-8 4-13 3-1 0-2 0-3 3 8 0 13 10 24 4 6-4 12 1 17 6-4 11-14 14-22 20-3 2-7 0-8-3l-7-10c3 4 6 9 1 14 6 2 11 3 15 7 3 2 6 4 4 7-1 4-5 5-9 5l-5-3c-12-5-13-5-22 4l-7 6c-3 3-6 6-3 12 4 0 7-4 12-4 6 0 9 3 6 9-5 13-10 14-27 4 0 4 0 9-2 13-2 2-4 6-6 4-7-4-12 1-19 0v-6c-1-6 3-10 4-16-9-2-7-10-9-16z" class="st13"/><path d="M1314 327c14 11 28 21 40 33 26 23 49 49 71 77-1 7-1 7-4 12-3 0-4-3-5-5-4-5-13-6-15-1-4 7-8 8-14 5-4-2-2-11 2-16l9-3c-4-2-8 1-12 2-15 6-21 1-20-15 0-2 1-5-2-8-5 1-6 6-4 10 2 7 3 15 6 21 1 5 1 8-4 11-6 1-11 5-18 5l-5-1c-4-5-2-10 1-14 4-5 4-10-2-15-10 12-18-9-29-1 14 2 11 11 9 20-1 11-7 16-14 21 1 5 4 6 7 7 4 0 7 2 10 5 3 4 6 8 2 12-4 5-7 2-11-1l-3-2c5 4 11 8 15 15 1 3 2 6-1 9-3 2-5-1-7-3l-12-10c3 9 10 13 18 17 2 2 2 4 1 7-7 5-17 3-24-5-1-1-1-3-3-3-5 0-7 3-9 7-12 3-22-3-31-8-3-1-5-3-5-6 0-5 5-4 9-6-11-4-18-13-31-8l-3-1c-2-2-2-4-3-7 2-14 6-17 19-15l11 1c-7-9-10-20-16-31 12-3 13-13 12-21-2-12-1-25-9-35-3-3-3-7 0-11 4-3 4-8 6-13 4-5 4-9-2-13l-2-2c-1-4-1-8 3-9 5-1 10-5 16-6 4 5 0 13 9 15 6 2 11 4 15 9 8-8 16-16 8-29l1-5c3-2 5-1 8 0h1c2 4 2 12 11 8z" class="st14"/><path d="m334 447 8-1 6 12 2 6c0 4-1 8 1 10 3 4 7 7 12 9 1 1 4 0 7-1l8-4c4-3 8-2 13 0 9 6 10 6 18-2l4 4c3 3 7 2 11 1s5-4 5-8l2-15-8 2 1-9c1-4 2-6 7-7l9-6c-12-6-26-4-36-12-11 5-11 5-19-10l2-3c6-1 10-2 11-9 0-3 3-5 7-3 0 6 1 13 10 15 7-9 16-4 25-3l4 1c3 9 12 7 18 10 3 2 5 1 7-2l10-13 6 5c7 5 10 13 6 19-2 5-1 8-1 12 0 5 1 11-4 14l-2 3c1 6 2 14 5 20 1 2 6 3 9 5l1 1c2 8 8 14 16 19 7-7 15-10 23-2 5-15 6-14 20-8l1-8c5-1 11-3 13-10 1-3 5-4 8-2l20 6c5-9 14-13 23-17 2 5 4 9 4 14 2 9 11 12 15 20-16 3-32 6-46-5-4-4-10-4-15-4-3 0-6 1-6 4-1 7-4 14-3 21 2 9 0 12-9 11-11-2-20-7-29-12l-5-4c-5 2-4 6-6 9 18-4 35 4 43 20 2 6 1 8-5 9-12 2-22 1-26-12l-4-4c-4-1-25 11-25 15s0 8-5 7c-6-1-10-5-8-9 6-16-2-22-14-27-4-2-4-4-2-7 1-3 3-5 3-8-19-11-30 4-44 13 2 4 6 7 10 9 3 3 6 5 4 10v1l-19 3c-5 2-11 0-16-6-5-7-12-13-22-7-6 3-10-1-14-3-5 4-6 13-14 9-9-5-14-15-11-23a83 83 0 0 1-36-21c-3-3-6-5-6-10l22-32z" class="st9"/><path d="m768 1402-9 4c-2 10 6 13 12 16 9 4 17-2 23-8l13 1c11-1 19 4 26 11 9 9 7 20-5 26-10 4-13 3-20-6l-5-7c-2-4-5-6-10-5-4 1-5 4-5 8l-1 4-8-5c-6-6-12-5-19-4-2 0-5 3-6 6s2 5 5 6c10 2 15 10 20 18-12 17 5 44 24 41 5-1 10-1 12 7l-12 4c-5 2-7 0-10-2-5-4-11-6-16-9l-2 2 5 4c7 4 13 8 16 16 2 6 2 8-5 10-4 1-8 2-8 9l-62-10-39-11c-1-6 0-12-3-16-3-6 4-8 4-13-4-3-9-1-14-3l-8-4c-5-3-7-8-5-14 3-6 9-3 13-1 1-12 12-12 19-15 6-2 9-4 9-9 0-7 4-12 10-14 6-1 7 5 11 9l2 4c6-5 9-2 12 5 2 5 6 8 11 7s7-4 6-8c-15-6-15-6-10-16-4-4-6-12-15-11h-6c-4-1-5-5-6-9l1-5c4-5 9-7 16-3 4 2 8 3 12-1 4-3 4-8 2-12-1-4-3-8 0-13 10 2 20 5 25 16z" class="st8"/><path d="m318 489 6 2c5 4 8 8 14 9 3 0 5 4 7 7 5-1 11-2 16 5l-8 3c1 9 12 9 14 17 8 0 6-7 8-11l3-1c5-1 6 8 12 6l14-5 2 1c3 6 14 6 15 16h15l3-5 10 4-2 7-6-6-2 2 3 9c4 4 4 8-1 12 4 4 7 9 14 10 6-6 9-8 15-4l11 9c-1 5-4 4-7 6-4 1-4 3 0 5 2 1 2 2 2 4l-15 8c-1-2-4-4-4-7-1-7-5-7-10-8l-4 9c7 6 19 11 13 24l16 8 6-4 12 13-11 17c-5-5-11-2-17-1-1-6 0-11-2-16-3-12-7-14-20-13l-2-1c-2-2-3-2-5-2-4-1-8-1-10-4l2-14 5 3 5 4-1-12 5-3c-3-5-6-10-13-7l-6-3 10-8-14-3-4 5c-8-9-18-6-27-5l-12-13v10c-7-2-10-7-13-14-5 5-9 4-15 2l-14-4c-6-1-8 2-7 11h29c-2 3-2 5-4 5l-8 1c-4 0-4 0-9 6l8 6 4-5 2 1c1 8-6 6-11 11-1-4-3-7-5-8h-10c-2-9-10-14-18-19-3 3-2 5 1 7 7 4 10 10 12 17-6 5-10 9-19 6-8-2-13-6-18-11 0-11-3-15-15-18a1199 1199 0 0 1 36-63c6-1 9 1 11 6 2 7-7 8-9 12 1 4 4 5 6 8 4-1 7-4 11-3-1-6-3-11 2-15 6-3 8 5 14 5-1-5-5-7-9-9-5-3-10-6-7-14z" class="st13"/><path d="M317 1007c-8-1-10 8-14 10l-9-11-2-5c1-8-6-12-8-18-2-3-8-4-12-6l-1 10 11 12-22 9 5 15c16 9 21 16 19 28l-19 3c-2-8 3-18-7-22-6-3-10 1-14 4l4 21 7-1c9 0 14 4 15 13 1 8 2 8 12 7l-4-16 2-1c5 8 8 16 12 25-6 9-7 23-1 38-8 4-6 11-4 17-5 3-10 2-11-2-5-11-15-9-24-10-2 0-6-3-7 3l-23-61-7-24c-3-9 4-14 8-17 6-4 8-11 12-16-5-9-11-13-21-11-2 1-5 1-8-1-2-4-3-8-3-13 2-3 2-6-1-9l-3-16c7-3 10 3 12 8 6 9 13 15 24 15 8 0 11-2 13-8l3-11c6-11 10-13 23-9h5c2-3-5-8 0-10 7-4 15-5 23-4 4 0 8 2 11 3 8 1 10 5 6 12-2 2-2 6-2 9 1 3 0 6-3 6-4 1-6 0-7-4-1-3-1-6-3-8 4 12 0 28 13 37 2 1 3 4 2 7l-2 2z" class="st14"/><path d="M714 1415v4c0 4-1 7-3 10-3 4-6 7-11 6-4-1-6-4-7-8-2-4-1-9-7-13-1 6-2 12-12 13 7 6 12 11 7 19-4 4-8 7-11 0-2-4-4-5-8-4-9 2-17 0-22-9-8 6-15 12-26 7 4 8 12 7 16 11 4 5 9 9 7 16 7 2 16-1 17 10 0 6-8 11-16 10-2 2-1 5 0 8 0 6-1 10-6 14l-61-26c-1-12-7-20-14-27-4-4-5-8-2-12l3-7c2-7 6-9 14-8h7l-10-18c7-3 13-8 20-5 2 1 4 0 5-1 10-7 10-7 19 1l3 3 13-8c3-1 7-3 10-2 6 3 9 0 11-5 5 4 7 8 5 13-1 5 0 9 3 12l17-3 8-18-3-5 3-3c7-1 14-1 20-3 5-1 10-12 7-16-2-3-3-7 0-9s7-1 11-1c2 0 3 3 5 5-5 4-7 9-7 16 14-2 17 11 24 18 3 3 1 6-1 8-3 3-6 3-10 2-7-3-13-3-18 5z" class="st1"/><path d="M1321 523v-8c7-3 7-13 17-12l8 2c3 1 5 2 8 1 1-3-2-5-4-8l-6-5c-7-5-7-7 3-11 9-3 17-6 19-17v-7c5-7 9-6 14-1 9 8 9 8 20 1 4-2 8-3 11-2 4 0 6 1 7 4 0 3-1 5-3 7-7 4-11 12-20 13-1 0-2 1-2 3 4 5 10 7 16 8 5-4 0-10 5-14 8 2 17 4 22 13 3 7 9 7 14 11 4-4 8-9 15-7l38 65c-6 2-18-6-20-12-4-11-4-11-14-21-6 2-11 3-17 3-6-1-11 0-14 5-3 3-7 3-11 0-11-9-24-12-38-18 0 12-10 15-17 19-8 4-17-1-21-7 2 2 3 7 7 11 9-3 13 0 15 10 1 6 6 11 12 14 9 3 10 10 7 18l-4 2c-5-2-6-7-11-7 0 5 5 9 1 14-6 6-12-1-18 3l-6 1c-8-4-12 6-20 5-7-1-6-4-4-8 4-6 8-12 10-19 7-1 8 5 11 7-5-14-4-30-15-42-4 1-3 5-3 9 1 7 0 14-10 14l-8-4-3-3c-4-20-4-22 9-30z" class="st4"/><path d="M1376 590c2-3 2-5 0-8l-4-11c8 0 11 4 15 10l1 5 3-4v-15c-12 0-15-10-21-17-1-1-2-2-1-3 1-3 1-7-3-7l-7 4-16-21 1-3c9 5 14 17 27 14l6-7c2-2 5-3 9-4l-3-7c8-4 14-1 20 3 5 3 13 1 16 7 7-1 10 3 12 10l5-4c3-5 7-7 14-6 5 0 13 2 18-5l19 21-1 4 10 12 6 2 18 37c-1 7-2 8-8 4-8-5-15-8-25-5l-4 3v4c-5 10-5 10-4 18 1 4 0 6-3 9-5 2-8 5-12 8l-11-8 3-3v-27c-1-9-4-17-6-26-9-5-21-6-25-16l-20-3c-6 7-11-4-17 0 0 4 3 8 7 7s9 3 13-1c4-2 7 1 9 5-5 5-10 1-15 1l-6 7c3 8 9 4 14 4 0 8-13 5-12 14l7 3 5 5c-3 6-7 4-11 4l-6 2c0 3-2 5-4 4-11-2-21 3-31 1-9-2-10-6-5-19h6c6-3 11 3 17-2z" class="st2"/><path d="m320 1006-7-9c-5-4-10-8-8-16 1-2-1-6-2-8-3-10-3-10 3-20l4 18h6c-5-8-1-14 4-20l-19-6-2-1c-6 3-13 3-21 4l8 11c-10 5-16 0-22-4-5 7-13 11-13 22 0 9-7 12-16 10l-14-1a762 762 0 0 0-23-30v-3l-1-8c11-7 14-6 19 5 3 9 11 8 18 11-1-5-4-6-6-9-5-6-6-11 2-15l21-2c7 0 13-3 12-13-1-3 0-6 1-7 5-6 5-13 2-20 0-13 0-13-12-10-3 1-6 2-9 0-3-8 5-10 7-16 15-6 23 3 25 15 1 9 4 17 10 25 2 3 4 5 3 11 3-4 3-8 7-10 9 3 3 10 5 15 10 1 20 3 29 10 2 8-2 11-7 14l20 25 5-8c1-1 4-2 5-1 1 0 3 3 2 5 0 3-1 6-3 7-7 4-5 8-1 12l3 6-9-1-6 1c-2 2-1 5-1 7l5 8-3 8-4-1-8-6-9-5z" class="st11"/><path d="m1421 1301-5-13c-1-6-5-10-12-11 8-7 8-7 18 5 4-4 4-10 5-16h-14l-5-4c-4-4-8-5-12-1-5 3-9 2-13-1l-7-3c-8 3-11-4-16-8-2-2-2-8-2-12l3-9c6 0 5 4 6 6 4 12 11 18 22 16 6-1 11-4 16-6l-1-7c-3-6-5-12-4-18 0-5-3-7-6-9-3-3-7-6-4-10s6-5 10-3c8 2 16-1 24 4 5 3 7-3 8-6h14c10 0 19 1 27 7 3 2 7 1 12 2-6 13-13 26-21 38l-43 59z" class="st8"/><path d="M636 1496c-3-5-4-10-1-15l9 6 9-12c-7-5-13-7-22-2l3-7c0-2 1-6-1-7-4-5-7-11-15-11-2 0-5-3-7-5l1-4 4-2c10 6 15 0 21-7l3-2 2 4c5 8 10 10 20 8s10-2 11 8c7 0 6-6 9-10l-12-11c2-7 10-1 13-7l-2-8c3-3 9-1 11 3l3 10 3 8c11 1 11-8 15-13l4 7c3 2 4 6 7 1 4-4 7-3 10 1l11 12-8 6c3 8 12 1 16 7-1 6-2 13-9 13-10 0-17-4-16-17l-3 1-6 9c-3-7-4-14-10-20-5 3-10 5-9 12 1 8-2 10-11 12l-17 8 2 4-1 5-5-1-4-3c-4-1-7 1-7 4 1 4 2 9 7 10s9 6 15 4c4-2 7 0 8 3 2 5-1 7-4 8l-3 2c3 5 6 11 2 19l-6-1c-6-6-11-11-12-19-1-6-5-8-12-8-5 1-11 2-16-3z" class="st6"/><path d="M1055 197h-15c0 2 0 5-2 7-1 2-5 3-7 4l-10-12-3 7-2 8-12-8-7 4 3 13-1 6c-6-9-15-12-23-16l-2 5c-5-1-8-9-14-4l-4-21-8 9 2 5v7l-7-1-21-16-4-4-12 9c-2 2-3 2-4-1-6-2-12-2-19-3-2 1 0 3 2 4l25 11c2 1 5 1 3 5-6-1-11-2-17 2-2 2-6 1-6-2-2-5-6-6-9-8-8-4-9-5-8-15l10-2-2-13-9-1h-8l-10 13-8-10c-3-1-7-1-11 3-5 5-13 4-18 1-5-2-10-3-16-3l28-3c76-6 151 0 226 20zM567 252l1 6-2 5c7 2 12 6 11 14l3 10c-6 1-9-1-12-5-2-4-5-5-11-3l7 10 3 14c-14-3-21-12-30-17-7 4 4 12-5 16l-6-7-10 17 2 6c1 2 0 5-1 6h-7l-10-8-6 13c-1 3 0 7-2 9-4 3-9 6-13 7-6 0-10 1-13 6-1 4-4 5-8 3-6-2-13-2-16-8l6-7c2-3 2-5-2-7l22-19c31-23 64-44 99-61z" class="st12"/><path d="M233 938c-4 0-7 2-7 6 0 6 6 8 10 10l2 12c-5-4-10-5-16-5-3 0-5-1-7-5l-5-13-12 1-6-63c-1-17 0-34 1-52l1-2c5-3 8-7 11-10 4-4 7-4 10 1 8 10 8 17-1 25-5 6-5 11-3 17 3 7 7 12 15 10l8 1c4 4 5 7 2 11l-2 5-5 16c4 5 10 4 14 7 5 4 14 5 8 15h-5c-9-4-18-8-27-9 4 4 12 3 17 9 1 5 0 9-3 13z" class="st14"/><path d="M1465 494c-4 2-10 2-11 9-1 3-4 3-7 1-2-2-3-5-5-5-8 0-9-4-9-11l-20-10 3 15c-4 0-9 2-11 1-5-6-17-2-17-15 5 0 7-6 13-4l4-3c1-6 6-7 11-8-2-6-2-6-15-5l-2 6-5 3c-5-4-13-1-15-9-2-4-5-5-10-3-5 0-8-2-8-7l3-3c-2-8-2-17-5-23-4-7-2-12 0-18h11l-2 22c11 9 19 0 28-3l11 7c-7 2-13-3-17 4-2 4-4 8-2 13a3525 3525 0 0 0 12-5l-8-2 2-3c6 1 11 2 16-2 2-2 6 0 7 3l3 10 5-11a1420 1420 0 0 1 40 56z" class="st15"/><path d="M1245 277c-4 2-6 7-12 6l-6 7c-9-5 1-13-5-18-10 1-16-8-26-12-4 3-9 4-13 9-2 3-9 1-15 2l-3 4-20-7c-1-8 4-11 10-14l-13-13-16-6-2 2c-3 13-3 13-16 11l-13-4c-1 10 2 13 11 15l17 13c0 4-3 7-7 7-9-1-13-8-13-17l-10 2-14-26c-10 0-11-9-13-19 10-3 16 4 22 10 2 3 3 7 8 7 7 0 11-5 9-12-2-5-6-11 5-10l47 17c30 13 59 28 88 46z" class="st9"/><path d="M197 791v-10l2-3c6-6 11-11 18-15 13-8 26-8 40-3-5-4-2-8-1-13 3-6 7-6 12-5 3 1 4 4 2 8 3-3 6-5 9-2 6 4 2 8 1 13 3 2 7 2 10 5 2 5 5 9 5 15-3 4-9 3-11 9-10 4-20 6-29 2-5 3-1 7-4 11-4 3-10-1-16 3l-7 1c-3-1-4-3-7-2-7 0-11-5-17-7l-7-7z" class="st10"/><path d="M202 796a315 315 0 0 0 24 9h8c6 1 10 4 10 9 1 4-2 5-18 10 11 2 14 17 29 14 4-2 8 2 12 6 2 2 3 4 2 7-7 5-10 13-18 17-4 8-9 7-16 5h-21c-2-5-6-11-7-17-1-4 0-11 2-12 6-2 6-8 10-12l-8-17-16 13c-2-1-2-3-1-6v-6c0-3 2-5 1-8v-8c1-5 3-5 7-4z" class="st11"/><path d="m1573 821-12 7c-6-7-6-8 3-15l-13-13-7 4c-14-4-11-14-11-25 5-2 11-2 11-9l1-3c-7-7-2-13 2-19l-13-7 5-14-18-10 10-10c3-2 9-2 10 1 4 11 12 21 12 35l10 1 10 77z" class="st2"/><path d="m390 1351 10-2-4-21v-5c0-7 0-7-7-8-4 0-7-3-11-5 2-6 1-11 9-11l6-6 16 4v-8c8 0 14 14 13 30h-8l1 9c-5 0-11 1-11 8 0 5 4 5 9 5l5 3c3 7 10 8 16 10l2 2 6 12c1 5-2 10-6 8-8-4-18 0-25-7-8-5-14-12-21-18z" class="st11"/><path d="M218 679c7 1 14-1 20 4l5 3 8 30v13l-6 8c-1 2-3 2-5 2-4-4-9-6-14-6l-3-2c-3-7-11-5-15-10l10-42z" class="st13"/><path d="m1486 597 5-6 14 3 9 6c2 1 4 3 6-1l12 30c-3 11-14 11-22 15l-4 1c-2-2-4-2-7-2l-10-2c1-11 4-19 16-21-4-10-16-1-20-9l1-14z" class="st4"/><path d="m460 1385 14 18 20 4 14 1c10-2 15 3 13 13-1 4-3 6-8 7-12 1-12 3-7 14l1 3-14-8c0-2-1-3-3-3l-12-8c-1-3 0-5 2-7l1-2h-1c-8-1-13-8-21-6l-7-4c-4-6 4-6 4-10-4-1-7 4-13 2l-12-10c-2-10 2-14 11-11 5 2 11 6 18 7z" class="st16"/><path d="M1510 645c1-2 4-7 5-6 8 1 11-5 17-9l1 1 1 3 1 2v1l2 5 1 2 14 46-2 1c-10 7-16 2-22-4l1-14-17-3c2-10-8-11-13-17 5-11 12 2 19-2l-8-6z" class="st2"/><path d="M257 745v16l-14-1c-6-2-11-1-17 2l-10 5c-4 2-8 3-10 9l-6 3-2-1 8-53c8-3 12 1 17 6h1l2 4c3 10 9 14 19 11 4-1 7-3 12-1z" class="st14"/><path d="m1295 319-1 4c-10 10-27 9-35-1l-7-6c0-7-2-13 5-18v-4l1-8 42 29-5 4z" class="st10"/><path d="m1110 213-7 3 5 8c3 6 2 9-3 12l-11 4c-8-8-14-18-27-22-2-1-2-3-3-5l-4-13 6-1 44 14z" class="st5"/><path d="M319 488c-1 7 2 12 9 14 6 1 9 6 11 12-8 5-12-2-16-6-6 7-6 7 2 16-9-2-15 3-20 7-3-3 1-9-6-9-4-1-4-6-1-8l4-2c3-1 7-2 6-6l-7-7c-2 5 0 12-9 10l13-23c5-1 9-1 13 2h1z" class="st9"/><path d="m205 1000 22-2 14 14-8 6 1 7-4 2c-4 1-9 1-7 7l-3 3-5 6-10-43z" class="st10"/><path d="M1508 1161h-4c-11-1-19-3-19-16 0-2-4-4-6-6-2-1-5-1-7-3-4-3-3-7 1-10 10-6 23-1 26 11 1 3 2 5 6 6l10 2-7 16z" class="st8"/><path d="M460 1385c-4 3-8 2-11 0l-8-4c-5-3-8-2-10 6-7-5-14-10-21-17l16 1 4-6 5 10 6-3-6-15c1-3 3-4 5-5 4-2 8-4 12 0 4 3 4 8 3 12s-5 8 3 10c0 2 1 2 2 3 2 2 2 3 1 6l-1 2z" class="st4"/><path d="M1326 1397c-8-4-16-5-24-6s-15-5-21-9c-3-1-4-5-6-8 4-5 7-3 10-1 6 3 13 6 20 2 4-1 5 2 8 4 5 7 11 10 20 11l-7 7z" class="st3"/><path d="m636 1496 17 1c7-1 12 0 13 6 1 9 6 14 9 21l-26-7c-3-4-5-8-11-5h-2l-4-2h-1l5-14z" class="st8"/><path d="m458 1412 8-5 15 8 1 4-4 6-20-13zM443 1399l11-6c4-2 6-1 8 3l-10 10-9-7z" class="st4"/><path d="m1558 714-6-2c0-6-4-12 0-19l6 21z" class="st11"/><path d="m224 730-16-5-1-4 12 2c3 1 5 3 5 7z" class="st10"/><path d="m1314 326-8 9-3-15c4 1 7 4 11 6z" class="st17"/><path d="m638 1513 9-8 1 10-10-2z" class="st2"/><path d="m371 402 3 12-11-2 8-10z" class="st12"/><path d="m319 488-12-1v-2l1-2 1-1 1-2 1-1 8 9zM203 796l-7 2v-7l7 5z" class="st13"/><path d="m1560 728-6-1 4-4c2 1 2 3 2 5z" class="st2"/><path d="M194 808c7 1 2 4 1 7l-1-7z" class="st13"/><path d="m490 1435 5-4-2 5-3-1z" class="st2"/><path d="M202 978c6 2 6 3 2 8-1 1-2 0-2-1v-7z" class="st15"/><path d="m1295 320 4-5 4 4-8 1zM1573 917l-1-4 1 4zM1574 902l-1-6 1 6z" class="st17"/><path d="m193 821 2 6-2 1v-7z" class="st13"/><path d="m1571 932 1-6-1 6z" class="st17"/><path d="m202 979 1 5-1-5z" class="st14"/><path d="m632 1510 3 1-3-1z" class="st2"/><path d="m1574 836-1-3 1 3z" class="st17"/><path d="m1536 638-1-1 1 1z" class="st4"/><path d="m310 480-1 2 1-2z" class="st9"/><path d="m1534 633-1-1 1 1z" class="st4"/><path d="m308 483-1 1 1-1z" class="st9"/><path d="M1415 1308h-1 1zM1413 1311v-1 1zM1411 1313v-1 1z" class="st1"/><path d="m197 953 1 2-1-2z" class="st14"/><path d="m1538 644-1-1 1 1z" class="st4"/><path d="m1561 731-1-2 1 2z" class="st2"/><path d="m198 777 1 2-1 1v-3z" class="st13"/><path d="m1345 1380 1-1-1 1zM1347 1379l1-2c1 1 0 1-1 2z" class="st3"/><path d="m1563 743-1-3 1 3z" class="st2"/><path d="m1358 1369 1-2-1 2z" class="st3"/><path d="M1435 664c6 0 13-2 15 7 0 4-3 7-6 8-7 2-14 4-16 13l-4 3c-7 1-13 3-18 8-3 3-6 2-10 0l5 14c4-4 8-8 15-4 5 3 4 10 11 12 2-6-2-11-4-16-1-3-4-7 1-10 4-3 8 0 11 3 4 3 5 11 11 8 7-3 3-10 3-16 0-7 0-13 5-19l8-2v-9l16-3 27 30c-7 5-19 9-26 7-8-2-10-1-17 3 13 30 14 22 39 40l-5 10c-3 3-5 6-2 9 2 4 5 2 8 1l3 1 6 8c10 9 11 13 3 24l5 5v2c-1 3-1 7-5 5-3-1-5-4-6-7v-8l-2-6-9-2 2-5c2-3 3-6 0-7-2-1-5 0-8 1l-2 2-14 24c-3 6-6 12-12 15-4-3-8-6-13-7-6-3-9 0-10 8l12 6-13 9c-5-5-10-6-16-3-4 1-7 0-11-3-7-7-13-7-20 1l-4 4-24 6 12 14c-3 9-8 3-12 4l-14 1c-1 5-3 11 3 16 5 4 5 9 3 16l-11-6-6 5c-3 4-3 12-13 9-6-2-12 2-18-1s-10 0-12 6l-5 18-12-9-2-2-4 7-5 2c-2-2-3-4-3-7l2-9-10-6 6-4c6 3 8-2 9-6 1-2 0-5-1-7l-7-10-15 7c-4 2-7 4-5 8 3 5 0 9-2 13l4 10c-3 0-5 2-7 1-7-5-14-2-21 0l-12 3c-1 2-2 7-4 7-5 1-10 1-13-5 6-2 11-5 10-13 0-4 3-7 4-11l-1-2c-9-9-9-9 4-14 2-2 6-3 8-6-3-5-7-10-13-13-4-2-8-5-10-10l1-3c3-4 7-5 12-4 4 2 1 7 4 9l10 2c2-4-2-6-1-10l1-2c8 0 16-4 21 6 2 3 5 1 8 0 5-3 10-3 16-3 9 0 13 4 13 13l1 4c2 3 5 4 8 3 3 0 5-2 6-5 1-4-2-5-5-6-5-2-8-5-4-11s9-4 13 0l11 10c4 3 8 6 13 3h6c15 1 16 1 31-6-1-5-6-6-10-11l-1-2c-1-6 0-11 5-14-4 2-8 4-10-1-3-6-2-14 3-17 6-3 9-10 16-12-6-13-4-28-14-41-6-7-2-17 0-26 2-4 5-5 10-5 3 0 7 2 8-3 1-6-5-4-8-6-3-1-5-2-5-5l2-3c-7-9-1-14 4-22 4-5 7-8 15-10-10-4-20-6-13-19 3-4 11-3 9-11l1-3c5-3 10-4 13 2 5 7 12 0 18 3l9-2c3 0 6 1 5 6-5 3-10 3-14 6-6 3-8 8-7 15 1 6 6 12 11 12 11 1 23 4 32-7z" class="st2"/><path d="m1192 838 3 5 14 8c5 2 7 8 11 14l-23 10 7 4c4 3 5 5 1 10-3 3-4 7-4 11 0 10 0 10-12 8l-27-9c-6-1-13 1-19 2l-3 5c-3 5-7 6-11 2-4-3-7-8-10-13-1-2-1-6-3-6-7-5-8-11-8-19l-3-6-8 3 3 18c0 4 0 7 4 10 3 3 5 7 6 11l10 20c-3 6-9 2-14 4l-15 4-4-9c-1-4-2-7-7-9-3-1-7-5-8-8-3-8-10-15-10-24l-2-5-7-8c-8-2-5 10-12 10 2 8 4 16-6 21l-4-4c-2-6-1-11-1-15-1-8 0-15 10-15 2-6-1-11-2-15-3-9 2-14 11-13l3 1c12-2 20 3 24 14 4-1 5-4 5-6-4-11-4-25-21-28-5-1-8-6-9-12-2-6-5-12-11-17-3-3-3-5-1-8 6-2 11 0 17 0 5 0 7 3 9 7 7 11 15 12 22 2 0-4-4-5-5-9l1-2c5-4 11-4 16-7 3-2 6 0 9-2 6-4 7-9 7-15s0-13 10-10c5 1 4-6 8-7 8 4 10 10 4 16s-11 13-12 22c-1 4-5 5-8 5-5 1-9 1-12 5 2 6 8 5 12 6 10 3 19 6 21 18 1 6 6 9 11 10 3 0 4-3 5-5 6-7 9-7 15-1 8 7 13 17 23 21z" class="st16"/><path d="M1023 1248c1 5 1 8-4 11l-5 7c-5 8-6 8-14 6l-20-3-4 7c-2 2-2 4-3 7 0 4 2 8 6 9l8-4c4 6-3 12-1 19-4-1-7-3-11-3-5-2-9 2-7 7l8 18 10-2 2 2 7 10c6 7 5 11-4 13l-19 7c-5-4-5-11-7-17 0-2 4-5 6-8-8-7-11-7-21 1 7 12 4 24 1 36l-13 5-2 1c-8 3-12-3-15-7-9-8-15-20-21-30-2-2-2-5-1-9 5-4 10-2 13 2 2 3 5 5 8 3 4-3 2-7 0-10-3-4-5-12-15-8l4-6c5-1 10-1 14 3 6 5 12 9 20 4h7l8 1-1-9 8-5c-3-4-4-9-8-11s-5-5-5-9c1-6-1-12-6-16 4-8 10-11 17-15l15-9 3-2c6 1 9-3 11-7l3-1c4 3 8 5 11 9 5 6 10 5 17 3z" class="st6"/><path d="M899 1331c2 10 10 17 15 26 4 9 12 14 21 20-7 8-8 8-17-1l-18 1c-10 0-12-3-13-12l-1-3-1-1-16 8-3 26-2 6c-3 7-7 7-11 2l-7-8c-2-2-5-3-8-3h-11l-5 1c-7 7-15 5-23 4 5-13 10-15 24-12l-1-5c-3-8 0-13 8-13 4 1 6 1 10-3 3-4 9-4 14-6l3-3c-1-8 9-23 16-23 3 0 4 1 5 3 8 8 9 8 12-4h9z" class="st8"/><path d="M1454 674c-5 13 0 26-2 38-11 4-12 4-17-5-2-5-2-5-12-7 1 9 8 16 10 26l-10 4c-4-8-4-18-16-17v7l-7 2-8-20c-1-1 2-3 3-5l8 7c5-10 13-12 22-11l6-14c7 0 13-2 19-7l4 2zM1400 633l-10 3c-10 2-10 2-13-7l-8 1-2-2c-2-3 0-8-7-7-7-1-12-7-20-7-4-4-7-9-6-15l14-10 5 2-1 10c-1 6 1 9 6 7 6-2 10-1 14 3l4-9c6 2 9 10 17 5 5 2 7 6 7 12v14zM1435 663c-3 10-4 11-12 11l-23 1-9-9-2-5v-14c8-3 12-12 23-9 2 7 6 12 12 17l11 8z" class="st16"/><path d="m890 1331 2 9-7 5c-6-2-8-7-11-13-6 7-15 11-17 21l-27-5c-4-1-7-2-10-6l-7-3-10-4-18-10c-4-2-7-5-5-11l13 6c5 2 10 5 15 5 12 0 18 9 28 14 7 4 15 4 22-1 4-4 8-6 13-9 2 0 5-1 7 1 3 4 7 1 12 1z" class="st6"/><path d="M1429 635c-2-5-2-9-1-13l-3-13-6 1-6-2 2-7h1l21-9 13 24-9 8c4 14 5 16 11 20-4 4-10 6-15 4s-8-6-8-13z" class="st2"/><path d="m1402 912-14 5c-6-8-8-14-4-24 3-5 1-13 1-20 5 4 13-4 18 3 5 6 17 3 17 15-4-1-8-3-11-2-4 0-8 3-11 4l4 19z" class="st8"/><path d="M714 1415c2-8 8-12 15-9l4 2c5 2 6 1 9-5l-16-20-9 4-3-6 4-12 7-2c2 12 2 12 13 15 2 0 3 1 5 3l2 10c3 7 3 13-2 19-5 5-10 4-19-2l-2-1-8 4zM1108 984c-3-3-5-7-9-9-4-3-4-6-3-10 6-4 10 0 13 4 4 4 7 6 13 4 2-1 7 0 8 2v8l-3 8c-1 6-4 8-9 4-4-2-6-6-10-11zM1048 953c1-4 2-7 5-10 6 2 11 6 17 6 2 0 5 2 5 4 1 2 0 5-2 6-6 6-10 5-17-1l-8-5zM1115 954l-5-9 15-5c8 14 8 14 3 21l-13-7zM1126 1067l-18 2c-5 0-7-5-6-9s5-6 9-4l15 5c2 1 4 3 0 6z" class="st6"/><path d="m789 1398 2 9-1 2c-9 9-11 8-17-6l16-5z" class="st8"/><path d="m1431 577 3-5c6 1 9 5 12 9l-15 7-8-4c0-6 5-4 8-7zM907 1233l-7 15c-5-6-7-12-3-18 2-2 4-4 7-4s4 3 3 7z" class="st2"/><path d="M1052 918c-3-3-3-6 0-8l11-4 3 12h-14z" class="st6"/><path d="M733 1367c5-1 10 0 14 6l-10 6-4-12z" class="st2"/><path d="m1438 937-4 2c-8 1-9 0-7-10l10 4 1 4z" class="st8"/><path d="M1100 1120c2-3 4-5 7-3l6 8c-6 1-11 2-13-5zM1145 1135c-6 2-8-2-11-3 0-5 3-6 7-6 4 1 5 4 4 9zM1123 1138l4-5c1 6 0 12-4 13-1 1-4-1-7-2l7-6z" class="st6"/><path d="m1018 904-2-2c-2-4-2-8 2-11 4-2 6 1 8 6l-1 7h-7z" class="st16"/><path d="M917 1297c5 3 3 6 2 10-8-2-8-3-2-10z" class="st6"/><path d="M1024 905v-6c2-3 4-3 8-2l2 4-10 4z" class="st2"/><path d="m1376 927 5 11c-5-1-9-2-9-8l2-2 2-1z" class="st8"/><path d="M1499 643c2-1 4-4 6 1l-6-1z" class="st2"/><path d="m904 1293 3-1v1h-3zM1374 928l-1 1 1-1z" class="st6"/><path d="M1511 670z" class="st2"/><path d="M458 1374c-3 2-6 2-10 3l1-6 3-7c2-4 2-8-1-11-4-3-7-1-10 1l-5 2h-3c-3-6-10-8-16-10l-3-4 2-4c15-4 22-13 21-29l1-2 1-1h8l1-8 16 3c7 12 7 12 17 9-6-7-9-15-1-23l24 8c1 8-8 4-11 9 2 5 6 7 11 6 14-3 20 0 27 12 2 2 4 5 8 6 1-5 0-11 6-14 5-2 1-8-2-9-9-1-17-11-28-4-4 3-7-1-8-6 5-6 5-11 2-18 2-5 6-5 10-7-1-9-9-12-13-19l4-4c-1-2-2-5-4-6-3-2-7-3-7-10l20-7c-2-9-11-17-19-18h-12l-6-3c-1-2-2-3-1-5l2-3c4-11 5-11 17-7l-6 6 9 6c13 5 24 14 35 24h4l-7-17-6-2h-6c3-12 2-14-7-18-2-5-3-9-6-12-3-4-6-5-11-2 0 1-3-1-4-4l15-3c8-1 8-1 9-10 5-3 7 2 9 5l9 14-6 3c-2 8 1 15 3 23 5-6 9-11 8-17s1-11 4-15l9-19c10 5 10 5 11 14l9-4c7 5 2 16 11 20 0-13 0-13 6-13 3 6 2 15 13 14 10 2 12 11 15 18l10 3c0 8-1 14-9 16-4 1-4 9-10 6-3-1-5-5-7-8-5-7-11-10-20-10l-12-3c-9 0-13-5-9-14 3-6 1-9-4-11-9 8 7 18-3 26 3 9-9 16-4 26 5-1 11-2 14 3l2 1c12-1 23 0 35-2l21-2c0 7-6 4-10 8l2 15c-5 5-9-2-14-2l-14 10c-6 4-7 10-6 17v19c0 2-3 5-5 6-8 2-11 0-15-10l-12 2c5 7 8 13 14 17l6 7 7 6 19 10c5 3 4 7 3 12 0 3-2 5-6 4-2-5-2-12-5-15-3-4-10-4-15-5-7-2-10 3-13 9-8-3-10-2-10 9l3-1 4-2c9 6 18 13 31 8-5 11-9 13-18 10h-5c-7 1-14 1-19-5l-7-5c1-7 1-15-8-19-6 3-7-4-11-4-5 3-4 9-9 14-5 0-9 0-7-7v-8l-5-6-10 7c4 1 5-5 9-3v14l-17 6c-1 3 0 6-2 7-6 8-6 8-8 16l-12-7-1 10zM913 1090l-4-10-1-10 13 6-3 5c-2 3-1 5 2 6 1 0 4-1 5-3 4-7 2-14-5-18l-6-4-19-14c-1-3 0-6 6-8l12 9c4 3 2 11 10 11 2-8 7-14 4-23-1-3 0-6 3-9 5-5 4-7 0-12-6-5-12-7-20-8l-6 9c-2-3-4-4-4-6 0-5-4-8-6-13-4-7-6-16-10-25l-6-3c-3-2-7-3-11-1-5 2-9 0-12-3v-6c1-2 3-2 5-2 3 0 5 7 8-1 2-6 0-12 3-18 4-3 7-1 10 1 0 8 2 13 9 16 2 1 4 3 5 6 1 11 9 12 18 10 6-1 9 2 10 8 1 4 2 8 5 11 5 7 9 6 14 0 9-10 19-8 26 4-2-9 0-16 7-22 5-5-1-10-5-9-11 3-19-4-28-8l-3 1c-1 2 0 3 1 5s2 5 0 8c-3 2-6 2-8 0-8-4-19 0-26-8-4-5-5-9 2-10s0-9 7-10l10-1c3 0 5 2 7 0 0-3-3-2-6-3-10-3-20-3-29-8l-1-5 1-3c6-17 7-18 26-16l9 5c9 7 17 7 28 5 10-3 22-2 32 6 0 8 6 7 10 9 2 7 2 17 15 16-1 10 12 16 5 27l5 4c1 6-5 6-9 8 4 9 7 19 19 19l-5 22-3 4-11 12c-5-1-8-5-10-10-3-4-5-5-9-3-3 2-3 6-1 9l5 6c7 6 10 14 10 22l2 6c-3 5-7 4-11 2-3 1-4 0-6-1-5-14-5-15-19-12-5 1-8-1-12-2-13-5-27 2-30 14l1 4c4 0 6-4 9-7 9-10 9-10 17 1 8 1 10-12 20-8a18 18 0 0 1 10 16c-1 4-1 6 3 8l2 3 2 11c-8 0-14-3-15-12-1-6-4-8-9-5-8 5-18 5-26 11-6 6-13 8-21 5h-4c-2 8 5 13 7 21l-5 5c-8-6-11-12-15-18-2-4-2-8 1-12 2-2 3-5-1-7z" class="st16"/><path d="M993 923c-9-5-19-3-28-6l-7 2c-8 3-16 4-22-3l-11-7c-4-5-5-10 0-15 8-2 12 7 19 6s14-2 19 5c7 7 11 1 16-1 1-6-2-9-6-12-5-7-7-14-10-22 3-11 6-13 18-11 3 3 0 5 0 7 2 1 4 0 5-2 6-12 15-20 13-34-1-8-3-13-10-18-9-6-9-7-2-16 3-4 8-6 7-13-1-2 2-3 5-4 9-1 6-6 5-11-5-6 1-8 3-11 0-4-4-5-2-9 7-2 11-6 9-15-1-3 3-6 3-10-3-4-7-2-10-3-5-2-8-6-9-11s3-5 7-6c9-3 16 2 23 5l4 1c10 9 16 8 21-1 2-3 4-6 8-5 5 2 5 5 3 9-2 3 0 7-1 11 3 1 8 1 9 6 1 11 6 21 9 32 2 3 3 6-1 8-4 3-6-1-8-3l-4-8c-9-17-29-19-40-4l-2 6-1 7c0 7-8 11-4 19 4 7 12 8 18 13 1-3-1-6 1-8 8 2 11 8 13 15 2 8 3 14 14 13 2-1 5 2 7 4l10 26c2 5-3 10-10 10l-3-8c-3-7-6-8-14-7l-15-2c-3 3-5 6-1 12 2 4 3 9 3 14l-4 4-6-1c-3 8-1 17-2 26l-7 1-5-8-4 11-4 1c-6-8-8-19-17-23 7 11 6 24 6 37l-8 7z" class="st4"/><path d="m781 1112 21-4c-1-12-8-17-16-22 0-6 3-9 8-9l14 2 10 2v8c6 2 11 0 16-5l-12-14c3-9 9-2 13-4l19-16c4 0 6 4 7 8l2 14c1 5 3 8 8 10 11-12 12-12 20 4l9-1 1 6-9 3-9 2c-8 3-17 7-26 3-2-1-3 0-4 1-7 4-13 3-18-4l-14 6 2 13v3h2c12-5 12-5 20 5l4 5-8 10 4 7 2 9-8-3c-7-4-14-10-23-11-2 0-4-2-5-3l-6-2-2 5 1 9c2 12 5 24 6 37 1 4 1 9-5 11 0 7 3 12 8 17l4 8-3 5c-1 0-4-1-5-3l-3-5-4-2c-2 5 2 7 4 11-3 8-3 15 4 22 3 3 4 7 6 13l-6-2c-3-11-13-17-19-25-2-3-5-7-5-10-2-5 0-10 6-11l5-3c-4-4-7-6-12-3s-8 0-10-5c5-4 9-4 15 0-2-7-3-13-6-18 0-2-4-2-6-3-7-2-11-11-8-17 2-4 5-7 4-12-1-1 1-3 2-4l5 3v19l7 9 11-14c1-1 0-4-1-6l-6-3v-16c0-2 3-3 4-4 4-4 3-11-3-12-9-1-11-6-12-14zM754 1124l-13-23-10-2c0-8 8-3 11-7l-5-5 14-7 11 5c1 2 2 3 4 1 6-2 7-1 11 7-11 3-14 7-13 18 1 5 3 10 1 16-1 2 2 6 4 8 2 3 5 5 2 7-1 2-5 2-7 1l-6-3c-2-1-4 0-5 1l1 4c0 2 2 3 3 4 4 3 6 7 4 12v2c1 16-8 29-15 42l-2 5c-8-4-17-5-21-15-1-5-5-9-10-10l-8-4-3 1c-2 3-5 7-10 4-5-2-4-7-3-12l2-7c2-8 0-12-8-14s-9-3-4-11l3-7c9 0 9 0 9 9l1 3 2 8 8-1c5-1 10-2 12 6 1 3 3 4 7 3 3-7 4-13-3-18 4-9 14-5 19-11l-6-14c4-4 6-2 7 1 2 6 6 8 13 9 2-2 5-2 3-6zM638 1182l-6-10c-5-5-7-10-4-14 6-9 2-15-3-22 7-4 12 1 17 1l3 22v10l1 7h3c3-2 3-4 2-7v-2l7-3 9 26 4 2c4 1 7 3 5 9-1 4-1 7 4 9l16-13 3 5c-1 11 0 11 12 15h4l-1 6 1 5c-6 7-14 6-21 7l-2-1c-4-1-8 0-9 4-1 1 0 4 1 5 2 3 5 3 9 2 9-5 12-3 12 7 0 5 0 11 4 15 3 2 3 5 0 7-2 1-5 2-7 1-6-4-11-9-10-16l-35-20c6-13-5-20-10-28-6-8-7-8 2-12l3-1c0-6-4-8-8-10-3-1-7-1-6-6z" class="st16"/><path d="m603 1231-5 10c-6-7-12-7-19-5-8 3-15 3-19-7l-7 6c-8-8-7-15 2-25l-7-5 10-5c-3-9-9-18 0-28l12 11c-1 2-3 3-3 5-2 3-3 7-2 10s4 4 8 2c4-1 8 0 10 5v5c-3 4-7-1-11 1 1 9 5 15 15 14l8 2 8 4z" class="st4"/><path d="m999 1092-2-2c-3-2-3-5-5-8v-4c1-3 3-5 6-5l4 2c4 9 8 12 16 10 10-1 14 2 18 12-3 4-6 7-11 8-3 0-6 3-10 5-5-2-9-6-10-13l-6-5z" class="st1"/><path d="m659 1161-11-16c4-5 13-8 7-16l15-9-7-11c2-4 6-6 9-2 4 4 9 10 7 17-2 4 0 6 3 10l-6-1c-4-1-7 0-9 3-3 3-2 6 0 8l1 3-9 14z" class="st16"/><path d="m697 1364-5-1c-6-5-13-4-21-1l13 10-5 7c-5 6-9 6-11-2-3-9-4-19-5-29l6 1c5 3 8 4 13-1 3-5 8-3 10 2l5 14z" class="st1"/><path d="M1001 917c0-7 0-7-7-19l6-4-12-20h5c9 6 18 14 18 27v5c6 5 4 10 0 15l-10-4zM595 1226l-20 1-8-17c5-6 9-1 15 0 3 4 4 9 10 11l3 5z" class="st16"/><path d="m512 1345 3-13c1-2 3-5 5-5s4 2 5 4l4 4 2 7-19 3z" class="st4"/><path d="m1063 1017-11-6c5-6 11-7 16-2 3 4 2 7-5 8z" class="st16"/><path d="m498 1328-8 9-8-8 16-5v4z" class="st4"/><path d="M777 1095c8 3 6 9 4 15-8-2-6-8-4-15zM601 1297l-3 4-10-1c8-7 8-7 13-3zM619 1179l12 1c-8 6-8 6-12-1z" class="st16"/><path d="M597 1275c-4-3-4-6-1-7 5-1 6 3 8 7h-7z" class="st4"/><path d="m461 1383-1-5c4-1 8-2 11 4l-10 1z" class="st16"/><path d="M825 1117v1l-4 5-3-3 5-5 2 2z" class="st4"/><path d="M697 1365c6 3 6 3 1 8l-1-8z" class="st1"/><path d="m1020 1053-2-4h3l-1 4z" class="st16"/><path d="M1331 1253c-6-3-6-8-7-14 5-2 13-2 13-10 1-4 5-5 8-3 3 1 4 4 8 7l-10 6 2 13-14 1zM1271 1297c-5-6-5-6 1-12 3 0 7 0 10 2 6 3 13 6 20 4l2 2c-2 6-8 8-11 12l-22-8zM927 1403l-3 1c-8-2-15 0-19 11l-9-12c7-2 13-2 17-6s9-6 15-7c5 7 11 13 11 23l-5-4-7-6zM812 1468c2 7 1 9-4 8l-11-3c-2-6-5-10-11-12s-6-5-2-11l28 18zM822 1490l-3-11c6-5 10-2 14 2 3 3 4 12 2 16-2 2-5 3-7 1l-6-8zM1161 1318l-12-3c-3-1-5-3-4-7 0-4 3-5 7-5l6 3 14 8c0 7 0 7-11 4z" class="st8"/><path d="m1156 1288-1-6c10 3 15 10 21 17-9 6-14 5-17-4l-3-7z" class="st7"/><path d="M1307 1243c-3-2-6-4-7-7-1-2-1-6 1-7 2-2 6-2 7 0 3 2 5 6 9 11l-10 3zM1373 1223c8-4 12 2 18 5-6 10-10 10-15 2-2-2-2-4-3-7zM1373 1295c6 2 7 5 3 9l-5 5c-7-5-7-5-6-13l8-1zM1287 1206c8-2 9-2 8 8-5 0-7-4-8-8zM1118 1303h-5l1-3 4 3zM834 1407l1 5-4-2 3-3zM1391 1289l3 1v2c-2-1-3-1-3-3zM1051 1319l1 2h-1v-2zM1396 1275l-1 2-1-1 2-1zM1446 1167l1 2h-1v-2z" class="st8"/><path d="m724 1013-4 7c-1 2-3 4-2 6 5 12 3 25 10 37-5 2-7 5-9 10-2 9-6 16-9 25-7-6-21 0-20-17-4 1-8 0-10 2-4 4-8 5-14 3v11l-9-8-5-7c-7-7-7-7-16-6-7-12-12-16-20-10l-11-9c2 11 7 15 14 15h5l3 3-7 9 17 6c-3 3-9 3-8 9v13c-8 1-9-12-19-4 0-7 8-13-2-15l-10 26h-6l1-15-6 6c-4-1-10 0-11-8l14-3c2-3 0-5-3-6-13-6-21-15-19-30 0-4-1-6-5-6-3-1-7 1-7 5s1 8-4 11c-2 2-2 7-2 11-1 5-3 9-9 9-1 7 3 11 10 15l-9 4-18-12c-5-16-8-19-23-12l4-10c-6-5-14-8-17-16 7-3 11 4 17 4l6-14h2l-2-4c-11-5-15-19-28-20-3 0-6-4-9-5-5-4-11-4-15 0-4 3-6 7-5 11 1 5 5 7 9 7 9 0 12 5 15 12l1 4c-3 6-1 10 4 14l-1 5c11 3 13 12 13 23l20-6c2 5 5 11 6 17 2 7 4 12 14 13l-4 4c-3 0-7 1-11-1l-14-8h-1c-11 2-21 3-33 7l5 8c3 3 5 4 9 2 9-5 10-4 15 4l6 7-6 2c-4-4-7-2-11 1-11-7-24-10-25-26-6-1-13 6-21-3 1 8 1 14-4 17-2 2-6 0-9 0l3-9c2-3 1-7-1-11l-9-16-8 6h-6l-2-5 1-16 4-2c5-1 6-4 7-8 1-2 0-6 2-7 6-5 5-10 1-16v-4h31c-4-3-9-5-10-8s2-7 4-11l-6-11-8 3c-2-4-1-11-8-11-2 2-2 5 0 7 4 3 1 6-1 8-4 2-6-1-7-5-1-6-6-11-5-18 0-4-3-8-8-10-7-3-10-7-9-14v-10c10-1 20-3 26 10l8-8c-1-7-11-11-7-20 8 3 13 1 16-7-4-7-11-2-16-5l-3-12 15-5-4-7c1-5 10-6 8-13s-9-6-15-7c-3 0-6-2-9-6 1-7 10-8 11-14 1-1 3-2 4-1 11 8 25 5 37 7l7 2c-2-7-5-12-9-16l-4-4c-5-6-9-13-4-20 5-8 17-9 25-4l5 2c9-9 21-7 34-5 10 2 6 13 16 18 8 0 21-2 31 7 7-8 5-17 9-26l2-2c3-2 5-4 6-7 2-6 5-10 12-7l6-3c3-4 7-3 11 0 5 4 9 7 15 3 3-3 8 3 12-2l4-1h5l8 5c6 13 20 11 30 17h1c13-6 26 2 38 0l7 1c2 0 5 0 5 3 1 3-1 5-3 6-3 4-8 4-12 7 2 5 6 7 9 7 9 3 14 8 19 16 4 8 3 15-3 22-9 5-17 2-27 1 6 17-11 18-16 26 2 2 5 1 6 4-4 16-2 32-7 47l-2 8c-5 15-3 19 12 23 3 1 7 0 9 4z" class="st11"/><path d="m862 960-6-1-2-14-6-8-17 15 5 13-11-1c-2 4-3 7 1 10s4 7 1 11l-1 10c-4-8-8-11-17-6l-15-19-24 2-8 6c5 6 10 6 16 5l5 8c-3 5-8 5-14 6-12 0-18-6-18-17-1-7-5-10-11-11-11 0-14-10-19-17-2-4 0-9 5-11 8-4 16-2 23 5l8-8c-10-2-19 1-29-2-2-7 3-9 7-8 12 2 17-6 22-15 4-6 12-5 16-10-1-4-4-4-7-5-3-2-7-4-7-8 1-6 6-6 10-7l10 3c3 2 5 0 6-2 3-6 9-7 14-7 8-1 15 1 20-8 2-4 7-1 11 1 4 20 15 26 32 23 4 0 6-1 8 3 2 3 1 5-1 8l-4 5c-4 6-6 13 2 19 3 2 5 5 5 9l-2 21c-2 3-5 3-8 2zM403 937c-5 10 1 19 3 29l-11-4c-1-9-3-18-8-25-4-5-3-13-4-20-1-4-1-9-7-11-6-3-9 2-11 6-1 1-3 2-5 1-6-4 1-16-9-18-8 5-4 17-13 23l-8 3c-13-1-18-10-14-23 3-12 3-13-3-21-2 0-3 3-4 4-7 6-13 5-17-3-2-4-3-8-7-10-3-7-12-8-14-16 2-5 6-6 10-7l5 1 4 2c4 12 4 12 23 15v-8l3-6c-3-4-9-4-11-9v-6l2-3c5-1 9 0 13 3 3 4 8 6 14 6-5-4-11-6-7-14l4-1c7 3 13 5 21 6 4 3 0 9 5 12h4c2-4-1-7 0-11 13-3 22-11 33-15 5-3 10-4 15-2 3 1 6 2 6 5 1 4-1 6-4 7-6 4-12 6-7 16 3 7-4 7-9 6-3 8-24 23-32 22-10 0-3-7-4-11-5 3-10 4-16 4-3 8 2 12 8 15 7 2 14 3 18 10 16-5 22-18 26-33 6-3 11 0 14 5 5 5 0 8-3 11-4 6 4 9 5 14-4 5 0 10-1 16s-1 12 5 17c2 2 1 5-2 6-8 1-10-4-12-9-2-4-1-9-5-13-4 2-5 6-3 9 5 6 8 13 7 22l3 3z" class="st11"/><path d="m728 935 36-1-16 18-6-11-17 3c-3 3-5 7 1 11 2 1 4 2 4 4 2 6 5 9 12 7 2-1 4 2 5 3l9 7c-2 5-7 8-1 13 4 3 7 6 13 8 0 6-5 4-9 4-6-2-10-5-13-10-8-12-13-12-25 0l12 10c4 3 8 5 6 10s-7 5-12 3h-2l-4-2c-9 1-16-4-24-8 2-6-1-14 4-19-2-11 7-20 5-31-1-7 3-14 5-22h5c2 2 3 2 5 2l7 1z" class="st15"/><path d="m727 1015 11-4c0-7-8-6-10-10-3-5-6-7-11-6l-1-4c5-4 9-11 17-11 9-1 11 0 14 8l4 5 7 8-2 10c8 1 14 2 18 10-4 3-11 4-9 12 1 3-3 5-6 3-8-5-11 0-15 4l8 15-18 9c-4-3-2-6 0-7 5-3 6-7 4-12-2-6-1-11 2-15 4-5 3-10 2-15-5-1-4 5-8 7l-7-7z" class="st11"/><path d="M339 919c2-9 5-19 9-28 9 0 13 5 12 21 5-1 4-6 7-9l8-1c6 1 9 4 10 10l1 9c1 8 2 15 8 22 3 4 5 11 1 17l-4 1c-4 3-6 0-8-3l-1-1c-5-6-4-14-6-21-1-3-1-6-6-5-7 1-8-6-13-7l-4-2-1-5-13 2z" class="st15"/><path d="M285 867c3-1 6-1 7 3l2 6c1 4 3 7 7 6 3 0 8-1 8-7l2-4c9 5 13 16 9 25-5 13-3 18 9 25l3 14-7-1c-6-3-12-6-19-5-3 1-7-2-9-2l1-16-1-4 2-6c0-6-3-8-7-11-8-5-11-13-7-23z" class="st14"/><path d="m506 1295 6 6c7-7 8-7 17-4l14 4c7 3 8 9 8 15l-10 3 2 6-1 6-7-1c-2-1-6-4-6-7-1-8-9-9-14-12h-8c-10 5-16 1-18-10l15-6h2z" class="st2"/><path d="m412 1022 9 16-7 9-2-1c-3-10-10-14-19-16-10-3-11-4-11-16v-8l3-4c2 0 4 0 5 2l7 8 15 10zM352 921h4c3 2 4 5 5 8 2 3 4 6 8 1 4-4 7-1 9 0l4 26c-8 4-14 0-20-5l-7-6-7-3c-4-2-5-7-3-8 5-3 3-7 5-11l2-2z" class="st11"/><path d="m410 902-3-6c-2-3-1-6 2-8l6 1c7 3 12 8 18 3l3 1c10 12 10 13-5 22h-4l-4-4-13-9z" class="st14"/><path d="m378 1280 2-19c-1-8 0-9 7-6l3 1-4 10c-2 6-1 7 5 6h7l1 9-9 8-6 3c-4 1-9 2-11-3-3-4 2-6 5-9z" class="st11"/><path d="M404 938c-9-2-10-5-6-13l-4-8c-7-9-7-9 2-19 4 1 4 5 5 9 2 6 3 14 10 18l-1 12-6 1z" class="st15"/><path d="M413 1151c4-2 8-5 13-6l5 5 10 15h-9c-6-3-13-4-16-11l-3-3z" class="st11"/><path d="M506 1250c7 4 11 11 16 17l2 5-14 4-5-2c-3-7-4-15-1-23l2-1z" class="st2"/><path d="m504 1250 1 23-4-3c2-8-3-10-8-13-3-2-5-5-6-8-1-1 0-4 1-6h6l10 7z" class="st16"/><path d="m452 1162-6 9c-2-8-2-8 6-9zM382 958c3 0 5 2 8 3l-1 6c-4-1-7-4-7-9zM473 1168c-1 4-3 5-5 3v-6c2-2 4-1 5 3zM481 1198v3c-4 1-8 0-7-7l7 4z" class="st11"/><path d="m753 1124 7 3-1 2-7 1 1-6z" class="st2"/><path d="M355 945c3 0 8-1 7 5l-7-5z" class="st15"/><path d="M398 1263h5l-1 3c-2 0-3-1-4-3z" class="st11"/><path d="M766 1086c1 2 4 4 0 6-3 1-4-2-4-5l4-1z" class="st2"/><path d="m422 911 4 3-1 4-3-7zM373 1261l-3 1v-1h3zM414 1268v3h-1l1-3zM442 1178l-1 2-1-1 2-1z" class="st11"/><path d="M451 537c-1-4-3-6-7-9-6-4-10-9-16-15l4-1c6 3 10 0 13-4 2-4 5-7 10-7 3 0 5-4 7-5l24 6-11 16c9-3 13 1 16 6l9 6-4 14c-2 6-1 8 7 9-1-15 1-17 15-14l3-8 13-2 4 9c4 9 9 11 18 9l10-2c-4-5-6-11-11-15-6-6-16-7-24-9-3-1-6 1-9 2l-6-1v-2l5-2c2-5 2-9 5-10 3-2 7-1 9 4v1c3 1 5 4 8 4 10 1 17 13 29 5-7-12 1-23 2-35l15 2c2 0 5 0 6 2 5 4 10 9 17 7 2-1 5 3 7 5l9-6 13 4 3 4c0 8 9 12 8 21-9 3-9 13-16 15-1 7 9 8 6 14-2 4-5 8-10 11-10 5-17 3-21-7-4 3-8 2-14 3 8 6 20 6 15 18-3 5-5 6-20 5 5 9 2 20 14 25 5 2 5 7-1 10l-5 4c5 4 11 5 18 7 0-4-4-6-5-8-1-3-3-5-1-8 3-3 6-2 9 0 5 2 7 8 15 11-5-11-5-21-15-26-7-4-7-13-7-20 0-6 7-7 12-8 4 0 7-1 9-5 5-9 8-9 19-3 4 10-2 19-3 29l13-7c6-3 7-9 6-15-1-7-7-5-11-5l-4-1c-11-11-11-12 0-17 7-1 14 0 18 7 1 3 4 5 7 5 7 2 12 4 14 14 3-12-2-18-11-17-2 0-5 1-6-1-2-9-9-16-9-25 0-4 4-7 8-8 5-2 9 0 12 3 5 6 11 12 14 19 5 7 10 9 18 6 10-4 15-2 18 8l4 11c4 10 12 11 18 2l4-4c3-2 7-7 12-4 5 4 3 9 1 14-3 6-8 10-12 15 5-1 8-6 14-6 5 0 10 5 16 3 4-2 9 0 11-6 1-3 5-2 8-2-7-4-16-3-24-5-4-1-8 1-10-4-2-6 1-10 4-15 3-3 8-6 12-3 9 4 19 5 23 16 2 6 6 12 13 14 6 2 8 6 4 12s-9 6-14 0c6 11 14 18 26 21 11-5 19-2 27 6 6 6 16 6 21 14l5 7c2 2 3 5 1 8-2 2-4 0-7 0-7-1-14-5-21 1-1 1-4 0-7-1-2-1-5-2-6-1-8 10-17 4-26 3-2-1-4-1-6 1-4 8 15 21-5 27l-6-1c-6-5-12-8-9-17 1-2-1-4-3-6-3-3-4-6-3-8-1 3-3 7-9 5-7-2-6-7-5-12 1-6 5-10 7-16-9-4-17-4-25-3-3 0-6 1-8-3-1-4 2-6 4-6-9-3-18 3-27 2-4 8 2 13 3 20-5 3-9 1-12-1 0 5 4 7 7 10 12 11 11 22-2 30l-16 7c-4-2-3-5-4-8-1-6-3-11-10-13-8-2-13-8-12-17 1-7-3-10-7-13-5-3-8-7-10-12-2-6-3-10-11-7-6 1-6-6-8-9-4 1-8 0-13-1 2 7 3 13 8 18 10 9 10 11-3 17 1 6 8 9 5 16-4 3-7 0-10-1l1 6-2 2c-8 1-9-5-11-9s-2-9-8-11c-1 6-4 10-7 15-3 7-8 5-13 2-5 5-1 11-6 15-7 4-8-6-14-5-4 3 2 9-3 12-8 0-11-10-19-12-5 8-12 9-20 5-6-3-12 1-14 7-2 5-4 11-2 18l-1 4-16-4c5-6 8-10 6-16-1-3 4-7 6-11l-3-6 3-2 6-3c4-5 7-4 10 0 9-2 5-12 10-15l17 3-6-15c-1-4-2-7 1-10l6-10c8-5 16 9 25 0l-16-11 1-3c6-10 6-11-2-19-6-6-10-13-13-21-1-3 0-7-6-8l-1 7-6 3c-2 4 4 9-3 12l-7-12-12 6-6-4c-3-1-7-2-9-1-10 5-19 0-28-3l-15-7-2 6c-2 3-8 4-11 2-4-2-3-5-2-8 1-2 1-4 3-4 3-2 5-4 4-8s-5-4-9-4z" class="st13"/><path d="M651 527c0-7-3-10-9-10l2-11 11 8 6-18c1-7-5-8-9-8-2-4 3-10-5-13l-2 15c-8-2-12-7-13-14-1-4 1-6 5-6l23 1v-7c13-5 17 6 24 13l-4 9-13-4-1 2 2 4c12 2 23 11 38 8l-8-12c8 4 16-5 21 6 8-3 15-2 20 6 6 7 9 7 15 0 5-4 6-4 11 0l6 5 13-13-1 17c-1 4-4 6-7 3-4-2-7-2-11-1-10 4-19 1-30-1 4 10-7 19-1 31 6-4 13 3 19-3l3 1c3 3 6 2 9 0s4-5 3-9l-2-11 13 4 13-12 6 9 13-6c4 4 8 10 15 7 3-10 2-10-5-15l-15-14 8-1 2-11 10 1 10-18c3-1 5 1 6 4 1 4-2 7-8 10l7 24c11 1 22 1 28 14l7-3c5-1 8 0 8 5s5 10 0 15c-1 1 3 6 1 10-8 4-10-2-14-6-3-4-6-9-14-9 3 12-1 25 12 32-2 6-7 3-8 6 1 4 4 3 7 4 4 0 6 2 5 6 0 3-2 5-5 5l-12 1c-9 2-12 4-10 13 2 8 0 12-5 15 0 4 3 5 6 7 2 3 3 5 2 9-6 1-9-4-13-5-7-3-10-8-13-14-4-5-2-8 1-12 0 4-1 9 6 9 3-2 8-4 5-10-14-3-18-15-23-24l-15-8c-3-2-7-2-10 2s-8 8-5 14c6 6 15-4 20 6l7-6 8 10-10 1-1 12-9-6-5 5-9-5h-10l-6 11-10-13c13 2 15-8 19-15 1-2 0-5-1-9-8 4-13 7-14 14-7 1-14 5-22-1-1-2 4-8-3-10l-1-3c3-6-3-9-5-14-3 1-7 1-9 3-4 4-8 3-12 2-5-2-7-5-9-9-3-7-9-13-14-19-5-4-10-4-14 1-4 4-3 9 1 13l5 2v11c2 3 5 1 7-1 3-2 7-2 8 2 3 4 5 10 6 15v5h-6l-6-3 3-7c-12 1-19-6-24-15h-9c-8-6-4-15-6-23z" class="st9"/><path d="M847 613c-9-1-9-1-10-12l9-2c-1-4-3-7-3-11-1-3 0-6 1-11 6-3 14-4 22-3 5 0 6-2 6-6-12 0-14-2-16-11h12l-5-5c-6-3-8-5-7-11 1-5 1-8-1-12-4-5-2-9 4-11 5 3 10 6 14 12 2 4 7 6 11 9h2c2 1 4 0 7 2h2l1 9 5-6c2 5 2 5-3 11l7 9c4-3 8-8 10-7 6 2 9-4 15-4 3 1 3-3 2-6h-8l9-10-12-2c-6-2-3-7-3-11l-16-10c-1-4-1-8 5-11 0 7 3 12 9 14 3-7 3-7-5-13l5-1c5 0 9 2 11 8 0 5 2 7 7 7l6 2-2 26c6 2 12 3 16-2l2-1c10-1 19-2 27-8h1c10 6 23 2 32 11 4 3 5 4 0 10-2 3-4 5-1 8 2 5 6 4 10 3 3 4 4 9 8 12 6 4 1 9-1 14-5 12-2 22 9 29 3 2 4 4 5 7-1 5-5 7-9 7-14-3-27-9-38-18-5-4 2-6 3-9-9-7-12-19-24-23-4-2-3-12 1-19-9-2-6 6-8 11-7 0-13-1-18 6 0 3 4 6 1 11-13-5-25 4-38 3-5 0-8 3-9 7-1 5-1 11-7 12-9 3-17 9-27 4-8-4-16-8-26-8z" class="st13"/><path d="m630 450-10-12c9-2 12 0 28 18l-6 11-12-17zM742 477c2 4 1 7-2 9-3 1-6 0-7-3l-6-3c-4-2-2-5-2-6l15-3 2 6zM893 540h-6c5-6 5-6 6 0zM577 470l-2-3 2-1v4z" class="st9"/><path d="M1271 1021c-3 3-7 7-10 7-7-1-16 2-22-4l-4-7 15-8c11-6 22 0 21 12z" class="st8"/><path d="m1499 962 12-11c5-4 14-1 17 5 1 3 0 6-3 7-7 0-10 4-13 9-3 4-10 5-12 3-5-4-4-8-1-13z" class="st1"/><path d="m1432 1019 10 13c-7 2-12-2-15-5l-19-24 11-2 3 10c7 3 6-6 11-7l4 4-5 11z" class="st8"/><path d="m1370 1001 15-8c5 5 12 7 12 17l-10-2c-6-3-11-4-17 0h-5c-2-2 0-4 2-5l3-2z" class="st1"/><path d="m1447 1000-12-2 5-6c8-2 16-3 23 1 5 2 5 6 3 11-7 4-12-4-19-4zM1356 1081l-4-13 7-3 10 13c-2 9-6 10-13 3zM1318 966l-8 13-13-9 9-6 13-6-1 8z" class="st8"/><path d="M1503 913c-13 3-15 1-13-11l17 6-4 5zM1466 976c4 0 8 0 7 5 0 4-1 7-4 7s-7-2-9-4c-2-4 1-7 6-8z" class="st1"/><path d="M1261 979c10-4 13-2 16 10l-14-4-2-6z" class="st8"/><path d="M1407 1034c1 5-2 8-5 13l-8-11 13-2z" class="st1"/><path d="M1321 1000c2-6 2-6 10-8-1 6-1 6-10 8zM1404 925l-1 4-9-4v-2c4-3 6 0 10 2zM1351 1036v5l-3-1c0-2 1-3 3-4zM1063 1201l3-3 1 2-4 1zM1526 981l1 3h-1v-3z" class="st8"/><path d="m1314 1355 4 8c-13 3-22-3-32-7 2-6 7-8 11-12 1-1 5 0 7 2l10 9zM1232 1338c-4-3-3-5 0-7l4 2c1 3 0 5-4 5zM964 1486l2 6c-3 2-6 1-7-2l5-4zM1333 1374l-2 4-3-5 5 1zM949 1482l-3 2-1-2h4z" class="st3"/><path d="M912 404h-4l-6-12c-2-4-3-7-9-7s-6-5-5-9l-11-6c-7 8-6 17 1 23l7 8-2 2-4-2c-8-8-15-17-14-29 1-8 1-8 7-13-1-2-2-5-4-6-7-6-10-15-16-21-9-9-12-20-13-32 6-5 7 3 10 5 9-2 9-10 12-18 6 5 12 10 14 15 3 6 6 10 11 13l-6 35 14-4c0 11 8 16 16 21 7 5 16 6 22 12 1 7-3 11-8 13-5 3-9 1-8-6 0-6 0-6-9-7-4 8 3 12 5 18 1 2 2 4 1 6l-1 1zM781 251l-1 8-14 3c7-14-7-18-12-26 1-5 3-8 8-7l13 1h6c7-3 12-1 16 6l4 8c2 4 0 8-5 8l-15-1z" class="st12"/><path d="M985 279c1 5-1 10 5 12 2 1 3 4 4 7l8 1 10 13c1 1 0 3-1 4l-4 1-10-4h-5v6l2 5c-6-2-9-3-10-9-1-5-4-9-3-15 1-4-1-8-2-11-2-6-2-7 6-10zM878 257c3 9 4 9 14 4l-1 9c-7 0-20 4-28 9l-19-10-2-7 2-1 7 5c6 4 10 4 15-1l2-4c7-6 7-6 3-14h3l6 2-2 8z" class="st9"/><path d="M791 219c-6-4-7-9-3-14l8-6c3 11 12 7 20 11l-7 11c-10-8-10-8-18-2z" class="st12"/><path d="m999 343-6-7 3-6c10 5 24 1 33 13-4 1-6 2-7 1-7-5-14-4-23-1zM986 279l-4-4-2-5c1-1 3-3 5-3l19-2h1l-1 6-17 8h-1zM989 354c3-4 5-2 7 1-3 2-6 4-7-1zM913 404l-1-6 5 1-4 5zM999 343l-1 2-4 1-1-1 5-2h1zM1029 350l-1 2h-1l2-2zM994 384l-1 2 1-2z" class="st9"/><path d="M1041 623c-8-1-12-5-14-14-2-11 3-18 7-26-4-4-13-6-8-16 2-2 5-4 4-8l8-20-3-6c0-7 3-10 9-5 3 2 5 3 9 3 8-2 15 0 19 9 1 2 3 4 6 4v-11c1-4-3-9 2-12s10-5 15-3c12 4 24 5 35 11 8 3 10 9 14 16 4-3 6-7 5-11 0-4-5-5-8-5-7 0-9-4-11-10-4-11-6-23-8-34-1-4-3-6-6-8-4-3-8-7-10-13 1-4-1-9 6-9l13-6 6 5c9-5 7-13 5-22l22 13 9-15c-9-4-10-3-16 5-9-10-9-16 2-22 4-2 5-4 7-8 1-4 4-6 9-4s11 1 15 6c4 3 7-1 11-3-7-7-16-9-26-12l8-6-8-15c7 1 7 1 17 17 6 0 8-4 10-9 10 6 8-7 14-9l-14-6-7 9c-6-7-14-11-24-9l6-13 11 6 7-10 11-4c-6-8-9-15-19-15-6-1-13-14-11-19l4-4 21-12c4-3 8-4 12-2 8 3 17 6 20 15 1 2 4 2 7 3 3 9-4 8-9 10-3 1-8-2-12 3 11 6 22 12 30 22v1c3 3 8 6 5 12-1 8-1 15-8 20l2 5c5 5 10 10 6 17v3c7 11 3 22 2 34l-1 3-10-1 20 37-5-1-19-4c-2-1-4 0-5 2l-6 11c-1 3-1 5 2 7l1 1c4 11 13 17 22 24 5 3 7 7 6 13-2 6-7 10-13 12-6 1-8-5-11-8-5-6-10-10-17-7-2 2-2 4-1 6 1 3 2 7-2 9s-6-2-8-4c-7-5-15-4-22-3-4 1-7 3-11 1h-2l9 12c2 4 4 9 0 13-3 4-9 5-13 3-10-7-21-1-31-7 2 10-1 18-2 27-2 23-21 34-40 25h-3c-3 5-8 9-8 16 0 6-6 8-11 8s-4-5-4-8c-2-15-2-15-20-18 3 4 7 3 10 5 3 1 5 4 4 8-2 4-5 6-9 3-3-2-6-1-9 2z" class="st10"/><path d="M1105 463c8 6 14 13 21 20l-3 6c5 4 6 9 5 15-1 2 1 5 2 8 1 1 3 3 3 5 1 9 1 9 8 9 6 0 9 3 13 7-3 5-2 14-12 17l-5-16c-4-3-11 1-12-6-7 1-11-4-17-5l-6 4c-2-2-4-6-6-6-5-1-11 1-18 2 3 6 7 11 1 15l6 8c-9 2-13 1-16-4-6-10-7-11-18-8l-4 1-2-1-4-8-6 6c-3 1-6 1-7-3 0-6-4-8-10-9l-5-5 8-9 8 4c6-4 6-10 5-14l-14-14 6-4c-4-7-13-12-12-21l2-7 4 5 5 4c7-3 11 1 17 3 4 8-1 20 11 26-1 4 1 9-5 14-2 2-1 9-1 13 10 10 18 8 25-5l8 3-1-3c-4-4-9-7-6-14 5-3 10-4 15-1 2 1 5 2 6 1 2 0 4-2 6-4-7-6 2-15-4-22l-14-2 14-15c2 4 3 10 9 10z" class="st13"/><path d="m928 512-11-8 2-17h-8v-7c3 1 7 2 9 4 7 10 17 6 27 6 6 0 12-2 19-4l5 8 1 4c-5 5-1 7 1 10l11-3 4 10 9-7 10 12-1 2-32-6 3 9c-7 5-7 5-15-7l-17 5-3-13-14 2z" class="st5"/><path d="M967 486c0-3-2-4-5-3-4 1-6-1-5-4 0-2 4-3 6-3l16 4c8 1 10-1 11-10l6 6c4 8 5 9 10 12l-18 9-7-8c-4-2-8-2-13-3h-1z" class="st13"/><path d="m1108 417 6 3-4 8h10c0 7-3 13-7 20l-6-7-6-3c-5-5-6-9-1-14 2-1 2-4 4-7h4z" class="st10"/><path d="m1104 416 2 8-8 5 2 8c-5-2-9-5-8-11s4-11 12-10z" class="st13"/><path d="M964 438c0-2 2-4 4-4 5-2 11-4 18-1-7 6-14 4-22 5zM993 407l-5 9-4-12 1-2 8 5z" class="st5"/><path d="m1016 532-1 4-11-3c5-2 7-6 12-1zM1029 558l5 6-7 3 2-9z" class="st13"/><path d="M775 357h-8c-3-1-3-4 1-6l7 6z" class="st5"/><path d="M1008 469c6-3 5 2 8 6-5 0-7-2-8-6zM972 499l-1-4c2-1 5-4 6 0 1 3-2 4-5 4zM950 470l3 4-2 1-1-5zM1039 212v-2l4-2 1 2-5 2zM1064 506l1 3h-1v-3z" class="st13"/><path d="M526 704v-4c7-13 7-13 19-2 6 4 10 9 15 14 3 4 5 8 0 15 9-1 17 1 22 9 1 3 0 6-1 9l-3 3-3 4c1 4 4 4 6 6 4 8 10 11 17 12 6-4 5-19 16-13 15 7 14 8 8 17 6 0 8 3 10 8 1 4 3 7 7 9 4 4-2 10 4 13 3 4 6 8 4 13l-4 1c-10 1-16-7-25-6-11 2-17-11-29-9 7 12-6 20-8 31l-2 1c-2 1-4 1-7-1-8-6-15-11-26-8-10-1-17 5-26 7-9 0-12-3-9-12 0-2 1-3-1-4l-2 4c-4 5-6 11-12 10-8-1-15-3-22-6-2-1-3-4-2-6 0-2 2-4 5-4 2-1 4 0 6 1 4 1 8 3 9-3 1-4-3-8-8-8-5-1-12 3-17-2-5-4 1-11-2-17-6 0-8 6-13 8s-9 4-13-4c-2-6-9-10-11-18-4 10-10 18-14 27-5 13-7 14-18 7l-7-3c-6-1-9-4-9-10 0-10-4-16-14-19-8-2-13-8-21-10-5-2-6-7-6-12-1-5 4-6 7-7 5-3 12-1 16-8h-1c-4 7-11 5-13-1-2-5-5-7-9-10-6-6-9-15-12-22-1-2 0-7 2-7 11-1 18-14 31-10 7 3 12 9 16 15 1 3 5 7 7 7 5 0 5-5 6-10l1-7 6 7c5 4 10 3 15 3 6 0 13-1 14 7 1 6-3 12-13 14 8 4 13 12 23 5 4-2 6 4 10 4l11-9c-2-5-4-10-2-16-6-3-16 0-13-11 7-4 13-6 20-4l10 1c6 1 11 5 14 10l6 7 2 6 22-4 5 4c11-5 11-5 6-12z" class="st17"/><path d="m512 819 1 11h6c2 2 3 3 3 6l-5 9c-4-8-9-9-16-8-6 2-11 4-13 10l-11-8c-4-3-7-3-11 2-1 2-5 3-9 5 0 5 2 11 8 17s10 14 14 21c-2 5-5 3-8 2l-13-3-19-1c-4-1-7-4-11-7-1 7-7 10-12 14-2 3-5 3-6-1l-2-4c-9-8-9-11 1-18 0-7-7-7-14-11l3 8-14 22c-1 1-2 4-3 3-6-2-8 3-9 7-8 0-6-6-8-9l-17-6c-6-2-8-8-9-13s3-8 6-6c6 2 9 0 12-4l4-1 5 2-1 4c-1 2-6 3-3 8l29-14 2-13 8 5c3-1 4-4 2-6-3-3-6-4-4-8 1-3 5-5 7-7 2-1 5-1 7-3l2-5c-7-2-12-5-19 0-6 5-14 8-21 12l-12 1c-3 1-6 2-9 1-8 0-15 0-21-6-1-5 2-6 5-6 5 0 10-2 15 0 8 3 11-3 11-9 1-6 0-12-8-11-6 0-13-5-19 2-3 3-7 1-8-3-6-17-22-25-36-34l-2-4c1-2 3-5 0-8-5-5-8-12-15-15l-2-6c0-4 12-19 17-20 13-3 14-7 5-19l-1-5c2-5 3-9 9-9h5l5-5c7-9 10-10 20-1l9 1c7 0 15-4 21 5l1 2-2 1-3-1 2 4c0 5-3 6-6 5-7-4-10 0-13 6l-2 2-9-1c-5 5-1 11 2 13 6 2 3 7 3 11l16 7-3 7 9 4 1-9 8 2c-5 13-17 12-26 16l1 8c1 4 3 6 6 6 5 0 9 2 12 6l6 3c13 4 16 8 16 22 0 4 2 7 6 6 6 0 11 3 14 8 4 1 6-1 8-5l10-22 4-13c10 3 10 4 10 14l9 3-1 8 3 1 12-7 9-6c5 8 1 14 1 21 5 0 9 2 13 0 7-3 10 1 13 6l4 5c-4 8-6 10-21 3l-3 6 24 7 9-9c2-1 4-2 6-1z" class="st15"/><path d="m304 680-8 8c-2 3-4 3-6 3 1 2 3 1 5 2 8 4 11 9 9 15l-5 6-8 1c-5 0-8 1-8 6 0 4-2 7-5 8-4 2-5 6-1 8 7 3 9 10 14 17 2 2 1 4 1 6l-1 4c1 2 1 3-1 3l-15-3c-2-5 13-11 0-16-4 2-2 12-10 7l6-11-13 1-11 4c-6 2-16 1-20-4-2-2-2-5-3-9 5-2 9-2 14 1h6c8 3 14-1 18-5l12-13-4-9c9 3 15 1 20-6-7-4-14-9-20-10-8 0-14-3-23-6 10-6 10-14 7-23l13-1c4 0 6 3 7 7-5 1-13-3-14 6 0 5 3 8 10 7l-3-10c5 3 9 6 13 7 5 0 9-2 15-4l-1-8c9 1 11 2 10 11z" class="st17"/><path d="M334 673c-5 0-10-2-13-3l-12 10c-1-9 0-18 10-22-1-5-2-7-6-6-4 2-7 0-10-2l-19-12c-1 13 14 8 17 18l-14-5c-3 5 0 9 2 12 4 5 1 8-2 11-5-2-8-5-8-11 0-3 0-6-2-8l-12-8-10-1-11-1c3-6 0-16 12-16 2 7 9 5 14 6 4-2 7-6 11-7 4 0 7 3 10 5l19 1c5 4-2 10 5 12l2-3c0-6 4-8 9-6 4 1 6 0 9-3h4l-5 8-8 10c-3 5 0 12 5 16l3 5z" class="st17"/><path d="M440 695c3 9 3 9 14 7 4 4 5 8 1 12l5 10c-3 6-13 4-12 12-8 3-8-5-13-7l-4 8c-7-7-20-6-23-19 10 4 11 3 16-11-5-3-10-5-16-2-5 2-8 0-11-5 7-2 13-4 20-1 3 1 7-1 10-1l13-3z" class="st15"/><path d="M341 634h-5l2-10c3-4 2-8-1-11l-8-11 14 3c2 0 4 2 5 4 3 5 6 10 7 15 1 10 10 15 16 23l5 2 22-5c5-2 6-2 7 6 1 2 1 4-1 5h-4c-3 1-6-3-6 3l-1 4c-2 2-5 2-8 2-4-1-10 1-11-1-4-6-13-6-17-12l-6-15-2-4-8 2z" class="st14"/><path d="m504 619 4 12 10-9 30 7c-3 9-11 4-18 6l4 15-18 6c-4-8-13-8-21-8-3-7 3-11 7-16l-8 2-5-9c-2-4 0-6 4-6l5 3 1 1v-2c1-2 3-3 5-2z" class="st13"/><path d="M425 667c-9-3-9-3-8-13h20l15 8c-2 5 1 8 6 12l7-4 1 3-8 11-2-8c-8 2-10 9-16 13-5-7-13-11-15-20 0-2 1-2 2-3l-2 1zM499 624l-5-4-3-15-11 8c-4-1-6-4-4-8l4-6c2-4 0-6-4-7l-1-4 7-2c4 6 8 2 13 0 1 5-3 10 2 14l13 6-2 6 8 2 1 1-12 4-4 4-2 1zM439 619v2l-14 4-1 12v10c-5 0-10 0-13-5-5-7-5-8 2-13l3-5 6-10 12 1 5 4z" class="st17"/><path d="m369 573 4-1 9 8c-4 6-7 2-11 2l-4 5-9-4 11-10z" class="st13"/><path d="m492 710 1-4c2-8-1-13-8-17 4-5 9-5 11 1l5 16-8 4h-1z" class="st17"/><path d="m385 670-1-4c4-1 8-3 12-1l4 4-7 15c-1 1-2 2-4 1v-12l-4-3z" class="st14"/><path d="m384 670 4 2-7 3c-2 2-4 5-7 2l-1-9 11 2zM393 658c-5-1-5-4-2-6s6-1 8 3l-2 6-4-3zM397 665l-12 1-1-2 8-3h5v4zM268 657l-3 3-3-5c3-2 5-2 6 2zM404 656l1-5 4 5h-5z" class="st17"/><path d="m428 592-4 3-1-2 5-1z" class="st13"/><path d="M389 685h3l-1 3-2-3zM472 605h-2v-1l2 1zM364 683l-1-2 1 2zM247 650h1-1zM360 683l-2-2 3 1-1 1z" class="st17"/><path d="m257 1041 2 1-2 5h-2l2-6z" class="st14"/><path d="m378 1053-8-3c6-2 7 0 8 3z" class="st4"/><path d="m755 194-3-2h1l2 2z" class="st5"/><path d="M1243 344c-6-4-15-6-18-15h-9c-4-1-7-4-6-9s5-5 9-4c7 2 12 1 16-6 3-1 8-2 8 4 3 4 5 3 8 2l1-1c9-2 10 6 12 12 10-2 20 2 29-3 4 3 8 5 6 11-1 3 1 7 2 10-4 2-9-1-10 4l-5 12c-5-12-16-13-26-18l1-12-15 6-3 7z" class="st17"/><path d="M1251 315c-1 4-4 7-7 1l7-1z" class="st10"/><path d="m1076 249-2 2-1-1 3-1z" class="st9"/><path d="M1168 534c3-2 7-3 11-3l8-1 17 1 1 3c1 3 2 6 5 4v-6c-3-8-1-12 8-11h8l14 17c8-3 14-8 13-17-6-4-13-7-17-14-1-3-6-4-9-6l-1-10c8-6 16-4 23 1 4 3 9 3 14 5l5 5-15 2c0 5 2 6 6 7 8 3 16 8 26 9h4c5 9 14 16 12 29 0 7 2 12 5 18-1 10 4 17 10 24l1 5c-3 4-8 6-7 12 1 3-1 5-4 6-2 0-22-6-23-8-4-9-10-10-18-6-2 4 5 10-4 12-7-5-16-7-20-16-6 12-13 18-28 11 1 10-3 19 3 27 2 3 3 7 0 10-3 4-6 1-10 0-7-3-14-1-21-3-14-2-17-4-19-18-1-4-1-7-6-8-3-1-7-2-7-7 1-6 6-5 10-5-6-3-6-3-12-3-1 5-1 11 3 15 12 15 11 20-5 28 4 7 11 12 4 22-6 0-11-2-15-7-5-9-14-11-22-11-11 0-20 0-23-11-5-1-8 0-11 2 0 6 2 11 0 17-1 4-3 9-9 10-5 0-8-3-10-8-2-4-5-8-6-14 0-8-8-8-12-13l-4-6 4-11 9 8 3-5c0-2-3-4-5-5h-4c-7-2-7-3-6-12 6 1 10 10 17 3 9 8 9 17 8 27l11-3c-5-10 5-14 7-21l7-2 6 5c2 0 4-2 6-1 14 2 18-9 24-17v-4c0-10 0-10 4-16l-4-17c8-3 14 1 21 5l5-6 5 3c7 7 9 7 19 1l-10-22z" class="st17"/><path d="m1339 505-8 1-2 9-7-1c-12-1-23-12-22-24l22 18c1-8-6-16-21-23 0-4 2-6 5-4l13 9c3-1 5-4 3-7-2-4-5-10-10-8-5 1-7-2-10-4-3-3-2-7 2-10 7-4 12-8 11-17 0-4 2-8 4-11-4-4-4-4-16-8 4-5 9-8 14-6l15 9 4-8 3 1 4 5c5 7 5 8 0 15-3 3-5 6-5 11 0 2 2 3 4 4l8 7c2 2 3 5 2 8-2 3-5 2-8 1-4-3-9-5-13-9-3-2-6-4-9 0 0 5 4 5 7 6 7 1 8 5 5 11-2 6-2 10 3 14 2 4 3 7 2 11z" class="st15"/><path d="M1337 495c-6 0-7-5-9-8l7-14c-7-3-18 0-17-13l12-4c3 10 12 11 21 17l-2-8-8-8c-1-2-1-3 1-4l10-3 9-2 7 8v8c-5 8-14 12-19 20-3 1-7-1-8 4l12 8c-1 2-3 3-6 3-4 0-7-2-10-4z" class="st11"/><path d="M1299 550c1-6 2-11-4-15-2 0-2-4-3-6l-6-9c-1-9 7-9 12-14 2 5 3 7 3 11l3 1 8 4c3 3 5 1 9 0l1 3c-10 4-12 11-9 21v5c-7 9-8 9-14-1z" class="st15"/><path d="m1269 488 14-7 9 5-11 13c-6-2-10-9-17-4-2-6-3-9 5-7zM1248 357l-5-11 12 5-7 6zM1227 490h-10l7-6 3 6z" class="st17"/><path d="m1342 453-1 3-6-1 3-2h4z" class="st4"/><path d="M409 511c-14 7-26 5-38-2 0-5 3-6 7-6 7 1 14 2 21-2 4-2 9 0 12 5l-2 5zM420 508v-4l6 3v1h-6zM366 521l-4-3 1-1 3 4z" class="st13"/><path d="M723 1428c3 3 4 6 0 7s-5-2-5-7h5z" class="st1"/><path d="m347 551-8-10 14-2c3 0 6 0 8 2 2 1 3 4 3 6 0 0-4 3-5 2-5-3-7 3-12 2z" class="st9"/><path d="m417 561-3 2c-4-1-2-4 0-5 1-1 3 0 5 1l-2 2z" class="st10"/><path d="m377 532 4 1c-1 1-1 2-2 1l-2-2z" class="st9"/><path d="m439 619-4-3 4 3zM456 571l3 2-1 1-2-3z" class="st10"/><path d="m391 534-1-1 1 1z" class="st9"/><path d="m643 1421 2 3-1 1-1-4z" class="st6"/><path d="m1298 550 8 6 6-4 3 2 6 4c11-1 13-5 7-19l6-4 3-5 3 3c-1 7 4 13 7 18s5 9 3 14c-1 3 1 7 3 10l6 9c-9-1-13-4-15-10l-13 20c-1 1 1 3 2 4l7 14c2 2 3 3 3 5-12 5-19-5-28-6-2-6 5-9 1-14l-1-4c4-6 5-11 6-18 2-2 4 0 6-1-1-3-2-5-6-6-6-1-10 3-16 1-6-5-6-11-7-19z" class="st11"/><path d="M1350 484c-4-4-2-7 1-8 5-2 9-6 11-10l5-1 3 7-20 12zM1344 498l8-1 9 12-14-1c-2-3-4-6-3-10z" class="st15"/><path d="m1344 497 3 10-8-2-3-9c4-5 5-1 8 1z" class="st14"/><path d="m1376 590-3 4-13-2c0-4 2-5 5-4l11 2z" class="st16"/><path d="M1390 581c2 3 2 6 2 9-7 2-8 2-5-8l3-1z" class="st1"/><path d="M1321 557c-4 5-4 1-6-2l6 2z" class="st15"/><path d="m1413 551-11-7c5-9 15-2 21-7l7 10-17 4zM1457 553l-10 1c-10-1-13-5-10-17 9 3 16 7 20 16zM1399 548c0 4-3 4-5 3-7-5-8-17-3-24h2c4 6 4 13 6 21zM1457 554h12v3c-1 1-3 3-5 3-3 0-7 1-7-5v-1zM1462 532l1 4-3-1 2-3zM1447 536l2-2-2 2z" class="st4"/><path d="m235 873 6-1 8-3c1-1 2-2 4-1 0 4 1 8-4 10-2 0-3 4-4 6 1 7 7 4 11 7 1 3 0 4-1 6 2 3 5 2 7 3 5 4 8 8 2 13-2 2-5 4-1 8l5 7-9 9-6 1-20 1 1-13c4-3 6 0 8 1 4 4 5 0 7-3l3-2c-5-12-18-11-28-16l3-8 3-9c1-3 0-7 4-9l1-7z" class="st15"/><path d="M254 868h-4v-7l9 1 2-12 6 1h5l7 7 6 7c1 6 1 11 3 15 1 4 3 7 6 8 6 3 8 7 8 13l-4 5v4l-5 11-5 3-1-5v-6c-6-3-6-9-8-14l-4-8-2-3c5-9-4-12-6-18l-13-2z" class="st4"/><path d="m264 920-5 3c-4-9 2-12 7-15-3-7-9-8-15-6-4-7 4-5 4-10 5-3 8-1 13 1 6 10 2 19-4 27z" class="st4"/><path d="m268 893-12-1-11-1c-3-1-6-3-1-6l20-5c5 3 6 7 4 13zM311 980c7-3 8 3 13 6l-10 9-3-15z" class="st14"/><path d="m664 1456 7 7c-1 5-4 5-9 4 0-7-10-9-9-17 5-1 9 0 11 6z" class="st1"/><path d="M901 197h1-1z" class="st5"/><path d="M248 923c2 2 2 4 3 7l-8 3-8-8-23-11c7-5 13 8 18 0l18 9z" class="st11"/><path d="M1174 258c4 2 5 4 2 7h-5c-2-3-2-5 3-7z" class="st13"/><path d="m1118 230-1 4-2-1 3-3z" class="st5"/><path d="m289 768 2-3c6 2 14 1 16 9 8-2 8 10 15 9l7 14 2 7c3-2 6-3 6-5 2-5 5-5 9-3 3 2 7 3 11 2 3-1 7 2 10 4v11c-1 4-4 7-6 10-3 5-6 3-9 0-2-1-16 0-20 3h-4c-8 5-8 5-16-1-2 1-2 5-5 7h-1c-9 2-14-5-11-15 2-8 2-15 0-24l-1-10-5-15z" class="st14"/><path d="m267 846-4-3c-6-4-12-6-18 1l-5-7c-3-3-5-7-11-7-1 0-4-1-5-3s-2-5-1-7l5-2c3 0 6 2 8 1 3 0 5-2 6-4 1-1-2-4-3-5l-4-4 4-5 12 1-3-9c4-4 8-7 14-2h9l11-1c3-1 5 0 8 2l2 3c0 4 5 8 1 12s-8 0-11-1c-9-3-15 1-16 10l-2 9c0 8 7 11 9 18-2 3-3 4-6 3z" class="st14"/><path d="m290 792-6-1c-1-7 2-10 9-9l5 7c-2 4-5 1-8 3z" class="st17"/><path d="M226 804c-1 1-2 0-4-1 2-2 3-2 4 1z" class="st14"/><path d="m266 846 6-3c3-3 6-3 10-1 2 1 2 2 1 4l-10 5h-4l-3-5z" class="st15"/><path d="M416 1346h10c4 1 7 4 7 9-6-1-14-1-17-9z" class="st4"/><path d="m239 737-14-1-1-4c5 0 12-4 15 5z" class="st10"/><path d="m504 1421-4 2v-3l4 1zM482 1419l-1-3 4-2-3 5z" class="st2"/><path d="m1342 618-1-5 6-1 12 7 8 8 1 2v2c-2 3-4 4-7 5-2 1-3 2-2 6 4 5-1 7-2 12l9 2c6-1 7 3 8 9l-14 2 1 12h-6c-2 1-5 2-5 4 0 1 1 4 3 5l8 3-8 5 2 3c3 5 1 8-3 11-7 4-9-3-14-6-5 16 8 33-3 49 5 4 9 11 14 17 6 5 3 13-6 22-3 3-5 4-9 5 7 5 4 12 5 17-2 4-5 5-7 5-7 0-12 3-15 9s-9 7-16 5l-7-2c-13-4-14-6-7-17-3-7-7-10-14-4l-7 4c-9 5-12 5-17-5-2-4-4-8-10-9-7 0-5-8-11-11-5 1-11 4-19 4 2 9 6 15 12 20 9 8 9 10-2 19h-1c-1 1-2 2-3 1-3 0-4-2-5-4v-8c-2-1-3 1-4 3l-2 2-11 10v2c-4 0-8 0-11-3l-19-21c-7 1-8 8-9 14-14-3-20-11-21-25l-23-7c-2 0-4 0-6-2-1-1-4-3-4-5s3-4 5-5l16-3c2-10 4-19 13-25 5-4 5-6-1-14l-4 13-8-6c-5 1-5 5-4 8 3 8-1 14-8 18-4-7-4-16-16-18 10-5 14-15 23-19-4-4-12-5-13-13l1-3c8-2 14-7 22-8 9-1 16-1 23 5l5 2c1-2-1-3-2-5-5-8-2-14 7-15 5 0 9 2 14 1 8-2 15 1 23 5l2-1c5 0 8 4 14 2-6-1-10-4-12-8-3-4-3-7 3-9 5-1 8 0 12 2 10 4 11 2 11-10 1-5 3-8 8-7 4 0 4 4 4 7-1 6 4 8 7 11 4 6 11 9 16 15 2 6-2 10-2 15 2 3 6 4 8 2 5-6 10-4 15-2 7 3 15 3 22 5 7 1 12-4 10-12-2-7-6-12-2-19 2-3-1-4-3-6l-14-15c-3-2-6-4-2-8 3-3 7-4 10-2s4 4 5 7c-1-6-3-13 1-17 6-5 8 5 14 6 8-10 1-17-4-25 1-4 5-6 8-10s9 0 12-4l3-6z" class="st4"/><path d="m1219 833 7-12c-10-7-17-16-21-29l8-3c5 1 8 1 12-4 2-3 7 0 9 4l1 5 1 4c11-1 11-1 15 9s5 10 14 4c3-2 7-2 9-6 1-2 7-1 10 0 2 0 4 3 6 5 3 4 3 6-2 9l-4 2c2 5 4 7 8 7l8 2c9 4 14 1 17-9l2-4 18-2v-12c-2-3-10-2-8-9 9 1 15-3 17-13l4-3c0-7-9-9-10-14-1-7-9-6-12-12l6-3c4-3 4-7 2-13l-1-10c0-2 2-6 1-8-5-6-1-12-1-18 8-1 8 5 11 10 5-2 9-3 9-10l12 1-1 6c-2 9-2 9-11 6-4-1-7 1-8 4l-2 12 2 12 1 3c9 6 8 16 10 25l5 17-9 2-2 8h-8c-1 5-5 10-2 17 7 2 8-8 16-7l-6 8c-3 3-6 6-5 11-4 4-8 1-13 4 4 1 8 0 12-1l17 12-8 5c-10 2-10 2-16 10-1 0-4 0-5-2-6-4-11-9-18-2-1 1-5-1-7-2l-22-19-7 9c7 3 15 1 15 10-4 11-10 14-22 4 1-5 3-11-3-15l-9-1c-4-1-9 0-13 3-9 5-11 4-14-6l-15-1z" class="st16"/><path d="M1213 832h4l7 15-22-3 4-9c2-2 4-3 7-3z" class="st1"/><path d="M1360 642c-5 0-7-2-6-7l13-3 4 4c-1 5-5 7-11 6z" class="st16"/><path d="M1347 828c-7 6-10 6-19 0 5-6 11-4 18-2l1 2z" class="st4"/><path d="M1245 853c6 0 6 0 8 7-7 3-8 2-8-7z" class="st1"/><path d="M1194 837c-2-7 3-8 9-11 4 1 4 4 3 8l-1 1-11 2z" class="st16"/><path d="M1174 703c-3 5-7 1-10 1-8-1-10 0-13 7l7 10c1 1-1 3-2 6l-10-7c-6-4-11-7-18-3-3 2-7 1-12 1l-3 6-8-1c0 4 2 7 6 9s9 3 7 10l-4-2c-5 6-8 14-20 16 6 2 11 3 13 6s1 8 1 13l-7 1c-6 3-12 3-17 5l-1 1c-4 2-5 0-6-3-2-5-6-6-10-9-4-2-7-1-8 3-2 10-9 11-18 11l-1 6 4 14-16-8c-6-3-9-8-12-14 3-9 11-17 6-28 4-4 11-4 12-10l4-3c4-1 23 3 25 6 3 5 8 7 9 13 0 3 4 6 7 11 2-9-1-16-4-21-5-5-4-12-6-18-2-7-1-7-9-4h-1c0-5 6-10-1-14l6-7c-4-4-6-3-8 0l-4 12-19-2-1-6c-1-12 7-18 11-27-1-5-6-9-5-16 12-1 25-8 33 7 1 5-5 4-4 8 4 3 8 7 13 8 12 3 13 11 12 21l1 1c3-8 11-12 9-22l-4-11c-1-3-1-7 3-9 3-2 7-2 9 0 9 12 24 17 36 25 12-9 21-7 28 7z" class="st11"/><path d="M1042 784c0-1 1-4 3-4l8 1 4-11c3-5 5-6 11-3l9 6 5 9 9 10c-1 7-8 9-13 13l-11-8c-6-1-4-6-6-10l-19-3zM1084 782c2-6 9-4 15-7-3 6-9 6-15 7z" class="st4"/><path d="m979 1265-3-5h3v5z" class="st8"/><path d="M1368 627c-5 1-8 0-8-7l7-4 1 11zM557 1255c15 5 18 9 19 22l-12 9c-1-1-4-2-4-4l-7-21c0-2 2-4 4-6zM446 1341v-5l9-1v3l-9 3zM449 1326l-3 4-2-2 5-2zM557 1244l-3 1v-1h3z" class="st2"/><path d="m873 938-13-13-3-5c3-5 3-12 8-16 3-2 6-5 2-10-9 7-18 0-26 2l-11-15c-3-3-1-6 0-10-1-3 0-3 3-3 4 5 7 6 13 3 6-4 14-5 20 1 5 5 11-2 16 4 0-8-2-13 2-18 7 1 13 1 17-6 2-2 5-5 8-4 10 5 21-1 31 2 6 2 10 0 14-4 3-2 6-4 9-1 2 3 1 6-1 9l-3 2c-7 8-6 10 5 14l9 21-8 7c-6 3-13-2-19 4-8 2-13-3-19-8-2-1-3-3-3-6 3-6 9-5 14-7 5-1 3-2 0-4-6-3-11-8-16-12-5-3-6 0-9 3l-4 9c-2 5-5 2-8 2-2 3 0 6-1 10-5 5-9 1-14-1 2 3 5 4 9 6l7 5c2 5-1 9-4 12-4 4-4 8-1 14v4c-4 8-9 1-13 1-4 6 7 9 2 15-3 0-4 0-5-2l-8-5z" class="st14"/><path d="m880 943 4 1c7 3 9-4 15-6h4c5 2 12-3 14 6l-5 2 6 7-4 2c-3 0-7-4-10 2l9 7 1 1c9-2 16 2 23 5 4-5 0-7-2-10v-8c10 2 18 7 26 10 9-4 15-2 20 9l-6 6c-4 4-8 8-4 15l1 4-1 4-5-1-5-11c-9-2-17 0-20 11l-3 2c-14-3-17-14-19-27l-21 3-7-17c-5-4-15-5-11-17z" class="st4"/><path d="m999 1072-6 5c-4-5-6-11-14-12-6 4-9 11-18 11l-5-12-19 21-4-8c0-10 9-17 18-20 9-2 15-1 22 3 5 3 9-1 12-6l13 8 1 10z" class="st2"/><path d="m924 887 3 6c-4 5-4 9-2 15h-13c-8 1-9 2-11 10 0 2-1 5-3 7-5 0-7-1-6-6v-5l9-13c0-9 3-15 11-18 5-2 9-2 12 4zM917 944c-1-3-2-4-6-3h-7c-1-2-2-2-4-1l-8 8-7-3-1-6-4-7c-1-2 0-4 1-5h5c3 2 6 6 11 3l12 2 7 1c4-2 7 0 10 3 2 1 2 3 1 6l-10 2z" class="st11"/><path d="M965 1030c2 9-7 10-11 14-3 4-10 6-17 2l9-18c3-5 8-3 14-3 3 0 5 2 5 5z" class="st2"/><path d="m966 1031-5-6 6-5-6-8c10 0 14 3 14 9 1 6 0 7-9 10zM927 943v-6l9-1c-2 11-3 11-9 7z" class="st4"/><path d="M992 1082c5 0 4 3 4 7-4 0-7-1-4-7z" class="st2"/><path d="m861 960 8-1-3 6-5-5zM886 963l-2 2-1-1 3-1z" class="st4"/><path d="m835 868-5 2-9-1-6 11h-24l-6 9-6 1c-4-4 0-10-3-14 0-4 2-7 3-10 1-5-1-7-7-8-7-2-11-6-10-14 1-3 0-6-1-9l-1-11c0-6 1-11 6-15 6-3 10-2 14 3 2 6 6 9 12 12l2 1c2 2 3 3 3 5-2 7-7 12-13 15 3 7 21-5 16 12 6 1 11 2 14 8 6-1 9-5 14-8-14-1-17-11-21-22 2-5 5-6 10-6h15c6 0 10 1 13 6 3 4 5 7 11 8-6-10-5-12 7-13h5l1-2c-10-7-25-11-32-7-4-5-1-13-7-17-5-4-10-7-14-13-6-9-3-20 9-24 9-3 11-6 8-15l-2-12c1-4 2-8 7-8 6 0 6 4 7 8 1 6-2 13 2 19 5 1 8-3 11-4 11-6 13-5 14 8 0 4 1 7 5 9l4 8c4 2 5-1 7-3 3-4 7-4 12-2 3 1 6 1 6 4 1 4-3 4-7 6 7 1 11 4 10 10 4 1 5-1 5-3 0-5 3-8 8-9 4-1 6-4 5-9 0-6 6-6 7-10-9-4-17-12-29-8-5 2-10-2-16-4l-4-7 1-3 9-7c2-2 4-2 7-1 4 2 7 7 13 3h2c2 0 3 0 4-2l-1-3c-1-10 3-14 12-11 6 2 13 5 14 14 1 3 2 7 7 6 5-2 3-6 2-9-3-11 2-16 13-15 5 1 9 2 15 0-10 2-18-1-27-2-6 0-9-7-14-9-4-2-2-10 3-11 7-2 7-6 7-13s4-9 10-4l12 10c6 5 12 9 20 7 5-1 9 3 13 7v3l-9 1 7 11 17 2-2 6c-4 5-5 9-3 15s-1 8-8 8l-2 1-2 1 7 4c1 4-2 6-6 7-3 0-3 3-1 5 2 6 0 11-4 15l-6 1 4 11h-7l-8 11c1 1 1 4 3 4 15 5 16 17 15 30v6l-13 20c-3 1-5 0-7-1-9-4-13-3-17 7-11 3-11 3-15-10 2-6 14-5 12-16l-7 4c-4 6-10 6-17 5h-14l-18-2-10 11c-3 1-7 0-11-4-4-1-8-3-12-7 3 7 2 11-2 13-4 3-8 0-10-4-3-12-13-6-19-8-1 5 3 5 5 8-1 8-7 5-12 8z" class="st15"/><path d="m1008 703-6-1c-3-6-8-6-13-4s-7 0-11-3l-21-18c-5 3-1 7-1 10l-3 9h-8c-3 4-6 7 0 11l8-5 3 1-5 7 1 2c5 1 9 3 14 1h2c6 6 13 1 19 0v7l-15 1h-16l2 11c3 8 3 8-4 12l-7 2-6-17c-5-2-10-9-20-5l2 8c-13 1-24-10-24-22 0-5 2-9 8-11l5-1c5-2 11-4 10-11-1-5-7-6-12-5-6 0-9-2-9-7l-2-19c4-4 8-2 12 0 12 8 25 3 36 1 5 0 12-6 12-14-2-18 1-22 19-19 7 1 14 3 21-3 4-3 11 2 12 9 4 12 5 13 17 8 4-2 7-1 9 4-7 9-9 10-20 8l-15-2c-6-1-9-8-16-4l-2-1c-3-1-5-4-8-2l-3 1c0 2 0 0 1 1l2 3c2 5 4 9 1 14 23-2 29 2 29 17l5-4c-1-5-3-9-3-15 1-4 4-5 6-2 4 6 10 6 16 6 3 0 6 2 8 5l10 19c-9 4-10 15-16 23l-3 1c-3-1-4-4-5-6-5-7-8-7-16-1z" class="st17"/><path d="M965 899c-1-6 2-8 7-7l7 2 5 12-12 5c-4 2-7 1-9-4-1-2 0-3 1-4s2-2 1-4zM1007 704c0-4 2-8 5-8 4 0 8 1 11 3l5 10c-2 4-4 2-6 0-3-5-8-5-14-3l-1-2z" class="st11"/><path d="m967 904-4 2-9-5-8 2c4-8 11-6 18-5h1c1 1 3 3 2 6z" class="st15"/><path d="m981 863 6 1v6l-15-3 9-4z" class="st16"/><path d="m1001 782 4-14 3 2v11l-7 1z" class="st11"/><path d="M1001 854c6 2 7 3 4 6l-7 2c-2-4-1-6 3-8z" class="st15"/><path d="M1026 747v-5l3 1-3 4z" class="st11"/><path d="m849 1063 3 4-4 1 1-5z" class="st4"/><path d="m732 1166-2 8c-1 1-5-1-8-2 2-5 5-6 10-6zM744 1158c6-1 6-1 6 7-4 0-6-3-6-7zM729 1180c6 2 5 6 5 11-6-2-6-6-5-11zM747 1173v3l-3-1 3-2zM733 1166l2-3 1 1-3 2z" class="st2"/><path d="m760 1118 1 3h-1v-3z" class="st4"/><path d="m776 874 6 4-3 11c-6-5-12-4-18 0 1 9 10 6 15 8 1 9 1 9-7 12l-10 4c-4 1-6-1-8-3l-4-5v-4l7-16-3-3-10-14c-4-3-10-4-16-7-4-1-6-4-6-9 7 0 14-3 19-9-4-4-9-3-14-2-5 2-10 1-14-2s-6-2-10-1c-7 4-14 4-21-1-6-3-13-4-20-6 1-6-4-9-8-13-2-4 1-8 1-11 1-5 4-6 8-5 14 3 28-3 42 4-2-5-5-5-7-5-11 2-21-1-32 0-7 0-12-3-16-9-2-10-6-18 0-27-1-4-4-5-6-7-3-2-5-5-4-9s0-8-2-12c-2-7 2-13 6-18s9 2 15 2l4 4c4 5 3 11 6 16l1 2c3 8 8 12 16 14 9 2 16 5 25 2 5-1 7 2 9 7s1 10 2 14c0 7 3 11 11 10-2-7-1-13 11-13-8-5-12-11-16-18-4-5-5-12 1-16 6-5 12-3 16 2s11 7 13 14c1 4-2 6-2 10 5 3 11 6 13 13 1 2 3 6 1 8-5 7-2 12 0 19l-5 14c-3 3-2 6 0 9 3 4 5 7 3 13-3 5 1 9 7 10 3 3 2 6 1 8-2 5-2 9 3 11z" class="st14"/><path d="M569 1017c0-5-2-8-7-7-9 2-13-4-17-12 4-1 7-3 10-2 5 2 8-3 11-2 4 0 7 4 11 5l14-3-2-12 8-4c0-7-7-13-2-20 5-1 11 4 17-1l12-12-1 6c-1 8 0 16 5 24l6 3 2-6c0-10-1-19 3-28 14-2 18 1 24 15-9 4-10 11-11 19l-3 21c9 7 20 8 28 19l-9 4c-2 8 0 15 6 21l8-7 2 1-3 10-11-1 3 9c-3 2-11-1-13-5l-4-14-7 3-11-10c-4 7-10 7-16 6l-6-7 10-6-10-1c-4 11-12 14-23 10-3-1-6-2-9-1-9 1-18-3-22-11v-4h7z" class="st15"/><path d="M747 900v4l4 4 6 4-4 15c-3 3-6 5-11 3-5-1-11-3-14 5l-7 1-5-2-4-2-6-1-7-4 22-14c-2-4-4-10 2-15 7 1 14 5 24 2z" class="st4"/><path d="m522 837-3-6c6 0 10-3 12-9l7 3c3 2 2-8 7-2 1 6 1 10-1 16-1 3-4 3-6 4-1 0-3 1-2 3l4 1c7 1 12 1 15-6 3-6 12-3 16-8l7 2-6 32c-8-4-12-11-19-11h-22l-9-19zM581 834c-1-6-1-13 6-17 3-2 2-5 0-8l-3-11 21 4 2 6c12 1 24 2 34 10l-2 6c-6-4-12-7-16 2-6-3-9-11-18-10l-3 8-3-1c-8-4-10-4-12 4-1 4-1 7-6 7z" class="st14"/><path d="m648 790 6 7 26 2c4 0 8 1 13-1 3-2 9 2 13 4 3 2 1 7-3 7h-5c-6-5-13-4-20-4-7 1-15 3-21-2l-6 14-4 1-5-12c1-6-2-11 2-16h4z" class="st15"/><path d="M698 892c2 7 2 7 13 17-2 4-5 4-9 2l-20-7 1-7c7 2 7-13 15-5z" class="st4"/><path d="m606 1046-4-3c12-1 16 2 12 12l-8-9z" class="st15"/><path d="M430 1000c0 7-3 5-7 4-3-2-4-4-1-7 2-3 4-1 6 1l2 2zM449 932c-1 9-5 6-9 5 2-8 2-8 9-5z" class="st4"/><path d="M655 1053c1 5-2 5-6 5 0-5 2-6 6-5z" class="st15"/><path d="m532 1086-3 3-3-6 2-1 4 4z" class="st4"/><path d="m289 793 1-7 7 4 1 8c3 6 2 12-1 19-3 6 0 12 8 15l1 6c-10 3-17-1-24-10-5-7-10-3-15-1h-5v-7c2-2 2-5 1-8-2-6 2-8 7-9l12-2 7 6 4-1-4-13z" class="st15"/><path d="M282 826c6 8 14 10 23 12l6 5 8 6-4 4v1c-9 3-17 1-25-4l-3-2-3-5h-11c-5-4-9-8-12-13l1-3 3-1c6-1 11-3 17 0z" class="st17"/><path d="m289 850 25 4 4 8-1 5h-4l-11-3c-11-1-12-2-13-14zM307 832l2-11c7-3 7 5 10 7l8-2c0 4 0 7 5 9 4 2 7 6 5 11l-15-5c-2-5-7-9-15-9z" class="st15"/><path d="m353 833 8-1c2 4 6 7 2 12-1 2-2 2-3 2l-9-2 2-11zM283 844c4-4 4-1 4 3h-3l-1-3z" class="st14"/><path d="m359 846 4-1-1 3-3-2zM315 853l3-4c0 2-1 3-3 4z" class="st15"/><path d="m716 934 4 1c-2 3-3 3-4-1z" class="st11"/><path d="m369 929 4 4c-9 5-12 4-15-4l-1-7c3-1 5-1 6 3 1 2 3 3 6 4z" class="st4"/><path d="m299 906 2-4-2 4z" class="st11"/><path d="m648 789-3 1-5 2c-5 1-8-2-10-6l-2-8c-3-4-11 6-11-5l5-3 2-5h-5l-4 1-2-9c-7 3-10 9-11 18-8-4-19-3-21-16l-2-12 2-9c11-3 10-15 15-23-10-1-22 7-27-7-3-8 0-13 7-17-5-9-11-10-15-3-4 6-10 8-16 11-7 2-6-6-10-7l-9 7-4-1 5-21 4-3 7-5 15 5c6 1 5-7 11-10l17 16 2-1-4-10 6-6 11 10c7-4 1-12 5-17 5-3 8 2 12 6 1-9 15-12 6-23 11 0 12 1 15 9 1 5 2 11 9 13l4 5-3-4-3-14 12 7c3-9-7-11-9-17l16-6-5-6c-7-3-9-8-11-15l-4-9c5-3 8-1 11 1 3 1 7-2 12-3v14l8-7 3 2c2 3 5 7 5 11 1 5 4 8 8 10l7 6c5 4 6 9 1 13 4 8 8 15 19 12l6 21 25-14c-2-15-7-20-15-20-1-3 0-6-2-9l-6-6c8-4 12 7 20 4-8-7-7-16-4-26l7 6c6-3 12-9 20-3l2-3c2-3 4-2 6 0s1 4-2 6c-2 1-7-1-6 5h5l25 2c5 0 7 5 3 8-6 6-6 13-8 20l10 3-1-10 9-3c-4 12-4 12 6 21l-4 7 7 10c-1 5-6 4-9 5 0 4-1 8 3 11 6 5 3 12 4 19 1 3-4 1-6 4 6 4 8 9 3 16v6c-1 10-6 14-15 12-6-2-11-2-15 2-5 0-6-6-11-6-5 3 0 23-17 12l-5-7-10-8c-4-5-6-5-11-2s-5 8-3 11c6 7 8 18 19 19-2 8-7 8-14 8l7 8c-5 6-10 4-14 3-5-1-7-6-7-11 0-7 0-14-4-21l-13 2c-5 1-9 3-12-3-1-2-8-1-11-1l-8-7c-2-2-2-5-3-7 8-2 16-5 23-9 5-2 10 1 15 4-4-6-2-10-1-14-2-5-7-2-9-6-2-3 2-5 2-8-13-3-22-11-33-19-2-1-2-6-5-1l-2 4c-3 2-7 1-10 3 5 3 8 8 6 13l8 4c2 3 1 5-2 7l-15-3-5 14c1 5 9 11 0 18l16 12c-7 6-8 11-5 18v7zM1037 643c-3-4-5-7-9-2-4 6-9 1-14 2-3 0-5-5-5-8-1-9-1-9-8-13l-12 9c-6-2-12-9-19-3-1 1-5-1-8-1-7 7 2 15 1 20l-15 16c-3-3-7-5-11 0-9-2-18 4-27-4-2-2-6-2-11-4 3 6 7 11 5 13-2 5-1 8 1 12 7-6 12 0 18 2 4 2 5 6 2 10-4 5-9 9-15 10-9 1-11 8-7 15l7 11 12 5 1 2c-1 2-2 2-4 2h-2c-5 3-9 3-13-1l-8-1c-3 2-5 1-7-1-2-4-2-7-2-10s2-5 1-9c-5 0-9-2-13 4s-26-2-29-8c-1-3-1-6 1-8 1-2 4-3 6-2 3 1 5 2 8 1-1-8-6-11-13-13-11-4-13 5-17 13-7-6-7-14-8-21 10-4 10-4 6-12l-5-15c10-6 18 0 28 3l8-10 15 6 2-9c6-2 4 4 8 6l6-3 9 6c3-7-2-9-5-12l-11-11-7 1c-7-8-13-18-27-10-2-2-3-4-3-7 4-5 8-4 12-2l11 5c6 3 12 5 19 1 4-3 9-3 14-4l1-8c0-8 4-10 12-10l17-2c3-1 5-4 8-7l12 7c2-7-5-8-7-14 7 2 11-1 13-7l11 3c3-5-3-5-5-8 7-1 12-9 20-4 1 6-5 5-6 8v13c9 2 15 7 18 16 2 3 7 5 11 8 0 5-6 3-9 6 10 5 18 15 30 15 5 1 10 6 16 0 6 2 12 3 15 10l-3 2c-6-2-5 3-8 5-5 2-9 1-12-4z" class="st10"/><path d="m822 681 8 18 2-5c0-6 3-8 8-9 9-2 22 6 25 15 1 2-1 5-1 9l-15-7-2 6c2 3 4 7 7 7l22 4-4-12 11 6 4-5 5 7-3 18c-1 2-4 2-5 3 1 2 3 3 3 5v2c-5 7-5 14-7 22l-1 2c-4 2-6 1-9-2l-1-12c-8 2-14 6-20 11-5-1-7-5-7-10v-15c0-2-2-4-4-5l-4 4 2 13c4 10-2 19-12 19h-4l-3 7-3 7 3 2c2 7 8 10 13 14 5 5 12 9 5 20l3-1 6-8 4 3c5 5 11 9 18 8 6 0 9 3 8 8-6 8-14 0-21 4l10 13c-8-1-16-2-20-10-2-5-6-6-9-6h-20l-5 3c-4 3-6 0-10-2-2-2-2-4-5-6h-2l-12-10c-2-8-7-7-13-7l-3-3c-5-9-5-10 2-17-1-11-11-15-19-21l7-7 10 1 4-17c7-1 10 4 13 9 6-7 6-7 22-2l8-7-4-7 6-11-8-8 2-5 7 2-3-18-8-2c2-4 5-9-3-15h22z" class="st17"/><path d="M649 526c6 1 9 3 6 9l-1 5 3 9-10 3 7 12-14-2-2 4c-2 9-2 9-10 9-5 0-10 0-13 5l5 17 11 2-3 5c8 6 9 15 13 25-8-1-12-1-16-7-1-3-5-9-12-6 0 8 9 9 11 16-8 3-21 0-31-9l15-7c-3-7-8-7-14-6 3-11-4-18-6-28h8c13 3 15 1 13-12l-13-2 1-12 10 3 2-6c7 2 4 8 7 13 11 1 19-3 25-13-4-4-12-6-9-15l9-2-1-9 9-1z" class="st10"/><path d="M603 530c2 6-2 9-7 13l7 7-12 3-10 24c-5-5-9-9-10-15 0-5-3-10-2-14s6-7 9-11v-1c3-5 8-6 12-8h10l3 2z" class="st9"/><path d="m604 530-2 1c-3-3-6-3-10-1l-13 5h-4c-3 2-5 2-6-2l4-4 4-1 5-15-6-6 2-3c4 0 7 0 10 2l16 14 18-8 6 7-24 11zM655 564l14-2c7 9 4 16 1 25-9-1-14 11-26 8 8-6 6-14 8-21l2-9 1-1zM638 594l-1-3 3 1-2 2z" class="st10"/><path d="m822 496-6-6 10-3 3 4c0 4-3 5-7 5z" class="st5"/><path d="M750 575c-3-4-1-7 2-8l7 3-4 5h-5z" class="st13"/><path d="m791 527-2 5-3-3v-7l5 5zM848 539l-3 3c-1 1-3 0-4-1l1-4c2-1 5-4 6 2zM848 511c1-5 3-4 6-2v3l-6-1zM881 521c-2 2-2 2-6-3l6 3z" class="st5"/><path d="M868 591c-4-6 3-7 3-12l9 6c0 9-8 4-12 6z" class="st9"/><path d="M942 576v2h-1l1-2z" class="st10"/><path d="m862 595-2-2h1l1 2z" class="st9"/><path d="m1194 435-5 8c-7-3-11-7-15-15l7 1 9 1c4 0 5 1 4 5zM1206 438l-5 5-4-4c0-3 2-4 9-7v6z" class="st13"/><path d="M1167 533c-3 0-7 0-4-7l4 6v1zM1164 549l4 1-1 1-3-2z" class="st17"/><path d="M934 505c-5 0-6-3-4-6 1-1 5-2 7-1 4 3 2 5-3 7z" class="st9"/><path d="M545 700c0-4 2-6 6-7 4 0 5-2 7-6 2-7 11-9 17-4l8 8-6 2c-6 3-8 7-7 13 2 6 6 9 12 8 4 0 7-3 10-3 2-1 5 0 6 1l1 7-5 7-1 11h-11c-7-10-19-7-28-9l1-3c8-5 8-5 2-12l-12-13z" class="st13"/><path d="m542 841 2-16 9-5 11 6c3 1 6 1 8 6l-5 9-9-1c-6 12-6 12-17 9-3-2-1-5 1-8z" class="st11"/><path d="M578 746c7 2 5 7 3 12-4 1-8 0-9-5l4-5 2-2z" class="st13"/><path d="m640 793 3-3 2 9-3 6c-7-2-7-2-4-7l2-5z" class="st14"/><path d="m513 819-6 1 1-5 5-2v6z" class="st11"/><path d="m576 748-3 4 3-4zM296 692c-9 4-9 4-12-4l11 1 1 3z" class="st10"/><path d="M463 876c-7 1-4-3-4-7 5 0 6 2 4 7z" class="st11"/><path d="m327 775 2-5h1v8l-1 1-2-4zM292 761l-1-6c5 1 6 2 1 6z" class="st14"/><path d="m418 875 3 4-2 1-1-5z" class="st11"/><path d="m461 790 2-3 1 3h-3z" class="st17"/><path d="m397 661-4 1v-4l4 3zM498 624h2l1 3-3-3zM424 668l1-6c4 0 7 1 8 7a780 780 0 0 0-9-1z" class="st10"/><path d="m1036 642 12 5 7-6 4-1c3 10 5 19 15 25 2-6 9-9 6-15-1-4 2-10-6-11 6-7 14-5 19-9l2 2c3 12 3 14 21 12h8l15 7c0 6 5 11 13 12 10 11 15 10 21-3 3-7 7-8 14-5 4 3 7 8 12 8s6-7 12-7c4 4 8 10 6 16-2 8-12 2-17 6 0 5 7 8 4 15l-5 2c4 5 7 12 15 10 1-1 3 1 4 2-7 8-13 4-20 1l-2 4c-6-6-13-9-21-8l-8-8c-1 1-2 2-5 2l-2-6c-5-1-8 1-10 6-1 5-6 5-8 0-1-4-3-5-6-5l-7-3c-3-2-7-3-10-6-3-2-6-4-7-7-3-5-6-6-12-4 0 3-1 7 1 8 6 5 3 11 3 17v7l-10 8c-5 1-5-3-5-6 0-9 0-9-9-12-2 0-3-2-5-3l-9-5-8-7 12-3-14-12-5 7-12-4c-6-2-11-5-18-4-2 1-5-2-7-4-1-1 0-5-5-3-5 3-8 0-11-5-1-3-1-5 2-7l16 2c5 0 10 0 9 7l3 1c3-4-1-12 8-13zM1342 617l1 8c-5 6-10-3-15 2 0 6-1 9-7 9l10 14-3 11c-1 2-2 5-4 6-4 2-6-2-7-4l-5-6-3 1 3 23-2 1-3-8c-4-7-7-7-14-2l14 15 3 3c8 7 8 7 2 16 5 7 8 15 2 24-5 2-10 4-15 0l-7-1-20-5-2 6-16-2 6-17c7-9 3-18 5-27 1-4-1-10-1-14-1-7-3-11-10-8-4 1-8 2-10-3-1-5 2-8 7-9 5-2 10-4 15 0 3-10 1-17-4-23-3-5-5-9-2-16 1-1 4-3 3-4 0-4-2-7-3-11h9c8-3 11-2 15 5l1 5 21 6c5-4-2-10 2-15h7l9 4-8 7c9 1 15 10 26 9z" class="st15"/><path d="M1260 610c1 7 0 13 7 16l2 6 3 13-5 10-7-5c-15 4-15 4-12 11 15-7 18-4 19 13l1 9v6l-2 10 3 9-8 2-28-22c-2-4 7-7 2-10-4-3-5 0-6 4-4 4-10 0-14 5-1 2 3 4 1 8l-12-2-5-9-5-11h23l-7-15-11 10c-8-4-12-13-22-13l-3 7c-3 11-3 11-14 11-6 0-8-3-7-9 0-3 2-7 1-8-4-3-2-10-8-11l-5-2c7 0 11-6 17-6 1-8 3-15-6-20-2-1-3-4-3-6-2-4-2-9-3-14 10-5 16 3 25 7-3 4-6 2-9 1-5-1-8 0-7 6 3 3 9-3 11 3 2 3 4 6 3 10-2 6 3 13 8 14l29 2 7 5c3-7 3-7-5-17 3-4 6-9 0-14l6-11c5 2 9 9 16 4 6-5 7-10 8-17l3 2c5 7 9 13 17 15l2 3z" class="st14"/><path d="m1305 569 6-2c3-3 6-2 10-1 3 3 3 5 1 8 0 7 3 14-6 18l-13-14 2-9z" class="st15"/><path d="m1246 504-2-1 1-1 1 2zM1328 442l3 3h-6l3-3z" class="st14"/><path d="m1363 459-1 2-1-3 2 1z" class="st4"/><path d="m1301 526-3-2v-1h5l-2 3z" class="st14"/><path d="M1322 575v-8c1-1 3-2 4-1 3 4 5 9 2 16l-6-7z" class="st4"/><path d="M253 813c4-2 6 0 6 4-3 1-6 1-6-4z" class="st15"/><path d="m1194 801-3-3c-3-8-11-13-14-22-8 3-12-1-16-6l-9-8c-5-6-4-8 2-11l13-5c3-1 6 0 10 1l-9 13 2 4c5 5 9 4 12-2l5-15c11-1 12 0 11 12l7 5-14 13 6 7-4 8c2 4 9 2 7 8l-6 1z" class="st16"/><path d="m1217 696-8-10c5-3 11-7 19-3l2 10-10 8-3-5z" class="st15"/><path d="M1204 825c3-9 4-9 11-6l-3 8c-4 4-5 0-8-2z" class="st16"/><path d="m1329 628 2-6 11 4c0 3-1 4-4 3l-9-1z" class="st11"/><path d="M1203 825c3 0 5 2 8 3l3 4-8 3-2-8-1-2z" class="st2"/><path d="M1094 715h1l4 4-2 1-3-5z" class="st15"/><path d="m1104 723-1-1h1v1z" class="st4"/><path d="M861 859c7 5 7 5 12-1l-5-11 2-1 14 11c1 6-3 11 2 16l-2 6c-6-6-11-3-16-1-6-9-15-10-24-3-5 4-8 2-10-6v-1c3-4 10 1 13-6 6-9 7-9 14-3z" class="st17"/><path d="m925 887-7-3c-9 1-13 8-16 15l-7-3 4-6c-2-9-2-9 0-17l8 4 4-2c2-1 4-2 2-6 1-9 2-9 9-8l5 12c2 5 5 6 10 2 4 1 8 1 11 7l-23 5z" class="st15"/><path d="M937 874c0 4 0 7-5 7-3 0-6-1-7-4l-3-15 15 12zM899 889c4 5 0 5-3 7-12-2-14-4-12-15 4 5 7 10 15 8z" class="st11"/><path d="m913 876-5 1 3-8 1-1c2 2 2 5 1 8zM900 867l-3-1v-2l6 2-3 1z" class="st17"/><path d="m900 940 1-3 2 2-3 1zM879 768l2-21 5-3 3 5c0 3-1 7 2 7 6 2 7 6 8 10 10 3 19 6 29 7 3 9 2 11-11 15l1 10h-15l4-9-13-2c-1-8 8-4 12-8l-11-3c-5-1-6 4-8 6-2 4-4 6-7 1-1-6 4-11-1-15z" class="st14"/><path d="m798 830 10 4 8 16c1 2 5 2 7 2 5 1 9 0 11 5l-22 14c-1-10-6-13-17-8l4-13h-7c-9 2-9 2-12-8 8 1 10-6 15-11l3-1z" class="st11"/><path d="M929 773c-8 1-16 3-24-3-1-1-6 1-9 1 1-11 0-12-10-11-2-4-2-7 2-10l7 1c7 6 13 4 18-1l20 10c3 1 6 1 6 5 0 5-4 4-7 4l-3 4z" class="st17"/><path d="M861 859c-7-4-7-4-12 3h-2c-4-3-11-3-10-11 9-5 18 2 28 0l-4 8zM778 874h-10c0-6 0-12 5-18l10 2-5 16z" class="st11"/><path d="M915 830c5-3 9-2 13 2-3 5-6 8-13 8v-10zM887 742l-10-6c3-4 7-2 11-3l7 2c0 5-3 7-8 7zM936 837l7-2c-1 11-2 12-12 11l5-9z" class="st14"/><path d="M800 874c-5 1-10 1-13-5 2-1 4-3 5-2 4 0 8 2 8 7z" class="st11"/><path d="M878 768c8 3 8 4 3 13-5 0-5-3-5-7 0-3 0-4 2-6z" class="st17"/><path d="M846 862h2c1 4 0 7-5 6h-8l-1-4 12-2zM779 816c7-1 10 3 13 9-4-2-9-5-13-9zM932 791c6 0 6 3 4 7-3-1-9 0-4-7zM878 767l-1 6c-5 0-7-2-7-7l8 1zM904 736l11 1c-5 6-6 6-11-1z" class="st14"/><path d="M763 832c-6-2-6-3-2-8l2 8z" class="st11"/><path d="M778 830c5-1 5 2 4 6-4 0-5-2-4-6zM918 738l4-3c3 2 2 4 0 5l-4-2zM798 830h-2l-2-3c4-4 4 0 4 3z" class="st14"/><path d="m771 836-2-2 1-1 1 3z" class="st11"/><path d="M921 847h3v1l-3-1zM774 821l-2 2v-1l2-1z" class="st14"/><path d="m998 651 10 6 8 20h-8l-3 7-2-3c4-10-1-17-11-21-6 1-12 6-21 2l5-7-3-10c3-3 5-5 10-3l1 1c6-1 9 5 14 8z" class="st10"/><path d="M999 650c-4 3-7 3-9-1l-6-6 7-4 9 6-1 5zM984 642l-10 3-1-2v-2c5-6 5-6 11 1z" class="st14"/><path d="M973 641v1-1z" class="st10"/><path d="M968 904c-2-1-2-3-3-5 6 0 6 2 3 5z" class="st14"/><path d="m654 696 1-4c2-3 4-3 7-1l28 17c2 1 5 0 8-1 3 5-1 9-6 13h12c2 4 0 8-1 12s2 8 5 14c-19-11-21-11-30 1l-12-3-1-2c-1-9-1-9 10-16-3-4-5-9-10-13-3-6-11-9-11-17z" class="st13"/><path d="m665 712 8 4 6 11c0 6-6 3-11 5l-3 9-4-4-2-9c4-5 2-10 3-16h3z" class="st10"/><path d="m662 712 4 12-7 3-2-4 2-6c-2-4-1-5 3-5z" class="st13"/><path d="M752 908c-3 0-6 2-5-3 2 0 3 1 5 3zM630 1002c2 6-1 9-4 11-5 0-8-2-7-7s6-5 11-4z" class="st11"/><path d="m542 841-1 8-7 2c-3-11-2-12 8-10z" class="st17"/><path d="M283 825c-5 2-11 2-16 2 2-5 12-7 15-5l1 3zM269 814l2-4 3 3-5 1zM663 712l-4 4h-13l4-11-6-1c-3-1-5-2-4-5l4-3 10-1 6 8 5 8-2 1z" class="st14"/><path d="m656 679-6 7-6-11c5 0 8 1 12 4z" class="st17"/><path d="m644 661 7 5v5h-5l-2-9v-1z" class="st13"/><path d="m663 690-8 1 3-6 5 5z" class="st17"/><path d="m606 671 1 4h-2l1-4z" class="st13"/><path d="m732 735-1 3-2-2 3-1z" class="st14"/><path d="m1055 640-5 7-1-6c1-6 3-5 6-1z" class="st17"/><path d="M853 699v-3h3l-3 3z" class="st10"/><path d="m879 726 2-2h1l-3 2z" class="st14"/><path d="M592 531c2-6 4-6 10-1l-10 1zM587 543l3 3h-6l3-3z" class="st13"/><path d="M1156 678h5l-1 3-4-3z" class="st14"/><path d="m1197 708-1-1 1 1z" class="st4"/><path d="m1247 675 3 3v5h-4c-5-1-7-5-5-13l6 5z" class="st15"/><path d="m913 877-1-8c3 0 6 1 6 5l-5 3z" class="st11"/></svg>