<svg xmlns="http://www.w3.org/2000/svg" xml:space="preserve" id="Layer_1" width="1728" height="1728" x="0" y="0" style="enable-background:new 0 0 1728 1728" version="1.1">
  <style>
    .st2{fill:#7394ac}.st3{fill:#a6c0d0}.st5{fill:#bccdda}
  </style>
  <path d="m479 873-19-51c-12-19-18-38-17-61 36-14 54-42 69-75 35-80 95-140 165-191 80-59 167-108 252-160 5-2 11-4 14-9 29-46 81-58 126-78 103-47 209-84 317-117 15-5 33-8 42-26-14-13-29-9-43-6-64 15-128 30-189 54-70 28-144 47-213 78-84 36-164 78-240 127-39 26-83 38-122 63-52 35-102 72-138 125a94 94 0 0 0-15 50c-2 34-13 67-22 99-2 7-7 11-16 6-13-54 0-104 20-154 7-7 12-14 16-22 10-24 26-43 43-62 10-13 24-22 38-32 52-37 108-69 165-99 34-18 67-38 102-55 33-17 67-33 102-48l161-67c18-8 37-13 56-19 27-9 54-21 80-33 40-18 83-24 125-33l21-5c37-15 73-3 110 3 39 7 55 34 71 64s22 62 19 96v50c2 39-4 78-13 116l-15 93c-5 40-14 80-21 121-8 51-19 101-32 151-14 53-32 105-47 158-12 42-26 84-41 125-16 44-35 86-66 122-14 15-31 27-47 41-38 38-84 54-134 62-45 7-90 5-136-7-20 0-37-11-57-11-53-4-102-18-152-31a403 403 0 0 1-276-245l-26-60-6-16c-5-10-10-19-11-31z" style="fill:#e6d6e5"/>
  <path d="M806 1388a398 398 0 0 1-206 196c-64 26-130 43-198 53-47 7-95 15-141 28-18 5-47-13-46-39 3-46 0-93-1-139l-2-47c-1-97 12-192 56-280 9-17 21-33 34-48 24-26 47-53 74-78 18 22 25 49 32 78-7 20-23 32-34 47-52 68-69 149-83 231-7 45-8 90-1 134 6 42 22 53 64 47 51-8 102-18 150-39 68-28 133-58 182-115l35-44c30-2 57 4 85 15z" style="fill:#ea7666"/>
  <path d="M809 1390c-29-4-57-8-86-15-30 1-51-17-75-28-34-18-66-40-98-61-14-9-24-21-35-32-37-34-69-71-98-112-5-7-12-14-12-27-8-27-23-51-27-80 0-25 7-45 33-54 24-12 48-7 67 18 20 26 38 54 54 83a293 293 0 0 0 199 164c33 9 63 21 93 36 28 15 36 33 31 63-6 26-21 40-46 45z" class="st2"/>
  <path d="M1005 1267c33-3 66 5 99 4 53-2 102-15 146-44l24-14c-6 57-21 111-46 162-15 29-29 58-48 85-29 41-62 79-104 108-36 26-77 38-121 36l-12-2c-3-1-6-2-8-5-2-6 2-10 7-13 4-3 9-7 14-9 29-13 46-38 59-65 16-35 25-71 28-109 3-48-13-92-38-134zM449 545c7 4 7 9 4 14l-8 20c-16 38-14 78-13 121 14 17 10 37 14 57 2 22 10 40 14 61-26-8-53-12-80-16-22-4-44 2-65 8-45 13-84 35-118 66-15 14-26 30-31 50l-5 16c-2 5-4 10-11 10-6 0-9-4-11-10-12-36-11-73 0-109 27-82 84-142 149-196 44-37 95-62 146-87l15-5zm407 801c0-34-19-54-50-66-26-11-53-21-81-30-73-21-135-58-175-126-24-39-44-80-72-116-16-21-35-33-64-27 4-6 6-13 7-20 4-38 24-66 56-88 11 5 10 16 16 26-17 8-31 18-37 37-2 7-6 14 3 22 18-10 14-39 38-44 15 16 19 36 27 54 22 55 54 105 94 148 21 23 47 43 75 60 55 33 116 48 177 61l77 18c-11 38-35 64-73 75-8 3-16 5-18 16z" class="st3"/>
  <path d="M447 759c-7-6-11-13-10-21 0-11-4-22-5-34 4-3 7-4 9-9 8-30 11-61 23-91v-5c-12-38 16-62 37-86a519 519 0 0 1 197-137c25-8 45-25 67-39 69-42 140-78 213-111 62-27 127-43 188-68 70-28 142-46 215-64 12-3 25-3 37-3 8 0 15 1 17 10 3 10-2 17-11 21-12 6-24 12-37 15-47 11-90 31-136 46a1789 1789 0 0 0-266 109c-8 5-17 10-21 18-10 23-33 31-52 42-65 40-131 78-194 121-45 31-88 63-125 103-37 39-66 83-85 132-8 21-24 33-38 47-6 6-14 3-23 4z" style="fill:#eadeea"/>
  <path d="M1001 319a259 259 0 0 1 276-48 249 249 0 0 1 150 207 253 253 0 0 1-224 279c-45 8-89-3-131-20-29-12-53-31-76-52-29-27-48-62-61-99-8-20-11-41-15-62-4-22 2-44 6-65 10-54 33-101 75-140zM858 829c7-32 31-48 53-65 13-11 30-7 45 5s20 27 14 44c-8 22-22 41-41 56-13 11-24 10-39 1-14-10-28-20-32-41zm544-668 10-12c17-25 35-27 61-6 18 13 19 39 2 57l-31 32a39 39 0 0 1-50 3 41 41 0 0 1-11-51c5-8 10-16 19-23zm-597 853c-27 19-50 16-61-6-9-16-6-36 7-50l24-26c10-13 24-21 41-16 14 4 23 13 26 28 3 14-3 25-10 35-8 12-15 24-27 35zM498 913c-13 8-17 22-22 33l-5 13c-3 6-7 8-13 8-8-2-11-6-12-13 0-18 10-31 18-45 6-9 16-9 27-8 7 2 7 6 7 12z" class="st5"/>
  <path d="M404 1115c35 51 75 98 121 140a688 688 0 0 0 195 119c2 12-4 19-11 26-36 41-74 82-126 104-51 22-101 49-156 60-32 6-64 15-97 14-24-1-37-11-43-33-3-12-5-25-6-37-7-86 9-168 34-249 16-55 48-102 89-144z" style="fill:#f0d593"/>
  <path d="M413 1006c5-5 9-8 13-9 7-3 12 2 16 7s5 11 0 17a54 54 0 0 0-15 35c0 9-4 14-13 15-10 1-13-7-14-15-4-18 4-34 13-50z" class="st3"/>
  <path d="M360 610c8-4 14-8 22-8 6 0 13 1 15 8 3 7-1 12-7 16l-25 17a323 323 0 0 0-69 52c-6 3-13 3-17-3-5-6-6-15 1-19 16-10 26-27 43-36 14-6 26-15 37-27z" class="st5"/>
  <path d="M1005 385c37-49 85-78 144-85 75-8 138 17 186 77a208 208 0 1 1-330 8zm-62 408c-3 26-24 39-36 58-4 5-14 4-20-1-7-5-5-12 0-18 11-15 21-30 33-44 7-9 16-7 23 5zm456-584c8-20 24-34 35-50 5-8 14-10 21-5 8 5 7 14 2 21l-31 41c-11 11-16 10-27-7zM784 955c9-10 15-19 28-19 11 7 10 17 3 26-10 14-22 28-34 41-5 7-13 10-21 3-6-6-6-14 0-21l24-30z" class="st2"/>
  <path d="M1118 355c-11 3-20 8-28 14-10 8-21 7-25 0-6-9-2-18 5-23 28-20 58-31 93-27 8 1 15 5 15 15-1 9-7 13-17 13-14-2-28 2-43 8zm-80 61c4 5 3 9 1 13-4 8-8 14-18 10-8-4-13-10-9-19 3-10 10-14 20-10l6 6z" class="st5"/>
</svg>
